<?xml version="1.0" encoding="utf-8"?>
<!-- Generator: Adobe Illustrator 18.1.1, SVG Export Plug-In . SVG Version: 6.00 Build 0)  -->
<!DOCTYPE svg PUBLIC "-//W3C//DTD SVG 1.1//EN" "http://www.w3.org/Graphics/SVG/1.1/DTD/svg11.dtd">
<svg version="1.1" id="Layer_1" xmlns="http://www.w3.org/2000/svg" xmlns:xlink="http://www.w3.org/1999/xlink" x="0px" y="0px"
	 viewBox="0 0 255 160" style="enable-background:new 0 0 255 160;" xml:space="preserve">
<style type="text/css">
	.st0{fill:#4984C4;}
	.st1{fill:#68BBE9;}
	.st2{fill:#F0C697;}
	.st3{fill:#876740;}
	.st4{fill:#FED09E;}
	.st5{fill:#FFFFFF;}
	.st6{fill:#E6BE91;}
	.st7{fill:#F6ADCD;}
	.st8{fill:#ED1C24;}
	.st9{fill:#414042;}
	.st10{fill:#D71920;}
	.st11{fill:#82CA9C;}
	.st12{fill:#76B88F;}
	.st13{fill:#B4DDC0;}
	.st14{fill:#B67222;}
</style>
<g>
	<g>
		<g>
			<g>
				<path class="st0" d="M66.3,95.9c-25.6,0-54.6,17.8-54.6,48.9c0,0.5,0,1.1,0,1.6c16.6,7,35.1,10.9,54.6,10.9s38-3.9,54.6-10.9
					c0-0.5,0-1.1,0-1.6C120.9,113.7,91.9,95.9,66.3,95.9z"/>
				<g>
					<g>
						<path class="st1" d="M29.3,152.2c1.1-7.5,8.1-24.9,8.1-24.9S26.8,142.8,24.8,151C26.3,151.4,27.8,151.8,29.3,152.2z
							 M95.1,127.3c0,0,7,17.5,8.1,24.9c1.5-0.4,3-0.8,4.4-1.3C105.7,142.8,95.1,127.3,95.1,127.3z"/>
					</g>
				</g>
			</g>
			<path class="st2" d="M54.3,107.9c0,5.9,4.2,10.7,12,10.7c7.7,0,12-4.8,12-10.7H54.3z"/>
		</g>
		<g>
			<g>
				<path class="st3" d="M89.3,22.5c-7.1-4.9-13.9-7.2-26.9-7.2c-31.5,0-48.8,16.7-45.3,45.9c3.4,28.1,18.8,45.3,50.4,45.3
					s45.3-17.4,50.4-45.3C120.8,44.6,113.1,22.4,89.3,22.5z"/>
				<g>
					<g>
						<g>
							<path class="st2" d="M22.1,64.5c-3.7,0.4-6.5,2-6.5,5.5c0,3.6,3.1,8,6.9,9c-0.5-2.5-1-5.1-1-7.8
								C21.5,68.9,21.7,66.7,22.1,64.5z M112.8,64.5c0.4,2.2,0.6,4.4,0.6,6.7c0,2.7-0.5,5.3-1,7.8c3.8-1,6.9-5.4,6.9-9
								C119.3,66.4,116.5,64.8,112.8,64.5z"/>
						</g>
					</g>
					<g>
						<g>
							<path class="st4" d="M112.8,64.5c-22.5-2.2-33.4-18.8-33.4-18.8C67,60.8,31.1,58.8,21.6,68.3c0,0,0,0,0,0
								c-0.1,0.9-0.1,1.8-0.1,2.8c0,22.7,20.6,41.2,46,41.2c25.4,0,46-18.4,46-41.2C113.4,68.8,113.2,66.6,112.8,64.5z"/>
						</g>
					</g>
				</g>
				<g>
					<ellipse class="st5" cx="42" cy="71" rx="9.1" ry="8.2"/>
					<ellipse cx="42" cy="71" rx="5.8" ry="5.2"/>
					<ellipse class="st5" cx="45.9" cy="67.5" rx="3" ry="2.7"/>
				</g>
				<g>
					<ellipse class="st5" cx="92.8" cy="71" rx="9.1" ry="8.2"/>
					<ellipse cx="92.8" cy="71" rx="5.8" ry="5.2"/>
					<ellipse class="st5" cx="96.7" cy="67.5" rx="3" ry="2.7"/>
				</g>
				<path class="st6" d="M57.3,84.1c2.7-6.2,16.8-5.5,20.5-2.8C70.7,80.3,60.2,82.1,57.3,84.1z"/>
				<g>
					<path class="st7" d="M81.3,92.3c0,7-6.4,10.9-14.2,10.9c-7.9,0-14.2-3.9-14.2-10.9c0,0,5-1.4,14.2-1.4
						C76.3,91,81.3,92.3,81.3,92.3z"/>
					<path class="st5" d="M67.1,91c-9.2,0-14.2,1.4-14.2,1.4c0,0.9,0,0,0,0.9c0.7,1.1,2.3,1.6,3.8,1.7c1.4,0.1,2.5,0.6,3.2-0.3
						c0.6,1.3,2,1.1,3.7,1.1c1.5,0,2.8,0.3,3.5-0.7c0.7,1.1,2,0.7,3.5,0.7c1.7,0,3.1,0.2,3.7-1.1c0.7,0.9,1.9,0.3,3.2,0.3
						c1.5,0,3.1-0.7,3.8-1.7c0-0.9,0,0,0-0.9C81.3,92.3,76.3,91,67.1,91z"/>
					<path class="st8" d="M62.1,102.7c1.7,0.4,3.8,0.6,5.8,0.6c5.5,0,10.6-2.6,12.7-7C74.2,96.5,65.9,99.1,62.1,102.7z"/>
				</g>
			</g>
			<g>
				<path d="M135,36.9c0,9-14.6,18.6-66.3,18.6S2.5,45.9,2.5,36.9c0-3.4,14.6-10.5,66.3-10.5S135,33.5,135,36.9z"/>
				<path class="st9" d="M114.8,44.4c0,0-3.1-34.2-16.6-41c-6.6-3.3-26.9,4-32,4c-5,0-25.4-7.3-32-4c-13.5,6.8-16.6,41-16.6,41
					H114.8z"/>
				<path class="st10" d="M17.7,44.4h97.1c0,0-0.3-3.7-1.2-8.8H18.9C18,40.8,17.7,44.4,17.7,44.4z"/>
				<path class="st9" d="M135,36.9c0,9-14.6,18.6-66.3,18.6S2.5,45.9,2.5,36.9c3.5,4.8,14.6,3.4,66.3,3.4S131.2,41.5,135,36.9z"/>
			</g>
		</g>
	</g>
	<path d="M113.5,67c-1.3-0.9-3-1.6-4.1-2.5c-1.4-1.1-3.1-1.8-5.2-2.1c-7.5-1.1-15.1-1.6-22.8-1c-3.9,0.3-7.6,1-10.2,3
		c-1.5,1.1-3.1,1.7-5.5,1.6c-1.8-0.1-3.3-0.3-4.4-1.2c-1.8-1.5-4.3-2.4-7.1-2.9c-3.3-0.6-6.7-0.7-10.6-0.8c-1.7,0.1-3.9,0.1-6.1,0.3
		c-3.6,0.3-7.1,0.7-10.6,1.2c-1.7,0.2-3.1,0.8-4.2,1.8c-1.1,0.9-2.3,1.7-3.8,2.3c-1.3,0.6-1.8,1.3-1.7,2.2c0.1,0.4-0.1,0.9,0.1,1.3
		c0.1,0.2,0.5,0.6,0.8,0.6c1.2,0,1.4,0.4,1.6,1c0.5,1.9,1.2,3.8,2.6,5.5c2.3,2.8,5.8,4.7,11.1,4.9c2.4,0.1,4.9,0.1,7.4,0.1
		c3.6-0.1,7.2-0.4,10.5-1.3c1.1-0.3,2.1-0.7,2.9-1.2c3.5-2.1,5.7-4.7,7-7.6c0.4-0.9,0.9-1.8,1.5-2.7c0.6-0.9,1.8-1.2,3.3-1.2
		c1.5,0,2.6,0.3,3.2,1.2c0.4,0.6,0.8,1.3,1.1,2c1.3,2.8,3.1,5.4,6.3,7.6c1.6,1.1,3.4,1.8,5.7,2.2c5.6,1,11.4,1.2,17.2,0.8
		c4.2-0.3,7.1-1.7,9.3-3.9c2-2,3-4.2,3.5-6.5c0.2-0.6,0.4-1,1.6-1c0.3,0,0.7-0.3,0.8-0.4c0.1-0.7,0.2-1.5,0-2.2
		C114.4,67.7,114,67.3,113.5,67z M60.2,68.6c-0.5,3.5-2.5,6.7-6.2,9.4c-2.7,2-6.4,2.9-10.5,3.2c-2.1,0.2-4.2,0.2-6.7,0.4
		c-1.8-0.1-4-0.3-6.2-0.5c-2.1-0.3-4-1-5.2-2.1c-3.6-3.6-5.1-7.4-3.7-11.6c0.7-2.1,2.8-3.5,6.1-4.2c3.5-0.7,7-1,10.6-1.1
		c4.5-0.2,9.1-0.2,13.5,0.5c0.9,0.1,1.8,0.3,2.6,0.5C58.8,64.2,60.6,65.9,60.2,68.6z M107,78.5c-1.7,1.9-4.7,2.7-8.1,3
		c-1.5,0.1-2.9,0.1-4.4,0.2c0,0,0,0.1,0,0.1c-2.7-0.2-5.5-0.3-8.2-0.7c-4.7-0.6-8.3-2.3-10.7-4.8c-2.2-2.3-3.6-4.7-4-7.3
		c-0.5-3,1.3-4.9,6.1-5.9c2.3-0.5,4.8-0.8,7.2-0.9c5.9-0.3,11.7-0.1,17.4,0.8c4.8,0.7,7.4,2.5,8,5.5C111.1,72,109.8,75.3,107,78.5z"
		/>
</g>
<g>
	<g>
		<g>
			<path class="st11" d="M193.5,93.2c-27.7,0-59,18.9-59,52c0,0.6,0,1.1,0,1.7c17.9,7.4,37.9,11.6,59,11.6s41.1-4.2,59-11.6
				c0-0.6,0-1.1,0-1.7C252.5,112.2,221.2,93.2,193.5,93.2z"/>
			<g>
				<g>
					<path class="st12" d="M224.7,126.7c0,0,7.5,18.6,8.8,26.5c1.6-0.4,3.2-0.9,4.8-1.4C236.1,143.1,224.7,126.7,224.7,126.7z
						 M153.5,153.2c1.2-7.9,8.8-26.5,8.8-26.5s-11.4,16.4-13.6,25.1C150.3,152.3,151.9,152.7,153.5,153.2z"/>
				</g>
			</g>
		</g>
		<g>
			<polygon class="st13" points="193.5,117.4 221.6,123.6 212.3,104.9 199.3,106 			"/>
			<polygon class="st13" points="193.5,117.4 165.4,123.6 174.7,104.9 187.7,106 			"/>
		</g>
		<path class="st2" d="M180.6,106c0,6.3,12.9,11.4,12.9,11.4s12.9-5.1,12.9-11.4H180.6z"/>
	</g>
	<g>
		<path class="st14" d="M230.3,2.1c-10.6,3.3-35.6-0.6-49.7-0.6c-13.6,0-21.7,8.4-21.1,18.4c-19.9,2.1-20.9,18.4-19.1,36.4
			c2.9,29.1,20.4,48.2,54.4,48.2c34.1,0,51.5-18.3,54.4-48.2c1.6-16,3.3-28.1-7.6-39.1C233.4,9,223.4,10.7,221,9
			C223.1,8.4,228,6.5,230.3,2.1z"/>
		<g>
			<g>
				<g>
					<path class="st2" d="M145.8,59.9c-4,0.4-7,2.1-7,5.9c0,3.8,3.3,8.5,7.4,9.6c-0.6-2.7-1.1-5.5-1.1-8.3
						C145.1,64.6,145.3,62.2,145.8,59.9z M243.8,59.9c0.4,2.3,0.7,4.7,0.7,7.1c0,2.8-0.5,5.6-1.1,8.3c4.1-1.1,7.4-5.8,7.4-9.6
						C250.8,62,247.8,60.3,243.8,59.9z"/>
				</g>
			</g>
			<g>
				<g>
					<path class="st4" d="M244.3,64C244.3,64,244.3,64,244.3,64c-7.2-8.4-37.1-9-49.4-18.9c0,2.1,2.5,4.6,4.7,5.7
						c-17,0.2-35.7-8.9-42.1-16.6c0,0-8.7,7.1-11.7,25.6c-0.4,2.3-0.6,4.6-0.6,7c0,24.2,22.2,43.7,49.7,43.7
						c27.4,0,49.7-19.6,49.7-43.7C244.4,65.9,244.4,65,244.3,64z"/>
				</g>
			</g>
		</g>
		<g>
			<g>
				<g>
					<ellipse class="st5" cx="170.2" cy="66.8" rx="9.9" ry="8.7"/>
					<ellipse cx="170.2" cy="66.8" rx="6.3" ry="5.6"/>
					<ellipse class="st5" cx="174.3" cy="63.1" rx="3.3" ry="2.9"/>
				</g>
				<g>
					<ellipse class="st5" cx="219.3" cy="66.8" rx="9.9" ry="8.7"/>
					<ellipse cx="219.3" cy="66.8" rx="6.3" ry="5.6"/>
					<ellipse class="st5" cx="223.5" cy="63.1" rx="3.3" ry="2.9"/>
				</g>
			</g>
			<path class="st6" d="M183.8,79.6c2.9-6.6,18.2-5.9,22.2-2.9C198.3,75.5,187,77.4,183.8,79.6z"/>
		</g>
		<g>
			<path class="st7" d="M208.5,88.5c0,7-6.4,10.9-14.2,10.9c-7.9,0-14.2-3.9-14.2-10.9c0,0,5-1.4,14.2-1.4
				C203.5,87.1,208.5,88.5,208.5,88.5z"/>
			<path class="st5" d="M194.3,87.1c-9.2,0-14.2,1.4-14.2,1.4c0,0.9,0,0,0,0.9c0.7,1.1,2.3,1.6,3.8,1.7c1.4,0.1,2.5,0.6,3.2-0.3
				c0.6,1.3,2,1.1,3.7,1.1c1.5,0,2.8,0.3,3.5-0.7c0.7,1.1,2,0.7,3.5,0.7c1.7,0,3.1,0.2,3.7-1.1c0.7,0.9,1.9,0.3,3.2,0.3
				c1.5,0,3.1-0.7,3.8-1.7c0-0.9,0,0,0-0.9C208.5,88.5,203.5,87.1,194.3,87.1z"/>
			<path class="st8" d="M189.3,98.8c1.7,0.4,3.8,0.6,5.8,0.6c5.5,0,10.6-2.6,12.7-7C201.4,92.6,193,95.2,189.3,98.8z"/>
		</g>
		<path d="M240,62.4c-1.3-0.9-2.9-1.7-4.1-2.7c-1.3-1.2-3-1.9-5.1-2.2c-7.3-1.2-14.8-1.8-22.3-1.1c-3.8,0.3-7.5,1-10,3.2
			c-1.4,1.2-3,1.8-5.4,1.7c-1.8-0.1-3.2-0.3-4.3-1.3c-1.8-1.6-4.2-2.6-7-3.1c-3.2-0.6-6.5-0.8-10.4-0.8c-1.6,0.1-3.8,0.1-5.9,0.3
			c-3.5,0.4-7,0.8-10.4,1.3c-1.7,0.2-3,0.9-4.1,1.9c-1,0.9-2.3,1.8-3.7,2.5c-1.3,0.6-1.8,1.4-1.7,2.4c0.1,0.5-0.1,0.9,0.1,1.4
			c0.1,0.2,0.5,0.6,0.8,0.6c1.1,0,1.4,0.5,1.5,1.1c0.5,2.1,1.2,4.1,2.6,6c2.2,3,5.6,5.1,10.9,5.3c2.4,0.1,4.8,0.1,7.2,0.1
			c3.5-0.1,7.1-0.5,10.3-1.4c1-0.3,2.1-0.7,2.9-1.2c3.4-2.3,5.6-5.1,6.9-8.2c0.4-1,0.9-1.9,1.4-2.9c0.5-1,1.7-1.3,3.2-1.2
			c1.5,0,2.6,0.3,3.1,1.2c0.4,0.7,0.7,1.4,1.1,2.1c1.3,3,3,5.8,6.2,8.2c1.5,1.2,3.4,1.9,5.6,2.4c5.5,1.1,11.2,1.3,16.8,0.8
			c4.1-0.3,7-1.9,9.1-4.2c2-2.2,2.9-4.6,3.5-7c0.2-0.7,0.4-1.1,1.5-1.1c0.3,0,0.7-0.3,0.7-0.5c0.1-0.8,0.2-1.6,0-2.4
			C241,63.2,240.5,62.7,240,62.4z M187.8,64.2c-0.5,3.8-2.4,7.2-6,10.1c-2.6,2.1-6.3,3.1-10.3,3.5c-2,0.2-4.1,0.3-6.6,0.4
			c-1.7-0.2-3.9-0.3-6.1-0.6c-2.1-0.3-4-1-5.1-2.3c-3.5-3.8-5-8-3.6-12.5c0.7-2.3,2.7-3.8,6-4.5c3.4-0.8,6.9-1.1,10.4-1.2
			c4.4-0.2,8.9-0.2,13.2,0.5c0.9,0.1,1.7,0.3,2.6,0.6C186.4,59.4,188.1,61.2,187.8,64.2z M233.7,74.7c-1.7,2.1-4.6,2.9-7.9,3.2
			c-1.4,0.1-2.9,0.1-4.3,0.2c0,0,0,0.1,0,0.1c-2.7-0.2-5.4-0.4-8-0.7c-4.6-0.6-8.1-2.4-10.5-5.2c-2.1-2.4-3.5-5.1-3.9-7.9
			c-0.4-3.3,1.3-5.3,6-6.4c2.3-0.5,4.7-0.8,7.1-0.9c5.7-0.3,11.4-0.1,17.1,0.9c4.7,0.8,7.3,2.7,7.9,5.9
			C237.7,67.8,236.4,71.4,233.7,74.7z"/>
		<g>
			<g>
				<g>
					<path class="st14" d="M244.3,64c-5.1,25.1-19.3,46-50.3,46c-31,0-43.7-20.9-48.8-46c-0.1,1.1-0.1,2.2-0.1,3.4
						c0,27.6,9.8,65.1,49.9,65.1h0c40.1,0,49.4-37.5,49.4-65.1C244.4,66.2,244.4,65.1,244.3,64z"/>
				</g>
			</g>
			<polygon class="st14" points="202.6,112.6 185.5,112.6 186.5,104.9 201.6,104.9 			"/>
			<g>
				<path class="st14" d="M229.1,87.7c-3.1,4.8-12.6,7.4-22.6,5.8C192.9,91.3,190.9,82,190.9,82s6.9-4.5,15.1-3.2
					C216,80.4,218.2,88.1,229.1,87.7z"/>
			</g>
			<g>
				<path class="st14" d="M159,86.8c3.2,4.9,12.9,7.8,22.8,6.4c13.6-1.8,15.3-11.1,15.3-11.1s-7-4.7-15.2-3.6
					C171.9,79.8,169.9,87.4,159,86.8z"/>
			</g>
		</g>
	</g>
</g>
</svg>
