<?xml version="1.0" ?><!DOCTYPE svg  PUBLIC '-//W3C//DTD SVG 1.1//EN'  'http://www.w3.org/Graphics/SVG/1.1/DTD/svg11.dtd'><svg height="128px" id="Layer_1" style="enable-background:new 0 0 128 128;" version="1.1" viewBox="0 0 128 128" width="128px" xml:space="preserve" xmlns="http://www.w3.org/2000/svg" xmlns:xlink="http://www.w3.org/1999/xlink"><g><circle cx="64" cy="64" r="64" style="fill:#F2CF61;"/><g><path d="M28,26.583c0,3.3,2.7,6,6,6h47h6v6c0,0,0,37,0,50c0,1-1,2-2,2c-13-0.006-51,0-51,0    c-3.3,0-6-2.7-6-6v-46V26.583z" style="fill:#233540;"/><rect height="58" style="fill:#1C2A33;" width="2" x="38" y="32.583"/><rect height="46" style="fill:#1C2A33;" width="2" x="44" y="44.583"/><path d="M87,36.583v35c0,2.2-1.8,4-4,4H48c-2.2,0-4-1.8-4-4v-28c0-4,3-7,7-7H87z" style="fill:#1C2A33;"/><path d="M87,22.583c0-1-1-2-2-2s-4,0-4,0H34c-3.3,0-6,2.7-6,6s2.7,6,6,6h47h6    C87,32.583,87,25.083,87,22.583z" style="fill:#406A80;"/><rect height="12" style="fill:#395F73;" width="2" x="38" y="20.583"/><path d="M34,32.583h4v-12h-4c-3.3,0-6,2.7-6,6S30.7,32.583,34,32.583z" style="fill:#E66356;"/><path d="M34,30.583c-2.168,0-4-1.832-4-4s1.832-4,4-4h53v8H34z" style="fill:#F5F5F5;"/><path d="M34,90.583h4v-58h-4c-3.3,0-6-2.7-6-6v12v46C28,87.883,30.7,90.583,34,90.583z" style="fill:#CC584C;"/><rect height="2" style="fill:#F5F5F5;" width="20" x="53" y="58.583"/><rect height="2" style="fill:#F5F5F5;" width="26" x="48" y="58.583"/><path d="M46,44.583c0,3.3,2.7,6,6,6h44h6v6c0,0,0,37,0,50c0,1-1,2-2,2c-13-0.006-48,0-48,0    c-3.3,0-6-2.7-6-6v-46V44.583z" style="fill:#233540;"/><rect height="58" style="fill:#1C2A33;" width="2" x="56" y="50.583"/><path d="M102,40.583c0-1-1-2-2-2s-4,0-4,0H52c-3.3,0-6,2.7-6,6s2.7,6,6,6h44h6    C102,50.583,102,43.083,102,40.583z" style="fill:#406A80;"/><rect height="12" style="fill:#395F73;" width="2" x="56" y="38.583"/><path d="M52,50.583h4v-12h-4c-3.3,0-6,2.7-6,6S48.7,50.583,52,50.583z" style="fill:#E66356;"/><path d="M52,48.583c-2.168,0-4-1.832-4-4s1.832-4,4-4h50v8H52z" style="fill:#F5F5F5;"/><path d="M52,108.583h4v-58h-4c-3.3,0-6-2.7-6-6v12v46C46,105.883,48.7,108.583,52,108.583z" style="fill:#CC584C;"/><rect height="2" style="fill:#F5F5F5;" width="16" x="71" y="72.583"/><rect height="2" style="fill:#F5F5F5;" width="26" x="66" y="76.583"/></g></g></svg>