<?xml version="1.0" ?><!DOCTYPE svg  PUBLIC '-//W3C//DTD SVG 1.1//EN'  'http://www.w3.org/Graphics/SVG/1.1/DTD/svg11.dtd'><svg enable-background="new 0 0 512 512" height="512px" id="Layer_1" version="1.1" viewBox="0 0 512 512" width="512px" xml:space="preserve" xmlns="http://www.w3.org/2000/svg" xmlns:xlink="http://www.w3.org/1999/xlink"><g><circle cx="256" cy="256" fill="#83B2A8" r="256"/><g><path d="M381.175,95.894V418.56H154.162c-12.922,0-23.403-10.481-23.403-23.398V117.694     c0-15.262,12.375-27.636,27.638-27.636h216.944C378.562,90.058,381.175,92.671,381.175,95.894z" fill="#B03F18"/><path d="M378.878,123.283c-1.519-1.489-3.57-2.323-5.712-2.321l-213.623,0.223     c-7.148,0-13.262-2.845-14.483-6.739c-0.154-0.486-0.224-0.973-0.217-1.451v4.879c-0.007,0.479,0.063,0.965,0.217,1.451     c1.222,3.895,7.335,6.74,14.483,6.74l213.623-0.224c2.142-0.002,4.193,0.831,5.712,2.321c1.514,1.487,2.364,3.505,2.364,5.611     v-4.879C381.242,126.788,380.392,124.77,378.878,123.283z" fill="#EDB95E"/><g><path d="M372.18,108.013v13.174H159.412c-4.685,0-8.92-1.21-11.632-3.161c-1.311-0.919-2.266-2.01-2.715-3.201      c-0.079-0.119-0.116-0.253-0.156-0.372c-0.369-1.19-0.253-2.36,0.273-3.456c0.545-1.19,1.602-2.282,3.024-3.199      c1.621-1.054,3.748-1.894,6.247-2.4c3.512-0.684,8.157-1.054,14.266-1.054h198.132c2.849,0,5.152,1.52,5.309,3.454      C372.18,107.858,372.18,107.936,372.18,108.013z" fill="#FFF8EA"/><path d="M158.727,114.825c-0.077-0.119-0.117-0.253-0.156-0.372c-0.37-1.19-0.253-2.36,0.274-3.456      c0.544-1.19,1.6-2.282,3.025-3.199c1.619-1.054,3.746-1.894,6.245-2.4c3.513-0.684,8.156-1.054,14.266-1.054H168.72      c-6.108,0-10.754,0.37-14.266,1.054c-2.499,0.506-4.626,1.346-6.247,2.4c-1.423,0.917-2.479,2.008-3.024,3.199      c-0.526,1.095-0.643,2.266-0.273,3.456c0.04,0.119,0.077,0.253,0.156,0.372c0.449,1.19,1.404,2.281,2.715,3.201      c2.712,1.951,6.947,3.161,11.632,3.161h13.661c-4.686,0-8.92-1.21-11.633-3.161      C160.132,117.106,159.175,116.016,158.727,114.825z" opacity="0.1"/><polygon fill="#B0B0B0" points="372.16,107.799 148.207,107.799 145.183,110.998 372.18,110.998     "/><path d="M372.18,114.825H145.065c0.449,1.19,1.404,2.281,2.715,3.201H372.18V114.825z" fill="#B0B0B0"/><rect height="19.342" opacity="0.25" width="34.721" x="176.389" y="90.058"/><rect fill="#6BC500" height="20.934" width="34.723" x="173.457" y="88.465"/><rect height="22.889" opacity="0.25" width="34.723" x="215.621" y="91.922"/><rect fill="#00B3D0" height="20.934" width="34.725" x="212.691" y="93.877"/><rect height="22.195" opacity="0.25" width="34.9" x="160.18" y="96.07"/><rect fill="#D91300" height="20.934" width="34.725" x="157.428" y="97.331"/></g><g><g><path d="M186.109,163.848c0,6.85-15.614,9.974-30.113,9.974c-9.505,0-19.496-1.348-25.237-4.215v-4.509       c2.734,2.03,11.24,4.822,25.237,4.822c17.291,0,26.211-4.256,26.211-6.071H186.109z" fill="#EDB95E"/><path d="M186.109,180.962c0,6.853-15.614,9.976-30.113,9.976c-9.505,0-19.496-1.349-25.237-4.217v-4.51       c2.734,2.03,11.24,4.822,25.237,4.822c17.291,0,26.211-4.254,26.211-6.071H186.109z" fill="#EDB95E"/><path d="M186.109,196.635c0,6.85-15.614,9.972-30.113,9.972c-9.505,0-19.496-1.344-25.237-4.215v-4.507       c2.734,2.028,11.24,4.82,25.237,4.82c17.291,0,26.211-4.254,26.211-6.069H186.109z" fill="#EDB95E"/></g><g><path d="M186.109,324.734c0,6.85-15.614,9.974-30.113,9.974c-9.505,0-19.496-1.346-25.237-4.215v-4.507       c2.734,2.026,11.24,4.82,25.237,4.82c17.291,0,26.211-4.256,26.211-6.071H186.109z" fill="#EDB95E"/><path d="M186.109,341.848c0,6.854-15.614,9.978-30.113,9.978c-9.505,0-19.496-1.35-25.237-4.217V343.1       c2.734,2.028,11.24,4.822,25.237,4.822c17.291,0,26.211-4.256,26.211-6.073H186.109z" fill="#EDB95E"/><path d="M186.109,357.523c0,6.85-15.614,9.972-30.113,9.972c-9.505,0-19.496-1.344-25.237-4.217v-4.509       c2.734,2.032,11.24,4.824,25.237,4.824c17.291,0,26.211-4.254,26.211-6.069H186.109z" fill="#EDB95E"/></g><g><rect fill="#EDB95E" height="239.755" width="177.909" x="173.892" y="145.794"/><path d="M353.267,387.012h-180.84V144.331h180.84V387.012z M175.354,384.084h174.983V147.259H175.354V384.084z" fill="#522100"/></g><g><polygon fill="#79A6D1" points="310.574,278.91 304.167,321.863 225.703,323.65 218.972,283.36      "/><path d="M252.598,252.828c7.398,15.754-0.314,34.972-17.234,42.916c-16.917,7.947-36.627,1.617-44.027-14.135       c-7.401-15.76,0.313-34.972,17.235-42.923C225.486,230.742,245.2,237.078,252.598,252.828z" fill="#FFFFFF"/><path d="M307.257,245.098c0.61,26.893-20.507,49.187-47.162,49.793c-26.657,0.607-48.764-20.701-49.375-47.597       c-0.614-26.889,20.504-49.181,47.156-49.786C284.535,196.9,306.644,218.208,307.257,245.098z" fill="#FFFFFF"/><path d="M268.152,288.901c-29.413,0.674-53.929-24.267-55.607-56.076c-1.299,4.587-1.939,9.45-1.825,14.47       c0.611,26.896,22.718,48.204,49.375,47.597c11.672-0.267,22.28-4.687,30.469-11.832       C283.774,286.634,276.19,288.72,268.152,288.901z" fill="#7CAAD6"/><path d="M337.16,255.351c0.405,17.799-13.566,32.557-31.21,32.956c-17.637,0.401-32.274-13.7-32.676-31.499       c-0.403-17.798,13.568-32.55,31.209-32.952C322.127,223.455,336.757,237.554,337.16,255.351z" fill="#FFFFFF"/><path d="M309.961,279.804c-17.643,0.401-32.271-13.702-32.675-31.497c-0.081-3.541,0.427-6.953,1.405-10.164       c-3.549,5.328-5.572,11.759-5.417,18.664c0.401,17.799,15.039,31.9,32.676,31.499c14.137-0.326,25.89-9.863,29.813-22.791       C330.165,273.922,320.763,279.563,309.961,279.804z" fill="#7CAAD6"/><g><path d="M308.313,327.411c-27.749,7.868-56.854,8.53-84.934,1.936c-0.145-6.354-0.289-12.702-0.436-19.056        c28.079,6.605,57.186,5.939,84.938-1.931C308.023,314.712,308.174,321.061,308.313,327.411z" fill="#FFFFFF"/><g><path d="M303.56,326.208c-0.332,0-0.635-0.229-0.712-0.569c-0.093-0.392,0.154-0.787,0.55-0.878         c0.607-0.138,1.218-0.283,1.825-0.431c0.401-0.107,0.786,0.144,0.884,0.538c0.095,0.392-0.145,0.787-0.538,0.884         c-0.615,0.15-1.229,0.294-1.845,0.437C303.668,326.201,303.615,326.208,303.56,326.208z" fill="#6A9CCC"/><path d="M262.17,330.989c-0.17,0-0.342-0.002-0.514-0.002l-1.183-0.002c-0.403-0.004-0.731-0.332-0.728-0.737         c0-0.403,0.356-0.718,0.736-0.728l1.178,0.004c0.809-0.004,1.619-0.002,2.428-0.014c0.004,0,0.008,0,0.012,0         c0.399,0,0.724,0.32,0.731,0.724c0.004,0.403-0.32,0.735-0.724,0.741C263.463,330.985,262.818,330.989,262.17,330.989z" fill="#90B6DB"/><path d="M256.858,330.926c-0.006,0-0.012,0-0.02,0c-1.21-0.03-2.422-0.071-3.636-0.127         c-0.399-0.02-0.714-0.363-0.696-0.767c0.02-0.401,0.374-0.692,0.768-0.698c1.199,0.058,2.399,0.099,3.602,0.128         c0.405,0.01,0.724,0.348,0.714,0.751C257.58,330.609,257.256,330.926,256.858,330.926z" fill="#90B6DB"/><path d="M267.716,330.892c-0.394,0-0.718-0.313-0.731-0.706c-0.014-0.405,0.303-0.743,0.706-0.759         c1.203-0.04,2.403-0.091,3.605-0.15c0.49-0.06,0.747,0.289,0.767,0.692c0.024,0.403-0.288,0.747-0.691,0.767         c-1.208,0.063-2.42,0.117-3.63,0.156C267.731,330.892,267.724,330.892,267.716,330.892z" fill="#90B6DB"/><path d="M249.625,330.598c-0.017,0-0.03,0-0.048,0c-1.208-0.079-2.416-0.168-3.622-0.269         c-0.403-0.036-0.703-0.39-0.67-0.791c0.033-0.403,0.35-0.711,0.791-0.67c1.2,0.101,2.396,0.192,3.596,0.271         c0.403,0.024,0.71,0.372,0.685,0.775C250.33,330.301,250.008,330.598,249.625,330.598z" fill="#7EA6CC"/><path d="M274.943,330.512c-0.382,0-0.702-0.294-0.729-0.678c-0.029-0.403,0.272-0.755,0.676-0.783         c1.202-0.087,2.4-0.186,3.597-0.292c0.444-0.055,0.759,0.261,0.795,0.662c0.037,0.403-0.26,0.757-0.663,0.793         c-1.206,0.111-2.413,0.209-3.621,0.296C274.977,330.512,274.961,330.512,274.943,330.512z" fill="#90B6DB"/><path d="M242.413,329.988c-0.024,0-0.05-0.002-0.075-0.004c-1.206-0.123-2.408-0.263-3.61-0.409         c-0.399-0.049-0.686-0.413-0.637-0.816c0.048-0.397,0.392-0.688,0.814-0.637c1.192,0.146,2.389,0.283,3.583,0.407         c0.402,0.042,0.695,0.399,0.652,0.803C243.104,329.71,242.784,329.988,242.413,329.988z" fill="#6A9CCC"/><path d="M282.157,329.858c-0.37,0-0.686-0.275-0.728-0.652c-0.043-0.399,0.245-0.761,0.648-0.807         c1.192-0.13,2.387-0.277,3.578-0.431c0.427-0.054,0.771,0.229,0.822,0.628c0.052,0.403-0.23,0.769-0.632,0.822         c-1.202,0.156-2.404,0.301-3.61,0.437C282.211,329.858,282.185,329.858,282.157,329.858z" fill="#6A9CCC"/><path d="M235.227,329.101c-0.034,0-0.069-0.002-0.104-0.008c-1.198-0.172-2.396-0.357-3.595-0.551         c-0.397-0.063-0.668-0.443-0.603-0.84s0.421-0.664,0.84-0.603c1.187,0.194,2.377,0.375,3.566,0.546         c0.397,0.057,0.677,0.431,0.619,0.83C235.898,328.838,235.584,329.101,235.227,329.101z" fill="#6A9CCC"/><path d="M289.334,328.921c-0.356,0-0.669-0.259-0.724-0.621c-0.06-0.399,0.215-0.775,0.612-0.834         c1.192-0.18,2.381-0.372,3.566-0.573c0.394-0.049,0.775,0.202,0.843,0.601c0.066,0.399-0.202,0.775-0.6,0.844         c-1.191,0.204-2.39,0.393-3.588,0.575C289.407,328.919,289.371,328.921,289.334,328.921z" fill="#6A9CCC"/><path d="M296.471,327.703c-0.345,0-0.652-0.243-0.72-0.593c-0.075-0.399,0.186-0.783,0.581-0.858         c1.183-0.223,2.36-0.46,3.539-0.709c0.391-0.069,0.784,0.172,0.865,0.567c0.085,0.393-0.17,0.783-0.565,0.866         c-1.186,0.249-2.374,0.49-3.563,0.716C296.562,327.699,296.514,327.703,296.471,327.703z" fill="#6A9CCC"/><path d="M228.084,327.931c-0.044,0-0.089-0.004-0.135-0.012l-1.86-0.352         c-0.397-0.079-0.654-0.461-0.579-0.858c0.079-0.397,0.467-0.663,0.858-0.58l1.848,0.348c0.397,0.075,0.659,0.457,0.588,0.854         C228.736,327.684,228.43,327.931,228.084,327.931z" fill="#6A9CCC"/></g><g><path d="M227.744,314.912c-0.048,0-0.092-0.004-0.139-0.012l-1.858-0.36c-0.396-0.077-0.654-0.46-0.577-0.858         c0.079-0.396,0.45-0.658,0.859-0.577l1.853,0.358c0.397,0.077,0.656,0.46,0.579,0.856         C228.396,314.669,228.088,314.912,227.744,314.912z" fill="#6A9CCC"/><path d="M262.621,318.925c-0.828,0-1.661-0.01-2.495-0.027c-0.405-0.012-0.726-0.346-0.716-0.751         c0.008-0.403,0.328-0.696,0.748-0.713c0.899,0.021,1.795,0.025,2.688,0.029l0.925-0.004c0,0,0,0,0.004,0         c0.401,0,0.729,0.322,0.731,0.728c0.002,0.403-0.324,0.733-0.728,0.735l-0.931,0.004         C262.771,318.925,262.696,318.925,262.621,318.925z" fill="#90B6DB"/><path d="M267.403,318.838c-0.394,0-0.718-0.308-0.731-0.704c-0.016-0.403,0.299-0.743,0.702-0.759         c1.199-0.045,2.399-0.108,3.602-0.189c0.438-0.044,0.751,0.276,0.781,0.68c0.025,0.403-0.279,0.751-0.681,0.779         c-1.22,0.083-2.434,0.148-3.644,0.193C267.421,318.838,267.413,318.838,267.403,318.838z" fill="#90B6DB"/><path d="M256.513,318.763c-0.013,0-0.024,0-0.038,0c-1.2-0.063-2.414-0.142-3.64-0.235         c-0.403-0.03-0.706-0.382-0.676-0.785c0.033-0.403,0.344-0.731,0.787-0.674c1.214,0.093,2.415,0.172,3.605,0.229         c0.401,0.022,0.712,0.366,0.692,0.771C257.224,318.459,256.899,318.763,256.513,318.763z" fill="#90B6DB"/><path d="M274.645,318.348c-0.375,0-0.691-0.285-0.729-0.662c-0.039-0.401,0.255-0.761,0.658-0.799         c1.187-0.115,2.379-0.247,3.591-0.394c0.415-0.055,0.767,0.235,0.816,0.637c0.049,0.399-0.235,0.765-0.639,0.814         c-1.222,0.154-2.432,0.285-3.628,0.399C274.688,318.344,274.667,318.348,274.645,318.348z" fill="#90B6DB"/><path d="M249.272,318.206c-0.025,0-0.049,0-0.075-0.004c-1.186-0.119-2.396-0.255-3.621-0.405         c-0.401-0.048-0.688-0.414-0.637-0.813c0.049-0.401,0.423-0.7,0.813-0.641c1.218,0.146,2.414,0.283,3.596,0.403         c0.401,0.04,0.692,0.399,0.652,0.802C249.963,317.925,249.645,318.206,249.272,318.206z" fill="#7EA6CC"/><path d="M281.849,317.464c-0.355,0-0.67-0.261-0.724-0.625c-0.059-0.401,0.218-0.773,0.617-0.831         c1.174-0.174,2.364-0.361,3.57-0.567c0.392-0.051,0.775,0.202,0.846,0.601c0.065,0.399-0.203,0.775-0.601,0.844         c-1.218,0.208-2.416,0.396-3.602,0.571C281.92,317.462,281.885,317.464,281.849,317.464z" fill="#76A2CC"/><path d="M242.064,317.33c-0.031,0-0.067-0.002-0.103-0.008c-1.179-0.166-2.376-0.346-3.602-0.538         c-0.399-0.062-0.673-0.437-0.609-0.834c0.062-0.397,0.423-0.694,0.834-0.611c1.218,0.19,2.412,0.368,3.583,0.534         c0.398,0.055,0.678,0.427,0.62,0.826C242.737,317.065,242.425,317.33,242.064,317.33z" fill="#7EA6CC"/><path d="M289.01,316.259c-0.347,0-0.652-0.245-0.718-0.595c-0.077-0.399,0.188-0.781,0.583-0.856         c1.162-0.22,2.349-0.451,3.553-0.694c0.401-0.099,0.784,0.176,0.861,0.573c0.081,0.396-0.176,0.781-0.571,0.862         c-1.214,0.245-2.401,0.479-3.572,0.696C289.101,316.255,289.055,316.259,289.01,316.259z" fill="#76A2CC"/><path d="M234.889,316.207c-0.04,0-0.079-0.004-0.123-0.01c-1.17-0.2-2.364-0.409-3.584-0.63         c-0.397-0.073-0.662-0.453-0.589-0.852c0.073-0.396,0.431-0.653,0.852-0.589c1.212,0.221,2.402,0.431,3.566,0.628         c0.399,0.067,0.666,0.445,0.602,0.842C235.549,315.956,235.24,316.207,234.889,316.207z" fill="#76A2CC"/><path d="M296.126,314.813c-0.336,0-0.64-0.233-0.713-0.577c-0.085-0.396,0.164-0.783,0.56-0.87         c1.154-0.249,2.332-0.514,3.538-0.787c0.388-0.101,0.785,0.158,0.874,0.551c0.091,0.394-0.156,0.785-0.55,0.876         c-1.21,0.275-2.392,0.538-3.555,0.791C296.229,314.808,296.178,314.813,296.126,314.813z" fill="#76A2CC"/><path d="M303.224,313.192c-0.33,0-0.629-0.224-0.71-0.562c-0.095-0.392,0.146-0.787,0.542-0.88l1.833-0.443         c0.398-0.104,0.786,0.145,0.881,0.538c0.096,0.393-0.142,0.789-0.537,0.884l-1.839,0.442         C303.338,313.188,303.279,313.192,303.224,313.192z" fill="#6A9CCC"/></g></g></g></g></g></g></svg>