<?xml version="1.0" ?><!DOCTYPE svg  PUBLIC '-//W3C//DTD SVG 1.1//EN'  'http://www.w3.org/Graphics/SVG/1.1/DTD/svg11.dtd'><svg height="128px" id="Layer_1" style="enable-background:new 0 0 128 128;" version="1.1" viewBox="0 0 128 128" width="128px" xml:space="preserve" xmlns="http://www.w3.org/2000/svg" xmlns:xlink="http://www.w3.org/1999/xlink"><style type="text/css">
	.st0{fill:#2D60A2;}
	.st1{clip-path:url(#SVGID_2_);fill:#274E84;}
	.st2{fill:#FCD1A9;}
	.st3{opacity:0.55;clip-path:url(#SVGID_4_);fill:#F49D63;}
	.st4{clip-path:url(#SVGID_6_);}
	.st5{opacity:0.55;fill:#F49D63;}
	.st6{fill:#008FDF;}
	.st7{opacity:0.71;clip-path:url(#SVGID_8_);fill:#0073BC;}
	.st8{fill:#FECD48;}
	.st9{clip-path:url(#SVGID_10_);fill:#F8AA2F;}
	.st10{fill:#FFF3E5;}
</style><g><circle class="st0" cx="64" cy="64" r="64"/><g><defs><circle cx="64" cy="64" id="SVGID_1_" r="64"/></defs><clipPath id="SVGID_2_"><use style="overflow:visible;" xlink:href="#SVGID_1_"/></clipPath><polygon class="st1" points="34.7,101.8 61,128 128,128 128,68.6 79,19.8 72.9,35.9 55,65.4 45.9,56.3   "/></g><path class="st2" d="M43.2,60.6c0,0,7.7-1.3,15.1-9.5c7.5-8.2,10.5-12.6,11.2-17.1s0.7-12.8,0.7-12.8s0.2-2.9,5.1-2.9   s7.5,7,7.1,12.7s-2.5,12.6-1.8,14.6c0.4,1.1,1.7,2.7,12.4,2.8c10.7,0.2,14.3,0.3,15.8,2.7c1.5,2.4,1.1,7.9-0.8,9.1   c-1.9,1.2-1.3,1.7-0.6,3.2c0.5,1.2,0.2,6.2-4,7.5c-2,0.6,0.6,1.6-1.1,5.4c-1.4,2.9-4.3,3.5-4.3,3.5s0.4,7.4-4.8,7.3   c-5.3,0-21.2-2.3-27.5-1.1s-15.3,5.4-15.3,5.4L43.2,60.6z"/><g><defs><path d="M43.2,60.6c0,0,7.7-1.3,15.1-9.5c7.5-8.2,10.5-12.6,11.2-17.1s0.7-12.8,0.7-12.8s0.2-2.9,5.1-2.9     s7.5,7,7.1,12.7s-1.9,12.3-0.3,13.9c1.5,1.5,0.2,3.4,10.9,3.6c10.7,0.2,14.3,0.3,15.8,2.7c1.5,2.4,1.1,7.9-0.8,9.1     c-1.9,1.2-1.3,1.7-0.6,3.2c0.5,1.2,0.2,6.2-4,7.5c-2,0.6,0.6,1.6-1.1,5.4c-1.4,2.9-4.3,3.5-4.3,3.5s0.4,7.4-4.8,7.3     c-5.3,0-21.2-2.3-27.5-1.1s-15.3,5.4-15.3,5.4L43.2,60.6z" id="SVGID_3_"/></defs><clipPath id="SVGID_4_"><use style="overflow:visible;" xlink:href="#SVGID_3_"/></clipPath><polygon class="st3" points="46.6,57.4 65.2,88.1 56.5,88.8   "/></g><g><defs><path d="M43.2,60.6c0,0,7.7-1.3,15.1-9.5c7.5-8.2,10.5-12.6,11.2-17.1s0.7-12.8,0.7-12.8s0.2-2.9,5.1-2.9     s7.5,7,7.1,12.7s-1.9,12.3-0.3,13.9c1.5,1.5,0.2,3.4,10.9,3.6c10.7,0.2,14.3,0.3,15.8,2.7c1.5,2.4,1.1,7.9-0.8,9.1     c-1.9,1.2-1.3,1.7-0.6,3.2c0.5,1.2,0.2,6.2-4,7.5c-2,0.6,0.6,1.6-1.1,5.4c-1.4,2.9-4.3,3.5-4.3,3.5s0.4,7.4-4.8,7.3     c-5.3,0-21.2-2.3-27.5-1.1s-15.3,5.4-15.3,5.4L43.2,60.6z" id="SVGID_5_"/></defs><clipPath id="SVGID_6_"><use style="overflow:visible;" xlink:href="#SVGID_5_"/></clipPath><g class="st4"><path class="st5" d="M96.6,59.5c0,0,9.8,2.7,13.2,1.4c3.4-1.3,2.4-6.2,2.4-6.2S113.3,59.5,96.6,59.5z"/><path class="st5" d="M93.9,69.5c0,0,10.5,2.7,13.9,1.3c3.4-1.3,0.8-5.2,0.8-5.2S110.5,69.5,93.9,69.5z"/><path class="st5" d="M91.5,78.5c0,0,11.9,2.7,15.3,1.3c3.4-1.3,1.3-6.4,1.3-6.4S108.2,78.5,91.5,78.5z"/></g></g><path class="st6" d="M46.6,57.5l11,34.7c0.5,1.6-0.4,3.2-1.9,3.7l-18.3,6.2c-1.5,0.5-3.2-0.3-3.8-1.8L20.7,66.1   c-0.6-1.6,0.3-3.4,1.9-3.9l20.2-6.6C44.4,55.1,46.1,55.9,46.6,57.5z"/><g><defs><polygon id="SVGID_7_" points="45.7,54.6 58.5,95.1 34.7,103.2 19.6,63.1    "/></defs><clipPath id="SVGID_8_"><use style="overflow:visible;" xlink:href="#SVGID_7_"/></clipPath><polygon class="st7" points="40.8,94.4 46.5,100.1 56.9,99.6 58.5,98.1 44.2,83.8   "/></g><g><path class="st8" d="M45.4,86.6l-0.6-1.9c-0.5-1.4-1.9-2.1-3.3-1.7c-1.4,0.5-2.1,1.9-1.7,3.3l0.6,1.9c-0.9,1.2-1.2,2.7-0.7,4.3    c0.8,2.4,3.4,3.8,5.9,3c2.4-0.8,3.8-3.4,3-5.9C48,88.1,46.8,87,45.4,86.6z"/></g><g><defs><path d="M45.4,86.6l-0.6-1.9c-0.5-1.4-1.9-2.1-3.3-1.7c-1.4,0.5-2.1,1.9-1.7,3.3l0.6,1.9c-0.9,1.2-1.2,2.7-0.7,4.3     c0.8,2.4,3.4,3.8,5.9,3c2.4-0.8,3.8-3.4,3-5.9C48,88.1,46.8,87,45.4,86.6z" id="SVGID_9_"/></defs><clipPath id="SVGID_10_"><use style="overflow:visible;" xlink:href="#SVGID_9_"/></clipPath><polygon class="st9" points="47.1,88.8 48.9,90.6 48.3,94.7 44,96.2 42.7,94.9 42.9,94.3 40,91.5   "/></g><path class="st10" d="M43,87.5l1.4,1.4c0.1,0.1,0.2,0.1,0.3,0.1l1.9-0.4c0.3-0.1,0.6,0.3,0.4,0.5L46.2,91c-0.1,0.1-0.1,0.2,0,0.4   l1,1.7c0.2,0.3-0.1,0.6-0.4,0.6l-2-0.3c-0.1,0-0.2,0-0.3,0.1l-1.4,1.4c-0.2,0.2-0.6,0.1-0.7-0.2l-0.3-2c0-0.1-0.1-0.2-0.2-0.3   l-1.8-0.8c-0.3-0.1-0.3-0.5,0-0.7l1.8-0.9c0.1-0.1,0.2-0.2,0.2-0.3l0.3-2C42.4,87.4,42.8,87.3,43,87.5z"/></g></svg>