<?xml version="1.0" ?><!DOCTYPE svg  PUBLIC '-//W3C//DTD SVG 1.1//EN'  'http://www.w3.org/Graphics/SVG/1.1/DTD/svg11.dtd'><svg height="256px" id="图层_1" style="enable-background:new 0 0 256 256;" version="1.1" viewBox="0 0 256 256" width="256px" xml:space="preserve" xmlns="http://www.w3.org/2000/svg" xmlns:xlink="http://www.w3.org/1999/xlink"><g id="Library"><g><linearGradient gradientUnits="userSpaceOnUse" id="SVGID_1_" x1="106.8579" x2="106.8579" y1="-4.4868" y2="186.0811"><stop offset="0" style="stop-color:#F9AA2D"/><stop offset="1" style="stop-color:#E09115"/></linearGradient><path d="M198.325,211.28c0,5.189-4.244,9.434-9.43,9.434H24.823c-5.188,0-9.432-4.244-9.432-9.434    V10.43c0-5.186,4.244-9.43,9.432-9.43h164.072c5.186,0,9.43,4.244,9.43,9.43V211.28z" style="fill:url(#SVGID_1_);"/><g><path d="M59.455,1H26.45c-5.186,0-9.43,4.244-9.43,9.43V211.28     c0,5.189,4.244,9.434,9.43,9.434h33.005V1z" style="opacity:0.2;fill:#2C2C2C;"/></g><g><linearGradient gradientUnits="userSpaceOnUse" id="SVGID_2_" x1="36.6094" x2="36.6094" y1="-0.9858" y2="215.9318"><stop offset="0" style="stop-color:#97671B"/><stop offset="1" style="stop-color:#7E520C"/></linearGradient><path d="M57.827,1H24.823c-5.188,0-9.432,4.244-9.432,9.43V211.28c0,5.189,4.244,9.434,9.432,9.434     h33.004V1z" style="fill:url(#SVGID_2_);"/></g><g style="opacity:0.2;"><path d="M188.896,217.071H24.823c-5.188,0-9.432-4.244-9.432-9.434v3.643c0,5.189,4.244,9.434,9.432,9.434     h164.072c5.186,0,9.43-4.244,9.43-9.434v-3.643C198.325,212.827,194.081,217.071,188.896,217.071z" style="fill:#2C2C2C;"/></g></g><g><linearGradient gradientUnits="userSpaceOnUse" id="SVGID_3_" x1="165.8545" x2="165.8545" y1="35.29" y2="247.0285"><stop offset="0" style="stop-color:#54BDF1"/><stop offset="1" style="stop-color:#3AA5D9"/></linearGradient><path d="M240.608,245.57c0,5.187-4.24,9.43-9.43,9.43H91.101V35.29h140.078    c5.189,0,9.43,4.244,9.43,9.43V245.57z" style="fill:url(#SVGID_3_);"/><g><path d="M101.736,35.29H68.735c-5.188,0-9.432,4.244-9.432,9.43v200.85     c0,5.187,4.243,9.43,9.432,9.43h33.001V35.29z" style="opacity:0.2;fill:#2C2C2C;"/></g><g><linearGradient gradientUnits="userSpaceOnUse" id="SVGID_4_" x1="78.8911" x2="78.8911" y1="22.6919" y2="256.4155"><stop offset="0" style="stop-color:#367899"/><stop offset="1" style="stop-color:#236281"/></linearGradient><path d="M100.107,35.29H67.104c-5.187,0-9.43,4.244-9.43,9.43v200.85c0,5.187,4.243,9.43,9.43,9.43     h33.003V35.29z" style="fill:url(#SVGID_4_);"/></g><g style="opacity:0.2;"><path d="M231.179,251.357H67.104c-5.187,0-9.43-4.243-9.43-9.43v3.643c0,5.187,4.243,9.43,9.43,9.43     h164.074c5.189,0,9.43-4.243,9.43-9.43v-3.643C240.608,247.114,236.368,251.357,231.179,251.357z" style="fill:#2C2C2C;"/></g><polygon points="141.817,37.414 142.112,127.799 164.316,101.157 185.335,127.799     185.63,37.414   " style="opacity:0.1;fill:#2C2C2C;"/><linearGradient gradientUnits="userSpaceOnUse" id="SVGID_5_" x1="163.7236" x2="163.7236" y1="42.5" y2="120.649"><stop offset="0" style="stop-color:#F15454"/><stop offset="1" style="stop-color:#D93B3B"/></linearGradient><polygon points="141.817,35.593 142.112,125.978 164.316,99.335 185.335,125.978 185.63,35.593       " style="fill:url(#SVGID_5_);"/><g style="opacity:0.2;"><polygon points="185.335,122.335 164.316,95.693 142.112,122.335 141.83,35.593 141.817,35.593      142.112,125.978 164.316,99.335 185.335,125.978 185.63,35.593 185.617,35.593    " style="fill:#2C2C2C;"/></g></g></g></svg>