<?xml version="1.0" ?><!DOCTYPE svg  PUBLIC '-//W3C//DTD SVG 1.1//EN'  'http://www.w3.org/Graphics/SVG/1.1/DTD/svg11.dtd'><svg height="512px" id="Слой_1" style="enable-background:new 0 0 512 512;" version="1.1" viewBox="0 0 512 512" width="512px" xml:space="preserve" xmlns="http://www.w3.org/2000/svg" xmlns:xlink="http://www.w3.org/1999/xlink"><path d="M256,506.01C117.929,506.01,6,394.076,6,256C6,117.922,117.929,5.99,256,5.99  c138.074,0,250,111.932,250,250.01C506,394.076,394.074,506.01,256,506.01z" style="fill:#EED8CF;"/><path d="M306.842,101.098c0-0.079,0.007-0.156,0.007-0.235c-2.293-0.463-4.72-0.617-7.202-0.378  c-8.308,0.847-14.191,5.79-17.482,12.46l-25.121-25.118l-0.179,0.183c-8.922-9.164-21.091-15.986-35.137-18.896  c-1.982,4.474-3.394,9.29-4.023,14.443c-1.982,16.718,4.537,32.336,15.938,42.1l-0.129,0.126l13.92,13.918  c-0.206-0.085-0.391-0.156-0.603-0.244c-35.163-15.215-72.176-3.647-66.628,64.169c2.015,18.796,8.292,36.172,20.183,48.05  l-0.239,0.239l18.662,18.662h-100.29v43.495h0.524l-0.344,0.343l43.912,43.913v8.55h8.551l2.224,2.224h-69.491v43.488h0.341  l-0.242,0.242l83.633,83.635c21.741,6.171,44.655,9.545,68.374,9.545c124.304,0,227.367-90.737,246.696-209.579L307.104,100.836  L306.842,101.098z" style="opacity:0.2;fill:#231F20;"/><g><g><path d="M246.83,139.456c17.625,7.291,21.701,6.194,36.608-0.073c35.077-15.387,72.179-3.98,66.953,63.866    c-3.54,34.277-21.098,64.034-61.518,64.114c-8.206,0.026-16.113-1.17-23.451-3.41c-7.297,2.279-15.212,3.505-23.451,3.529    c-40.386,0.075-58.091-29.592-61.769-63.857C174.654,135.809,211.666,124.241,246.83,139.456z" style="fill:#DC4225;"/><path d="M221.728,69.113c31.69,6.567,53.928,32.991,50.508,61.484c-0.06,0.63-0.192,1.259-0.322,1.882    c-1.607-4.241-3.675-8.459-6.181-12.554c-4.845-8.004-10.804-14.663-17.32-19.863c3.97,10.171,9.969,22.478,17.446,35.51    c-3.182,0.386-6.409,0.454-9.717,0.063c-24.306-2.9-41.5-26.218-38.438-52.079C218.334,78.403,219.747,73.587,221.728,69.113z" style="fill:#103754;"/><path d="M248.414,100.062c3.97,10.171,9.969,22.478,17.446,35.51c-3.182,0.386-6.409,0.454-9.717,0.063    c-24.306-2.9-41.5-26.218-38.438-52.079c0.63-5.153,2.042-9.969,4.023-14.443" style="fill:#155079;"/><path d="M306.849,100.863c0.245,15.596-10.566,27.542-26.5,30.996c-0.305,0.066-1.339-5.694-1.16-7.827    c0.921-11.76,7.964-22.275,20.458-23.547C302.129,100.246,304.556,100.4,306.849,100.863z" style="fill:#103754;"/><path d="M265.13,144.493c-4.792-0.076-10.068-1.631-18.301-5.038    c-35.163-15.215-72.176-3.647-66.628,64.169c3.679,34.265,21.383,63.932,61.769,63.857c8.126-0.025,15.941-1.233,23.159-3.448    V144.493z" style="fill:#EC632B;"/></g><g><rect height="43.488" style="fill:#EC632B;" width="287.228" x="103.894" y="369.101"/><g><path d="M137.801,380.692v20.311H125.81v-20.311H137.801 M145.562,372.928h-27.514v35.838h27.514V372.928     L145.562,372.928z" style="fill:#155079;"/><path d="M369.215,380.692v20.311h-11.991v-20.311H369.215 M376.976,372.928h-27.514v35.838h27.514V372.928     L376.976,372.928z" style="fill:#155079;"/></g><path d="M330.764,380.692v20.311h-166.51v-20.311H330.764 M338.526,372.928H156.489v35.838h182.037V372.928    L338.526,372.928z" style="fill:#155079;"/><rect height="43.495" style="fill:#155079;" width="263.287" x="118.519" y="270.576"/><rect height="43.489" style="fill:#DC4225;" width="2.651" x="139.822" y="270.582"/><rect height="43.489" style="fill:#DC4225;" width="2.645" x="361.738" y="270.582"/><path d="M347.845,281.063v22.525H152.489v-22.525H347.845 M350.506,278.4H149.824v27.851h200.682V278.4    L350.506,278.4z" style="fill:#FFFFFF;"/><rect height="51.474" style="fill:#DC4225;" width="255.624" x="162.61" y="315.403"/><rect height="51.474" style="fill:#FFFFFF;" width="42.995" x="178.588" y="315.403"/><rect height="51.481" style="fill:#FFFFFF;" width="7.987" x="230.511" y="315.403"/><g><g><path d="M406.754,356.225h-32.844v-30.177h32.844V356.225L406.754,356.225z M379.234,350.899h22.198      v-19.525h-22.198V350.899L379.234,350.899z" style="fill:#EC632B;"/></g></g></g></g></svg>