<?xml version="1.0" ?><!DOCTYPE svg  PUBLIC '-//W3C//DTD SVG 1.1//EN'  'http://www.w3.org/Graphics/SVG/1.1/DTD/svg11.dtd'><svg enable-background="new 0 0 512 512" height="512px" id="Layer_1" version="1.1" viewBox="0 0 512 512" width="512px" xml:space="preserve" xmlns="http://www.w3.org/2000/svg" xmlns:xlink="http://www.w3.org/1999/xlink"><g><g><circle cx="256" cy="256" fill="#83B2A8" r="256"/></g><g><rect fill="#002856" height="85.12" width="266.88" x="112.16" y="200.96"/><g><polygon fill="#ECF0F1" points="343.2,102.4 343.2,316.8 146.08,316.8 146.08,157.305 212.032,102.4     "/><g><polygon opacity="0.2" points="239.125,102.4 210.08,157.305 210.08,102.4      "/><polygon fill="#FFFFFF" points="210.08,102.205 210.08,157.44 144.078,157.44      "/><rect fill="#0F5092" height="7.68" opacity="0.7" width="85.12" x="201.12" y="166.4"/><rect fill="#0F5092" height="7.68" opacity="0.7" width="162.56" x="163.36" y="274.56"/><rect fill="#0F5092" height="7.68" opacity="0.7" width="162.56" x="163.36" y="204.16"/><rect fill="#0F5092" height="7.68" opacity="0.7" width="162.56" x="163.36" y="222.08"/><rect fill="#0F5092" height="7.68" opacity="0.7" width="162.56" x="163.36" y="239.36"/><rect fill="#0F5092" height="7.68" opacity="0.7" width="162.56" x="163.36" y="257.28"/></g></g><g><path d="M100.64,275.33c0-2.192-1.778-3.97-3.97-3.97h-2.94c-2.192,0-3.97,1.778-3.97,3.97v20.86      c0,2.192,1.778,3.97,3.97,3.97h2.94c2.192,0,3.97-1.778,3.97-3.97V275.33z" fill="#231F20"/><rect fill="#231F20" height="8.32" width="6.4" x="98.72" y="281.6"/></g><path d="M388.64,285.44h-18.56v-58.445c0-2.795,3.492-4.915,7.487-4.915h4.13c3.995,0,6.942,2.12,6.942,4.915     V285.44z" fill="#8C1B06"/><path d="M122.4,285.44h-18.56v-58.445c0-2.795,3.87-4.915,7.863-4.915h4.135c3.993,0,6.563,2.12,6.563,4.915     V285.44z" fill="#8C1B06"/><rect fill="#821906" height="33.92" width="250.24" x="119.84" y="282.24"/><path d="M416.16,396.8H75.04v-2.045c0-7.7,6.748-13.314,14.453-13.314h313.04c7.705,0,13.628,5.614,13.628,13.314     V396.8z" fill="#8C1B06"/><path d="M174.84,278.757" fill="none" stroke="#000000" stroke-linecap="round" stroke-miterlimit="10" stroke-width="2.0663"/><path d="M188.388,265.902" fill="none" stroke="#000000" stroke-linecap="round" stroke-miterlimit="10" stroke-width="2.0663"/><path d="M246.098,315.033c33.42,0,61.575-14.36,70.21-33.115c-11.49,16.19-38.603,28-70.226,28     c-31.55,0-58.604-11.755-70.14-27.888C184.638,300.73,212.743,315.033,246.098,315.033z" opacity="0.3"/><g><g><polygon fill="#D35400" points="393.753,255.36 97.585,255.36 97.928,249.6 394.098,249.6      "/><circle cx="93.107" cy="252.01" fill="#F39C12" r="8.265"/><circle cx="400.985" cy="252.01" fill="#F39C12" r="8.265"/></g><path d="M160.16,253.725c0,2.67-2.165,4.835-4.838,4.835h-11.445c-2.672,0-4.837-2.165-4.837-4.835v-2.49      c0-2.67,2.165-4.835,4.837-4.835h11.445c2.673,0,4.838,2.165,4.838,4.835V253.725z" fill="#F39C12"/><path d="M340.64,253.725c0,2.67-2.165,4.835-4.835,4.835h-11.45c-2.67,0-4.835-2.165-4.835-4.835v-2.49      c0-2.67,2.165-4.835,4.835-4.835h11.45c2.67,0,4.835,2.165,4.835,4.835V253.725z" fill="#F39C12"/></g><g opacity="0.2"><path d="M295.228,290.545c-3.521-2.93-7.048-5.855-10.575-8.775c-0.117,0.095-0.235,0.19-0.354,0.285      c3.265,3.13,6.46,6.317,9.585,9.555c-0.128,0.377-0.022,0.805,0.56,1.377c0.683,0.66,1.365,1.323,2.045,1.983      c0.195,0.19,1.128,0.162,1.835-0.395c0.705-0.558,0.822-1.365,0.315-1.813c-0.615-0.545-1.235-1.088-1.853-1.633      C296.475,290.86,295.643,290.42,295.228,290.545z"/><path d="M289.1,295.143c-3.09-3.25-6.18-6.502-9.268-9.752c-0.127,0.08-0.255,0.16-0.382,0.24      c2.803,3.43,5.535,6.903,8.197,10.415c-0.173,0.36-0.12,0.792,0.38,1.413c0.588,0.723,1.175,1.445,1.763,2.167      c0.165,0.205,1.085,0.275,1.848-0.195c0.76-0.475,0.975-1.255,0.532-1.75c-0.537-0.6-1.077-1.198-1.617-1.795      C290.282,295.585,289.52,295.065,289.1,295.143z"/><path d="M282.5,299.01c-2.628-3.525-5.247-7.052-7.862-10.585c-0.135,0.068-0.271,0.133-0.405,0.2      c2.31,3.675,4.555,7.388,6.728,11.127c-0.215,0.335-0.218,0.768,0.195,1.433c0.487,0.772,0.975,1.545,1.46,2.317      c0.138,0.22,1.032,0.385,1.842-0.005c0.808-0.388,1.115-1.135,0.74-1.67c-0.455-0.645-0.907-1.292-1.362-1.935      C283.607,299.567,282.923,298.975,282.5,299.01z"/><path d="M275.513,302.145c-2.141-3.75-4.266-7.505-6.378-11.265c-0.143,0.055-0.282,0.105-0.425,0.155      c1.795,3.875,3.525,7.775,5.192,11.69c-0.255,0.313-0.314,0.74,0.008,1.44c0.382,0.813,0.765,1.625,1.145,2.44      c0.107,0.23,0.971,0.48,1.815,0.175c0.845-0.305,1.24-1.01,0.939-1.577c-0.364-0.685-0.729-1.368-1.097-2.053      C276.53,302.808,275.933,302.155,275.513,302.145z"/><path d="M268.218,304.547c-1.63-3.925-3.24-7.857-4.828-11.792c-0.147,0.035-0.292,0.075-0.439,0.113      c1.263,4.017,2.462,8.052,3.603,12.103c-0.293,0.285-0.405,0.702-0.178,1.425c0.272,0.845,0.548,1.688,0.82,2.53      c0.074,0.24,0.895,0.573,1.768,0.35c0.875-0.22,1.354-0.882,1.13-1.472c-0.272-0.715-0.545-1.428-0.82-2.143      C269.138,305.3,268.63,304.598,268.218,304.547z"/><path d="M260.695,306.215c-1.103-4.052-2.181-8.11-3.228-12.175c-0.15,0.025-0.301,0.05-0.45,0.072      c0.715,4.113,1.375,8.235,1.978,12.365c-0.325,0.255-0.492,0.66-0.357,1.4c0.16,0.865,0.322,1.73,0.482,2.593      c0.045,0.245,0.813,0.65,1.707,0.512c0.891-0.137,1.45-0.748,1.306-1.357c-0.181-0.735-0.357-1.47-0.535-2.205      C261.508,307.053,261.098,306.305,260.695,306.215z"/><path d="M253.032,307.147c-0.569-4.13-1.1-8.265-1.6-12.402c-0.15,0.01-0.303,0.02-0.455,0.027      c0.162,4.158,0.272,8.317,0.335,12.478c-0.355,0.225-0.572,0.612-0.537,1.36c0.047,0.875,0.097,1.748,0.145,2.623      c0.013,0.248,0.723,0.72,1.625,0.667c0.902-0.055,1.532-0.61,1.468-1.23c-0.08-0.745-0.163-1.492-0.245-2.24      C253.728,308.055,253.417,307.275,253.032,307.147z"/><path d="M245.308,307.345c-0.025-4.16-0.01-8.323,0.047-12.483c-0.152-0.005-0.302-0.007-0.454-0.015      c-0.396,4.15-0.833,8.295-1.313,12.44c-0.383,0.188-0.65,0.552-0.713,1.302c-0.065,0.873-0.132,1.745-0.197,2.62      c-0.021,0.25,0.625,0.785,1.529,0.815c0.903,0.03,1.605-0.465,1.618-1.085c0.018-0.75,0.032-1.5,0.047-2.252      C245.88,308.31,245.675,307.505,245.308,307.345z"/><path d="M237.603,306.805c0.52-4.143,1.085-8.28,1.695-12.41c-0.15-0.02-0.3-0.04-0.45-0.06c-0.948,4.09-1.93,8.175-2.95,12.252      c-0.405,0.15-0.717,0.49-0.877,1.228c-0.178,0.863-0.357,1.728-0.535,2.59c-0.052,0.245,0.522,0.84,1.417,0.955      c0.895,0.11,1.655-0.315,1.75-0.93c0.113-0.748,0.225-1.49,0.34-2.235C238.047,307.82,237.95,307,237.603,306.805z"/><path d="M230.002,305.525c1.058-4.075,2.165-8.137,3.325-12.19c-0.145-0.032-0.295-0.065-0.44-0.098      c-1.49,3.975-3.01,7.948-4.555,11.908c-0.425,0.115-0.783,0.422-1.038,1.14c-0.292,0.845-0.58,1.685-0.87,2.527      c-0.083,0.24,0.413,0.888,1.292,1.083c0.877,0.2,1.69-0.155,1.865-0.76c0.21-0.73,0.417-1.46,0.627-2.19      C230.315,306.575,230.322,305.752,230.002,305.525z"/><path d="M222.59,303.505c1.583-3.955,3.225-7.895,4.923-11.815c-0.143-0.047-0.285-0.095-0.43-0.145      c-2.015,3.815-4.055,7.623-6.115,11.42c-0.44,0.073-0.837,0.345-1.185,1.035c-0.4,0.813-0.797,1.625-1.195,2.435      c-0.115,0.23,0.3,0.925,1.15,1.205c0.855,0.282,1.713,0.007,1.965-0.578c0.3-0.708,0.605-1.415,0.91-2.123      C222.765,304.585,222.88,303.763,222.59,303.505z"/><path d="M215.442,300.745c2.098-3.79,4.255-7.555,6.475-11.295c-0.138-0.058-0.275-0.118-0.413-0.183      c-2.525,3.6-5.063,7.192-7.617,10.777c-0.45,0.027-0.883,0.258-1.32,0.913c-0.505,0.77-1.01,1.542-1.51,2.313      c-0.145,0.215,0.18,0.95,0.998,1.32c0.817,0.365,1.712,0.178,2.042-0.38c0.393-0.677,0.787-1.355,1.182-2.032      C215.478,301.84,215.703,301.03,215.442,300.745z"/><path d="M208.647,297.243c2.59-3.573,5.243-7.113,7.96-10.618c-0.13-0.075-0.26-0.15-0.39-0.228      c-3.007,3.333-6.02,6.658-9.045,9.982c-0.455-0.022-0.917,0.165-1.44,0.775c-0.605,0.72-1.21,1.438-1.813,2.158      c-0.17,0.203,0.063,0.973,0.837,1.425c0.772,0.453,1.695,0.355,2.095-0.17c0.48-0.635,0.962-1.272,1.445-1.907      C208.542,298.34,208.868,297.555,208.647,297.243z"/><path d="M202.28,292.998c3.058-3.308,6.18-6.573,9.368-9.79c-0.123-0.09-0.243-0.18-0.365-0.272      c-3.455,3.015-6.912,6.025-10.375,9.032c-0.452-0.07-0.945,0.068-1.547,0.623c-0.697,0.658-1.397,1.315-2.092,1.975      c-0.198,0.185-0.06,0.985,0.66,1.522c0.72,0.54,1.66,0.54,2.127,0.058c0.565-0.59,1.13-1.178,1.697-1.763      C202.038,294.087,202.465,293.335,202.28,292.998z"/></g><g><path d="M293.952,291.25c-3.478-2.98-6.96-5.958-10.442-8.93c-0.12,0.093-0.24,0.185-0.359,0.278      c3.217,3.18,6.364,6.412,9.439,9.697c-0.133,0.377-0.032,0.808,0.538,1.385c0.675,0.672,1.347,1.342,2.02,2.015      c0.188,0.193,1.122,0.18,1.838-0.365c0.715-0.55,0.845-1.353,0.342-1.81c-0.607-0.555-1.217-1.105-1.827-1.66      C295.195,291.585,294.367,291.135,293.952,291.25z" fill="#FFFFFF"/><path d="M287.755,295.755c-3.04-3.295-6.082-6.59-9.117-9.89c-0.13,0.08-0.26,0.157-0.391,0.235      c2.753,3.47,5.436,6.985,8.043,10.538c-0.178,0.357-0.133,0.79,0.357,1.417c0.577,0.73,1.155,1.46,1.73,2.195      c0.162,0.208,1.079,0.29,1.85-0.17c0.77-0.46,0.995-1.235,0.56-1.74c-0.529-0.605-1.06-1.212-1.59-1.82      C288.933,296.215,288.178,295.685,287.755,295.755z" fill="#FFFFFF"/><path d="M281.098,299.525c-2.575-3.565-5.141-7.13-7.7-10.703c-0.138,0.065-0.275,0.13-0.41,0.195      c2.255,3.71,4.442,7.453,6.561,11.228c-0.221,0.33-0.23,0.762,0.172,1.433c0.478,0.782,0.953,1.563,1.428,2.342      c0.133,0.22,1.025,0.4,1.84,0.022c0.815-0.377,1.133-1.118,0.766-1.66c-0.443-0.652-0.888-1.305-1.333-1.958      C282.197,300.098,281.522,299.498,281.098,299.525z" fill="#FFFFFF"/><path d="M274.063,302.555c-2.083-3.78-4.15-7.568-6.205-11.36c-0.143,0.053-0.285,0.1-0.428,0.15      c1.737,3.9,3.408,7.825,5.016,11.765c-0.261,0.31-0.325,0.735-0.013,1.44c0.37,0.818,0.74,1.638,1.107,2.458      c0.104,0.233,0.963,0.495,1.813,0.203s1.255-0.993,0.965-1.565c-0.354-0.69-0.71-1.38-1.067-2.067      C275.072,303.23,274.485,302.57,274.063,302.555z" fill="#FFFFFF"/><path d="M266.732,304.845c-1.57-3.948-3.12-7.903-4.65-11.863c-0.145,0.035-0.292,0.073-0.439,0.107      c1.2,4.038,2.34,8.09,3.42,12.153c-0.295,0.282-0.415,0.697-0.197,1.425c0.263,0.848,0.52,1.695,0.779,2.542      c0.073,0.24,0.888,0.585,1.766,0.377c0.875-0.21,1.365-0.865,1.149-1.458c-0.262-0.717-0.524-1.438-0.787-2.155      C267.643,305.615,267.145,304.902,266.732,304.845z" fill="#FFFFFF"/><path d="M259.188,306.4c-1.043-4.067-2.058-8.14-3.045-12.22c-0.15,0.022-0.3,0.045-0.45,0.065      c0.652,4.125,1.25,8.255,1.79,12.393c-0.327,0.25-0.5,0.652-0.378,1.397c0.148,0.865,0.298,1.732,0.443,2.597      c0.042,0.245,0.805,0.663,1.699,0.538c0.893-0.125,1.463-0.725,1.325-1.337c-0.167-0.737-0.335-1.473-0.502-2.212      C259.987,307.25,259.59,306.498,259.188,306.4z" fill="#FFFFFF"/><path d="M251.51,307.22c-0.505-4.14-0.975-8.283-1.412-12.428c-0.15,0.01-0.303,0.018-0.455,0.022      c0.1,4.16,0.149,8.32,0.147,12.482c-0.357,0.218-0.583,0.603-0.558,1.35c0.035,0.875,0.07,1.75,0.105,2.623      c0.01,0.25,0.712,0.732,1.614,0.692s1.545-0.587,1.488-1.205c-0.07-0.748-0.141-1.498-0.213-2.245      C252.192,308.138,251.897,307.35,251.51,307.22z" fill="#FFFFFF"/><path d="M243.782,307.3c0.04-4.16,0.118-8.32,0.237-12.48c-0.152-0.005-0.302-0.012-0.454-0.02      c-0.458,4.14-0.958,8.28-1.5,12.415c-0.385,0.185-0.658,0.545-0.732,1.292c-0.078,0.873-0.155,1.745-0.235,2.618      c-0.022,0.248,0.615,0.795,1.518,0.84c0.902,0.042,1.609-0.442,1.632-1.06c0.028-0.752,0.056-1.502,0.08-2.252      C244.343,308.275,244.15,307.467,243.782,307.3z" fill="#FFFFFF"/><path d="M236.09,306.645c0.58-4.135,1.208-8.263,1.88-12.385c-0.15-0.02-0.3-0.04-0.45-0.065      c-1.007,4.075-2.053,8.145-3.132,12.205c-0.405,0.147-0.725,0.482-0.895,1.218c-0.193,0.86-0.385,1.72-0.575,2.58      c-0.055,0.245,0.51,0.848,1.402,0.973c0.893,0.127,1.663-0.288,1.765-0.9c0.123-0.745,0.248-1.487,0.373-2.23      C236.52,307.665,236.433,306.845,236.09,306.645z" fill="#FFFFFF"/><path d="M228.51,305.25c1.118-4.058,2.288-8.103,3.508-12.138c-0.145-0.035-0.295-0.07-0.44-0.105      c-1.55,3.953-3.127,7.903-4.735,11.84c-0.425,0.107-0.787,0.407-1.052,1.125c-0.303,0.837-0.605,1.675-0.908,2.512      c-0.085,0.238,0.4,0.893,1.275,1.103s1.695-0.13,1.878-0.732c0.22-0.725,0.44-1.455,0.66-2.183      C228.808,306.308,228.828,305.482,228.51,305.25z" fill="#FFFFFF"/><path d="M221.127,303.12c1.643-3.933,3.342-7.845,5.1-11.74c-0.143-0.05-0.285-0.1-0.428-0.15      c-2.072,3.785-4.17,7.56-6.287,11.328c-0.44,0.063-0.84,0.33-1.2,1.018c-0.41,0.805-0.822,1.61-1.23,2.415      c-0.118,0.227,0.285,0.927,1.132,1.222c0.848,0.295,1.71,0.033,1.97-0.547c0.313-0.705,0.627-1.408,0.942-2.11      C221.288,304.203,221.413,303.38,221.127,303.12z" fill="#FFFFFF"/><path d="M214.022,300.252c2.155-3.757,4.37-7.49,6.643-11.192c-0.138-0.063-0.272-0.127-0.408-0.192      c-2.58,3.563-5.172,7.115-7.78,10.662c-0.45,0.02-0.885,0.243-1.335,0.893c-0.515,0.763-1.03,1.528-1.545,2.288      c-0.145,0.218,0.17,0.955,0.98,1.335c0.813,0.38,1.71,0.205,2.045-0.35c0.405-0.67,0.81-1.34,1.215-2.01      C214.042,301.348,214.277,300.54,214.022,300.252z" fill="#FFFFFF"/><path d="M207.28,296.65c2.643-3.535,5.348-7.035,8.118-10.495c-0.13-0.08-0.257-0.157-0.385-0.235      c-3.055,3.285-6.12,6.567-9.193,9.843c-0.455-0.028-0.922,0.152-1.455,0.755c-0.615,0.71-1.228,1.42-1.843,2.13      c-0.172,0.203,0.05,0.973,0.815,1.438c0.768,0.462,1.69,0.38,2.098-0.138c0.493-0.63,0.982-1.257,1.478-1.887      C207.157,297.745,207.498,296.965,207.28,296.65z" fill="#FFFFFF"/><path d="M200.978,292.31c3.107-3.265,6.28-6.48,9.513-9.65c-0.12-0.09-0.238-0.185-0.358-0.278      c-3.5,2.963-7.005,5.92-10.51,8.877c-0.455-0.077-0.945,0.05-1.56,0.6c-0.708,0.645-1.415,1.292-2.12,1.94      c-0.2,0.185-0.075,0.985,0.638,1.533c0.712,0.55,1.65,0.565,2.125,0.087c0.572-0.578,1.147-1.157,1.723-1.735      C200.717,293.395,201.157,292.647,200.978,292.31z" fill="#FFFFFF"/></g><path d="M381.942,359.35c-4.218-18.208-4.085-36.29,0.39-54.502c1.761-7.153,7.436-4.048,7.288-21.328h-76.248     c-5.545,17.28-33.552,30.365-67.274,30.365c-33.72,0-61.725-13.085-67.27-30.365h-75.733c0,21.12,5.435,13.772,7.185,20.788     c4.533,18.172,4.738,36.482,0.613,54.652c-1.788,7.873-7.798,4.56-7.798,23.76H389.62     C390.883,362.24,383.723,367.05,381.942,359.35z" fill="#BD2508"/><g><g opacity="0.4"><path d="M139.553,334.265c-3.37,0-6.18-2.395-6.818-5.578c-0.09,0.445-0.137,0.908-0.137,1.377c0,3.84,3.115,6.955,6.955,6.955       c3.84,0,6.955-3.115,6.955-6.955c0-0.47-0.047-0.933-0.137-1.377C145.73,331.87,142.922,334.265,139.553,334.265z"/><path d="M163.388,334.265c-3.37,0-6.178-2.395-6.815-5.578c-0.09,0.445-0.14,0.908-0.14,1.377c0,3.84,3.115,6.955,6.955,6.955       c3.842,0,6.955-3.115,6.955-6.955c0-0.47-0.045-0.933-0.135-1.377C169.567,331.87,166.757,334.265,163.388,334.265z"/><path d="M187.225,334.265c-3.368,0-6.178-2.395-6.818-5.578c-0.09,0.445-0.137,0.908-0.137,1.377       c0,3.84,3.112,6.955,6.955,6.955c3.842,0,6.955-3.115,6.955-6.955c0-0.47-0.048-0.933-0.138-1.377       C193.402,331.87,190.595,334.265,187.225,334.265z"/><path d="M211.063,334.265c-3.37,0-6.18-2.395-6.82-5.578c-0.088,0.445-0.135,0.908-0.135,1.377c0,3.84,3.112,6.955,6.955,6.955       c3.84,0,6.955-3.115,6.955-6.955c0-0.47-0.05-0.933-0.138-1.377C217.24,331.87,214.433,334.265,211.063,334.265z"/><path d="M234.897,334.265c-3.37,0-6.178-2.395-6.817-5.578c-0.087,0.445-0.138,0.908-0.138,1.377       c0,3.84,3.115,6.955,6.955,6.955c3.843,0,6.955-3.115,6.955-6.955c0-0.47-0.047-0.933-0.135-1.377       C241.078,331.87,238.268,334.265,234.897,334.265z"/><path d="M258.735,334.265c-3.37,0-6.178-2.395-6.818-5.578c-0.09,0.445-0.137,0.908-0.137,1.377       c0,3.84,3.112,6.955,6.955,6.955c3.842,0,6.955-3.115,6.955-6.955c0-0.47-0.048-0.933-0.138-1.377       C264.912,331.87,262.104,334.265,258.735,334.265z"/><path d="M282.572,334.265c-3.37,0-6.18-2.395-6.819-5.578c-0.091,0.445-0.136,0.908-0.136,1.377       c0,3.84,3.112,6.955,6.955,6.955c3.84,0,6.955-3.115,6.955-6.955c0-0.47-0.05-0.933-0.14-1.377       C288.75,331.87,285.942,334.265,282.572,334.265z"/><path d="M306.407,334.265c-3.37,0-6.18-2.395-6.817-5.578c-0.09,0.445-0.138,0.908-0.138,1.377c0,3.84,3.115,6.955,6.955,6.955       c3.843,0,6.955-3.115,6.955-6.955c0-0.47-0.047-0.933-0.138-1.377C312.588,331.87,309.777,334.265,306.407,334.265z"/><path d="M330.242,334.265c-3.367,0-6.175-2.395-6.814-5.578c-0.09,0.445-0.141,0.908-0.141,1.377       c0,3.84,3.115,6.955,6.955,6.955c3.843,0,6.958-3.115,6.958-6.955c0-0.47-0.048-0.933-0.138-1.377       C336.423,331.87,333.612,334.265,330.242,334.265z"/><path d="M354.08,334.265c-3.367,0-6.178-2.395-6.817-5.578c-0.09,0.445-0.138,0.908-0.138,1.377       c0,3.84,3.115,6.955,6.955,6.955c3.843,0,6.957-3.115,6.957-6.955c0-0.47-0.05-0.933-0.14-1.377       C360.258,331.87,357.45,334.265,354.08,334.265z"/></g><g><circle cx="139.552" cy="328" fill="#FFFFFF" r="6.955"/><circle cx="163.387" cy="328" fill="#FFFFFF" r="6.955"/><circle cx="187.225" cy="328" fill="#FFFFFF" r="6.955"/><circle cx="211.063" cy="328" fill="#FFFFFF" r="6.955"/><circle cx="234.897" cy="328" fill="#FFFFFF" r="6.955"/><circle cx="258.735" cy="328" fill="#FFFFFF" r="6.955"/><circle cx="282.572" cy="328" fill="#FFFFFF" r="6.955"/><circle cx="306.407" cy="328" fill="#FFFFFF" r="6.955"/><circle cx="330.244" cy="328" fill="#FFFFFF" r="6.957"/><circle cx="354.081" cy="328" fill="#FFFFFF" r="6.956"/></g></g><g><g opacity="0.4"><path d="M151.29,346.15c-3.37,0-6.178-2.397-6.817-5.578c-0.09,0.445-0.14,0.905-0.14,1.378c0,3.84,3.115,6.955,6.958,6.955       c3.84,0,6.955-3.115,6.955-6.955c0-0.473-0.048-0.933-0.138-1.378C157.467,343.752,154.657,346.15,151.29,346.15z"/><path d="M175.208,346.64c-3.37,0-6.18-2.397-6.817-5.58c-0.09,0.447-0.138,0.907-0.138,1.38c0,3.84,3.113,6.955,6.955,6.955       c3.84,0,6.955-3.115,6.955-6.955c0-0.473-0.047-0.933-0.138-1.38C181.385,344.243,178.578,346.64,175.208,346.64z"/><path d="M199.125,346.882c-3.368,0-6.178-2.397-6.817-5.577c-0.09,0.445-0.138,0.905-0.138,1.377       c0,3.842,3.115,6.955,6.955,6.955c3.842,0,6.955-3.113,6.955-6.955c0-0.473-0.048-0.933-0.138-1.377       C205.303,344.485,202.495,346.882,199.125,346.882z"/><path d="M222.797,347.127c-3.37,0-6.177-2.397-6.815-5.578c-0.09,0.445-0.14,0.905-0.14,1.378c0,3.842,3.115,6.955,6.955,6.955       c3.843,0,6.955-3.112,6.955-6.955c0-0.473-0.047-0.933-0.135-1.378C228.978,344.73,226.167,347.127,222.797,347.127z"/><path d="M246.963,347.373c-3.37,0-6.181-2.397-6.82-5.578c-0.087,0.445-0.135,0.905-0.135,1.377       c0,3.84,3.113,6.955,6.956,6.955c3.84,0,6.954-3.115,6.954-6.955c0-0.472-0.05-0.932-0.14-1.377       C253.14,344.975,250.332,347.373,246.963,347.373z"/><path d="M270.88,348.105c-3.37,0-6.178-2.395-6.817-5.578c-0.09,0.445-0.138,0.908-0.138,1.377       c0,3.843,3.112,6.955,6.955,6.955c3.84,0,6.955-3.112,6.955-6.955c0-0.47-0.048-0.932-0.138-1.377       C277.058,345.71,274.247,348.105,270.88,348.105z"/><path d="M294.798,347.618c-3.37,0-6.178-2.397-6.818-5.578c-0.09,0.445-0.137,0.905-0.137,1.377       c0,3.84,3.114,6.955,6.955,6.955c3.84,0,6.955-3.115,6.955-6.955c0-0.473-0.048-0.933-0.138-1.377       C300.975,345.22,298.167,347.618,294.798,347.618z"/><path d="M318.715,347.86c-3.37,0-6.178-2.395-6.817-5.575c-0.09,0.445-0.138,0.905-0.138,1.377c0,3.84,3.112,6.955,6.955,6.955       s6.955-3.115,6.955-6.955c0-0.473-0.048-0.933-0.138-1.377C324.893,345.465,322.085,347.86,318.715,347.86z"/><path d="M342.633,346.15c-3.368,0-6.178-2.397-6.817-5.578c-0.088,0.445-0.138,0.905-0.138,1.378       c0,3.84,3.114,6.955,6.955,6.955c3.842,0,6.955-3.115,6.955-6.955c0-0.473-0.046-0.933-0.136-1.378       C348.813,343.752,346.003,346.15,342.633,346.15z"/></g><g><circle cx="151.289" cy="339.882" fill="#FFFFFF" r="6.956"/><circle cx="175.208" cy="340.373" fill="#FFFFFF" r="6.955"/><circle cx="199.125" cy="340.615" fill="#FFFFFF" r="6.955"/><circle cx="222.797" cy="340.86" fill="#FFFFFF" r="6.955"/><circle cx="246.962" cy="341.105" fill="#FFFFFF" r="6.955"/><circle cx="270.88" cy="341.84" fill="#FFFFFF" r="6.955"/><circle cx="294.798" cy="341.35" fill="#FFFFFF" r="6.955"/><circle cx="318.715" cy="341.595" fill="#FFFFFF" r="6.955"/><circle cx="342.633" cy="339.882" fill="#FFFFFF" r="6.955"/></g></g><g><g opacity="0.4"><path d="M139.553,358.61c-3.37,0-6.18-2.395-6.818-5.575c-0.09,0.445-0.137,0.905-0.137,1.375c0,3.845,3.115,6.955,6.955,6.955       c3.84,0,6.955-3.11,6.955-6.955c0-0.47-0.047-0.93-0.137-1.375C145.73,356.215,142.922,358.61,139.553,358.61z"/><path d="M163.388,358.61c-3.37,0-6.178-2.395-6.815-5.575c-0.09,0.445-0.14,0.905-0.14,1.375c0,3.845,3.115,6.955,6.955,6.955       c3.842,0,6.955-3.11,6.955-6.955c0-0.47-0.045-0.93-0.135-1.375C169.567,356.215,166.757,358.61,163.388,358.61z"/><path d="M187.225,358.61c-3.368,0-6.178-2.395-6.818-5.575c-0.09,0.445-0.137,0.905-0.137,1.375       c0,3.845,3.112,6.955,6.955,6.955c3.842,0,6.955-3.11,6.955-6.955c0-0.47-0.048-0.93-0.138-1.375       C193.402,356.215,190.595,358.61,187.225,358.61z"/><path d="M211.063,358.61c-3.37,0-6.18-2.395-6.82-5.575c-0.088,0.445-0.135,0.905-0.135,1.375c0,3.845,3.112,6.955,6.955,6.955       c3.84,0,6.955-3.11,6.955-6.955c0-0.47-0.05-0.93-0.138-1.375C217.24,356.215,214.433,358.61,211.063,358.61z"/><path d="M234.897,358.61c-3.37,0-6.178-2.395-6.817-5.575c-0.087,0.445-0.138,0.905-0.138,1.375       c0,3.845,3.115,6.955,6.955,6.955c3.843,0,6.955-3.11,6.955-6.955c0-0.47-0.047-0.93-0.135-1.375       C241.078,356.215,238.268,358.61,234.897,358.61z"/><path d="M258.735,358.61c-3.37,0-6.178-2.395-6.818-5.575c-0.09,0.445-0.137,0.905-0.137,1.375       c0,3.845,3.112,6.955,6.955,6.955c3.842,0,6.955-3.11,6.955-6.955c0-0.47-0.048-0.93-0.138-1.375       C264.912,356.215,262.104,358.61,258.735,358.61z"/><path d="M282.572,358.61c-3.37,0-6.18-2.395-6.819-5.575c-0.091,0.445-0.136,0.905-0.136,1.375       c0,3.845,3.112,6.955,6.955,6.955c3.84,0,6.955-3.11,6.955-6.955c0-0.47-0.05-0.93-0.14-1.375       C288.75,356.215,285.942,358.61,282.572,358.61z"/><path d="M306.407,358.61c-3.37,0-6.18-2.395-6.817-5.575c-0.09,0.445-0.138,0.905-0.138,1.375c0,3.845,3.115,6.955,6.955,6.955       c3.843,0,6.955-3.11,6.955-6.955c0-0.47-0.047-0.93-0.138-1.375C312.588,356.215,309.777,358.61,306.407,358.61z"/><path d="M330.242,358.61c-3.367,0-6.175-2.395-6.814-5.575c-0.09,0.445-0.141,0.905-0.141,1.375       c0,3.845,3.115,6.955,6.955,6.955c3.843,0,6.958-3.11,6.958-6.955c0-0.47-0.048-0.93-0.138-1.375       C336.423,356.215,333.612,358.61,330.242,358.61z"/><path d="M354.08,358.61c-3.367,0-6.178-2.395-6.817-5.575c-0.09,0.445-0.138,0.905-0.138,1.375       c0,3.845,3.115,6.955,6.955,6.955c3.843,0,6.957-3.11,6.957-6.955c0-0.47-0.05-0.93-0.14-1.375       C360.258,356.215,357.45,358.61,354.08,358.61z"/></g><g><circle cx="139.552" cy="352.345" fill="#FFFFFF" r="6.955"/><circle cx="163.387" cy="352.345" fill="#FFFFFF" r="6.955"/><circle cx="187.225" cy="352.345" fill="#FFFFFF" r="6.955"/><circle cx="211.063" cy="352.345" fill="#FFFFFF" r="6.955"/><circle cx="234.897" cy="352.345" fill="#FFFFFF" r="6.955"/><circle cx="258.735" cy="352.345" fill="#FFFFFF" r="6.955"/><circle cx="282.572" cy="352.345" fill="#FFFFFF" r="6.955"/><circle cx="306.407" cy="352.345" fill="#FFFFFF" r="6.955"/><circle cx="330.244" cy="352.345" fill="#FFFFFF" r="6.957"/><circle cx="354.081" cy="352.345" fill="#FFFFFF" r="6.956"/></g></g><g opacity="0.3"><path d="M334.88,380.8h-179.2v-5.109c0-4.51,3.81-8.331,8.317-8.331h162.75c4.511,0,8.133,3.82,8.133,8.331V380.8z"/></g><g><path d="M335.52,382.72h-179.2v-5.109c0-4.511,3.81-8.331,8.318-8.331h162.75c4.51,0,8.132,3.82,8.132,8.331      V382.72z" fill="#FFFFFF"/></g><path d="M435.622,303.105c-0.697-0.663-1.6-1.007-2.56-0.953l-20.035,1.113c-0.678-2.103-1.895-3.513-3.298-3.535     l-0.454-20.333c-0.028-1.22-1.038-2.188-2.258-2.16l-0.25,0.005c-0.585,0.015-1.143,0.26-1.548,0.682     c-0.404,0.425-0.625,1.15-0.612,1.735l0.04,1.94h-5.768v-5.99c0-2.19-1.74-4.25-3.933-4.25h-3.08c-2.192,0-3.867,2.06-3.867,4.25     v20.99c0,2.19,1.675,4.2,3.867,4.2h3.08c2.192,0,3.933-2.01,3.933-4.2v-6.68h5.973l0.57,25.425     c0.012,0.585,0.257,1.222,0.682,1.625c0.423,0.405,0.99,0.665,1.578,0.652l0.252,0.015c1.218-0.028,2.188-1.03,2.158-2.25     l-0.025-1.083c1.235-0.21,2.3-1.495,2.93-3.353l20.105,1.12c0.96,0.053,1.822-0.292,2.52-0.955c0.7-0.66,1.018-1.58,1.018-2.542     v-2.925C436.64,304.688,436.322,303.765,435.622,303.105z" fill="#231F20"/></g></g></svg>