<svg xmlns="http://www.w3.org/2000/svg" width="54" height="100"><path fill="#EBEEEF" d="M6 0h42c3.312 0 6 2.688 6 6v88c0 3.312-2.688 6-6 6H6c-3.312 0-6-2.688-6-6V6c0-3.314 2.687-6 6-6z"/><path fill="#1C3C50" d="M0 10h54v80H0V10z"/><path fill="#24485F" d="M4 14h46v72H4V14z"/><path fill="#BCC3C8" d="M13 93h28v4H13v-4zM13 3h28v4H13V3z"/><path fill="#1C3C50" d="M46 3c-1.104 0-2 .896-2 2s.896 2 2 2 2-.896 2-2-.896-2-2-2zM9 5c-.553 0-1 .448-1 1 0 .553.447 1 1 1s1-.447 1-1-.447-1-1-1zM6 5c-.553 0-1 .448-1 1 0 .553.447 1 1 1s1-.447 1-1-.447-1-1-1z"/></svg>