<svg xmlns="http://www.w3.org/2000/svg" width="99.986" height="100.002" viewBox="0.007 -0.001 99.986 100.002" enable-background="new 0.007 -0.001 99.986 100.002"><path fill="#EBEEEF" d="M49.985 0c27.62 0 50.008 22.39 50.008 50.008 0 27.618-22.39 49.993-50.008 49.993S.007 77.627.007 50.01c0-27.62 22.36-50.01 49.978-50.01z"/><path fill="#0074DF" d="M49.987 6c24.305 0 44.008 19.703 44.008 44.007S74.292 94 49.987 94c-24.305 0-43.98-19.687-43.98-43.993C6.008 25.703 25.684 6 49.988 6z"/><path fill="#fff" d="M22.01 59.014h4.18l6.387-11.018H22.012v11.018zm22.877-11.017l-6.64 10.987 25.114.03-6.603-11.018h-11.87zm34.12 0H66.973l5.317 11.02h6.718v-11.02zM52.904 26.648c-4.282-6.613-5.646-5.59-5.646-5.59s-1.4.9 1.976 8.14c8.114 17.4 13.184 24.94 13.184 24.94l4.336-2.513S58.43 35.18 52.904 26.648zm14.51 26.125l-4.25 2.547 4.062 6.424 3.375-2.14-3.186-6.83zm10.348 17.78c-3.52-7.053-6.41-9.615-6.41-9.615l-3.406 2.08s2.17 7.71 4.772 11.063c1.43 1.845 3.884.605 3.884.605s2.406-1.637 1.16-4.133zM26.26 62.395l5.75 3.912 12.468-21.25-6.03-3.723-12.187 21.06zm-3 10.376l7.94-5.068-5.75-3.816c-.002 0-1.598 6.406-2.19 8.885zm15.936-32.776l6.094 3.69 2.75-4.773-5.875-3.785-2.97 4.87zm10.4-5.25c-.174-1.022-2.942-2.955-4.08-2.875-1.52.105-2.382 1.886-2.382 1.886l5.75 3.724s.912-1.564.713-2.735z"/><path fill="#0167C8" d="M49.987 6c-12.91 0-24.516 5.56-32.56 14.416C25.236 13.323 35.605 9 46.988 9c24.305 0 44.008 19.703 44.008 44.008 0 11.387-4.325 21.76-11.42 29.57 8.856-8.05 14.42-19.656 14.42-32.57C93.995 25.702 74.292 6 49.987 6z"/></svg>