<svg xmlns="http://www.w3.org/2000/svg" xmlns:xlink="http://www.w3.org/1999/xlink" width="100" height="100"><path fill="#17A085" d="M50 0c27.613 0 50 22.386 50 50s-22.387 50-50 50C22.386 100 0 77.614 0 50S22.386 0 50 0z"/><defs><circle id="a" cx="50" cy="50" r="50"/></defs><clipPath id="b"><use xlink:href="#a" overflow="visible"/></clipPath><g clip-path="url(#b)"><path fill="#107864" d="M17 34l-33 33v51h31l21-21V43l-19-9z"/><path fill="#EBEDEE" d="M76 31.05V31H26v.05c-.33-.027-.662-.05-1-.05-6.627 0-12 5.373-12 12 0 6.628 5.373 12 12 12 2.45 0 4.725-.738 6.62-2H32l-4 4v49h44V57l-4-4h.38c1.895 1.262 4.17 2 6.62 2 6.628 0 12-5.372 12-12 0-6.29-4.84-11.44-11-11.95z"/><path fill="#D3D5D6" d="M26 31v.05c-.33-.027-.662-.05-1-.05-6.627 0-12 5.373-12 12 0 6.628 5.373 12 12 12 .516 0 1.02-.036 1.52-.104l.015-.002c.498-.066.987-.164 1.466-.29v.007c1.307-.337 2.528-.884 3.622-1.61H32l-4 4v49h22V31H26z"/><path fill="#BDC3C7" d="M76 36H23c-2.89.86-5 3.83-5 7 0 3.866 3.134 7 7 7s7-3.134 7-7c0-1.075-.25-2.09-.683-3h37.365c-.432.91-.682 1.925-.682 3 0 3.866 3.134 7 7 7s7-3.134 7-7c0-3.524-2.61-6.513-6-7zM25 46c-1.657 0-3-1.343-3-3 0-1.656 1.343-3 3-3s3 1.344 3 3c0 1.657-1.343 3-3 3zm50 0c-1.657 0-3-1.343-3-3 0-1.656 1.343-3 3-3s3 1.344 3 3c0 1.657-1.343 3-3 3z"/><circle fill="#AAAFB3" cx="41" cy="51" r="2"/><circle fill="#BDC3C7" cx="50" cy="51" r="2"/><circle fill="#BDC3C7" cx="59" cy="51" r="2"/><path fill="#AAAFB3" d="M18 43c0 3.866 3.134 7 7 7s7-3.134 7-7c0-1.075-.25-2.09-.683-3H50v-4H23c-2.89.86-5 3.83-5 7zm10 0c0 1.657-1.343 3-3 3s-3-1.343-3-3c0-1.656 1.343-3 3-3s3 1.344 3 3zM48 51c0 1.104.896 2 2 2v-4c-1.104 0-2 .896-2 2zM46 64v41c0 .348.06.68.142 1H50V60c-2.21 0-4 1.79-4 4z"/><path fill="#BDC3C7" d="M53.857 106c.084-.32.143-.652.143-1V64c0-2.21-1.79-4-4-4s-4 1.79-4 4v41c0 .348.06.68.142 1h7.715zM66.857 106c.084-.32.143-.652.143-1V64c0-2.21-1.79-4-4-4s-4 1.79-4 4v41c0 .348.06.68.143 1h7.714z"/><path fill="#AAAFB3" d="M40.858 106c.083-.32.142-.652.142-1V64c0-2.21-1.79-4-4-4s-4 1.79-4 4v41c0 .348.06.68.142 1h7.716z"/></g></svg>