<svg xmlns="http://www.w3.org/2000/svg" width="90" height="100"><path fill="#C0392C" d="M0 94c0 3.314 2.687 6 6 6h78c3.312 0 6-2.686 6-6V75H0v19zM69 0h11c1.104 0 2 .896 2 2v16c0 1.105-.896 2-2 2H69c-1.104 0-2-.895-2-2V2c0-1.104.896-2 2-2zM10 0h11c1.104 0 2 .896 2 2v16c0 1.105-.896 2-2 2H10c-1.104 0-2-.895-2-2V2c0-1.104.896-2 2-2z"/><path fill="#AC3327" d="M12 20h2V0h-2v20zm5-20v20h2V0h-2zM71 20h2V0h-2v20zm5-20v20h2V0h-2z"/><path fill="#E67E21" d="M51 5v5h5l-5-5zm-12 5V5l-5 5h5z"/><path fill="#D35400" d="M44.938 4c2.68 0 4.84.752 6.04 1.88L51 5.5C51 3.017 48.527 1 44.938 1 41.35 1 39 3.017 39 5.5l.04.328C40.21 4.728 42.3 4 44.937 4z"/><path fill="#F39C12" d="M20 10h50c11.046 0 20 8.955 20 20v45H0V30c0-11.044 8.954-20 20-20z"/><path fill="#D35400" d="M54.56 31.94l-8.497-8.5c-.585-.587-1.537-.587-2.125 0l-8.498 8.5c-.586.585-.586 1.536 0 2.122l8.498 8.498c.588.588 1.54.588 2.125 0l8.498-8.498c.586-.584.586-1.537 0-2.123zM44 34.5c0 .828-.672 1.5-1.5 1.5s-1.5-.67-1.5-1.5v-3c0-.828.672-1.5 1.5-1.5s1.5.672 1.5 1.5v3zm5 0c0 .828-.672 1.5-1.5 1.5s-1.5-.67-1.5-1.5v-3c0-.828.672-1.5 1.5-1.5s1.5.672 1.5 1.5v3z"/><path fill="#E67E21" d="M76 58c0-2.21-1.79-4-4-4H18c-2.21 0-4 1.79-4 4v6h2v18c0 2.21 1.79 4 4 4h50c2.21 0 4-1.79 4-4V64h2v-6z"/><path fill="#CF7120" d="M74 66v-2H16v2h8.312v3.625c0 1.105.896 2 2 2 .693 0 1.303-.354 1.662-.89-.29.163-.618.265-.974.265-1.104 0-2-.895-2-2v-3h49z"/><path fill="#EBEDEE" d="M25 64v5c0 1.105.896 2 2 2s2-.895 2-2v-5h-4zm2 6c-.552 0-1-.447-1-1 0-.55.448-1 1-1s1 .45 1 1c0 .553-.448 1-1 1z"/><path fill="#F4A629" d="M70 10H20C8.954 10 0 18.956 0 30v3c0-11.045 8.954-20 20-20h50c11.046 0 20 8.955 20 20v-3c0-11.044-8.954-20-20-20z"/><path fill="#D3D5D6" d="M25 64h4v2h-4z"/><path fill="#CF7120" d="M27 68c-.437 0-.798.285-.934.676l.247-.05c.552 0 1 .448 1 1 0 .114-.03.222-.065.325.428-.112.752-.485.752-.95 0-.55-.448-1-1-1z"/><path fill="#BA651C" d="M24.312 64H25v2h-.688z"/><path fill="#AC3327" d="M84 97H6c-3.313 0-6-2.686-6-6v3c0 3.314 2.687 6 6 6h78c3.312 0 6-2.686 6-6v-3c0 3.314-2.688 6-6 6zM70 86H20c-2.21 0-4-1.79-4-4v2c0 2.21 1.79 4 4 4h50c2.21 0 4-1.79 4-4v-2c0 2.21-1.79 4-4 4z"/></svg>