<svg xmlns="http://www.w3.org/2000/svg" xmlns:xlink="http://www.w3.org/1999/xlink" width="100" height="92.027"><path fill="#F1C40E" d="M96 28.027H4c-2.21 0-4 1.79-4 4v6c0 2.21 1.79 4 4 4h1v46c0 2.21 1.79 4 4 4h82c2.21 0 4-1.79 4-4v-46h1c2.21 0 4-1.79 4-4v-6c0-2.21-1.79-4-4-4z"/><path fill="#B5930C" d="M14 50.027c-1.657 0-2 1.344-2 3v9c0 1.657.343 3 2 3s2-1.343 2-3v-9c0-1.657-.343-3-2-3zm0 20c-1.657 0-2 1.344-2 3v9c0 1.657.343 3 2 3s2-1.343 2-3v-9c0-1.657-.343-3-2-3zm8-20c-1.657 0-2 1.344-2 3v9c0 1.657.343 3 2 3s2-1.343 2-3v-9c0-1.657-.343-3-2-3zm0 20c-1.657 0-2 1.344-2 3v9c0 1.657.343 3 2 3s2-1.343 2-3v-9c0-1.657-.343-3-2-3zm8-20c-1.657 0-2 1.344-2 3v9c0 1.657.343 3 2 3s2-1.343 2-3v-9c0-1.657-.343-3-2-3zm0 20c-1.657 0-2 1.344-2 3v9c0 1.657.343 3 2 3s2-1.343 2-3v-9c0-1.657-.343-3-2-3zm8-20c-1.657 0-2 1.344-2 3v9c0 1.657.343 3 2 3s2-1.343 2-3v-9c0-1.657-.343-3-2-3zm0 20c-1.657 0-2 1.344-2 3v9c0 1.657.343 3 2 3s2-1.343 2-3v-9c0-1.657-.343-3-2-3zm8-20c-1.657 0-2 1.344-2 3v9c0 1.657.343 3 2 3s2-1.343 2-3v-9c0-1.657-.343-3-2-3zm0 20c-1.657 0-2 1.344-2 3v9c0 1.657.343 3 2 3s2-1.343 2-3v-9c0-1.657-.343-3-2-3zm8-20c-1.657 0-2 1.344-2 3v9c0 1.657.343 3 2 3s2-1.343 2-3v-9c0-1.657-.343-3-2-3zm0 20c-1.657 0-2 1.344-2 3v9c0 1.657.343 3 2 3s2-1.343 2-3v-9c0-1.657-.343-3-2-3zm8-20c-1.657 0-2 1.344-2 3v9c0 1.657.343 3 2 3s2-1.343 2-3v-9c0-1.657-.343-3-2-3zm0 20c-1.657 0-2 1.344-2 3v9c0 1.657.343 3 2 3s2-1.343 2-3v-9c0-1.657-.343-3-2-3zm8-20c-1.657 0-2 1.344-2 3v9c0 1.657.343 3 2 3s2-1.343 2-3v-9c0-1.657-.343-3-2-3zm0 20c-1.657 0-2 1.344-2 3v9c0 1.657.343 3 2 3s2-1.343 2-3v-9c0-1.657-.343-3-2-3zm8-20c-1.657 0-2 1.344-2 3v9c0 1.657.343 3 2 3s2-1.343 2-3v-9c0-1.657-.343-3-2-3zm0 20c-1.657 0-2 1.344-2 3v9c0 1.657.343 3 2 3s2-1.343 2-3v-9c0-1.657-.343-3-2-3zm8-20c-1.657 0-2 1.344-2 3v9c0 1.657.343 3 2 3s2-1.343 2-3v-9c0-1.657-.343-3-2-3zm0 20c-1.657 0-2 1.344-2 3v9c0 1.657.343 3 2 3s2-1.343 2-3v-9c0-1.657-.343-3-2-3z"/><path fill="#D8B00C" d="M5 88.027c0 2.21 1.79 4 4 4h39.96l46.04-46v-4H5v46z"/><path fill="#34495E" d="M87 32.027c-1.657 0-3 1.344-3 3 0 1.657 1.343 3 3 3s3-1.343 3-3-1.343-3-3-3zm-74 0c-1.657 0-3 1.344-3 3 0 1.657 1.343 3 3 3s3-1.343 3-3-1.343-3-3-3zM76.52 28.027h11.02L60.65 1.14c-1.52-1.52-3.986-1.52-5.508 0-1.52 1.522-1.52 3.987 0 5.51L76.52 28.027zm-53.04 0L44.854 6.65c1.52-1.52 1.52-3.987 0-5.51-1.52-1.52-3.988-1.52-5.51 0L12.462 28.028h11.02z"/><defs><path id="a" d="M5 88.027c0 2.21 1.79 4 4 4h39.96l46.04-46v-4H5v46z"/></defs><clipPath id="b"><use xlink:href="#a" overflow="visible"/></clipPath><path clip-path="url(#b)" fill="#A3840B" d="M14 50.027c-1.657 0-2 1.344-2 3v9c0 1.657.343 3 2 3s2-1.343 2-3v-9c0-1.657-.343-3-2-3zm0 20c-1.657 0-2 1.344-2 3v9c0 1.657.343 3 2 3s2-1.343 2-3v-9c0-1.657-.343-3-2-3zm8-20c-1.657 0-2 1.344-2 3v9c0 1.657.343 3 2 3s2-1.343 2-3v-9c0-1.657-.343-3-2-3zm0 20c-1.657 0-2 1.344-2 3v9c0 1.657.343 3 2 3s2-1.343 2-3v-9c0-1.657-.343-3-2-3zm8-20c-1.657 0-2 1.344-2 3v9c0 1.657.343 3 2 3s2-1.343 2-3v-9c0-1.657-.343-3-2-3zm0 20c-1.657 0-2 1.344-2 3v9c0 1.657.343 3 2 3s2-1.343 2-3v-9c0-1.657-.343-3-2-3zm8-20c-1.657 0-2 1.344-2 3v9c0 1.657.343 3 2 3s2-1.343 2-3v-9c0-1.657-.343-3-2-3zm0 20c-1.657 0-2 1.344-2 3v9c0 1.657.343 3 2 3s2-1.343 2-3v-9c0-1.657-.343-3-2-3zm8-20c-1.657 0-2 1.344-2 3v9c0 1.657.343 3 2 3s2-1.343 2-3v-9c0-1.657-.343-3-2-3zm0 20c-1.657 0-2 1.344-2 3v9c0 1.657.343 3 2 3s2-1.343 2-3v-9c0-1.657-.343-3-2-3zm8-20c-1.657 0-2 1.344-2 3v9c0 1.657.343 3 2 3s2-1.343 2-3v-9c0-1.657-.343-3-2-3zm0 20c-1.657 0-2 1.344-2 3v9c0 1.657.343 3 2 3s2-1.343 2-3v-9c0-1.657-.343-3-2-3zm8-20c-1.657 0-2 1.344-2 3v9c0 1.657.343 3 2 3s2-1.343 2-3v-9c0-1.657-.343-3-2-3zm0 20c-1.657 0-2 1.344-2 3v9c0 1.657.343 3 2 3s2-1.343 2-3v-9c0-1.657-.343-3-2-3zm8-20c-1.657 0-2 1.344-2 3v9c0 1.657.343 3 2 3s2-1.343 2-3v-9c0-1.657-.343-3-2-3zm0 20c-1.657 0-2 1.344-2 3v9c0 1.657.343 3 2 3s2-1.343 2-3v-9c0-1.657-.343-3-2-3zm8-20c-1.657 0-2 1.344-2 3v9c0 1.657.343 3 2 3s2-1.343 2-3v-9c0-1.657-.343-3-2-3zm0 20c-1.657 0-2 1.344-2 3v9c0 1.657.343 3 2 3s2-1.343 2-3v-9c0-1.657-.343-3-2-3zm8-20c-1.657 0-2 1.344-2 3v9c0 1.657.343 3 2 3s2-1.343 2-3v-9c0-1.657-.343-3-2-3zm0 20c-1.657 0-2 1.344-2 3v9c0 1.657.343 3 2 3s2-1.343 2-3v-9c0-1.657-.343-3-2-3z"/></svg>