<svg xmlns="http://www.w3.org/2000/svg" width="512" height="512" viewBox="0 0 512 512"><path d="M512 256c0 141.386-114.61 256-256 256C114.614 512 0 397.386 0 256 0 114.616 114.614 0 256 0c141.39 0 256 114.616 256 256z" fill="#E27C3E"/><circle cx="196.58" cy="162.328" r="32.262" fill="#fff"/><path d="M272.05 143.85c0-17.817-14.447-32.262-32.266-32.262-17.817 0-32.26 14.444-32.26 32.263 0 17.818 14.442 32.26 32.26 32.26 17.82 0 32.266-14.442 32.266-32.26z" fill="#fff"/><path d="M426.985 181.458h-130.53S250.096 372.75 313.11 372.75c63.02 0 87.32-16.2 126.478-91.368 39.162-75.17 16.657-99.924-12.603-99.924zm-92.23 155.078c-39.156 0-10.35-118.864-10.35-118.864h81.112c18.178 0 32.16 15.385 7.83 62.09-24.337 46.71-39.434 56.774-78.59 56.774z" fill="#F4F4F4"/><path d="M443.76 255.88c-.335 0-.678-.057-1.01-.175-1.59-.56-2.425-2.302-1.865-3.89 7.378-20.934 7.76-36.97 1.107-46.366-5.583-7.89-14.917-9.544-21.763-9.544-1.684 0-3.05-1.365-3.05-3.05 0-1.683 1.363-3.048 3.05-3.048h.002c11.88 0 21.126 4.19 26.735 12.117 7.96 11.24 7.846 28.708-.33 51.917-.44 1.253-1.62 2.038-2.876 2.038z" fill="#fff"/><path d="M154.567 148.823c-.008.26-.04.51-.04.77V395.82c0 16.965 13.75 30.715 30.712 30.715h151.017c16.96 0 30.713-13.75 30.713-30.715V149.592c0-.26-.032-.51-.04-.77H154.568z" fill="#F4F4F4"/><path d="M172.216 175.494c-.004.215-.027.423-.027.638v205.29c0 14.144 11.464 25.61 25.608 25.61H323.7c14.144 0 25.61-11.466 25.61-25.61v-205.29c0-.215-.026-.423-.033-.638h-177.06z" fill="#EFC84A"/><path d="M182.878 314.927c-1.885 0-3.41-1.527-3.41-3.41V223.6c0-1.883 1.525-3.41 3.41-3.41s3.41 1.527 3.41 3.41v87.914c0 1.883-1.525 3.41-3.41 3.41z" fill="#EFD7AC"/><circle cx="287.395" cy="344.102" r="6.822" fill="#F2D379"/><circle cx="257.55" cy="304.874" r="6.823" fill="#F2D379"/><circle cx="236.23" cy="290.379" r="6.823" fill="#F2D379"/><path d="M260.11 254.137c0-3.767-3.057-6.822-6.826-6.822-3.766 0-6.82 3.056-6.82 6.822 0 3.768 3.055 6.822 6.82 6.822 3.77 0 6.825-3.056 6.825-6.823z" fill="#F2D379"/><circle cx="230.262" cy="273.323" r="6.822" fill="#EFBB5E"/><circle cx="272.046" cy="211.5" r="6.822" fill="#F2D379"/><circle cx="234.526" cy="212.778" r="6.822" fill="#EFBB5E"/><circle cx="276.31" cy="182.081" r="6.822" fill="#EAAA54"/><circle cx="308.289" cy="213.206" r="6.821" fill="#F2D379"/><circle cx="287.822" cy="243.479" r="6.823" fill="#F2D379"/><circle cx="276.31" cy="269.06" r="6.822" fill="#F2D379"/><circle cx="301.467" cy="263.091" r="6.821" fill="#F2D379"/><circle cx="283.131" cy="291.231" r="6.822" fill="#F2D379"/><circle cx="263.518" cy="330.031" r="6.822" fill="#F2D379"/><path d="M238.478 147.53c0-21.892-17.752-39.636-39.64-39.636-21.894 0-39.638 17.744-39.638 39.637 0 21.892 17.744 39.636 39.637 39.636 21.89 0 39.64-17.744 39.64-39.635z" fill="#fff"/><circle cx="160.761" cy="153.518" r="20.607" fill="#fff"/><path d="M305.958 130.958c0-24.515-19.88-44.386-44.39-44.386-24.515 0-44.385 19.87-44.385 44.386 0 24.513 19.87 44.385 44.385 44.385 24.51 0 44.39-19.872 44.39-44.385z" fill="#fff"/><circle cx="282.079" cy="158.127" r="38.013" fill="#fff"/><circle cx="327.906" cy="150.673" r="32.263" fill="#fff"/><circle cx="353.486" cy="149.535" r="21.747" fill="#fff"/><path d="M332.737 129.785c0-14.91-12.09-26.995-26.998-26.995-14.905 0-26.995 12.084-26.995 26.995 0 14.91 12.09 26.995 26.994 26.995 14.908 0 26.997-12.085 26.997-26.995z" fill="#fff"/><circle cx="205.487" cy="125.354" r="26.997" fill="#fff"/><path d="M268.587 169.413c0-14.91-12.09-26.996-27-26.996-14.906 0-26.994 12.085-26.994 26.996 0 14.91 12.088 26.994 26.993 26.994 14.91 0 27-12.085 27-26.994zM269.23 191.04c0-14.91-12.09-26.997-27-26.997-14.907 0-26.995 12.086-26.995 26.997 0 14.908 12.088 26.994 26.994 26.994 14.91 0 27-12.086 27-26.994z" fill="#fff"/><circle cx="219.96" cy="183.617" r="16.344" fill="#fff"/><path d="M260.15 101.09c0-14.912-12.09-26.997-26.997-26.997-14.906 0-26.994 12.085-26.994 26.997 0 14.908 12.087 26.994 26.993 26.994 14.91 0 26.998-12.086 26.998-26.994zM239.358 305.738c0 7.633-6.188 13.82-13.82 13.82-7.63 0-13.818-6.187-13.818-13.82V109.39c0-7.63 6.188-13.817 13.817-13.817 7.634 0 13.82 6.188 13.82 13.818V305.74zM324.34 269.092c0 4.552-3.69 8.242-8.244 8.242-4.55 0-8.24-3.69-8.24-8.242v-117.11c0-4.552 3.69-8.242 8.24-8.242 4.553 0 8.245 3.69 8.245 8.242v117.11zM257.697 274.22c0 3.924-3.183 7.105-7.107 7.105-3.92 0-7.105-3.182-7.105-7.105v-82.15c0-3.925 3.184-7.104 7.105-7.104 3.925 0 7.107 3.18 7.107 7.104v82.15z" fill="#fff"/></svg>