<svg xmlns="http://www.w3.org/2000/svg" width="100" height="100"><path fill-rule="evenodd" clip-rule="evenodd" fill="#C0392B" d="M6 100h88c3.313 0 6-2.687 6-6V6c0-3.314-2.687-6-6-6H6C2.687 0 0 2.686 0 6v88c0 3.313 2.687 6 6 6z"/><path fill-rule="evenodd" clip-rule="evenodd" fill="#E74C3C" d="M100 30h-.025c-.253-2.802-2.606-5-5.475-5H6.25C2.937 25 0 22.314 0 19V6c0-3.313 2.687-6 6-6h88c3.313 0 6 2.687 6 6v24z"/><path opacity=".15" fill-rule="evenodd" clip-rule="evenodd" d="M5 100h2V0H5v100z"/><path opacity=".15" fill-rule="evenodd" clip-rule="evenodd" fill="#fff" d="M7 100h2V0H7v100z"/><path fill-rule="evenodd" clip-rule="evenodd" fill="#fff" d="M100 10c0-2.76-2.238-5-5-5H7c-1.104 0-2 .897-2 2v11c0 1.105.896 2 2 2h87c3.313 0 6 2.688 6 6V11h-.1c.065-.322.1-.657.1-1z"/><path fill-rule="evenodd" clip-rule="evenodd" fill="#95A5A6" d="M100 15.423v-3.92s.183-4-5-4H5v2h89c3.184 0 5.78 2.48 5.98 5.615-.107-1-.79-3.615-4.98-3.615H5v2h89c3.184 0 5.78 2.482 5.98 5.616-.107-1.002-.79-3.617-4.98-3.617H5v2h89c3.313 0 6 2.687 6 6v-8.08z" opacity=".2"/><path fill-rule="evenodd" clip-rule="evenodd" fill="#2980B9" d="M80 100h10V25H80v75z"/><path fill-rule="evenodd" clip-rule="evenodd" fill="#3498DB" d="M80 25.007h10V0H80v25.007z"/><path fill-rule="evenodd" clip-rule="evenodd" d="M82 100h2V0h-2v100zM86 0v100h2V0h-2z" opacity=".1"/></svg>