<svg height="128" viewBox="0 0 128 128" width="128" xmlns="http://www.w3.org/2000/svg"><circle cx="64" cy="64" r="64" fill="#F2CF61"/><path d="M28 26.583c0 3.3 2.7 6 6 6h53v56c0 1-1 2-2 2-13-.006-51 0-51 0-3.3 0-6-2.7-6-6v-58z" fill="#233540"/><path fill="#1C2A33" d="M38 32.583h2v58h-2zM44 44.583h2v46h-2zM87 36.583v35c0 2.2-1.8 4-4 4H48c-2.2 0-4-1.8-4-4v-28c0-4 3-7 7-7h36z"/><path d="M87 22.583c0-1-1-2-2-2H34c-3.3 0-6 2.7-6 6s2.7 6 6 6h53v-10z" fill="#406A80"/><path fill="#395F73" d="M38 20.583h2v12h-2z"/><path d="M34 32.583h4v-12h-4c-3.3 0-6 2.7-6 6s2.7 6 6 6z" fill="#E66356"/><path d="M34 30.583c-2.168 0-4-1.832-4-4s1.832-4 4-4h53v8H34z" fill="#F5F5F5"/><path d="M34 90.583h4v-58h-4c-3.3 0-6-2.7-6-6v58c0 3.3 2.7 6 6 6z" fill="#CC584C"/><path fill="#F5F5F5" d="M53 58.583h20v2H53zM48 58.583h26v2H48z"/><path d="M46 44.583c0 3.3 2.7 6 6 6h50v56c0 1-1 2-2 2-13-.006-48 0-48 0-3.3 0-6-2.7-6-6v-58z" fill="#233540"/><path fill="#1C2A33" d="M56 50.583h2v58h-2z"/><path d="M102 40.583c0-1-1-2-2-2H52c-3.3 0-6 2.7-6 6s2.7 6 6 6h50v-10z" fill="#406A80"/><path fill="#395F73" d="M56 38.583h2v12h-2z"/><path d="M52 50.583h4v-12h-4c-3.3 0-6 2.7-6 6s2.7 6 6 6z" fill="#E66356"/><path d="M52 48.583c-2.168 0-4-1.832-4-4s1.832-4 4-4h50v8H52z" fill="#F5F5F5"/><path d="M52 108.583h4v-58h-4c-3.3 0-6-2.7-6-6v58c0 3.3 2.7 6 6 6z" fill="#CC584C"/><path fill="#F5F5F5" d="M71 72.583h16v2H71zM66 76.583h26v2H66z"/></svg>