<svg xmlns="http://www.w3.org/2000/svg" width="512" height="512" viewBox="0 0 512 512"><circle cx="256" cy="256" r="256" fill="#EFC84A"/><path fill="#EEF2F2" d="M128.435 123h24v87h-24zM359.435 123h24v87h-24z"/><path fill="#2B3F4D" d="M152.435 123h207v35h-207z"/><path fill="#243440" d="M152.435 145h207v13h-207z"/><path fill="#567282" d="M123.435 196h36v10h-36zM354.435 196h34v10h-34z"/><path fill="#ECF0F0" d="M87.435 203h337v177h-337z"/><path fill="#fff" d="M87.435 254h337v2h-337zM87.435 257h337v2h-337zM87.435 259h337v2h-337zM87.435 262h337v2h-337zM87.435 264h337v2h-337z"/><path stroke="#AAADAD" stroke-width="2" stroke-miterlimit="10" fill="none" d="M119.435 212h66v38h-66z"/><path fill="#2B3F4D" d="M123.435 216h57v28h-57z"/><path fill="#E2E6E6" d="M121.435 222h60v5h-60zM121.435 234h60v6h-60z"/><path stroke="#AAADAD" stroke-width="2" stroke-miterlimit="10" fill="none" d="M329.435 212h66v38h-66z"/><path fill="#2B3F4D" d="M333.435 216h56v28h-56z"/><path fill="#E2E6E6" d="M331.435 222h60v5h-60zM331.435 234h60v6h-60z"/><path fill="#2B3F4D" d="M205.435 350h103v32h-103z"/><circle cx="149.724" cy="322.175" r="52.205" fill="#233540"/><path d="M149.724 364.65c-23.422 0-42.48-19.054-42.48-42.476s19.058-42.48 42.48-42.48c23.422 0 42.48 19.058 42.48 42.48s-19.058 42.477-42.48 42.477z" fill="#E27C3E"/><path d="M149.724 354.925c-18.06 0-32.752-14.69-32.752-32.75s14.693-32.75 32.752-32.75 32.752 14.69 32.752 32.75-14.694 32.75-32.752 32.75z" stroke="#B86532" stroke-width="2.49" stroke-miterlimit="10" fill="none"/><path d="M149.724 345.196c-12.695 0-23.023-10.328-23.023-23.02 0-12.696 10.33-23.024 23.024-23.024s23.023 10.328 23.023 23.023c0 12.693-10.328 23.02-23.023 23.02z" fill="#3B5666"/><path d="M149.724 335.47c-7.332 0-13.295-5.965-13.295-13.295s5.962-13.295 13.294-13.295c7.332 0 13.295 5.964 13.295 13.295 0 7.33-5.964 13.295-13.296 13.295z" fill="#EFC84A"/><circle cx="364.957" cy="322.175" r="52.206" fill="#233540"/><path d="M364.958 364.65c-23.423 0-42.48-19.054-42.48-42.476s19.057-42.48 42.48-42.48c23.42 0 42.477 19.058 42.477 42.48s-19.057 42.477-42.477 42.477z" fill="#E27C3E"/><path d="M364.958 354.925c-18.06 0-32.752-14.69-32.752-32.75s14.692-32.75 32.752-32.75c18.057 0 32.75 14.69 32.75 32.75s-14.693 32.75-32.75 32.75z" stroke="#B86532" stroke-width="2.49" stroke-miterlimit="10" fill="none"/><path d="M364.958 345.196c-12.696 0-23.023-10.328-23.023-23.02 0-12.696 10.327-23.024 23.023-23.024 12.693 0 23.023 10.328 23.023 23.023.002 12.693-10.33 23.02-23.022 23.02z" fill="#3B5666"/><path d="M364.958 335.47c-7.333 0-13.297-5.965-13.297-13.295s5.965-13.295 13.298-13.295c7.33 0 13.293 5.964 13.293 13.295 0 7.33-5.962 13.295-13.292 13.295z" fill="#EFC84A"/><path fill="#2B3F4D" d="M212.435 285h89v54h-89z"/><path fill="#BFC2C2" d="M217.435 290h79v44h-79z"/><path fill="#E9EDED" d="M220.435 292h72v39h-72z"/><path fill="#2B3F4D" d="M191.435 210h128v41h-128z"/><path fill="#1E2C36" d="M191.435 240h128v11h-128z"/><circle cx="235.942" cy="311.191" r="4.703" fill="#2B3F4D"/><circle cx="235.942" cy="311.192" r="2.006" fill="#ECF0F0"/><circle cx="277.164" cy="311.191" r="4.702" fill="#2B3F4D"/><circle cx="277.165" cy="311.192" r="2.006" fill="#ECF0F0"/><circle cx="209.325" cy="258.748" r="6.6" fill="#E0BC46"/><circle cx="209.327" cy="257.282" r="5.135" fill="#EFC84A"/><circle cx="223.21" cy="258.748" r="6.6" fill="#E0BC46"/><circle cx="223.211" cy="257.282" r="5.136" fill="#EFC84A"/><circle cx="237.095" cy="258.748" r="6.6" fill="#E0BC46"/><circle cx="237.097" cy="257.282" r="5.135" fill="#EFC84A"/><circle cx="250.982" cy="258.748" r="6.6" fill="#E0BC46"/><circle cx="250.98" cy="257.282" r="5.135" fill="#EFC84A"/><circle cx="264.867" cy="258.748" r="6.6" fill="#E0BC46"/><circle cx="264.865" cy="257.282" r="5.136" fill="#EFC84A"/><circle cx="278.752" cy="258.748" r="6.6" fill="#E0BC46"/><circle cx="278.75" cy="257.282" r="5.135" fill="#EFC84A"/><circle cx="298.224" cy="260.56" r="10.832" fill="#CF7139"/><circle cx="298.222" cy="258.157" r="8.427" fill="#E27C3E"/></svg>