<svg xmlns="http://www.w3.org/2000/svg" xmlns:xlink="http://www.w3.org/1999/xlink" width="89.008" height="100"><path fill="#334D5C" d="M41.494 17.018c22.916 0 41.494 18.576 41.494 41.49S64.41 100 41.494 100 0 81.424 0 58.51s18.578-41.492 41.494-41.492z"/><path fill="#243641" d="M36.47 26.3c2.065.804 3.083 3.114 2.273 5.162s-3.142 3.057-5.208 2.254c-2.066-.804-3.084-3.114-2.274-5.162.812-2.047 3.143-3.056 5.21-2.253zM54.44 33.254c2.056.807 3.066 3.128 2.26 5.185-.804 2.056-3.126 3.068-5.183 2.263-2.058-.807-3.072-3.128-2.265-5.185s3.13-3.07 5.187-2.264zM39.47 44.283c2.065.807 3.083 3.128 2.272 5.185-.81 2.058-3.142 3.07-5.208 2.265-2.066-.807-3.084-3.128-2.274-5.186.81-2.057 3.143-3.07 5.21-2.264z"/><path fill="#2E4553" d="M46.494 92C23.578 92 5 73.424 5 50.51c0-6.37 1.44-12.4 4.002-17.792C3.372 39.8 0 48.758 0 58.508 0 81.425 18.578 100 41.494 100c16.55 0 30.83-9.688 37.492-23.7C71.386 85.86 59.66 92 46.494 92z"/><path fill="#ECF0F1" d="M89.008 70.88c0-10.432-2.002-17.9-6.938-27.026-3.64-6.637-4.818-13.985-3.402-21.214l2.348-12.207c.113-.543.117-.863.117-1.66C81.133 3.915 77.253 0 72.44 0c-4.708 0-8.58 3.916-8.58 8.772 0 .626.038 1.16.12 1.66l2.348 12.09c1.29 7.23.234 14.696-3.402 21.216-4.588 8.294-6.938 17.657-6.938 27.14 0 9.478 2.35 18.845 6.938 27.142h.062c.898 1.13 4.817 1.98 9.512 1.98 5.115 0 9.3-1.01 9.67-2.29 4.86-9.038 6.838-16.476 6.838-26.83z"/><path fill="#DBDFE0" d="M64.988 98.02h-.062c-4.588-8.297-6.938-17.664-6.938-27.14 0-9.485 2.35-18.848 6.938-27.142 3.637-6.52 4.693-13.986 3.402-21.216L65.98 10.434c-.082-.5-.12-1.035-.12-1.66 0-4.512 3.343-8.206 7.59-8.71C73.12.024 72.786 0 72.44 0c-4.708 0-8.58 3.916-8.58 8.772 0 .626.038 1.16.12 1.66l2.348 12.09c1.29 7.23.234 14.696-3.402 21.216-4.588 8.294-6.938 17.657-6.938 27.14 0 9.478 2.35 18.845 6.938 27.142h.062c.9 1.13 4.817 1.98 9.512 1.98.342 0 .678-.005 1.01-.014-4.248-.11-7.686-.918-8.522-1.966z"/><defs><path id="a" d="M89.008 70.88c0-10.432-2.002-17.9-6.938-27.026-3.64-6.637-4.818-13.985-3.402-21.214l2.348-12.207c.113-.543.117-.863.117-1.66C81.133 3.915 77.253 0 72.44 0c-4.708 0-8.58 3.916-8.58 8.772 0 .626.038 1.16.12 1.66l2.348 12.09c1.29 7.23.234 14.696-3.402 21.216-4.588 8.294-6.938 17.657-6.938 27.14 0 9.478 2.35 18.845 6.938 27.142h.062c.898 1.13 4.817 1.98 9.512 1.98 5.115 0 9.3-1.01 9.67-2.29 4.86-9.038 6.838-16.476 6.838-26.83z"/></defs><clipPath id="b"><use xlink:href="#a" overflow="visible"/></clipPath><path clip-path="url(#b)" fill="#E74C3C" d="M59 38h27v-6H59v6zm0-16v6h27v-6H59z"/><path fill="#D74737" d="M66.328 22.522c.324 1.817.5 3.65.525 5.478h2c-.025-1.828-.2-3.66-.525-5.478l-.1-.522h-2l.1.522zM66.66 32c-.225 2.03-.65 4.04-1.27 6h2c.618-1.96 1.045-3.97 1.27-6h-2z"/></svg>