<svg xmlns="http://www.w3.org/2000/svg" width="82.006" height="100.036" viewBox="0 -0.018 82.006 100.036" enable-background="new 0 -0.018 82.006 100.036"><path fill="#34495E" d="M40.972 72.902s-38.986.03-38.944.04c.017.866 0 4.023 0 4.023l38.943 23.052 38.945-23.052s-.035-3.198-.008-3.987c-.092-.194-38.935-.076-38.935-.076z"/><path fill="#ECF0F1" d="M40.972 25.932s-38.986.03-38.944.04c.017.866 0 46.997 0 46.997l38.944 23.05 38.944-23.05s-.004-46.172.022-46.96c-.09-.197-38.966-.078-38.966-.078z"/><path fill="#2C3E50" d="M2.028 72.943c.017.865 0 4.022 0 4.022l38.943 23.052V72.902c.002 0-38.985.032-38.942.04z"/><path fill="#BDC3C7" d="M2.028 25.973c.017.865 0 46.996 0 46.996l38.944 23.05V25.932s-38.987.03-38.944.04zM40.972 23.968s-40.983.03-40.94.04c.017.866 0 4.023 0 4.023l40.94 24.052 40.94-24.05s-.034-3.2-.01-3.988c-.09-.195-40.93-.076-40.93-.076z"/><path fill="#95A5A6" d="M46.994 54.95l7.004-4v12.993l-7.004 3.996V54.95zM57 48.952l7.006-3.998v12.993L57 61.943v-12.99zM.034 28.032L40.86 52.016h.11V24.033H.035v.217c.008.758.003 2.276 0 3.14v.642zM67.008 42.956l7.007-3.997v12.99l-7.007 3.997v-12.99zM46.994 71.95l7.004-4v12.993l-7.004 3.998V71.95zM67.008 59.955l7.007-3.997V68.95l-7.007 3.997V59.955z"/><path fill="#2C3E50" d="M57.008 72.955l7.005-3.997v17.42l-7.005 4.147v-17.57z"/><path fill="#C0392C" d="M57.008 65.955l7.005-3.997v3.992l-7.005 3.997v-3.992z"/><path fill="#ECF0F1" d="M40.972-.018L0 24.032l40.972 24.052 41.034-24.05L40.972-.02z"/><path fill="#D48A6D" d="M40.972 4.01L5.992 24.034l34.98 20.022 34.98-20.022L40.973 4.01z"/><path fill="#7F8C8D" d="M34.98 54.98l-6.988-3.998v12.992l6.99 3.996V54.98zM24.996 48.983l-6.99-3.998V57.98l6.99 3.995V48.983zM15.01 42.987L8.023 38.99v12.99l6.99 3.998v-12.99zM34.98 71.97l-6.988-3.997v12.99l6.99 3.998V71.97zM24.996 65.973l-6.99-3.996v12.99l6.99 3.998V65.973zM15.01 59.977L8.023 55.98v12.99l6.99 4V59.976z"/><path fill="#BDC3C7" d="M74.015 44.58l-7.007 4.372v2l7.007-4.373zM74.015 61.58l-7.007 4.372v2l7.007-4.374zM64.006 50.576L57 54.95v1.997l7.006-4.373zM53.998 56.572l-7.004 4.373v1.998l7.004-4.37zM53.998 73.572l-7.004 4.373v1.998l7.004-4.37z"/><path fill="#95A5A6" d="M27.992 56.604v2l6.99 4.37v-1.997zM27.992 73.594v1.998l6.99 4.373v-2zM18.007 67.598v1.998l6.99 4.373v-2zM18.007 50.607v1.998l6.99 4.374v-2zM8.02 61.6v1.998l6.99 4.375v-2zM8.02 44.61v1.998l6.99 4.374v-2z"/><path fill="#AA6F57" d="M40.972 6.01l33.234 19.023 1.747-1L40.973 4.01 5.99 24.034l1.748 1z"/></svg>