<svg xmlns="http://www.w3.org/2000/svg" width="100" height="100"><circle fill="#F0C419" cx="50" cy="50" r="50"/><clipPath id="a"><circle cx="50" cy="50" r="50"/></clipPath><g fill-rule="evenodd" clip-rule="evenodd" clip-path="url(#a)"><path fill="#FCF062" d="M7.62 21.663L50 50 21.69 7.594 7.62 21.664zm84.774.02L78.33 7.606 50 50 .005 40.04 0 59.94 50 50 7.606 78.32 21.67 92.393 50 50l-9.958 50.01 19.895.005L50 50l28.31 42.407 14.07-14.07L50 50l42.394-28.318zM100 40.06L50 50l49.996 9.962.004-19.9zM40.063-.013L50 50 59.958-.01 40.063-.014z"/><path fill="#FCF062" stroke="#F29C1F" stroke-width="4" stroke-miterlimit="10" d="M60 93H40c0-7.575-3.487-17.565-7.99-21.324C25.89 66.516 22 58.778 22 50.126 22 34.59 34.536 22 50 22s28 12.592 28 28.125c0 8.667-4.156 16.13-10.04 21.576C63.19 76.47 60 85.467 60 93z"/><path fill="#F29C1F" d="M53 95c-.553 0-1-.447-1-1V61h-4v33c0 .553-.448 1-1 1h-2c-.552 0-1-.447-1-1V61h-2.5c-3.584 0-6.5-2.916-6.5-6.5s2.916-6.5 6.5-6.5c3.31 0 6.04 2.427 6.446 5.684.035.1.054.206.054.316v3h4v-3c0-.115.02-.226.056-.33.41-3.25 3.14-5.67 6.444-5.67 3.584 0 6.5 2.916 6.5 6.5S62.084 61 58.5 61H56v33c0 .553-.447 1-1 1h-2zm5.5-38c1.38 0 2.5-1.12 2.5-2.5S59.88 52 58.5 52c-1.226 0-2.283.92-2.46 2.143l-.04.173V57h2.5zm-17-5c-1.378 0-2.5 1.12-2.5 2.5s1.122 2.5 2.5 2.5H44v-2.692l-.04-.165C43.784 52.92 42.726 52 41.5 52z"/><path fill="#E57E25" d="M38 91h24v9H38v-9zM44 64h4v-3h-4v3zm8-3v3h4v-3h-4z"/></g></svg>