<svg xmlns="http://www.w3.org/2000/svg" width="512" height="512" viewBox="0 0 512 512"><path d="M512 256c0 141.382-114.61 256-256 256C114.616 512 0 397.382 0 256 0 114.62 114.616 0 256 0c141.39 0 256 114.62 256 256z" fill="#45B39C"/><path d="M506.417 255.887c-8.093 0-15.715 1.953-22.494 5.342-2.734-16.79-16.606-29.814-33.807-31.22.1-1.126.172-2.257.172-3.41 0-16.72-10.973-30.872-26.11-35.67-.794-19.964-17.185-35.917-37.343-35.917-20.667 0-37.422 16.754-37.422 37.422 0 16.72 10.973 30.873 26.107 35.67.756 18.934 15.54 34.23 34.265 35.762-.1 1.123-.173 2.258-.173 3.41 0 20.666 16.755 37.42 37.422 37.42 3.14 0 6.172-.43 9.087-1.158-.05.93-.14 1.845-.14 2.786 0 22.933 15.32 42.256 36.272 48.38 12.682-30.315 19.715-63.583 19.74-98.493-1.832-.204-3.687-.326-5.575-.326z" fill="#389B83"/><path d="M376.458 151.073c.402-2.468.664-4.986.664-7.568 0-26.03-21.102-47.13-47.13-47.13-2.407 0-4.75.237-7.062.583-9.524-12.675-24.64-20.91-41.72-20.91-9.317 0-18.044 2.468-25.616 6.744-11.15-19.205-31.886-32.15-55.69-32.15-29.073 0-53.628 19.27-61.638 45.73-9.403-7.612-21.367-12.188-34.408-12.188-30.24 0-54.754 24.51-54.754 54.752 0 .46.057.905.068 1.36-1.744-.13-3.498-.22-5.275-.22-5.952 0-11.726.754-17.234 2.17C9.626 176.523 0 215.128 0 256c0 2.147.11 4.267.16 6.4 11.905 9.77 27.135 15.64 43.737 15.64 38.098 0 68.982-30.883 68.982-68.982 0-5.473-.655-10.788-1.86-15.89 19.475-2.55 35.738-15.285 43.196-32.73 11.67 11.742 27.825 19.02 45.687 19.02 16.367 0 31.264-6.155 42.627-16.214 9.555 10.556 23.32 17.23 38.68 17.23 5.768 0 11.303-.975 16.49-2.702 4.23 3.99 9.183 7.21 14.66 9.42-.002.177-.025.35-.025.525 0 23.507 19.053 42.557 42.557 42.557 23.505 0 42.558-19.05 42.558-42.557 0-15.625-8.445-29.24-20.992-36.644z" fill="#308C74"/><path d="M496.437 344.097c-2.514-2.29-5.297-4.277-8.254-6-2.164-22.547-20.035-40.51-42.55-42.79 2.968-5.658 4.67-12.087 4.67-18.92 0-20.907-15.745-38.118-36.02-40.478.608-3.188.957-6.465.957-9.83 0-28.3-22.53-51.287-50.627-52.133.202-2.158.32-4.347.32-6.56 0-38.1-30.888-68.98-68.984-68.98-15.594 0-29.976 5.18-41.528 13.903-10.364-17.43-29.335-29.148-51.085-29.148-27.065 0-49.864 18.1-57.06 42.842-9.08-6.77-20.306-10.828-32.504-10.828-30.1 0-54.5 24.4-54.5 54.5 0 4.627.64 9.096 1.724 13.387-.32-.007-.637-.05-.96-.05-24.84 0-44.974 20.136-44.974 44.974 0 5.877 1.16 11.475 3.21 16.62-2.692-.882-5.56-1.376-8.546-1.376-3.326 0-6.497.624-9.447 1.704C.122 248.606 0 252.287 0 256c0 4.88.193 9.716.47 14.526l-.032.024c.033.604.108 1.2.146 1.804.18 2.78.4 5.554.67 8.308.14 1.474.287 2.944.453 4.413.253 2.203.548 4.395.855 6.58.235 1.703.456 3.406.727 5.098.03.196.05.393.082.586.006.003.016.003.02.003C23.166 419.06 128.7 512 256 512c88.57 0 166.618-44.983 212.582-113.34-.015-.024-.036-.05-.05-.072 11.353-16.856 20.797-35.102 27.905-54.49z" fill="#236D58"/><path d="M33.452 382.465C77.5 459.808 160.628 512 256 512c95.376 0 178.505-52.192 222.55-129.535H33.453z" fill="#216854"/><path d="M451.378 421.34c21.54-25.426 38.213-55.087 48.562-87.59-1.432-.142-2.885-.22-4.355-.22-11.9 0-22.67 4.755-30.585 12.434.032-.702.113-1.398.113-2.107 0-29.096-23.59-52.687-52.69-52.687-9.703 0-18.764 2.67-26.576 7.244-3.63-19.407-20.635-34.11-41.094-34.11-18.418 0-34.032 11.928-39.618 28.465-5.43-1.71-11.21-2.636-17.204-2.636-27.428 0-50.32 19.275-55.968 44.998 33.238 33.586 71.03 62.63 112.357 86.207h107.058z" fill="#134435"/><path d="M172.332 177.25c0-3.93-3.183-7.114-7.113-7.114-3.932 0-7.114 3.186-7.114 7.113v61.187c0 3.927 3.183 7.112 7.113 7.112 3.93 0 7.112-3.187 7.112-7.113V177.25zM186.09 177.25c0-3.93-3.185-7.114-7.114-7.114-3.932 0-7.113 3.186-7.113 7.113v61.187c0 3.927 3.182 7.112 7.113 7.112 3.93 0 7.115-3.187 7.115-7.113V177.25zM200.317 177.25c0-3.93-3.183-7.114-7.113-7.114-3.93 0-7.113 3.186-7.113 7.113v61.187c0 3.927 3.185 7.112 7.114 7.112 3.93 0 7.113-3.187 7.113-7.113V177.25z" fill="#995F1A"/><path d="M164.436 170.213c-3.555.395-6.33 3.376-6.33 7.036v61.187c0 3.658 2.775 6.64 6.33 7.035v-75.26zM178.42 170.192c-3.664.285-6.558 3.316-6.558 7.057v61.187c0 3.74 2.894 6.77 6.56 7.057v-75.302zM191.927 234.387v-64.123c-3.32.607-5.836 3.495-5.836 6.985v57.137h5.837z" fill="#4C2E0B"/><path d="M383.118 422.443c0 12.988 12.557 23.522-.432 23.522H125.618c-12.988 0 .55-10.534.55-23.522V301.91c0-12.985 112.256-121.71 125.24-121.71l61.74 43.51c12.99 0 69.97 65.215 69.97 78.2v120.533z" fill="#664110"/><path d="M313.147 223.71L251.41 180.2c-12.986 0-125.24 108.725-125.24 121.71v24.944c2.536-.74 4.95-2.05 7.022-3.966l119.863-110.824L372.92 322.888c2.924 2.706 6.518 4.21 10.197 4.585V301.91c0-7.745-20.262-34.054-39.37-54.038l-20.474-18.926c-4.33-3.27-7.887-5.236-10.126-5.236z" fill="#4C2E0B"/><path d="M151.993 135.752c8.962 0 16.22 7.265 16.22 16.228h-32.448c0-8.963 7.265-16.228 16.228-16.228z" fill="#D8D8D8"/><path d="M175.82 144.3c8.954 0 16.22 7.26 16.22 16.222h-32.455c0-8.962 7.27-16.222 16.234-16.222z" fill="#fff"/><path d="M108 92.5c11.35 0 20.545 9.204 20.545 20.555H87.45c0-11.35 9.2-20.554 20.55-20.554z" fill="#D8D8D8"/><path d="M138.175 103.327c11.344 0 20.544 9.194 20.544 20.545h-41.102c0-11.35 9.205-20.545 20.557-20.545z" fill="#fff"/><path d="M396.868 279.15L265.052 157.27c-1.885-1.748-4.053-2.986-6.34-3.755l-.008-.003c-.524-.176-1.052-.328-1.584-.453-.078-.022-.155-.033-.23-.048-.46-.102-.926-.193-1.393-.256-.164-.024-.334-.033-.5-.055-.375-.04-.75-.08-1.13-.097-.27-.012-.544-.003-.81-.006-.275.003-.546-.006-.817.006-.378.018-.753.057-1.13.098-.165.022-.332.03-.5.056-.466.062-.93.154-1.395.256-.07.015-.148.026-.223.047-.536.124-1.062.276-1.588.452l-.008.003c-2.287.77-4.455 2.007-6.34 3.755L109.24 279.15c-7.153 6.615-7.59 17.772-.978 24.927 6.615 7.152 17.775 7.59 24.93.97L253.056 194.22 372.92 305.048c7.153 6.62 18.31 6.182 24.925-.97 6.613-7.155 6.176-18.312-.977-24.93z" fill="#664110"/><path fill="#995F1A" d="M124.775 417.177h257.91v28.79h-257.91z"/><path fill="#4C2E0B" d="M124.775 432.886h257.91v13.08h-257.91z"/><path fill="#995F1A" d="M124.775 389.06h257.91v28.79h-257.91z"/><path fill="#4C2E0B" d="M124.775 404.77h257.91v13.08h-257.91z"/><path fill="#995F1A" d="M124.775 360.944h257.91v28.79h-257.91z"/><path fill="#4C2E0B" d="M124.775 376.653h257.91v13.08h-257.91z"/><path fill="#995F1A" d="M124.775 332.827h257.91v28.79h-257.91z"/><path fill="#4C2E0B" d="M124.775 348.536h257.91v13.08h-257.91z"/><path fill="#995F1A" d="M124.775 304.712h257.91v28.79h-257.91z"/><path fill="#4C2E0B" d="M124.775 320.423h257.91V333.5h-257.91z"/><path fill="#995F1A" d="M124.775 276.595h257.91v28.79h-257.91z"/><path fill="#4C2E0B" d="M120.217 295.356h257.91v13.076h-257.91z"/><path fill="#995F1A" d="M161.905 248.48h183.65v28.788h-183.65z"/><path fill="#4C2E0B" d="M148.34 264.19h210.783v13.078H148.34z"/><path fill="#995F1A" d="M186.3 220.366h134.863v28.79H186.3z"/><path fill="#4C2E0B" d="M174.387 236.075h158.687v13.08H174.387z"/><path fill="#995F1A" d="M211.186 192.25h85.09v28.788h-85.09z"/><path fill="#4C2E0B" d="M200.85 207.958h105.763v13.08H200.85z"/><path d="M111.15 431.71c0-7.99 6.48-14.468 14.468-14.468 7.992 0 14.47 6.48 14.47 14.467 0 7.99-6.478 14.467-14.47 14.467-7.988 0-14.468-6.476-14.468-14.468z" fill="#E2B279"/><path fill="#331D07" d="M216.206 325.282h70.433V445.82h-70.434z"/><path d="M201.43 337.747c0 1.053-.853 1.904-1.903 1.904H146.55c-1.05 0-1.905-.85-1.905-1.903 0-1.055.854-1.906 1.905-1.906h52.977c1.05 0 1.904.852 1.904 1.907zM352.736 343.464c0 1.053-.854 1.904-1.905 1.904h-52.976c-1.05 0-1.905-.852-1.905-1.904 0-1.055.854-1.906 1.904-1.906h52.977c1.052 0 1.906.85 1.906 1.906zM213.246 312.593c0 1.055-.854 1.906-1.905 1.906h-52.976c-1.05 0-1.905-.853-1.905-1.907 0-1.055.854-1.906 1.904-1.906h52.977c1.052 0 1.906.85 1.906 1.906zM298.235 281.722c0 1.055-.853 1.906-1.904 1.906h-52.976c-1.05 0-1.906-.852-1.906-1.906 0-1.053.855-1.904 1.906-1.904h52.977c1.052 0 1.905.85 1.905 1.904zM229.95 290.593c0 1.054-.855 1.905-1.906 1.905h-52.976c-1.05 0-1.905-.85-1.905-1.905 0-1.055.854-1.906 1.905-1.906h52.976c1.05 0 1.906.85 1.906 1.906zM363.018 291.208c0 1.055-.855 1.906-1.905 1.906h-52.977c-1.05 0-1.905-.852-1.905-1.906 0-1.054.855-1.905 1.906-1.905h52.977c1.05 0 1.905.85 1.905 1.905zM248.69 255.044c0 1.055-.854 1.906-1.905 1.906H193.81c-1.052 0-1.906-.852-1.906-1.906 0-1.054.854-1.905 1.906-1.905h52.975c1.05 0 1.906.85 1.906 1.904zM282.61 225.698c0 1.055-.855 1.906-1.906 1.906h-52.976c-1.05 0-1.905-.852-1.905-1.906 0-1.055.854-1.906 1.905-1.906h52.976c1.05 0 1.906.852 1.906 1.906zM211.722 366.33c0 1.054-.854 1.905-1.906 1.905H156.84c-1.05 0-1.905-.852-1.905-1.905 0-1.054.854-1.905 1.906-1.905h52.976c1.05 0 1.906.85 1.906 1.905zM367.22 365.568c0 1.054-.855 1.905-1.906 1.905h-52.977c-1.05 0-1.905-.852-1.905-1.905 0-1.055.854-1.906 1.905-1.906h52.977c1.05 0 1.905.852 1.905 1.906zM347.02 394.15c0 1.056-.854 1.907-1.905 1.907h-52.977c-1.05 0-1.905-.852-1.905-1.906 0-1.053.854-1.904 1.905-1.904h52.977c1.05 0 1.905.852 1.905 1.905zM198.382 394.533c0 1.054-.854 1.905-1.905 1.905H143.5c-1.05 0-1.905-.852-1.905-1.905 0-1.055.855-1.906 1.906-1.906h52.977c1.05 0 1.905.85 1.905 1.906zM365.314 422.735c0 1.054-.855 1.905-1.906 1.905h-52.976c-1.05 0-1.905-.852-1.905-1.905 0-1.054.854-1.905 1.905-1.905h52.976c1.05 0 1.906.852 1.906 1.905z" fill="#BA7F3E"/><path d="M396.868 279.15L265.052 157.27c-1.885-1.748-4.053-2.986-6.34-3.755l-.008-.003c-.524-.176-1.052-.328-1.584-.453-.078-.022-.155-.033-.23-.048-.46-.102-.926-.193-1.393-.256-.164-.024-.334-.033-.5-.055-.375-.04-.75-.08-1.13-.097-.27-.012-.544-.003-.81-.006-.275.003-.546-.006-.817.006-.378.018-.753.057-1.13.098-.165.022-.332.03-.5.056-.466.062-.93.154-1.395.256-.07.015-.148.026-.223.047-.536.124-1.062.276-1.588.452l-.008.003c-2.287.77-4.455 2.007-6.34 3.755L109.24 279.15c-7.153 6.615-7.59 17.772-.978 24.927 6.615 7.152 17.775 7.59 24.93.97L253.056 194.22 372.92 305.048c7.153 6.62 18.31 6.182 24.925-.97 6.613-7.155 6.176-18.312-.977-24.93z" fill="#995F1A"/><path d="M382.687 292.108L265.052 183.34c-1.885-1.747-4.053-2.985-6.34-3.754l-.008-.003c-.524-.176-1.052-.327-1.584-.453-.078-.02-.155-.032-.23-.047-.46-.102-.926-.193-1.393-.256-.164-.023-.334-.033-.5-.054-.375-.042-.75-.08-1.13-.1-.27-.01-.544-.002-.81-.005-.275.003-.546-.006-.817.006-.378.018-.753.057-1.13.1-.165.02-.332.03-.5.053-.466.062-.93.154-1.395.256-.07.015-.148.027-.223.047-.536.126-1.062.277-1.588.453l-.008.003c-2.287.77-4.455 2.007-6.34 3.755l-116.28 107.515v44.53c3.043-.628 5.97-2.003 8.417-4.267L253.056 220.29 372.92 331.12c2.812 2.6 6.24 4.074 9.767 4.514v-43.524z" opacity=".5" fill="#4C2E0B"/><path d="M133.192 305.048L253.056 194.22 372.92 305.048c6.995 6.473 17.792 6.15 24.455-.554-.182-.185-.315-.396-.507-.57L265.052 182.04c-1.885-1.747-4.053-2.986-6.34-3.754l-.008-.003c-.524-.176-1.052-.327-1.584-.452-.078-.02-.155-.033-.23-.05-.46-.1-.926-.192-1.393-.255-.164-.023-.334-.032-.5-.053-.375-.042-.75-.08-1.13-.1-.27-.012-.544-.002-.81-.005-.275.003-.546-.007-.817.006-.378.018-.753.057-1.13.1-.165.02-.332.028-.5.052-.466.062-.93.155-1.395.256-.07.016-.148.027-.223.05-.536.124-1.062.275-1.588.45l-.008.004c-2.287.768-4.455 2.007-6.34 3.754L109.24 303.922c-.192.177-.326.388-.508.572 6.664 6.705 17.464 7.027 24.46.554z" fill="#4C2E0B"/><path d="M111.15 402.777c0-7.988 6.48-14.468 14.468-14.468 7.992 0 14.47 6.478 14.47 14.467 0 7.988-6.478 14.468-14.47 14.468-7.988 0-14.468-6.48-14.468-14.468zM111.15 373.846c0-7.992 6.48-14.468 14.468-14.468 7.992 0 14.47 6.476 14.47 14.468 0 7.988-6.478 14.467-14.47 14.467-7.988 0-14.468-6.48-14.468-14.467zM111.15 344.91c0-7.988 6.48-14.468 14.468-14.468 7.992 0 14.47 6.48 14.47 14.468 0 7.99-6.478 14.47-14.47 14.47-7.988 0-14.468-6.48-14.468-14.47zM111.15 315.978c0-7.988 6.48-14.467 14.468-14.467 7.992 0 14.47 6.48 14.47 14.468 0 7.992-6.478 14.47-14.47 14.47-7.988-.002-14.468-6.478-14.468-14.47z" fill="#E2B279"/><circle cx="125.62" cy="315.978" r="10.658" fill="#995F1A"/><circle cx="125.62" cy="344.69" r="10.658" fill="#995F1A"/><circle cx="125.62" cy="373.401" r="10.658" fill="#995F1A"/><circle cx="125.62" cy="402.113" r="10.658" fill="#995F1A"/><circle cx="382.688" cy="431.709" r="14.468" fill="#E2B279"/><circle cx="382.688" cy="402.777" r="14.468" fill="#E2B279"/><circle cx="382.688" cy="373.846" r="14.468" fill="#E2B279"/><circle cx="382.688" cy="344.91" r="14.468" fill="#E2B279"/><circle cx="382.688" cy="315.978" r="14.468" fill="#E2B279"/><path d="M297.602 322.758c0-3.228-2.617-5.845-5.845-5.845h-84.61c-3.226 0-5.843 2.617-5.843 5.845 0 3.228 2.617 5.845 5.844 5.845h84.61c3.226 0 5.844-2.618 5.844-5.845z" fill="#E2B279"/><path d="M154.628 254.07c.71.777.652 1.983-.122 2.692l-39.134 35.71c-.773.707-1.98.656-2.69-.124-.71-.777-.653-1.982.12-2.69l39.13-35.71c.778-.71 1.984-.658 2.696.122zM221.958 180.77c.712.777.652 1.983-.122 2.692l-39.134 35.708c-.773.71-1.98.658-2.69-.12s-.653-1.984.122-2.692l39.13-35.71c.776-.708 1.983-.657 2.694.122zM277.834 174.927c-.712.777-.65 1.982.122 2.69l39.133 35.71c.774.71 1.98.658 2.69-.123.71-.776.652-1.982-.12-2.69l-39.132-35.71c-.777-.708-1.982-.658-2.694.123zM300.192 207.958c-.712.777-.652 1.983.122 2.69l39.134 35.71c.773.71 1.98.658 2.69-.12s.653-1.984-.122-2.692l-39.13-35.71c-.776-.708-1.983-.657-2.694.122z" fill="#BA7F3E"/><path d="M203.85 435.315c-5.855 0-11.15 2.337-15.043 6.115.015-.345.054-.688.054-1.036 0-14.312-11.603-25.916-25.915-25.916-4.773 0-9.23 1.314-13.072 3.565-1.785-9.546-10.15-16.778-20.213-16.778-9.06 0-16.74 5.866-19.488 14-2.67-.84-5.515-1.295-8.463-1.295-13.49 0-24.753 9.48-27.53 22.135 16.35 16.518 34.938 30.805 55.266 42.402h74.404c11.928 0 21.596-9.668 21.596-21.596-.002-11.927-9.67-21.595-21.597-21.595z" fill="#134435"/><path d="M372.19 315.978c0-5.883 4.772-10.656 10.655-10.656 5.887 0 10.66 4.773 10.66 10.656 0 5.887-4.773 10.657-10.66 10.657-5.883 0-10.656-4.77-10.656-10.657zM372.19 344.942c0-5.883 4.772-10.656 10.655-10.656 5.887 0 10.66 4.773 10.66 10.656 0 5.887-4.773 10.657-10.66 10.657-5.883 0-10.656-4.77-10.656-10.658zM372.19 373.91c0-5.883 4.772-10.655 10.655-10.655 5.887 0 10.66 4.772 10.66 10.656 0 5.887-4.773 10.657-10.66 10.657-5.883 0-10.656-4.77-10.656-10.656zM372.19 402.56c0-5.883 4.772-10.656 10.655-10.656 5.887 0 10.66 4.773 10.66 10.656 0 5.887-4.773 10.657-10.66 10.657-5.883 0-10.656-4.77-10.656-10.657zM372.19 431.46c0-5.884 4.772-10.657 10.655-10.657 5.887 0 10.66 4.773 10.66 10.656 0 5.886-4.773 10.655-10.66 10.655-5.883 0-10.656-4.77-10.656-10.656z" fill="#995F1A"/></svg>