<svg xmlns="http://www.w3.org/2000/svg" width="512" height="512" viewBox="0 0 512 512"><circle cx="256" cy="256" r="256" fill="#E05B49"/><path d="M404.512 382.85H69.245c-6.032 0-10.922-4.892-10.922-10.924 0-6.032 4.89-10.92 10.922-10.92h335.267c18.067 0 32.765-14.7 32.765-32.766v-4.225c0-18.07-14.697-32.766-32.765-32.766H69.245c-6.032 0-10.922-4.892-10.922-10.924 0-6.033 4.89-10.92 10.922-10.92h335.267c30.11 0 54.608 24.496 54.608 54.61v4.224c0 30.11-24.497 54.61-54.608 54.61z" fill="#5B2B0B"/><path d="M69.245 361.005h335.267c18.067 0 32.765-14.7 32.765-32.766v-4.226c0-18.07-14.697-32.766-32.765-32.766H69.245c-.7 0-1.38-.082-2.036-.205v70.167c.656-.125 1.336-.205 2.035-.205z" fill="#fff"/><path d="M303.118 324.61h106.154c5.714 0 10.37-4.654 10.37-10.376v-1.337c0-5.72-4.656-10.374-10.37-10.374H303.118c-.227 0-235.704-.028-235.91-.067v22.218c.206-.038 235.684-.064 235.91-.064zM303.118 354.1h106.154c5.714 0 10.37-4.656 10.37-10.376v-1.34c0-5.72-4.656-10.37-10.37-10.37H303.118c-.227 0-236.252-.03-236.457-.068v22.217c.206-.038 236.232-.064 236.458-.064z" fill="#EFC84A"/><path d="M186.07 281.823l233-2.914 31.31 37.133 8.578 3.588c-3.438-108.478-92.398-195.375-201.71-195.375-8.07 0-16.015.526-23.84 1.45L62.963 271.397s-.843 4.127-1.104 3.858c-.284 1.085-.483 2.203-.752 3.296l124.963 3.27zM137.288 334.808c0 4.267-3.46 7.728-7.725 7.728-4.272 0-7.73-3.46-7.73-7.728v-45.072c0-4.268 3.458-7.728 7.73-7.728 4.265 0 7.725 3.46 7.725 7.728v45.072zM244.708 347.08c0 4.858-3.94 8.797-8.793 8.797-4.865 0-8.802-3.94-8.802-8.797V280.6c0-4.86 3.936-8.796 8.802-8.796v15.173c4.854 0 8.793-11.237 8.793-6.378v66.48zM149.2 316.344c0 2.845-2.307 5.15-5.15 5.15-2.844 0-5.15-2.305-5.15-5.15V286.3c0-2.846 2.307-5.153 5.15-5.153 2.844 0 5.15 2.307 5.15 5.154v30.044zM253.843 316.344c0 2.845-2.31 5.15-5.15 5.15-2.848 0-5.154-2.305-5.154-5.15V286.3c0-2.846 2.306-5.153 5.152-5.153 2.84 0 5.15 2.307 5.15 5.154v30.044z" fill="#5B2B0B"/><path d="M244.24 213.26c0-27.347 22.17-49.51 49.51-49.51 27.347 0 49.514 22.164 49.514 49.51s-22.167 49.51-49.513 49.51c-27.34 0-49.51-22.165-49.51-49.51z" fill="#3F1E07"/><path d="M223.21 202.46c0-27.347 22.168-49.512 49.508-49.512 27.346 0 49.513 22.165 49.513 49.51 0 27.346-22.166 49.513-49.512 49.513-27.34 0-49.508-22.166-49.508-49.51z" fill="#D15322"/><path d="M235.767 205.87c-1.885 0-3.41-1.526-3.41-3.41 0-22.257 18.107-40.363 40.36-40.363 1.89 0 3.413 1.527 3.413 3.41 0 1.886-1.524 3.413-3.412 3.413-18.494 0-33.54 15.045-33.54 33.54 0 1.883-1.524 3.41-3.41 3.41z" fill="#EFB5A3"/></svg>