<svg xmlns="http://www.w3.org/2000/svg" width="100" height="100"><path fill="#EBEDEE" d="M4 0h92c2.21 0 4 1.79 4 4v89c0 2.21-1.79 4-4 4H4c-2.21 0-4-1.79-4-4V4c0-2.21 1.79-4 4-4z"/><path fill="#BDC3C7" d="M12 7h76c2.21 0 4 1.79 4 4v15c0 2.21-1.79 4-4 4H12c-2.21 0-4-1.79-4-4V11c0-2.21 1.79-4 4-4z"/><path fill="#3498DB" d="M12 35h17c2.21 0 4 1.79 4 4v15c0 2.21-1.79 4-4 4H12c-2.21 0-4-1.79-4-4V39c0-2.21 1.79-4 4-4zM42 35h17c2.21 0 4 1.79 4 4v15c0 2.21-1.79 4-4 4H42c-2.21 0-4-1.79-4-4V39c0-2.21 1.79-4 4-4zM12 65h17c2.21 0 4 1.79 4 4v15c0 2.21-1.79 4-4 4H12c-2.21 0-4-1.79-4-4V69c0-2.21 1.79-4 4-4zM42 65h17c2.21 0 4 1.79 4 4v15c0 2.21-1.79 4-4 4H42c-2.21 0-4-1.79-4-4V69c0-2.21 1.79-4 4-4z"/><path fill="#34495E" d="M72 65h16c2.21 0 4 1.79 4 4v15c0 2.21-1.79 4-4 4H72c-2.21 0-4-1.79-4-4V69c0-2.21 1.79-4 4-4z"/><path fill="#fff" d="M84.5 78h-9c-.828 0-1.5.672-1.5 1.5s.672 1.5 1.5 1.5h9c.828 0 1.5-.672 1.5-1.5s-.672-1.5-1.5-1.5zm-9-3h9c.828 0 1.5-.672 1.5-1.5s-.672-1.5-1.5-1.5h-9c-.828 0-1.5.672-1.5 1.5s.672 1.5 1.5 1.5z"/><path fill="#E74C3C" d="M72 35h16c2.21 0 4 1.79 4 4v15c0 2.21-1.79 4-4 4H72c-2.21 0-4-1.79-4-4V39c0-2.21 1.79-4 4-4z"/><path fill="#fff" d="M75 46.5c0-3.032 2.78-5.5 6.2-5.5h1.49c.723 0 1.31.896 1.31 1.537s-.587 1.412-1.31 1.412H81.2c-1.976 0-3.206.8-3.206 2.55s1.23 2.488 3.205 2.488h1.49c.723 0 1.372.833 1.372 1.475 0 .643-.65 1.537-1.373 1.537H81.2c-3.42 0-6.2-2.467-6.2-5.5zM25.5 45H22v-3.5c0-.828-.67-1.5-1.5-1.5-.828 0-1.5.672-1.5 1.5V45h-3.5c-.828 0-1.5.672-1.5 1.5s.672 1.5 1.5 1.5H19v3.5c0 .828.672 1.5 1.5 1.5.83 0 1.5-.672 1.5-1.5V48h3.5c.83 0 1.5-.672 1.5-1.5s-.67-1.5-1.5-1.5zM25.5 75h-10c-.828 0-1.5.672-1.5 1.5s.672 1.5 1.5 1.5h10c.83 0 1.5-.672 1.5-1.5s-.67-1.5-1.5-1.5zM55.5 75h-10c-.828 0-1.5.672-1.5 1.5s.672 1.5 1.5 1.5h10c.828 0 1.5-.672 1.5-1.5s-.672-1.5-1.5-1.5zm-5-2c.828 0 1.5-.672 1.5-1.5s-.672-1.5-1.5-1.5-1.5.672-1.5 1.5.672 1.5 1.5 1.5zm0 7c-.828 0-1.5.672-1.5 1.5 0 .83.672 1.5 1.5 1.5s1.5-.67 1.5-1.5c0-.828-.672-1.5-1.5-1.5zM55.52 49.208l-2.725-2.725 2.697-2.696c.64-.64.64-1.675 0-2.313-.64-.64-1.674-.64-2.312 0l-2.697 2.697-2.697-2.696c-.64-.64-1.673-.64-2.312 0-.638.638-.638 1.673 0 2.312l2.697 2.697-2.695 2.696c-.64.638-.64 1.673 0 2.312.638.638 1.672.638 2.31 0l2.698-2.697 2.724 2.725.004-.002c.642.61 1.653.604 2.282-.024.63-.63.635-1.642.023-2.28l.005-.006z"/><path fill="#7F8C8D" d="M85 20v4l1.562 1L88 24v-4l-1.438-1L85 20zm1.562-8L85 13v4l1.562 1L88 17v-4l-1.438-1zM79 20l-1.438-1L76 20v4l1.562 1L79 24v-4zm0-3v-4l-1.438-1L76 13v4l1.562 1L79 17zm5-4l2-1.438L84 10h-4l-2 1.562L80 13h4zm-4 11l-2 1.562L80 27h4l2-1.438L84 24h-4z"/><path fill="#95A5A6" d="M88 7H12c-2.21 0-4 1.79-4 4v2c0-2.21 1.79-4 4-4h76c2.21 0 4 1.79 4 4v-2c0-2.21-1.79-4-4-4z"/><path fill="#C0392C" d="M88 58H72c-2.21 0-4-1.79-4-4v2c0 2.21 1.79 4 4 4h16c2.21 0 4-1.79 4-4v-2c0 2.21-1.79 4-4 4z"/><path fill="#2C3E50" d="M88 88H72c-2.21 0-4-1.79-4-4v2c0 2.21 1.79 4 4 4h16c2.21 0 4-1.79 4-4v-2c0 2.21-1.79 4-4 4z"/><path fill="#2980B9" d="M59 58H42c-2.21 0-4-1.79-4-4v2c0 2.21 1.79 4 4 4h17c2.21 0 4-1.79 4-4v-2c0 2.21-1.79 4-4 4zM59 88H42c-2.21 0-4-1.79-4-4v2c0 2.21 1.79 4 4 4h17c2.21 0 4-1.79 4-4v-2c0 2.21-1.79 4-4 4zM29 88H12c-2.21 0-4-1.79-4-4v2c0 2.21 1.79 4 4 4h17c2.21 0 4-1.79 4-4v-2c0 2.21-1.79 4-4 4zM29 58H12c-2.21 0-4-1.79-4-4v2c0 2.21 1.79 4 4 4h17c2.21 0 4-1.79 4-4v-2c0 2.21-1.79 4-4 4z"/><path fill="#BDC3C7" d="M96 97H4c-2.21 0-4-1.79-4-4v3c0 2.21 1.79 4 4 4h92c2.21 0 4-1.79 4-4v-3c0 2.21-1.79 4-4 4z"/></svg>