<svg xmlns="http://www.w3.org/2000/svg" width="100" height="100"><path fill="#EBEDED" d="M100 95c0 2.76-2.24 5-5 5H5c-2.76 0-5-2.24-5-5V5c0-2.76 2.24-5 5-5h90c2.76 0 5 2.24 5 5v90z"/><path fill="#D4D7DA" d="M95 97H5c-2.76 0-5-2.24-5-5v3c0 2.76 2.24 5 5 5h90c2.76 0 5-2.24 5-5v-3c0 2.76-2.24 5-5 5z"/><path fill="#E64C3C" d="M0 31V5c0-2.76 2.24-5 5-5h90c2.76 0 5 2.24 5 5v26H0z"/><path fill="#C03A2B" d="M0 28h100v2.75H0z"/><path d="M30.344 8.576l2.672 7.855h.032l2.528-7.854h3.536V20H36.76v-8.096h-.032L33.928 20h-1.936l-2.8-8.016h-.032V20h-2.352V8.576h3.536zm11.04 4.368c.234-.353.533-.635.896-.85.362-.212.77-.364 1.224-.455.453-.09.91-.137 1.368-.137.416 0 .837.03 1.264.088s.816.175 1.168.345c.352.17.64.408.864.713.224.304.336.706.336 1.208v4.304c0 .373.02.73.064 1.072.042.34.117.597.224.768h-2.304l-.104-.392-.056-.408c-.363.373-.79.635-1.28.784-.49.148-.992.224-1.504.224-.395 0-.763-.048-1.104-.144-.342-.097-.64-.246-.896-.448-.256-.203-.456-.46-.6-.77-.144-.308-.216-.676-.216-1.103 0-.47.083-.856.248-1.16.166-.304.38-.547.64-.728.26-.182.56-.317.896-.408s.675-.163 1.016-.216c.34-.053.677-.096 1.008-.128.33-.03.624-.08.88-.144.256-.063.458-.157.608-.28.15-.122.218-.3.208-.536 0-.245-.04-.44-.12-.584-.08-.144-.187-.256-.32-.336-.134-.08-.288-.133-.464-.16-.176-.026-.365-.04-.568-.04-.448 0-.8.097-1.056.288-.256.192-.405.513-.448.96h-2.272c.032-.532.165-.974.4-1.326zm4.488 3.208c-.144.048-.298.088-.464.12l-.52.08-.544.08c-.17.03-.34.074-.504.127-.166.053-.31.125-.432.216s-.22.205-.296.344-.112.315-.112.528c0 .202.037.373.112.512s.176.248.304.328c.128.08.277.136.448.168.17.032.347.048.528.048.448 0 .795-.074 1.04-.224.246-.15.427-.328.544-.536.118-.208.19-.42.216-.633.026-.212.04-.383.04-.51v-.85c-.096.087-.216.154-.36.202zm6.552-4.424v1.536h.032c.106-.256.25-.493.432-.712.182-.218.39-.405.624-.56s.485-.274.752-.36c.267-.085.544-.128.832-.128.15 0 .314.026.496.08v2.112l-.384-.057-.433-.024c-.416 0-.768.07-1.056.208s-.522.328-.697.567c-.176.24-.302.522-.376.842-.074.32-.11.666-.11 1.04V20h-2.273v-8.272h2.16zm7.727 1.488c-.36 0-.665.083-.91.248-.246.166-.446.38-.6.64-.155.262-.265.55-.33.864-.062.315-.095.627-.095.937 0 .3.032.603.096.912.065.31.17.59.313.84s.338.456.584.616c.245.16.544.24.896.24.544 0 .963-.152 1.256-.457.293-.304.477-.712.552-1.224h2.19c-.148 1.1-.575 1.936-1.28 2.512-.702.576-1.604.864-2.702.864-.62 0-1.188-.104-1.704-.312-.518-.208-.958-.5-1.32-.872-.362-.374-.646-.82-.848-1.336-.203-.518-.305-1.086-.305-1.704 0-.64.094-1.235.28-1.784.187-.55.46-1.024.824-1.424.362-.4.805-.712 1.328-.937.522-.225 1.12-.337 1.792-.337.49 0 .962.064 1.416.192.453.128.858.322 1.216.584.356.26.646.586.87.975.225.39.353.85.385 1.384H61.83c-.147-.95-.708-1.424-1.68-1.424zm7.505-4.64v4.304h.048c.288-.48.656-.83 1.104-1.048.447-.22.885-.328 1.312-.328.607 0 1.105.083 1.495.248.39.166.696.395.92.688.225.293.382.65.472 1.07.09.423.137.89.137 1.4V20h-2.272v-4.672c0-.683-.106-1.192-.32-1.528-.213-.336-.592-.504-1.136-.504-.618 0-1.066.185-1.344.552-.277.368-.416.974-.416 1.816V20h-2.272V8.576h2.27z" enable-background="new" fill="#fff"/><path d="M26.77 55.045c.49-1.58 1.226-2.96 2.208-4.14.98-1.18 2.215-2.1 3.703-2.76 1.488-.66 3.198-.99 5.13-.99 1.472 0 2.875.23 4.21.69s2.506 1.12 3.518 1.98c1.012.857 1.817 1.916 2.415 3.173.598 1.258.897 2.668.897 4.232 0 1.625-.26 3.02-.782 4.186s-1.212 2.2-2.07 3.105c-.86.905-1.833 1.726-2.92 2.462-1.09.735-2.186 1.465-3.29 2.185s-2.178 1.495-3.22 2.323c-1.043.828-1.963 1.794-2.76 2.897h15.226V80H25.39c0-1.87.268-3.496.805-4.876.536-1.38 1.265-2.614 2.185-3.703.92-1.087 2-2.092 3.243-3.012 1.242-.92 2.553-1.855 3.933-2.807.705-.49 1.457-.987 2.254-1.493.797-.507 1.525-1.065 2.185-1.68.66-.613 1.21-1.303 1.656-2.07.445-.766.668-1.64.668-2.62 0-1.565-.453-2.784-1.357-3.658-.904-.875-2.062-1.313-3.472-1.313-.95 0-1.756.224-2.415.667-.66.445-1.19 1.028-1.587 1.748-.4.722-.683 1.52-.85 2.393-.17.874-.254 1.74-.254 2.6h-6.256c-.062-1.84.153-3.55.644-5.13zm23.966 17.503v-5.98L64.72 47.8h5.843v19.366h4.277v5.382h-4.277V80h-6.21v-7.452H50.736zm13.478-16.56L55.89 67.166h8.463V55.988h-.14z" enable-background="new" fill="#35495E"/></svg>