<svg xmlns="http://www.w3.org/2000/svg" width="100" height="99"><path fill="#C0392C" d="M2 32h96v51H2z"/><path fill="#2C3E50" d="M75 86h4c1.104 0 2 .895 2 2v4c0 1.103-.896 2-2 2h-4c-1.104 0-2-.897-2-2v-4c0-1.104.896-2 2-2z"/><path fill="#23475F" d="M93 89v8c0 1.104-.896 2-2 2H79c-1.104 0-2-.896-2-2v-8c.02-.004 15.994.02 16 0z"/><path fill="#1D3D51" d="M79.917 99h2V89h-2v10zm4.166 0h1.834V89h-1.834v10zm4-10v10h1.834V89h-1.834z"/><path fill="#2C3E50" d="M21 86h4c1.104 0 2 .895 2 2v4c0 1.103-.896 2-2 2h-4c-1.104 0-2-.897-2-2v-4c0-1.104.896-2 2-2z"/><path fill="#23475F" d="M23 89v8c0 1.104-.896 2-2 2H9c-1.104 0-2-.896-2-2v-8c.02-.004 15.995.02 16 0z"/><path fill="#1D3D51" d="M9.917 99h2V89h-2v10zm4.166 0h1.833V89h-1.833v10zm4-10v10h1.833V89h-1.833z"/><path fill="#EBEEEF" d="M88 0H12C6.477 0 2 4.478 2 10v22s21.903 7.903 33.854 19.855C47.902 63.902 50 76 50 76s2.055-12.055 14.08-24.08C76.056 39.945 98 32 98 32V10c0-5.523-4.48-10-10-10z"/><path fill="#fff" d="M58 29c-2.205 0-4-1.794-4-4V14c0-2.206 1.795-4 4-4h26c2.206 0 4 1.794 4 4v11c0 2.206-1.794 4-4 4H58z"/><path fill="#EBEEEF" d="M58 29h4l19-19H58c-2.205 0-4 1.794-4 4v11c0 2.205 1.795 4 4 4z"/><path fill="#E5E5E5" d="M87 11H55v5h17v12h7V16h8z"/><path fill="#fff" d="M16 29c-2.206 0-4-1.794-4-4V14c0-2.206 1.794-4 4-4h26c2.205 0 4 1.794 4 4v11c0 2.206-1.795 4-4 4H16z"/><path fill="#E5E5E5" d="M45 11H13v5h8v12h7V16h17z"/><path fill="#D4D7DA" d="M2 83h96c1.104 0 2 .896 2 2v2c0 1.104-.896 2-2 2H2c-1.104 0-2-.896-2-2v-2c0-1.104.896-2 2-2z"/><path fill="#fff" d="M79 56c4.97 0 9 4.03 9 9s-4.03 9-9 9-9-4.03-9-9 4.03-9 9-9z"/><path fill="#F39C12" d="M79 59c3.312 0 6 2.688 6 6s-2.688 6-6 6-6-2.688-6-6 2.688-6 6-6z"/><path fill="#fff" d="M21 56c4.97 0 9 4.03 9 9s-4.03 9-9 9-9-4.03-9-9 4.03-9 9-9z"/><path fill="#F39C12" d="M21 59c3.313 0 6 2.688 6 6s-2.687 6-6 6-6-2.688-6-6 2.687-6 6-6z"/><path fill="#C8CBCB" d="M52.986 37.986C50.824 35.824 47 37 47 37L33.942 50.057c.658.59 1.3 1.188 1.912 1.8 3.48 3.478 6.125 6.96 8.134 10.154L58 48s.713-3.287-.98-4.98c-1.243-1.243-2.702-3.702-4.034-5.034z"/><path fill="#fff" d="M50 36c-4.97 0-9 4.03-9 9s4.03 9 9 9 9-4.03 9-9-4.03-9-9-9zm0 3c1.55 0 2.96.594 4.025 1.56L50 44.587l-4.025-4.026C47.04 39.593 48.45 39 50 39zm0 12c-3.313 0-6-2.687-6-6 0-1.037.263-2.01.725-2.86L50 47.413l5.275-5.275c.46.85.725 1.823.725 2.86 0 3.313-2.688 6-6 6z"/><path fill="#D3D6D7" d="M72 19l8-8H55.383c-.137.12-.264.246-.383.382V16h17v3z"/><path fill="#BDC3C7" d="M84 11c1.654 0 3 1.346 3 3v11c0 1.654-1.346 3-3 3H58c-1.654 0-3-1.346-3-3V14c0-1.654 1.346-3 3-3h26m0-2H58c-2.762 0-5 2.24-5 5v11c0 2.762 2.238 5 5 5h26c2.762 0 5-2.238 5-5V14c0-2.762-2.238-5-5-5z"/><path fill="#EBEEEF" d="M16 29h4l19-19H16c-2.206 0-4 1.794-4 4v11c0 2.205 1.794 4 4 4z"/><path fill="#D3D6D7" d="M28 21v-5h5l5-5H13.382c-.136.12-.263.246-.382.382V16h8v12l7-7z"/><path fill="#BDC3C7" d="M42 11c1.654 0 3 1.346 3 3v11c0 1.654-1.346 3-3 3H16c-1.654 0-3-1.346-3-3V14c0-1.654 1.346-3 3-3h26m0-2H16c-2.76 0-5 2.24-5 5v11c0 2.762 2.24 5 5 5h26c2.762 0 5-2.238 5-5V14c0-2.762-2.238-5-5-5z"/></svg>