<svg xmlns="http://www.w3.org/2000/svg" width="100" height="100"><circle fill="#F2F2F2" cx="50" cy="50" r="50"/><clipPath id="a"><circle cx="50" cy="50" r="50"/></clipPath><g fill-rule="evenodd" clip-rule="evenodd" clip-path="url(#a)"><path fill="#E74C3C" d="M-19 18h90c2.762 0 5 2.24 5 5v54c0 2.762-2.238 5-5 5h-90c-2.76 0-5-2.238-5-5V23c0-2.76 2.24-5 5-5z"/><path fill="#2C3E50" d="M-24 24H76v13H-24V24z"/><path fill="#ECF0F1" d="M-16 43h62v14h-62zM55 43h14c1.657 0 3 1.344 3 3v8c0 1.657-1.343 3-3 3H55c-1.657 0-3-1.343-3-3v-8c0-1.656 1.343-3 3-3z"/><path fill="#fff" d="M70.948 43.736L53.052 56.264c.525.453 1.2.736 1.948.736h14c1.657 0 3-1.343 3-3v-8c0-.91-.413-1.714-1.052-2.264z"/><path fill="#C0392B" d="M31.5 72h38c1.38 0 2.5 1.12 2.5 2.5S70.88 77 69.5 77h-38c-1.38 0-2.5-1.12-2.5-2.5s1.12-2.5 2.5-2.5z"/></g></svg>