<svg xmlns="http://www.w3.org/2000/svg" width="100" height="100"><path fill-rule="evenodd" clip-rule="evenodd" fill="#C0392B" d="M100 58c0 3.313-2.687 6-6 6H21c-3.313 0-6-2.687-6-6V6c0-3.313 2.687-6 6-6h73c3.313 0 6 2.687 6 6v52z"/><path fill-rule="evenodd" clip-rule="evenodd" fill="#E74C3C" d="M85 73c0 3.223-2.74 6-6 6H66c-1.113 0-2 .754-2 2v18c0 .738-.253 1-.917 1-.232 0-.47-.154-.865-.457L38.25 81c-3-2-6.128-2.006-6.128-2.006l-26.22-.002C2.642 78.992 0 76.38 0 73.156V22.03c0-3.22 2.896-6.046 6-6.03h73c3.562 0 6 2.778 6 6v51z"/><path fill="#fff" d="M58.5 40.072c-1.178.523-2.443.875-3.77 1.035 1.354-.813 2.395-2.102 2.886-3.633-1.268.752-2.674 1.297-4.168 1.594-1.198-1.278-2.904-2.075-4.792-2.075-3.626 0-6.565 2.94-6.565 6.566 0 .51.06 1.015.17 1.496-5.455-.275-10.293-2.89-13.53-6.86-.565.97-.89 2.097-.89 3.3 0 2.28 1.16 4.287 2.92 5.464-1.075-.033-2.088-.33-2.973-.822v.084c0 3.18 2.263 5.834 5.266 6.438-.55.15-1.13.228-1.73.228-.422 0-.834-.038-1.234-.116.834 2.61 3.26 4.507 6.132 4.558-2.248 1.763-5.08 2.813-8.154 2.813-.53 0-1.053-.03-1.566-.095C29.405 61.91 32.856 63 36.562 63c12.077 0 18.68-10.004 18.68-18.68 0-.284-.006-.568-.018-.85 1.284-.926 2.395-2.08 3.276-3.398z"/></svg>