<svg xmlns="http://www.w3.org/2000/svg" width="512" height="512" viewBox="0 0 512 512"><path d="M512 256c0 141.382-114.61 256-256 256C114.617 512 0 397.382 0 256 0 114.62 114.617 0 256 0c141.39 0 256 114.62 256 256z" fill="#ECF0F0"/><path d="M31.946 353.193c1.09 3.722 2.27 7.396 3.537 11.035h7.69v-63.063H31.947v52.028zM63.047 301.165h11.23v63.063h-11.23zM499.86 333.992H12.144c1.21 3.78 2.49 7.53 3.868 11.23h479.984c1.375-3.7 2.658-7.45 3.867-11.23zM436.246 301.165h11.232v63.063h-11.232z" fill="#D8D8D8"/><path d="M493.076 352.625H18.93C57.066 446.097 148.813 512 256 512c107.19 0 198.937-65.903 237.076-159.375z" fill="#B5B5B5"/><path d="M450.158 422.748l-22.54-16.808-340.204 6.723 88.706 86.58C201.256 507.497 228.098 512 256 512c77.678 0 147.227-34.625 194.158-89.252z" fill="#848484"/><path d="M505.89 311.533H6.11c.837 3.775 1.74 7.52 2.742 11.23h494.3c1-3.71 1.905-7.454 2.74-11.23z" fill="#D8D8D8"/><path fill="#6B1912" d="M185.195 212.195h169.86v175.757h-169.86z"/><ellipse cx="255.956" cy="405.939" rx="171.54" ry="39.407" fill="#9E2D1E"/><path d="M413.65 206.12H98.39L84.48 405.94c0 17.153 47.727 31.743 114.328 37.152l11.13-196.593h92.165l11.127 196.596c66.602-5.413 114.328-20.003 114.328-37.156L413.65 206.12z" fill="#fff"/><path d="M111.99 427.332c10.15 3.6 22.784 6.792 37.35 9.45l12.72-180.59h-38.02l-12.05 171.14zM198.81 443.092l10.81-190.983h-11.353L184.872 441.79c4.546.476 9.19.913 13.937 1.3zM313.25 443.092l-10.81-190.984h11.354L327.19 441.79c-4.547.478-9.192.915-13.94 1.302zM84.48 405.94c0 3.73 2.267 7.343 6.488 10.764l12.256-174.063H95.85l-11.37 163.3zM400.11 427.332c-10.15 3.6-22.788 6.792-37.355 9.45l-12.717-180.59h38.02l12.05 171.14zM427.618 405.94c0 3.73-2.267 7.343-6.488 10.764L408.87 242.64h7.38l11.368 163.3z" fill="#E45136"/><path d="M414.32 215.73h-26.375v55.08c0 9.04 7.33 16.367 16.37 16.367h4.542c3.855 0 7.39-1.343 10.186-3.57l-4.723-67.877zM350.305 270.81c0 9.04 7.324 16.367 16.363 16.367h4.544c9.04 0 16.368-7.327 16.368-16.367v-55.08h-37.275v55.08zM312.662 270.81c0 9.04 7.325 16.367 16.365 16.367h4.543c9.04 0 16.365-7.327 16.365-16.367v-55.08h-37.273v55.08zM302.44 252.108l1.854 32.752c4.785-2.858 7.998-8.07 7.998-14.05v-18.702h-9.852zM199.732 270.81c0 5.994 3.227 11.22 8.034 14.07l1.854-32.772h-9.888v18.702zM162.087 270.81c0 9.04 7.327 16.367 16.368 16.367h4.543c9.04 0 16.364-7.327 16.364-16.367v-55.08h-37.275v55.08zM124.442 270.81c0 9.04 7.33 16.367 16.37 16.367h4.544c9.04 0 16.364-7.327 16.364-16.367v-55.08h-37.278v55.08zM92.994 283.616c2.796 2.224 6.324 3.56 10.17 3.56h4.545c9.038 0 16.37-7.326 16.37-16.366v-55.08H97.722l-4.73 67.886z" opacity=".5" fill="#822119"/><path fill="#B23424" d="M314.182 45.248h-46.766V25.082h46.766l-11.78 9.91z"/><path d="M255.9 75.657c-.77 0-1.39-.622-1.39-1.39V9.106c0-.77.62-1.392 1.39-1.392.77 0 1.393.622 1.393 1.39v65.162c0 .768-.623 1.39-1.394 1.39z" fill="#350704"/><path fill="#E45136" d="M425.225 203.212H86.8L255.948 66.88z"/><path fill="#fff" d="M161.72 203.212l94.456-136.174-131.934 136.16zM199.732 203h37.278l19.166-136.174zM256.176 66.826L275.016 203h37.277zM256.176 66.826L350.306 203h37.274z"/><path d="M387.945 203.212v55.08c0 9.04 7.33 16.368 16.37 16.368h4.542c9.036 0 16.367-7.328 16.367-16.367v-55.08h-37.28z" fill="#B23424"/><path d="M350.305 203.212v55.08c0 9.04 7.324 16.368 16.363 16.368h4.544c9.04 0 16.368-7.328 16.368-16.367v-55.08h-37.275z" fill="#C1C1C1"/><path d="M312.662 203.212v55.08c0 9.04 7.325 16.368 16.365 16.368h4.543c9.04 0 16.365-7.328 16.365-16.367v-55.08h-37.273z" fill="#B23424"/><path d="M275.015 203.212v55.08c0 9.04 7.33 16.368 16.364 16.368h4.55c9.035 0 16.363-7.328 16.363-16.367v-55.08h-37.278z" fill="#C1C1C1"/><path d="M237.373 203.212v55.08c0 9.04 7.33 16.368 16.367 16.368h4.54c9.04 0 16.37-7.328 16.37-16.367v-55.08h-37.277z" fill="#B23424"/><path d="M199.732 203.212v55.08c0 9.04 7.325 16.368 16.364 16.368h4.544c9.04 0 16.37-7.328 16.37-16.367v-55.08h-37.278z" fill="#C1C1C1"/><path d="M162.087 203.212v55.08c0 9.04 7.327 16.368 16.368 16.368h4.543c9.04 0 16.364-7.328 16.364-16.367v-55.08h-37.275z" fill="#B23424"/><path d="M124.442 203.212v55.08c0 9.04 7.33 16.368 16.37 16.368h4.544c9.04 0 16.364-7.328 16.364-16.367v-55.08h-37.278z" fill="#C1C1C1"/><path d="M86.8 203.212v55.08c0 9.04 7.33 16.368 16.365 16.368h4.544c9.038 0 16.37-7.328 16.37-16.367v-55.08H86.8z" fill="#B23424"/><path fill="#E45136" d="M257.102 13.435h28.22V33.6h-28.22z"/><path fill="#842119" d="M267.416 45.248L285.322 33.6l-17.92.043z"/></svg>