<svg xmlns="http://www.w3.org/2000/svg" width="100" height="100"><path fill="#27AE60" d="M100 94c0 3.313-2.687 6-6 6H6c-3.313 0-6-2.687-6-6V16c0-3.313 2.687-6 6-6h88c3.313 0 6 2.687 6 6v78z"/><path fill-rule="evenodd" clip-rule="evenodd" fill="#fff" d="M82 87c0 1.104-.896 2-2 2H20c-1.104 0-2-.896-2-2V18c0-1.104.896-2 2-2h60c1.104 0 2 .896 2 2v69z"/><path fill-rule="evenodd" clip-rule="evenodd" fill="#BDC3C7" d="M72 20H28c-1.657 0-3-1.343-3-3v-7c0-1.657 1.343-3 3-3h15c0-3.866 3.134-7 7-7s7 3.134 7 7h15c1.657 0 3 1.343 3 3v7c0 1.657-1.343 3-3 3zM50 4c-1.657 0-3 1.344-3 3 0 1.657 1.343 3 3 3s3-1.343 3-3c0-1.656-1.343-3-3-3z"/><path fill-rule="evenodd" clip-rule="evenodd" fill="#A1A6A9" d="M72 20H28c-1.656 0-3-1.343-3-3v-2c0 1.657 1.344 3 3 3h44c1.656 0 3-1.343 3-3v2c0 1.657-1.344 3-3 3z"/><path opacity=".15" fill-rule="evenodd" clip-rule="evenodd" d="M94 97H6c-3.313 0-6-2.687-6-6v3c0 3.313 2.687 6 6 6h88c3.313 0 6-2.687 6-6v-3c0 3.313-2.687 6-6 6z"/><path fill-rule="evenodd" clip-rule="evenodd" fill="#BDC3C7" d="M41 41v3h31v-3H41zm0 14h31v-3H41v3zm0 10.998h31v-3H41v3zm0 11h31v-3H41v3zM28 46h7v-7h-7v7zm0 11h7v-7h-7v7zm0 11h7v-7h-7v7zM28 79h7v-7h-7v7z"/><path fill-rule="evenodd" clip-rule="evenodd" fill="#27AE60" d="M41 29v3h31v-3H41zm-5.073-1.214l-.708-.713c-.098-.098-.257-.098-.355 0l-3.728 3.703c-.098.1-.257.1-.354 0l-1.633-1.66c-.048-.05-.112-.072-.175-.073-.064 0-.13.023-.18.073l-.72.648c-.05.05-.075.11-.075.175l.01.053H28v.998h.01l.064.128 1.647 1.725.355.355.708.713c.097.1.256.1.354 0l4.79-4.77.067-.144H36v-.998h-.006c.01-.076-.01-.155-.067-.212z"/><path fill-rule="evenodd" clip-rule="evenodd" fill="#A1A6A9" d="M50 4c1.305 0 2.403.837 2.816 2 .112-.313.184-.646.184-1 0-1.656-1.344-3-3-3-1.657 0-3 1.344-3 3 0 .354.07.687.183 1C47.596 4.84 48.695 4 50 4z"/></svg>