<svg xmlns="http://www.w3.org/2000/svg" width="100" height="100"><circle fill="#223447" cx="50.001" cy="50" r="50"/><path fill="#fff" d="M50 10c22.093 0 40 17.91 40 40S72.094 90 50 90c-22.09 0-40-17.91-40-40s17.91-40 40-40z"/><path fill="#DAD9D9" d="M50 10.015c-11.806 0-22.413 5.12-29.733 13.254C27.352 16.895 36.723 13.014 47 13.014c22.085 0 39.986 17.902 39.986 39.985 0 10.277-3.88 19.646-10.254 26.73 8.14-7.32 13.256-17.925 13.256-29.73 0-22.083-17.902-39.985-39.988-39.985z"/><path fill="#223447" d="M-27 46c2.21 0 4 1.79 4 4s-1.79 4-4 4h-19c-2.21 0-4-1.79-4-4s1.79-4 4-4h19zM49.486-21.22c1.173-1.168 2.986-1.258 4.254.007l16.97 16.97c1.266 1.265 1.18 3.066.01 4.235-1.175 1.17-2.984 1.273-4.252.008l-16.97-16.97c-1.267-1.266-1.184-3.08-.012-4.25zM46 43.1c3.825-2.21 8.72-.898 10.927 2.927 2.21 3.824.897 8.718-2.928 10.926-3.828 2.21-8.718.898-10.928-2.93C40.865 50.2 42.174 45.31 46 43.1z"/><path fill="#E44D41" d="M-19.8-53.74c-.78.78-.78 2.048 0 2.828s2.05.78 2.83 0L1.413-69.296c.78-.78.78-2.048 0-2.83s-2.048-.78-2.828 0L-19.8-53.74z"/></svg>