<svg xmlns="http://www.w3.org/2000/svg" width="512" height="512" viewBox="0 0 512 512"><circle cx="256" cy="256" r="256" fill="#ECF0F0"/><circle cx="256" cy="256" r="255.48" fill="#FF5646"/><path d="M256 500.153c-65.216 0-126.527-25.398-172.643-71.512C37.244 382.53 11.847 321.216 11.847 256c0-65.215 25.397-126.528 71.51-172.642C129.474 37.245 190.785 11.848 256 11.848c65.215 0 126.528 25.397 172.642 71.51s71.51 107.428 71.51 172.643c0 65.216-25.396 126.53-71.51 172.643S321.215 500.153 256 500.153z" fill="#E24C3E"/><circle cx="256" cy="256" r="203.845" fill="#BD3F34"/><path d="M256 448.518c-106.155 0-192.52-86.362-192.52-192.518 0-106.155 86.364-192.52 192.52-192.52S448.52 149.845 448.52 256c0 106.156-86.365 192.518-192.52 192.518z" fill="#ECF0F0"/><path d="M93 257.116c0 3.802-3.082 6.884-6.883 6.884h-5.234c-3.8 0-6.883-3.082-6.883-6.884v-1.23c0-3.804 3.082-6.886 6.883-6.886h5.234c3.8 0 6.883 3.08 6.883 6.885v1.23zM115.3 174.884c-1.9 3.29-6.11 4.42-9.403 2.518l-4.755-2.745c-3.29-1.9-4.42-6.11-2.52-9.402l.48-.83c1.9-3.295 6.11-4.42 9.4-2.52l4.757 2.746c3.29 1.903 4.42 6.11 2.518 9.4l-.478.834zM115.212 337.995c1.9 3.292.772 7.5-2.52 9.4l-4.755 2.747c-3.292 1.9-7.502.773-9.4-2.52l-.482-.832c-1.9-3.292-.77-7.5 2.52-9.4l4.756-2.746c3.293-1.9 7.502-.77 9.402 2.52l.48.83z" fill="#334D5C"/><path d="M336.988 249h-57.59c-2.692-5-7.398-9.824-12.398-12.17V131.968c0-6.568-5.432-11.893-12-11.893s-12 5.325-12 11.893v105.974c-7 4.498-12.81 12.925-12.81 22.59 0 6.423 2.466 12.3 6.323 16.843-21.838 21.837-43.607 43.673-65.44 65.51-1.027-.657-2.21-1.04-3.516-1.04-3.65 0-6.594 2.96-6.594 6.61 0 3.65 2.97 6.61 6.62 6.61 3.652 0 6.615-2.96 6.615-6.61 0-1.11-.274-2.152-.757-3.07l65.563-65.565c4.625 4.202 10.768 7.333 17.51 7.333 10.328 0 19.253-6.155 23.468-14.155h57.008c6.57 0 11.893-5.432 11.893-12 .002-6.567-5.32-12-11.892-12z" opacity=".3" fill="#5D5D5D"/><path d="M254.746 254.745c-27.87 27.87-55.737 55.74-83.606 83.608-1.025-.655-2.24-1.038-3.547-1.038-3.65 0-6.61 2.96-6.61 6.61 0 3.65 2.96 6.61 6.61 6.61 3.65 0 6.61-2.96 6.61-6.61 0-1.11-.276-2.154-.76-3.073 27.902-27.9 55.804-55.803 83.706-83.705 1.55-1.55-.853-3.952-2.404-2.402zM263 87.12c0 3.8-3.082 6.88-6.883 6.88h-1.234c-3.8 0-6.883-3.08-6.883-6.88V81.88c0-3.8 3.082-6.882 6.883-6.882h1.234c3.8 0 6.883 3.082 6.883 6.882v5.237zM263 430.99c0 3.8-2.514 7.01-6.315 7.01h-1.593c-3.802 0-7.092-3.21-7.092-7.01v-5.01c0-3.8 3.29-5.98 7.092-5.98h1.593c3.802 0 6.315 2.18 6.315 5.98v5.01zM437 257.116c0 3.802-3.082 6.884-6.884 6.884h-5.232c-3.802 0-6.884-3.082-6.884-6.884v-1.23c0-3.804 3.082-6.886 6.884-6.886h5.232c3.802 0 6.884 3.08 6.884 6.885v1.23zM347.397 112.693c-1.9 3.292-6.11 4.42-9.4 2.52l-.833-.48c-3.29-1.9-4.42-6.11-2.518-9.4l2.743-4.757c1.902-3.292 6.108-4.42 9.402-2.52l.83.48c3.293 1.903 4.42 6.11 2.52 9.4l-2.745 4.757zM174.657 411.885c-1.9 3.292-6.11 4.42-9.4 2.52l-.832-.48c-3.293-1.898-4.42-6.108-2.52-9.4l2.746-4.755c1.9-3.292 6.11-4.42 9.4-2.52l.833.48c3.292 1.9 4.42 6.11 2.52 9.403l-2.746 4.752zM414.49 347.622c-1.898 3.29-6.108 4.42-9.4 2.52l-4.755-2.746c-3.292-1.9-4.42-6.11-2.52-9.403l.48-.83c1.9-3.293 6.11-4.42 9.4-2.52l4.756 2.746c3.294 1.9 4.42 6.107 2.52 9.4l-.48.832zM177.403 105.898c1.9 3.292.77 7.498-2.52 9.4l-.832.48c-3.292 1.902-7.5.773-9.4-2.518l-2.746-4.756c-1.9-3.292-.772-7.5 2.52-9.402l.83-.48c3.293-1.9 7.502-.773 9.403 2.52l2.746 4.756zM350.142 405.09c1.9 3.292.773 7.502-2.52 9.4l-.832.48c-3.292 1.9-7.502.772-9.4-2.518l-2.746-4.756c-1.9-3.29-.773-7.5 2.518-9.4l.834-.48c3.29-1.9 7.5-.772 9.4 2.52l2.746 4.753zM414.405 165.255c1.9 3.293.773 7.502-2.52 9.402l-4.758 2.745c-3.29 1.9-7.5.773-9.4-2.518l-.48-.833c-1.898-3.29-.772-7.5 2.52-9.4l4.757-2.746c3.292-1.9 7.5-.773 9.4 2.518l.48.833zM267 263.106c0 6.568-5.325 11.893-11.895 11.893h-.21c-6.57 0-11.896-5.326-11.896-11.894V127.893c0-6.568 5.324-11.894 11.894-11.894h.21c6.57 0 11.896 5.324 11.896 11.893v135.213zM348 256.106c0 6.57-5.324 11.894-11.893 11.894h-68.215c-6.568 0-11.893-5.325-11.893-11.894v-.213c0-6.568 5.323-11.894 11.892-11.894h68.215c6.568 0 11.893 5.324 11.893 11.893v.213z" fill="#334D5C"/><circle cx="256.514" cy="256" r="26.052" fill="#B83E32"/><circle cx="256.514" cy="256" r="16.802" fill="#E24C3E"/><path d="M.52 256C.52 397.1 114.904 511.48 256 511.48c55.516 0 106.886-17.717 148.79-47.79L48.31 107.21C18.235 149.113.52 200.487.52 256z" opacity=".3" fill="#5D5D5D"/></svg>