<svg xmlns="http://www.w3.org/2000/svg" width="512" height="512" viewBox="0 0 512 512"><circle cx="256" cy="256" r="256" fill="#E27C3E"/><circle cx="317.65" cy="192.305" r="115.466" fill="#ccc"/><circle cx="317.65" cy="192.305" r="115.466" fill="#ccc"/><path d="M317.65 296.737c-57.585 0-104.435-46.85-104.435-104.433 0-57.586 46.85-104.437 104.434-104.437 57.585 0 104.433 46.85 104.433 104.437 0 57.585-46.848 104.433-104.434 104.433z" fill="#E6E6E6"/><path d="M317.65 293.06c-55.558 0-100.757-45.198-100.757-100.755 0-55.56 45.2-100.76 100.756-100.76s100.757 45.2 100.757 100.76c0 55.556-45.2 100.754-100.758 100.754z" fill="#9E9E9E"/><path d="M317.65 287.666c-52.582 0-95.362-42.78-95.362-95.36 0-52.585 42.78-95.364 95.36-95.364 52.585 0 95.364 42.78 95.364 95.363 0 52.582-42.78 95.36-95.363 95.36z" fill="#A8A8A8"/><path d="M317.65 278.35c-47.447 0-86.05-38.6-86.05-86.045 0-47.447 38.603-86.05 86.05-86.05 47.446 0 86.048 38.603 86.048 86.05 0 47.444-38.6 86.045-86.05 86.045z" fill="#E6E6E6"/><path d="M317.65 273.447c-44.743 0-81.146-36.4-81.146-81.143 0-44.746 36.402-81.146 81.145-81.146 44.743 0 81.144 36.4 81.144 81.146 0 44.743-36.4 81.143-81.145 81.143z" fill="#ccc"/><path d="M264.933 183.23v-34.94c0-.788.59-1.378 1.277-1.378h41.145c.787 0 1.28.59 1.18 1.377l-1.673 13.878c-.1.69-.786 1.28-1.475 1.28h-23.523v2.46h5.214c15.946 0 25.79 10.04 25.79 22.346 0 12.3-9.844 22.24-26.676 22.24-13.78 0-20.668-5.213-24.41-12.794-.198-.59 0-1.378.592-1.575l15.06-7.678c.59-.294 1.18.1 1.476.492.69 1.378 2.854 2.36 7.283 2.36 5.905 0 7.68-1.475 7.68-3.344 0-1.97-1.28-3.444-7.68-3.444H266.21c-.687 0-1.277-.592-1.277-1.282z" fill="#9E9E9E"/><path d="M286.19 207.255c-12 0-17.12-4.212-19.895-8.567l10.978-5.596c2.802 2.326 7.243 2.326 8.918 2.326 9.387 0 11.355-3.82 11.355-7.025 0-7.12-8.545-7.12-11.354-7.12H268.61v-30.247h35.945l-1.107 9.182h-25.262v9.814h8.892c13.02 0 22.11 7.676 22.11 18.668.003 11.103-9.24 18.565-22.995 18.565z" fill="#E6E6E6"/><path d="M286.19 207.255c-12 0-17.12-4.212-19.895-8.567l10.978-5.596c2.802 2.326 7.243 2.326 8.918 2.326 9.387 0 11.355-3.82 11.355-7.025 0-7.12-8.545-7.12-11.354-7.12H268.61v-30.247h35.945l-1.107 9.182h-25.262v9.814h8.892c13.02 0 22.11 7.676 22.11 18.668.003 11.103-9.24 18.565-22.995 18.565z" fill="#A8A8A8"/><path d="M373.595 178.114c0 24.802-12.305 32.38-27.463 32.38-15.257 0-27.56-7.578-27.56-32.38 0-24.903 12.303-32.384 27.56-32.384 15.158 0 27.463 7.48 27.463 32.384zm-18.31 0c0-8.86-.886-14.667-9.153-14.667-8.365 0-9.252 5.807-9.252 14.667 0 8.76.887 14.566 9.252 14.566 8.267 0 9.152-5.806 9.152-14.566z" fill="#9E9E9E"/><path d="M346.132 207.255c-16.293 0-23.884-9.12-23.884-28.706 0-19.584 7.59-28.707 23.884-28.707 16.227 0 23.785 9.123 23.785 28.706 0 19.585-7.56 28.705-23.785 28.705zm0-47.048c-12.93 0-12.93 11.48-12.93 18.342 0 6.823 0 18.243 12.93 18.243 12.833 0 12.833-11.42 12.833-18.244 0-6.862 0-18.343-12.833-18.343z" fill="#E6E6E6"/><path d="M346.132 207.255c-16.293 0-23.884-9.12-23.884-28.706 0-19.584 7.59-28.707 23.884-28.707 16.227 0 23.785 9.123 23.785 28.706 0 19.585-7.56 28.705-23.785 28.705zm0-47.048c-12.93 0-12.93 11.48-12.93 18.342 0 6.823 0 18.243 12.93 18.243 12.833 0 12.833-11.42 12.833-18.244 0-6.862 0-18.343-12.833-18.343z" fill="#A8A8A8"/><path d="M296.046 235.793c-1.383 1.36-3.27 2.21-5.366 2.21-4.19 0-7.575-3.383-7.575-7.573 0-4.192 3.385-7.6 7.575-7.6 2.097 0 3.983.853 5.366 2.234.092.112.092.3-.046.412l-2.9 2.35c-.14.117-.35.117-.485 0-.53-.39-1.196-.645-1.935-.645-1.772 0-3.224 1.45-3.224 3.25 0 1.77 1.45 3.222 3.224 3.222.738 0 1.405-.23 1.935-.645.137-.117.346-.093.484 0l2.9 2.37c.138.117.138.277.046.416z" fill="#9E9E9E"/><path d="M290.68 236.97c-3.364 0-6.104-2.74-6.104-6.105 0-3.38 2.74-6.128 6.104-6.128 1.17 0 2.294.33 3.264.95l-1.175.95c-.65-.323-1.36-.492-2.09-.492-2.59 0-4.693 2.118-4.693 4.72 0 2.59 2.104 4.693 4.693 4.693.75 0 1.458-.165 2.092-.48l1.17.954c-.977.61-2.1.94-3.262.94z" fill="#A8A8A8"/><path d="M303.07 227.505c-.16 0-.3.136-.3.3v.596c0 .16.14.324.3.324h3.43c.186 0 .302.14.278.3l-.392 3.108c-.022.16-.16.3-.344.3h-2.972c-.162 0-.3.16-.3.32v.278c0 .184.138.323.3.323h5.297c.186 0 .322.136.322.3v3.728c0 .164-.138.325-.323.325h-9.65c-.16 0-.298-.16-.298-.324v-13.93c0-.16.137-.3.297-.3h9.65c.186 0 .322.14.322.3v3.73c0 .185-.138.324-.323.324h-5.296z" fill="#9E9E9E"/><path d="M300 236.918V225.15h7.354v1.47h-4.283c-.976 0-1.6.644-1.6 1.62v.597c0 .99.624 1.462 1.6 1.462h2.078l-.095.734h-1.982c-.976 0-1.6 1.167-1.6 2.154v.276c0 .99.624 1.982 1.6 1.982h4.284v1.47H300z" fill="#A8A8A8"/><path d="M323.106 223.15c.186 0 .323.14.323.324v13.93c0 .162-.14.3-.324.3h-3.73c-.16 0-.37-.114-.46-.277l-3.41-5.85c-.093-.135-.16-.135-.16.05v5.778c0 .16-.138.3-.322.3h-3.73c-.16 0-.298-.14-.298-.3v-13.93c0-.187.137-.325.297-.325h3.73c.186 0 .39.115.484.274l3.41 5.852c.09.16.16.14.16-.046v-5.757c0-.186.138-.324.298-.324h3.73z" fill="#9E9E9E"/><path d="M319.923 236.918l-3.168-5.56-.023-.096c-.438-.657-.975-.785-1.285-.785-.736 0-1.47.535-1.47 1.584v4.858h-1.474V225.15h1.998l3.146 5.35c.43.755 1.128.814 1.4.814.737 0 1.547-.592 1.547-1.648v-4.516h1.47v11.768h-2.14z" fill="#A8A8A8"/><path d="M337.27 227.205c-.022.16-.185.3-.343.3h-2.72c-.184 0-.322.136-.322.32v9.58c0 .16-.137.3-.298.3h-3.73c-.186 0-.322-.14-.322-.3v-9.58c0-.185-.14-.32-.3-.32h-3.2c-.162 0-.3-.14-.3-.3v-3.73c0-.186.138-.324.3-.324h11.352c.185 0 .298.14.274.3l-.39 3.755z" fill="#9E9E9E"/><path d="M330.89 236.918v-8.657c0-.986-.68-1.64-1.656-1.64h-2.02v-1.47h8.85l-.15 1.47h-1.704c-.988 0-1.85.653-1.85 1.64v8.658h-1.47z" fill="#A8A8A8"/><path d="M349.892 233.075c0 2.718-2.35 4.93-6.31 4.93-3.27 0-4.903-1.15-5.78-2.834-.068-.135 0-.3.115-.344l3.57-1.703c.16-.072.275.025.344.11.187.325.693.53 1.75.53 1.385 0 1.798-.342 1.798-.756 0-.416-.298-.762-1.82-.762-3.29 0-5.616-2.092-5.616-4.696 0-2.604 2.417-4.72 5.733-4.72 2.74 0 4.28 1.058 5.158 2.578.092.182.02.32-.14.39l-3.407 1.612c-.115.046-.253.07-.346-.07-.137-.23-.506-.39-1.15-.39-1.107 0-1.43.275-1.43.6 0 .32.322.6 1.43.6 3.776 0 6.102 2.21 6.102 4.925z" fill="#9E9E9E"/><path d="M343.58 236.97c-1.937 0-3.026-.448-3.687-1.02l1.503-.72c.68.386 1.52.442 2.185.442 2.953 0 3.27-1.558 3.27-2.228 0-1.018-.573-2.23-3.292-2.23-2.364 0-4.146-1.39-4.146-3.228 0-1.824 1.872-3.25 4.264-3.25 1.486 0 2.41.363 3.01.822l-1.38.654c-.372-.174-.864-.297-1.515-.297-2.688 0-2.9 1.583-2.9 2.07 0 .484.212 2.07 2.9 2.07 2.728 0 4.634 1.42 4.634 3.455 0 2.07-1.947 3.46-4.843 3.46z" fill="#A8A8A8"/><path d="M433.116 192.305c0-63.77-51.695-115.468-115.467-115.468-25.13 0-48.38 8.033-67.334 21.662L396.52 276.622c22.518-21.068 36.596-51.047 36.596-84.318z" opacity=".4" fill="#ECF0F0"/><path d="M211.597 185.215c-3.097 0-6.164.125-9.2.357-.13 2.23-.212 4.47-.212 6.732 0 63.77 51.695 115.465 115.465 115.465 4.277 0 8.492-.25 12.646-.704.025-1.023.082-2.04.082-3.07 0-65.6-53.18-118.78-118.78-118.78z" opacity=".4" fill="#5D5D5D"/><circle cx="197.664" cy="316.382" r="118.78" fill="#F3C42C"/><path d="M197.663 423.814c-59.238 0-107.432-48.193-107.432-107.432 0-59.237 48.194-107.433 107.433-107.433s107.432 48.194 107.432 107.432S256.9 423.814 197.663 423.814z" fill="#FFCE2E"/><path d="M197.663 420.03c-57.153 0-103.648-46.496-103.648-103.65 0-57.15 46.495-103.648 103.648-103.648S301.31 259.23 301.31 316.382c0 57.152-46.494 103.65-103.647 103.65z" fill="#CC9902"/><path d="M197.663 414.48c-54.094 0-98.102-44.006-98.102-98.1 0-54.09 44.01-98.1 98.103-98.1 54.092 0 98.1 44.01 98.1 98.1 0 54.095-44.008 98.1-98.1 98.1z" fill="#D8A202"/><path d="M197.663 404.9c-48.81 0-88.52-39.71-88.52-88.52 0-48.81 39.71-88.516 88.52-88.516 48.81 0 88.52 39.707 88.52 88.517 0 48.81-39.71 88.52-88.52 88.52z" fill="#FFCE2E"/><path d="M197.663 399.856c-46.028 0-83.473-37.446-83.473-83.475 0-46.025 37.444-83.473 83.473-83.473 46.027 0 83.474 37.447 83.474 83.474 0 46.03-37.447 83.476-83.474 83.476z" fill="#F3C42C"/><path d="M218.653 268.023v95.843c0 1.273-1.11 2.386-2.383 2.386h-28.294c-1.27 0-2.386-1.112-2.386-2.386v-71.523h-6.99c-1.115 0-2.068-.956-1.91-2.068l2.703-22.568c.158-1.112 1.27-2.068 2.385-2.068h34.492c1.272-.002 2.383 1.114 2.383 2.383z" fill="#CC9902"/><path fill="#D8A202" d="M189.34 362.53v-73.383h-8.634l2.292-18.917h32.066v92.3z"/><path d="M316.443 316.382c0-65.6-53.18-118.78-118.78-118.78-25.85 0-49.77 8.264-69.27 22.284l150.404 183.237c23.165-21.675 37.646-52.514 37.646-86.74z" opacity=".4" fill="#ECF0F0"/></svg>