<svg xmlns="http://www.w3.org/2000/svg" width="100" height="52"><path fill="#E45136" d="M71.585 28.924C56.13 27.964 43.79 15.51 43.038 0H3v44h68.585V28.924z"/><path fill="#D4D8DB" d="M2 44h96c1.104 0 2 .896 2 2v4c0 1.105-.896 2-2 2H2c-1.104 0-2-.895-2-2v-4c0-1.105.896-2 2-2z"/><path fill="#BDC3C7" d="M4 52h4v-6H4v6zm8 0h4v-6h-4v6zm8 0h4v-6h-4v6zm8 0h4v-6h-4v6zm8 0h4v-6h-4v6zm8 0h4v-6h-4v6zm8 0h4v-6h-4v6zm8 0h4v-6h-4v6zm8 0h4v-6h-4v6zm8 0h4v-6h-4v6zm8 0h4v-6h-4v6zm8-6v6h4v-6h-4z"/><path fill="#EBEDEE" d="M21 10c5.523 0 10 4.48 10 10 0 5.523-4.477 10-10 10s-10-4.477-10-10 4.477-10 10-10z"/><path fill="#F39C12" d="M21 14l1.978 3.457 4.022.745-2.8 2.88.508 3.918L21 23.324 17.292 25l.508-3.917-2.8-2.88 4.022-.746L21 14"/><path fill="#EBEDEE" d="M44.233 11.096l1.037-1.037c-.564-1.376-1.03-2.802-1.39-4.27l-2.476 2.478c-.78.78-.78 2.048 0 2.828.78.783 2.047.783 2.83 0zm3.17 14c.782.78 2.048.78 2.83 0l3.433-3.434c-1.014-.867-1.967-1.805-2.86-2.798l-3.4 3.4c-.783.785-.783 2.05-.002 2.832zm15.26 1.914l-1.26 1.258c-.78.78-.78 2.05 0 2.83.78.78 2.048.78 2.83 0l2.792-2.795c-1.498-.324-2.955-.758-4.363-1.293zm-19.26-7.914c.782.78 2.048.78 2.83 0l2.627-2.627c-.805-1.104-1.536-2.263-2.19-3.47l-3.266 3.268c-.78.78-.78 2.047 0 2.828zm10 10c.78.78 2.048.78 2.83 0l3.42-3.42c-1.23-.63-2.41-1.338-3.536-2.12l-2.713 2.712c-.78.78-.78 2.046 0 2.828z"/><path fill="#2C3E51" d="M43.038 0H3v4h40.504c-.238-1.307-.4-2.64-.466-4z"/><path fill="#EBEDEE" d="M96.787 38.704c-.924-4.962-4.848-8.86-9.82-9.753H71.584V44H96.79v-5.296h-.003z"/><path fill="#2C3E51" d="M98 44H2c-1.104 0-2 .896-2 2h100c0-1.105-.896-2-2-2z"/></svg>