<svg height="512" viewBox="0 0 512 512" width="512" xmlns="http://www.w3.org/2000/svg"><circle cx="256" cy="256" fill="#83B2A8" r="256"/><path d="M381.175 95.894V418.56H154.162c-12.922 0-23.403-10.48-23.403-23.398V117.694c0-15.262 12.374-27.636 27.637-27.636H375.34c3.222 0 5.835 2.613 5.835 5.836z" fill="#B03F18"/><path d="M378.878 123.283c-1.52-1.49-3.57-2.323-5.712-2.32l-213.623.222c-7.148 0-13.262-2.845-14.483-6.74-.154-.485-.224-.972-.217-1.45v4.88c-.007.478.063.964.217 1.45 1.222 3.895 7.335 6.74 14.483 6.74l213.623-.224c2.142 0 4.193.832 5.712 2.322 1.514 1.487 2.364 3.505 2.364 5.61v-4.878c0-2.106-.85-4.124-2.364-5.61z" fill="#EDB95E"/><path d="M372.18 108.013v13.174H159.412c-4.685 0-8.92-1.21-11.632-3.16-1.31-.92-2.266-2.01-2.715-3.202-.08-.12-.116-.253-.156-.372-.37-1.19-.254-2.36.272-3.456.545-1.19 1.602-2.282 3.024-3.2 1.62-1.053 3.748-1.893 6.247-2.4 3.512-.683 8.157-1.053 14.266-1.053h198.13c2.85 0 5.153 1.52 5.31 3.454.02.06.02.138.02.215z" fill="#FFF8EA"/><path d="M158.727 114.825c-.077-.12-.117-.253-.156-.372-.37-1.19-.252-2.36.275-3.456.544-1.19 1.6-2.282 3.025-3.2 1.62-1.053 3.746-1.893 6.245-2.4 3.513-.683 8.156-1.053 14.266-1.053h-13.66c-6.108 0-10.754.37-14.266 1.054-2.5.506-4.626 1.346-6.247 2.4-1.423.917-2.48 2.008-3.024 3.2-.526 1.094-.643 2.265-.273 3.455.04.12.077.253.156.372.45 1.19 1.404 2.28 2.715 3.2 2.713 1.952 6.948 3.162 11.633 3.162h13.66c-4.685 0-8.92-1.21-11.632-3.16-1.308-.92-2.265-2.01-2.713-3.202z" opacity=".1"/><path fill="#B0B0B0" d="M372.16 107.8H148.207l-3.024 3.198H372.18zM372.18 114.825H145.065c.45 1.19 1.404 2.28 2.715 3.2h224.4v-3.2z"/><path opacity=".25" d="M176.39 90.058h34.72V109.4h-34.72z"/><path fill="#6BC500" d="M173.457 88.465h34.723V109.4h-34.723z"/><path opacity=".25" d="M215.62 91.922h34.724v22.89H215.62z"/><path fill="#00B3D0" d="M212.69 93.877h34.726v20.934H212.69z"/><path opacity=".25" d="M160.18 96.07h34.9v22.195h-34.9z"/><path fill="#D91300" d="M157.428 97.33h34.725v20.935h-34.725z"/><g fill="#EDB95E"><path d="M186.11 163.848c0 6.85-15.615 9.974-30.114 9.974-9.505 0-19.496-1.348-25.237-4.215v-4.51c2.733 2.03 11.24 4.823 25.236 4.823 17.29 0 26.21-4.256 26.21-6.07h3.903zM186.11 180.962c0 6.853-15.615 9.976-30.114 9.976-9.505 0-19.496-1.35-25.237-4.217v-4.51c2.733 2.03 11.24 4.823 25.236 4.823 17.29 0 26.21-4.254 26.21-6.07h3.903zM186.11 196.635c0 6.85-15.615 9.972-30.114 9.972-9.505 0-19.496-1.344-25.237-4.215v-4.507c2.733 2.028 11.24 4.82 25.236 4.82 17.29 0 26.21-4.254 26.21-6.07h3.903z"/></g><g fill="#EDB95E"><path d="M186.11 324.734c0 6.85-15.615 9.974-30.114 9.974-9.505 0-19.496-1.346-25.237-4.215v-4.507c2.733 2.026 11.24 4.82 25.236 4.82 17.29 0 26.21-4.256 26.21-6.07h3.903zM186.11 341.848c0 6.854-15.615 9.978-30.114 9.978-9.505 0-19.496-1.35-25.237-4.217v-4.51c2.733 2.028 11.24 4.822 25.236 4.822 17.29 0 26.21-4.256 26.21-6.073h3.903zM186.11 357.523c0 6.85-15.615 9.972-30.114 9.972-9.505 0-19.496-1.344-25.237-4.217v-4.51c2.733 2.033 11.24 4.825 25.236 4.825 17.29 0 26.21-4.254 26.21-6.07h3.903z"/></g><path fill="#EDB95E" d="M173.892 145.794h177.91V385.55H173.89z"/><path d="M353.267 387.012h-180.84v-242.68h180.84v242.68zm-177.913-2.928h174.983V147.26H175.354v236.824z" fill="#522100"/><path fill="#79A6D1" d="M310.574 278.91l-6.407 42.953-78.464 1.787-6.73-40.29z"/><path d="M252.598 252.828c7.398 15.754-.314 34.972-17.234 42.916-16.917 7.947-36.627 1.617-44.027-14.135-7.4-15.76.313-34.973 17.235-42.924 16.914-7.944 36.628-1.608 44.026 14.142zM307.257 245.098c.61 26.893-20.507 49.187-47.162 49.793-26.657.608-48.764-20.7-49.375-47.596-.614-26.89 20.504-49.18 47.156-49.786 26.66-.608 48.768 20.7 49.38 47.59z" fill="#fff"/><path d="M268.152 288.9c-29.413.675-53.93-24.266-55.607-56.075-1.3 4.587-1.94 9.45-1.825 14.47.61 26.896 22.718 48.204 49.375 47.597 11.672-.267 22.28-4.687 30.47-11.832-6.79 3.574-14.375 5.66-22.413 5.84z" fill="#7CAAD6"/><path d="M337.16 255.35c.405 17.8-13.566 32.558-31.21 32.957-17.637.4-32.274-13.7-32.676-31.5-.403-17.797 13.568-32.55 31.21-32.95 17.643-.402 32.273 13.697 32.676 31.494z" fill="#fff"/><path d="M309.96 279.804c-17.642.4-32.27-13.702-32.674-31.497-.08-3.54.427-6.953 1.405-10.164-3.548 5.328-5.57 11.76-5.416 18.664.4 17.8 15.04 31.9 32.676 31.5 14.137-.327 25.89-9.864 29.813-22.792-5.598 8.407-15 14.048-25.802 14.29z" fill="#7CAAD6"/><path d="M308.313 327.41c-27.75 7.87-56.854 8.53-84.934 1.937-.146-6.354-.29-12.702-.437-19.056 28.08 6.606 57.186 5.94 84.938-1.93.143 6.352.294 12.7.433 19.05z" fill="#fff"/><path d="M303.56 326.208c-.332 0-.635-.23-.712-.57-.093-.39.154-.786.55-.877.607-.137 1.218-.282 1.825-.43.4-.107.786.144.884.538.095.392-.145.787-.538.884-.616.15-1.23.294-1.846.437-.056.01-.11.018-.164.018z" fill="#6A9CCC"/><path d="M262.17 330.99c-.17 0-.342-.003-.514-.003l-1.183-.002c-.403-.004-.73-.332-.728-.737 0-.403.356-.718.736-.728l1.18.004c.808-.004 1.618-.002 2.427-.014h.012c.398 0 .723.32.73.724.004.403-.32.735-.724.74-.643.01-1.288.015-1.936.015zM256.858 330.926h-.02c-1.21-.03-2.422-.07-3.636-.127-.4-.02-.714-.364-.696-.768.02-.4.374-.692.768-.698 1.2.058 2.4.1 3.602.128.405.01.724.348.714.75-.01.397-.334.714-.732.714zM267.716 330.892c-.394 0-.718-.313-.73-.706-.015-.405.302-.743.705-.76 1.204-.04 2.404-.09 3.606-.15.49-.06.747.29.767.693.024.402-.288.746-.69.766-1.21.063-2.42.117-3.63.156h-.027z" fill="#90B6DB"/><path d="M249.625 330.598h-.048c-1.208-.08-2.416-.168-3.622-.27-.403-.035-.703-.39-.67-.79.033-.403.35-.71.79-.67 1.2.1 2.397.192 3.597.27.403.025.71.373.685.776-.027.387-.35.684-.732.684z" fill="#7EA6CC"/><path d="M274.943 330.512c-.382 0-.702-.294-.73-.678-.028-.403.273-.755.677-.783 1.202-.086 2.4-.185 3.597-.29.444-.056.76.26.795.66.037.404-.26.758-.663.794-1.207.11-2.414.21-3.622.296-.02.002-.037.002-.055.002z" fill="#90B6DB"/><path d="M242.413 329.988c-.024 0-.05-.002-.075-.004-1.206-.123-2.408-.263-3.61-.41-.4-.048-.686-.412-.637-.815.05-.398.393-.69.815-.638 1.192.146 2.39.283 3.583.407.402.04.695.398.652.802-.036.378-.356.656-.727.656zM282.157 329.858c-.37 0-.686-.275-.728-.652-.044-.4.244-.76.647-.807 1.192-.13 2.387-.278 3.578-.432.427-.054.77.23.822.628.052.403-.23.77-.632.822-1.202.156-2.404.3-3.61.437-.024.003-.05.003-.078.003zM235.227 329.1c-.034 0-.07 0-.104-.007-1.198-.172-2.396-.357-3.595-.55-.397-.064-.668-.444-.603-.84s.42-.665.84-.604c1.187.193 2.377.374 3.566.545.398.057.678.43.62.83-.052.363-.366.626-.723.626zM289.334 328.92c-.356 0-.67-.258-.724-.62-.06-.4.215-.775.612-.834 1.192-.18 2.38-.372 3.566-.573.394-.05.775.202.843.6.067.4-.2.776-.6.845-1.19.204-2.39.393-3.587.575-.036.006-.072.008-.11.008zM296.47 327.703c-.344 0-.65-.243-.72-.593-.074-.4.187-.783.582-.858 1.183-.223 2.36-.46 3.54-.71.39-.068.783.173.864.568.085.393-.17.783-.565.866-1.185.25-2.373.49-3.562.716-.046.007-.094.01-.137.01zM228.084 327.93c-.044 0-.09-.003-.135-.01l-1.86-.353c-.398-.08-.655-.46-.58-.858.08-.398.467-.664.858-.58l1.848.347c.397.075.66.457.588.854-.068.354-.374.6-.72.6zM227.744 314.912c-.048 0-.092-.004-.14-.012l-1.857-.36c-.396-.077-.654-.46-.577-.858.08-.396.45-.658.86-.577l1.852.358c.397.077.656.46.58.856-.066.35-.374.592-.718.592z" fill="#6A9CCC"/><path d="M262.62 318.925c-.827 0-1.66-.01-2.494-.027-.405-.012-.726-.346-.716-.75.008-.404.328-.697.748-.714.9.02 1.795.025 2.688.03l.925-.005h.005c.4 0 .73.32.73.727.003.403-.323.733-.727.735l-.93.004h-.227zM267.403 318.838c-.394 0-.718-.308-.73-.704-.017-.403.298-.743.7-.76 1.2-.044 2.4-.107 3.603-.188.438-.044.75.276.78.68.026.403-.278.75-.68.78-1.22.082-2.434.147-3.644.192h-.03zM256.513 318.763h-.038c-1.2-.063-2.414-.142-3.64-.235-.403-.03-.706-.382-.676-.785.032-.403.343-.73.786-.674 1.214.092 2.415.17 3.605.228.402.022.713.366.693.77-.02.39-.344.695-.73.695zM274.645 318.348c-.375 0-.69-.285-.73-.662-.038-.4.256-.76.66-.8 1.186-.114 2.378-.246 3.59-.393.415-.055.767.235.816.637.05.4-.234.765-.638.814-1.222.154-2.432.285-3.628.4-.026 0-.047.004-.07.004z" fill="#90B6DB"/><path d="M249.272 318.206c-.025 0-.05 0-.075-.004-1.186-.12-2.396-.255-3.62-.405-.402-.048-.69-.414-.638-.813.048-.4.422-.7.812-.64 1.218.145 2.414.282 3.596.402.4.04.692.4.652.802-.037.377-.355.658-.728.658z" fill="#7EA6CC"/><path d="M281.85 317.464c-.356 0-.67-.26-.725-.625-.06-.402.218-.774.617-.832 1.174-.174 2.364-.36 3.57-.567.392-.05.775.203.846.602.065.4-.203.775-.6.844-1.22.208-2.417.396-3.603.57-.035.006-.07.008-.106.008z" fill="#76A2CC"/><path d="M242.064 317.33c-.03 0-.067-.002-.103-.008-1.178-.166-2.375-.346-3.6-.538-.4-.062-.674-.437-.61-.834.062-.397.423-.694.834-.61 1.218.19 2.412.367 3.583.533.398.055.678.427.62.826-.05.365-.362.63-.723.63z" fill="#7EA6CC"/><path d="M289.01 316.26c-.347 0-.652-.246-.718-.596-.077-.4.188-.78.583-.856 1.162-.22 2.35-.45 3.553-.694.4-.1.784.176.86.573.082.396-.175.78-.57.862-1.214.244-2.4.478-3.572.695-.045.01-.09.014-.136.014zM234.89 316.207c-.04 0-.08-.004-.124-.01-1.17-.2-2.364-.41-3.584-.63-.397-.073-.662-.453-.59-.852.074-.396.432-.653.853-.59 1.212.222 2.402.432 3.566.63.4.066.667.444.603.84-.064.36-.373.612-.724.612zM296.126 314.813c-.336 0-.64-.233-.713-.577-.085-.396.164-.783.56-.87 1.154-.25 2.332-.514 3.538-.787.39-.102.786.157.875.55.09.394-.156.785-.55.876-1.21.275-2.392.538-3.555.79-.05.012-.102.017-.154.017z" fill="#76A2CC"/><path d="M303.224 313.192c-.33 0-.63-.224-.71-.562-.095-.392.146-.787.542-.88l1.833-.443c.397-.104.785.145.88.538.096.393-.142.79-.537.884l-1.84.44c-.055.018-.114.022-.17.022z" fill="#6A9CCC"/></svg>