<svg xmlns="http://www.w3.org/2000/svg" width="100" height="89.014" viewBox="0 -0.283 100 89.014" enable-background="new 0 -0.283 100 89.014"><path fill="#EBEDEE" d="M86.5 33.73c-2.357 0-4.57.608-6.5 1.67v-3.67H0v20c0 14.283 8.56 26.56 20.824 32H0s1.113 5 4.5 5h71c3.53 0 4.5-5 4.5-5H59.176c9.59-4.254 16.893-12.695 19.633-23h7.69c7.455 0 13.5-6.043 13.5-13.5s-6.045-13.5-13.5-13.5zm0 22l-6.75-.002c.148-1.312.25-2.644.25-3.997V41.76c1.56-1.85 3.89-3.027 6.5-3.027 4.693 0 8.5 3.81 8.5 8.5 0 4.694-3.805 8.5-8.5 8.5z"/><path fill="#DFE1E2" d="M0 31.73v20c0 14.283 8.56 26.56 20.824 32H0s1.113 5 4.5 5H40v-57H0z"/><path fill="#D3D5D6" d="M64.57 80.73H15.453c1.694 1.147 3.482 2.163 5.37 3h38.353c1.894-.84 3.695-1.85 5.394-3z"/><path fill="#C8CACB" d="M40 80.73H15.453c1.694 1.147 3.482 2.163 5.37 3H40v-3zM12 47.73L.585 58.006C1.75 64.43 4.65 70.25 8.81 74.938L26 59.73l-10-11-4-1z"/><path fill="#B3B9BD" d="M18 31.73h2v12h-2v-12z"/><path fill="#34495E" d="M22 43.73h-6l-4 4v12h14v-12zM32.347 2.87c.7-.74.682-1.916-.042-2.63-.726-.716-1.88-.69-2.58.043C26.28 3.917 26.097 8.6 29.21 13.48c1.772 2.77 1.47 5.788-.8 8.068-.718.722-.726 1.897-.018 2.63.354.37.825.554 1.297.554.463 0 .924-.178 1.28-.534 3.492-3.508 4.002-8.513 1.296-12.747-3.24-5.078-.74-7.717.08-8.58zm10 0c.7-.74.683-1.916-.042-2.63-.727-.716-1.88-.69-2.58.043C36.28 3.917 36.097 8.6 39.21 13.48c1.772 2.77 1.47 5.788-.8 8.068-.718.722-.726 1.897-.018 2.63.354.37.825.554 1.297.554.463 0 .923-.178 1.28-.534 3.492-3.508 4.002-8.513 1.296-12.747-3.24-5.078-.74-7.717.08-8.58zm9.92 8.58c-3.24-5.08-.74-7.718.08-8.582.7-.738.683-1.915-.042-2.63-.727-.715-1.88-.69-2.58.044-3.443 3.634-3.628 8.317-.514 13.196 1.772 2.77 1.472 5.79-.8 8.07-.72.72-.727 1.896-.02 2.63.355.368.826.553 1.3.553.462 0 .923-.177 1.28-.534 3.493-3.506 4.003-8.51 1.298-12.746z"/><path fill="#F5D657" d="M20.938 46.566h-3.876l-2.58 2.583v7.746h9.038V49.15z"/></svg>