<svg xmlns="http://www.w3.org/2000/svg" width="100" height="100"><path fill="#2C3E50" d="M15 13h70c8.284 0 15 6.716 15 15v57c0 8.285-6.716 15-15 15H15c-8.284 0-15-6.715-15-15V28c0-8.284 6.716-15 15-15z"/><path fill="#3E5266" d="M15 0h70c8.284 0 15 6.716 15 15v66c0 8.285-6.716 15-15 15H15C6.716 96 0 89.285 0 81V15C0 6.716 6.716 0 15 0z"/><path fill="#2C3E50" d="M48.5 15C67.555 15 83 30.446 83 49.5 83 68.555 67.555 84 48.5 84 29.446 84 14 68.555 14 49.5 14 30.446 29.446 15 48.5 15z"/><path fill="#BCC4C8" d="M49 15c18.777 0 34 15.223 34 34S67.777 83 49 83c-18.778 0-34-15.223-34-34 0-18.778 15.222-34 34-34z"/><path fill="#34495E" d="M49 17.756c17.256 0 31.243 13.988 31.243 31.243S66.256 80.243 49 80.243c-17.255 0-31.243-13.988-31.243-31.245 0-17.255 13.988-31.244 31.243-31.244z"/><path fill="#EBEDEE" d="M49 47c1.104 0 2 .896 2 2s-.896 2-2 2-2-.896-2-2 .896-2 2-2z"/><path fill="#495C6E" d="M53.117 44.99l-1.24 1.24C52.567 46.95 53 47.923 53 49c0 2.21-1.79 4-4 4-1.077 0-2.05-.432-2.77-1.123l-1.24 1.24L60.216 78.16c8.443-3.25 15.118-10.053 18.188-18.584L53.117 44.99zM19.587 38.45L44.93 53.07l1.242-1.24C45.448 51.103 45 50.103 45 49c0-2.208 1.79-4 4-4 1.104 0 2.104.448 2.828 1.172l1.242-1.243-15.257-25.103c-8.465 3.25-15.158 10.07-18.226 18.624z"/><path fill="#2C3E50" d="M75.99 51.604l9.465-36.238-2.91-.73-8.91 35.643c-.22.154-8.746 8.01-8.746 8.01-.427-.186-.896-.29-1.39-.29-1.934 0-3.5 1.566-3.5 3.5s1.566 3.5 3.5 3.5 3.5-1.566 3.5-3.5c0-.343-.064-.667-.156-.98l8.7-7.943c.257-.25.42-.593.446-.973z"/><path fill="#5FCCFF" d="M49 36c-7.18 0-13 5.82-13 13s5.82 13 13 13 13-5.82 13-13-5.82-13-13-13zm0 17c-2.21 0-4-1.79-4-4 0-2.208 1.79-4 4-4s4 1.792 4 4c0 2.21-1.79 4-4 4z"/><path fill="#fff" d="M86 73c2.762 0 5 2.238 5 5s-2.238 5-5 5-5-2.238-5-5 2.238-5 5-5z"/><path fill="#E45136" d="M86 75c1.656 0 3 1.344 3 3s-1.344 3-3 3-3-1.344-3-3 1.344-3 3-3z"/><path fill="#fff" d="M85 10c-3.312 0-6 2.686-6 6 0 2.276 1.27 4.256 3.137 5.273l-7.502 30.004c-.22.156-8.746 8.013-8.746 8.013-.427-.186-.896-.29-1.39-.29-1.934 0-3.5 1.566-3.5 3.5s1.566 3.5 3.5 3.5 3.5-1.566 3.5-3.5c0-.342-.064-.666-.156-.98l8.7-7.944c.257-.25.42-.592.446-.973L84.982 22H85c3.312 0 6-2.686 6-6 0-3.313-2.688-6-6-6zM64.5 64c-.828 0-1.5-.672-1.5-1.5s.672-1.5 1.5-1.5 1.5.672 1.5 1.5-.672 1.5-1.5 1.5z"/><path fill="#95A5A6" d="M85 13c1.656 0 3 1.343 3 3s-1.344 3-3 3-3-1.343-3-3 1.344-3 3-3z"/></svg>