<svg xmlns="http://www.w3.org/2000/svg" width="99.987" height="100"><path fill="#EAB39C" d="M49.978 0C22.358 0 0 22.39 0 50.008 0 77.628 22.358 100 49.978 100s50.01-22.373 50.01-49.993C99.985 22.39 77.597 0 49.977 0zM50 68.006c-9.94 0-18-8.06-18-18s8.06-18 18-18c9.942 0 18 8.06 18 18s-8.058 18-18 18z"/><path fill="#955BA5" d="M93.06 37.116c-3.144-2.78-5.726-8.514-5.76-12.726-.03-4.212-3.446-8.183-7.572-8.812-4.14-.63-9.393-4.035-11.68-7.568-2.293-3.533-7.28-5.013-11.103-3.283-3.817 1.722-10.065 1.722-13.883 0-3.817-1.73-8.814-.25-11.1 3.283-2.287 3.533-7.544 6.938-11.683 7.568-4.135.63-7.544 4.6-7.576 8.812s-2.626 9.945-5.767 12.726c-3.14 2.79-3.882 7.99-1.648 11.546 2.24 3.565 3.13 9.8 1.98 13.858-1.15 4.05 1.014 8.82 4.808 10.607 3.79 1.78 7.884 6.54 9.09 10.576 1.208 4.034 5.59 6.873 9.733 6.307s10.14 1.205 13.323 3.945c3.18 2.732 8.385 2.732 11.564 0 3.18-2.742 9.175-4.512 13.32-3.945 4.147.566 8.525-2.27 9.738-6.307 1.202-4.035 5.297-8.797 9.083-10.576 3.802-1.787 5.967-6.558 4.812-10.607-1.155-4.06-.257-10.293 1.973-13.858 2.23-3.558 1.492-8.757-1.652-11.546zM50.003 65.87c-8.69 0-15.737-7.104-15.737-15.866S41.31 34.14 50.002 34.14c8.692 0 15.74 7.102 15.74 15.864S58.694 65.87 50 65.87z"/><path fill="#F29C1F" d="M34.79 32.163l-4.736-3.68c-.654-.51-1.597-.39-2.104.263-.508.654-.39 1.596.264 2.105l4.738 3.682c.654.508 1.597.39 2.105-.264.506-.654.388-1.597-.266-2.105zM81.397 60.06c-.634-.532-1.58-.45-2.113.185l-3.86 4.596c-.53.635-.448 1.58.186 2.114.634.532 1.58.45 2.113-.185l3.857-4.596c.532-.634.45-1.58-.184-2.113zM79.88 29.55c.19-.806-.307-1.615-1.112-1.806l-5.837-1.388c-.806-.19-1.614.307-1.806 1.112-.19.806.308 1.615 1.112 1.806l5.837 1.388c.806.192 1.615-.306 1.806-1.112zM33.314 75.682l-5.962.67c-.823.092-1.416.835-1.323 1.658.092.822.834 1.416 1.658 1.322l5.962-.67c.823-.093 1.416-.834 1.323-1.658-.092-.822-.834-1.416-1.658-1.322z"/><path fill="#FFC60A" d="M17 53.006c-1.103 0-2 .896-2 2s.897 2 2 2 2-.895 2-2c0-1.104-.894-2-2-2zm69-3c-1.103 0-2 .897-2 2s.897 2 2 2 2-.895 2-2-.894-2-2-2z"/><path fill="#56C1A6" d="M79.81 43.458c-.56-.61-1.51-.648-2.12-.087l-4.412 4.066c-.61.562-.648 1.51-.087 2.12.563.61 1.51.648 2.12.087l4.414-4.065c.61-.562.65-1.51.087-2.12zm-61.69-8.435c-.826.07-1.44.796-1.368 1.622l.51 5.98c.07.824.798 1.436 1.622 1.366.826-.07 1.438-.796 1.367-1.62l-.51-5.98c-.07-.825-.795-1.437-1.62-1.367zM40 81.006c-1.103 0-2 .896-2 2s.897 2 2 2 2-.896 2-2c0-1.103-.894-2-2-2zm4-59c-1.103 0-2 .897-2 2s.897 2 2 2 2-.895 2-2-.894-2-2-2z"/><path fill="#FBF063" d="M25.282 61.245l-3.86 4.596c-.53.635-.448 1.58.186 2.114.635.532 1.58.45 2.114-.185l3.857-4.596c.532-.635.45-1.582-.185-2.113-.635-.53-1.58-.45-2.113.185zm27.75-41.018c.686-.466.863-1.4.397-2.083l-3.377-4.96c-.467-.685-1.4-.862-2.085-.396-.685.466-.86 1.4-.396 2.084l3.375 4.96c.47.684 1.402.86 2.086.395zm-1.03 60.78c-1.105 0-2 .895-2 2 0 1.104.895 2 2 2s2-.897 2-2-.896-2-2-2zm-18-15c-1.105 0-2 .895-2 2s.895 2 2 2 2-.897 2-2c0-1.104-.896-2-2-2zm-1-46c0-1.104-.897-2-2-2s-2 .896-2 2 .895 2 2 2 2-.895 2-2zm40 15c-1.105 0-2 .896-2 2s.895 2 2 2 2-.896 2-2-.896-2-2-2z"/><path fill="#F57E20" d="M73 76.006c-1.103 0-2 .896-2 2s.897 2 2 2 2-.896 2-2c0-1.103-.894-2-2-2zm-13-52c-1.103 0-2 .896-2 2s.897 2 2 2 2-.895 2-2c0-1.104-.894-2-2-2z"/><path fill="#6AC9F2" d="M62.458 74.104c-.166-.822-.967-1.332-1.79-1.14-.822.192-1.354 1.014-1.188 1.835l1.202 5.95c.166.822.967 1.334 1.79 1.142.822-.192 1.354-1.015 1.188-1.835l-1.202-5.953zM70 62.006c-1.103 0-2 .896-2 2s.897 2 2 2 2-.896 2-2-.894-2-2-2zm-44-16c-1.103 0-2 .897-2 2s.897 2 2 2 2-.894 2-2-.894-2-2-2zm20 27c-1.103 0-2 .896-2 2s.897 2 2 2 2-.895 2-2c0-1.104-.894-2-2-2zm19-58c-1.103 0-2 .897-2 2s.897 2 2 2 2-.895 2-2-.894-2-2-2zm21 23c-1.103 0-2 .897-2 2 0 1.106.897 2 2 2s2-.895 2-2c0-1.104-.894-2-2-2z"/><path fill="#D3896D" d="M51.978 98C24.358 98 2 75.627 2 48.008c0-13.31 5.202-25.395 13.673-34.355C6.026 22.77 0 35.68 0 50.008 0 77.628 22.358 100 49.978 100c14.322 0 27.23-6.026 36.347-15.672C77.365 92.798 65.283 98 51.978 98z"/><path fill="#854D9B" d="M66.74 49.004c0-8.762-7.045-15.865-15.738-15.865-4.578 0-8.687 1.982-11.562 5.127 2.794-2.557 6.492-4.128 10.562-4.128 8.692 0 15.74 7.102 15.74 15.864 0 4.147-1.592 7.91-4.176 10.737 3.17-2.902 5.175-7.077 5.175-11.736zM7.94 36.116c3.14-2.78 5.733-8.514 5.767-12.726.017-2.104.874-4.147 2.244-5.744-1.937 1.686-3.224 4.167-3.243 6.744-.028 3.8-2.146 8.834-4.867 11.825l.1-.1zM32.963 7.01c.188-.29.4-.562.622-.824-.624.525-1.175 1.133-1.622 1.823-.374.578-.834 1.15-1.35 1.71.938-.863 1.75-1.782 2.35-2.71zm55.965 65.117c-1.67.785-3.397 2.15-4.912 3.775 1.253-1.18 2.6-2.158 3.912-2.775 1.085-.51 2.03-1.27 2.81-2.178-.55.467-1.154.87-1.81 1.177zM70.108 89.01c-4.146-.566-10.143 1.205-13.32 3.945-3.18 2.732-8.386 2.732-11.565 0-3.185-2.742-9.18-4.512-13.322-3.945s-8.524-2.27-9.73-6.307-5.302-8.797-9.092-10.576C9.284 70.34 7.118 65.57 8.27 61.52c1.15-4.06.26-10.293-1.978-13.858-2.06-3.278-1.584-7.948.96-10.843l-.312.296c-3.14 2.79-3.882 7.99-1.648 11.546 2.238 3.565 3.128 9.8 1.978 13.858-1.15 4.05 1.014 8.82 4.808 10.607 3.79 1.78 7.884 6.54 9.09 10.576 1.208 4.034 5.59 6.873 9.733 6.307s10.14 1.205 13.323 3.945c3.18 2.732 8.385 2.732 11.564 0 3.18-2.742 9.175-4.512 13.32-3.945 2.972.404 6.055-.94 8.014-3.22-1.923 1.657-4.508 2.562-7.012 2.22z"/></svg>