<svg xmlns="http://www.w3.org/2000/svg" xmlns:xlink="http://www.w3.org/1999/xlink" width="100" height="100"><path fill="#EBEEEF" d="M50 0c27.613 0 50 22.386 50 50s-22.387 50-50 50C22.386 100 0 77.613 0 50 0 22.385 22.386 0 50 0z"/><defs><circle id="a" cx="50" cy="50" r="50"/></defs><clipPath id="b"><use xlink:href="#a" overflow="visible"/></clipPath><g clip-path="url(#b)"><path fill="#DF3627" d="M82 104l-.005-57.014H62V36H38v10.986H18.004L18 104h20v10h24v-10z"/><path fill="#EBEEEF" d="M78.48 66.23c-4.528 2.265-11.768 2.333-16.48.222v6c4.713 2.11 11.952 2.043 16.48-.223 2.328-1.163 3.496-2.688 3.513-4.212h.003v-6.03c0 1.535-1.173 3.07-3.516 4.24zM38 66.447c-4.712 2.115-11.957 2.05-16.49-.22-2.316-1.155-3.482-2.67-3.51-4.188v5.894c-.027 1.553 1.14 3.11 3.51 4.295 4.533 2.268 11.778 2.333 16.49.22v-6.003z"/><path fill="#C83021" d="M38 58h4V46.986h-8V104h4z"/><path fill="#FF4B39" d="M41.51 31.744c4.688-2.344 12.285-2.344 16.973 0 4.687 2.343 4.687 6.143 0 8.485-4.688 2.343-12.284 2.343-16.973 0-4.687-2.344-4.687-6.144 0-8.486zM21.51 42.744c4.688-2.344 12.285-2.344 16.972 0 4.687 2.343 4.687 6.143 0 8.484-4.687 2.345-12.284 2.345-16.972 0-4.687-2.342-4.687-6.142 0-8.484zM41.51 53.744c4.688-2.344 12.285-2.344 16.973 0 4.687 2.342 4.687 6.143 0 8.484-4.688 2.344-12.284 2.344-16.973 0-4.687-2.34-4.687-6.142 0-8.484z"/><path fill="#EBEEEF" d="M58.477 77.23c-4.687 2.344-12.284 2.344-16.972 0-2.316-1.156-3.482-2.67-3.51-4.19v5.897c-.027 1.553 1.14 3.11 3.51 4.295 4.688 2.344 12.285 2.344 16.972 0 2.328-1.162 3.496-2.687 3.512-4.21h.003V72.99c-.003 1.533-1.175 3.07-3.516 4.24z"/><path fill="#C83021" d="M58 48v5.525l.48.22C60.83 54.92 62 56.46 61.995 58H62v46h4V48h-8z"/><path fill="#D3D6D7" d="M62 66.447v6c1.2.537 2.56.936 4 1.19v-6c-1.44-.254-2.8-.653-4-1.19z"/><path fill="#FF4B39" d="M61.51 42.744c4.688-2.344 12.285-2.344 16.973 0 4.687 2.343 4.687 6.143 0 8.484-4.688 2.345-12.284 2.345-16.973 0-4.687-2.342-4.687-6.142 0-8.484z"/><path fill="#D3D6D7" d="M38 66.443c-1.2.54-2.558.938-4 1.192v6c1.442-.254 2.8-.653 4-1.192v-6z"/><path fill="#BCC4C8" d="M56 52.797V47H44v5.795c3.705-1.07 8.297-1.07 12 .002z"/><path fill="#EBF0F1" d="M45.755 44.872c2.344-1.172 6.144-1.172 8.486 0s2.344 3.07 0 4.243c-2.344 1.172-6.142 1.172-8.485 0-2.343-1.172-2.343-3.072 0-4.243z"/><path fill="#264860" d="M50.988 47H49c0-9.325 3.06-14.044 5.717-18.608 1.667-2.862 3.364-5.624 4.373-9.505.8-1.257 1.955-.587 2.018.14-1.088 4.46-3 7.556-4.762 10.582-2.612 4.48-5.358 8.715-5.358 17.39z"/><path fill="#F1C40E" d="M64.023 20.05c1.12-.735 2.51-1.198 4.177-1.384-1.667-.186-3.056-.648-4.175-1.382.273-1.307.93-2.612 1.975-3.918-1.307 1.045-2.61 1.7-3.918 1.974-.734-1.118-1.197-2.508-1.383-4.175-.187 1.668-.65 3.058-1.386 4.176-1.308-.27-2.614-.928-3.922-1.974 1.045 1.307 1.7 2.613 1.975 3.92-1.117.732-2.504 1.195-4.168 1.38 1.663.185 3.052.647 4.17 1.38-.272 1.31-.93 2.62-1.978 3.928 1.31-1.047 2.617-1.704 3.926-1.976.732 1.117 1.195 2.504 1.38 4.168.186-1.664.647-3.05 1.38-4.167 1.307.27 2.613.928 3.922 1.974-1.046-1.308-1.703-2.616-1.977-3.925z"/></g></svg>