<svg xmlns="http://www.w3.org/2000/svg" width="100" height="100"><circle fill="#2C3E50" cx="50" cy="50" r="50"/><circle fill="#F0C419" cx="81" cy="30" r="5"/><path fill="#fff" d="M79 27.5c2.55-.45 4.05-1.95 4.5-4.5.45 2.55 1.95 4.05 4.5 4.5-2.55.45-4.05 1.95-4.5 4.5-.45-2.55-1.95-4.05-4.5-4.5z"/><circle opacity=".6" fill="#fff" cx="61.5" cy="14.5" r="1.5"/><circle opacity=".2" fill="#fff" cx="44.5" cy="11.5" r="1.5"/><circle opacity=".6" fill="#fff" cx="16.5" cy="35.5" r="1.5"/><circle opacity=".3" fill="#fff" cx="35.5" cy="83.5" r="1.5"/><circle opacity=".4" fill="#fff" cx="68.5" cy="81.5" r="1.5"/><circle opacity=".6" fill="#fff" cx="85.5" cy="61.5" r="1.5"/><circle fill="#3B97D3" cx="50" cy="50" r="25"/><path opacity=".88" fill="#fff" d="M73.997 57.008C68.724 65.88 54.143 72.42 47.87 74.903c.703.06 1.412.097 2.13.097 11.373 0 20.966-7.598 23.997-17.992zM67.94 46c.063-7.875-1.045-7.957-8-7-3.405.47-6.405 1.72-11 4l-10 9s-1.537-2.902-4 1c-1.655 2.625-1 5-1 5s3-3.313 6-4c1.488-.34 12.032-5.907 12 1-.027 6.255-11.794 14.713-14.48 16.625.394.228.793.446 1.2.653 1.673-.257 4.615-1.113 9.28-3.277 6.94-3.22 19.93-14.177 20-23z"/><path fill="#3B97D3" d="M73.997 57.008C74.647 54.783 75 52.434 75 50c0-12.296-8.88-22.51-20.575-24.602-.368.16-1.153.357-2.484.602-8.728 1.603-16.843 6.875-22 15-1.093 1.25-2 5-2 5s-.193 2 1 2 .352-3.18 2-5c1.595-1.758 4.996-7.384 10-10 3.237-1.736 13.595-4.252 19 0 5.588 4.415-8.678-4.043-16.04 7.155-1.85 2.812-3.078-1.856-5.96-.155-3.22 1.9-2.06 2.406-6 11-2.884 6.297-.61 12.253-1.328 14.78 1.906 2.338 4.227 4.32 6.85 5.845 2.685-1.912 14.45-10.37 14.48-16.625.03-6.906-10.513-1.34-12-1-3 .687-6 4-6 4s-.656-2.375 1-5c2.462-3.902 4-1 4-1s5.406-6.72 10-9 7.594-3.53 11-4c6.954-.957 8.063-.875 8 7-.07 8.823-13.062 19.78-20 23-4.666 2.165-7.607 3.02-9.28 3.277 2.805 1.43 5.916 2.347 9.21 2.625 6.27-2.482 20.852-9.022 26.125-17.894z"/><path opacity=".88" fill="#fff" d="M31.94 51c3.94-8.594 2.78-9.1 6-11 2.883-1.7 4.11 2.967 5.96.155C51.26 28.957 65.527 37.415 59.94 33c-5.405-4.252-15.763-1.736-19 0-5.004 2.616-8.405 8.242-10 10-1.648 1.82-.805 5-2 5s-1-2-1-2 .907-3.75 2-5c5.157-8.125 13.272-13.397 22-15 1.332-.244 2.117-.442 2.485-.602C52.988 25.142 51.51 25 50 25c-13.807 0-25 11.193-25 25 0 5.984 2.105 11.475 5.612 15.78.72-2.527-1.556-8.483 1.33-14.78z"/></svg>