<svg xmlns="http://www.w3.org/2000/svg" width="100" height="100"><path fill="#2980BA" d="M51 22c16.016 0 29 12.984 29 29S67.015 80 51 80 22 67.015 22 51c0-16.015 12.984-29 29-29z"/><path fill="#EDF0F1" d="M50 0c27.613 0 50 22.386 50 50s-22.387 50-50 50C22.386 100 0 77.614 0 50S22.386 0 50 0z"/><path fill="#3B97D3" d="M51 22c16.016 0 29 12.984 29 29S67.015 80 51 80 22 67.015 22 51c0-16.015 12.984-29 29-29z"/><path fill="#2980BA" d="M53 78c-16.016 0-29-12.984-29-29 0-7.5 2.848-14.332 7.52-19.48C25.673 34.825 22 42.484 22 51c0 16.016 12.984 29 29 29 8.518 0 16.176-3.673 21.48-9.52C67.333 75.152 60.5 78 53 78z"/><path fill="#35495E" d="M51 38.005c7.177 0 12.995 5.818 12.995 12.995S58.177 63.995 51 63.995 38.005 58.177 38.005 51 43.823 38.005 51 38.005z"/><path fill="#fff" d="M60.003 35.01c3.862 0 6.992 3.132 6.992 6.997s-3.13 6.998-6.992 6.998c-3.86 0-6.992-3.133-6.992-6.998s3.133-6.998 6.993-6.998z"/><path fill="#BDC2C7" d="M50 4c26.943 0 48.898 21.314 49.95 48 .024-.665.05-1.33.05-2 0-27.614-22.386-50-50-50S0 22.386 0 50c0 .67.024 1.335.05 2C1.103 25.314 23.058 4 50 4z"/></svg>