<svg height="128" viewBox="0 0 128 128" width="128" xmlns="http://www.w3.org/2000/svg" xmlns:xlink="http://www.w3.org/1999/xlink"><style type="text/css">.st0{fill:#2D60A2;} .st1{clip-path:url(#SVGID_2_);fill:#274E84;} .st2{fill:#FCD1A9;} .st3{opacity:0.55;clip-path:url(#SVGID_4_);fill:#F49D63;} .st4{clip-path:url(#SVGID_6_);} .st5{opacity:0.55;fill:#F49D63;} .st6{fill:#008FDF;} .st7{opacity:0.71;clip-path:url(#SVGID_8_);fill:#0073BC;} .st8{fill:#FECD48;} .st9{clip-path:url(#SVGID_10_);fill:#F8AA2F;} .st10{fill:#FFF3E5;}</style><circle class="st0" cx="64" cy="64" r="64"/><defs><circle cx="64" cy="64" id="SVGID_1_" r="64"/></defs><clipPath id="SVGID_2_"><use xlink:href="#SVGID_1_" overflow="visible"/></clipPath><path class="st1" d="M34.7 101.8L61 128h67V68.6L79 19.8l-6.1 16.1L55 65.4l-9.1-9.1z"/><path class="st2" d="M43.2 60.6s7.7-1.3 15.1-9.5c7.5-8.2 10.5-12.6 11.2-17.1s.7-12.8.7-12.8.2-2.9 5.1-2.9 7.5 7 7.1 12.7-2.5 12.6-1.8 14.6c.4 1.1 1.7 2.7 12.4 2.8 10.7.2 14.3.3 15.8 2.7 1.5 2.4 1.1 7.9-.8 9.1-1.9 1.2-1.3 1.7-.6 3.2.5 1.2.2 6.2-4 7.5-2 .6.6 1.6-1.1 5.4-1.4 2.9-4.3 3.5-4.3 3.5s.4 7.4-4.8 7.3c-5.3 0-21.2-2.3-27.5-1.1s-15.3 5.4-15.3 5.4l-7.2-30.8z"/><defs><path d="M43.2 60.6s7.7-1.3 15.1-9.5c7.5-8.2 10.5-12.6 11.2-17.1s.7-12.8.7-12.8.2-2.9 5.1-2.9 7.5 7 7.1 12.7-1.9 12.3-.3 13.9c1.5 1.5.2 3.4 10.9 3.6 10.7.2 14.3.3 15.8 2.7 1.5 2.4 1.1 7.9-.8 9.1-1.9 1.2-1.3 1.7-.6 3.2.5 1.2.2 6.2-4 7.5-2 .6.6 1.6-1.1 5.4-1.4 2.9-4.3 3.5-4.3 3.5s.4 7.4-4.8 7.3c-5.3 0-21.2-2.3-27.5-1.1s-15.3 5.4-15.3 5.4l-7.2-30.9z" id="SVGID_3_"/></defs><clipPath id="SVGID_4_"><use xlink:href="#SVGID_3_" overflow="visible"/></clipPath><path class="st3" d="M46.6 57.4l18.6 30.7-8.7.7z"/><defs><path d="M43.2 60.6s7.7-1.3 15.1-9.5c7.5-8.2 10.5-12.6 11.2-17.1s.7-12.8.7-12.8.2-2.9 5.1-2.9 7.5 7 7.1 12.7-1.9 12.3-.3 13.9c1.5 1.5.2 3.4 10.9 3.6 10.7.2 14.3.3 15.8 2.7 1.5 2.4 1.1 7.9-.8 9.1-1.9 1.2-1.3 1.7-.6 3.2.5 1.2.2 6.2-4 7.5-2 .6.6 1.6-1.1 5.4-1.4 2.9-4.3 3.5-4.3 3.5s.4 7.4-4.8 7.3c-5.3 0-21.2-2.3-27.5-1.1s-15.3 5.4-15.3 5.4l-7.2-30.9z" id="SVGID_5_"/></defs><clipPath id="SVGID_6_"><use xlink:href="#SVGID_5_" overflow="visible"/></clipPath><g class="st4"><path class="st5" d="M96.6 59.5s9.8 2.7 13.2 1.4c3.4-1.3 2.4-6.2 2.4-6.2s1.1 4.8-15.6 4.8zM93.9 69.5s10.5 2.7 13.9 1.3c3.4-1.3.8-5.2.8-5.2s1.9 3.9-14.7 3.9zM91.5 78.5s11.9 2.7 15.3 1.3c3.4-1.3 1.3-6.4 1.3-6.4s.1 5.1-16.6 5.1z"/></g><path class="st6" d="M46.6 57.5l11 34.7c.5 1.6-.4 3.2-1.9 3.7l-18.3 6.2c-1.5.5-3.2-.3-3.8-1.8L20.7 66.1c-.6-1.6.3-3.4 1.9-3.9l20.2-6.6c1.6-.5 3.3.3 3.8 1.9z"/><defs><path id="SVGID_7_" d="M45.7 54.6l12.8 40.5-23.8 8.1-15.1-40.1z"/></defs><clipPath id="SVGID_8_"><use xlink:href="#SVGID_7_" overflow="visible"/></clipPath><path class="st7" d="M40.8 94.4l5.7 5.7 10.4-.5 1.6-1.5-14.3-14.3z"/><path class="st8" d="M45.4 86.6l-.6-1.9c-.5-1.4-1.9-2.1-3.3-1.7-1.4.5-2.1 1.9-1.7 3.3l.6 1.9c-.9 1.2-1.2 2.7-.7 4.3.8 2.4 3.4 3.8 5.9 3 2.4-.8 3.8-3.4 3-5.9-.6-1.5-1.8-2.6-3.2-3z"/><defs><path d="M45.4 86.6l-.6-1.9c-.5-1.4-1.9-2.1-3.3-1.7-1.4.5-2.1 1.9-1.7 3.3l.6 1.9c-.9 1.2-1.2 2.7-.7 4.3.8 2.4 3.4 3.8 5.9 3 2.4-.8 3.8-3.4 3-5.9-.6-1.5-1.8-2.6-3.2-3z" id="SVGID_9_"/></defs><clipPath id="SVGID_10_"><use xlink:href="#SVGID_9_" overflow="visible"/></clipPath><path class="st9" d="M47.1 88.8l1.8 1.8-.6 4.1-4.3 1.5-1.3-1.3.2-.6-2.9-2.8z"/><path class="st10" d="M43 87.5l1.4 1.4c.1.1.2.1.3.1l1.9-.4c.3-.1.6.3.4.5l-.8 1.9c-.1.1-.1.2 0 .4l1 1.7c.2.3-.1.6-.4.6l-2-.3c-.1 0-.2 0-.3.1l-1.4 1.4c-.2.2-.6.1-.7-.2l-.3-2c0-.1-.1-.2-.2-.3l-1.8-.8c-.3-.1-.3-.5 0-.7l1.8-.9c.1-.1.2-.2.2-.3l.3-2c0-.3.4-.4.6-.2z"/></svg>