<svg xmlns="http://www.w3.org/2000/svg" xmlns:xlink="http://www.w3.org/1999/xlink" width="100" height="100"><path fill="#34495E" d="M50 0c27.613 0 50 22.386 50 50s-22.387 50-50 50C22.385 100 0 77.614 0 50S22.385 0 50 0z"/><defs><circle id="a" cx="50" cy="50" r="50"/></defs><clipPath id="b"><use xlink:href="#a" overflow="visible"/></clipPath><g clip-path="url(#b)"><path fill="#216E9B" d="M28.5 22C22.7 22 18 34.536 18 50s4.7 28 10.5 28h16.016V22H28.5z"/><path fill="#2981B5" d="M46 10c-8.284 0-15 18.133-15 40.5C31 72.868 37.715 91 46 91h17V10H46z"/><path fill="#47A4DB" d="M63 10c8.283 0 15 18.133 15 40.5C78 72.868 71.283 91 63 91c-8.285 0-15-18.132-15-40.5C48 28.133 54.715 10 63 10z"/><path fill="#fff" d="M65 39c-2.21 0-4 5.373-4 12s1.79 12 4 12c1.012 0 1.934-1.14 2.64-3h32.358c.656-3.23 1.002-6.575 1.002-10 0-2.724-.227-5.395-.645-8H67.64c-.706-1.86-1.628-3-2.64-3z"/><path fill="#EDEDEF" d="M65 63c1.012 0 1.934-1.14 2.64-3h32.358c.592-2.915.916-5.925.977-9H61c0 6.627 1.79 12 4 12z"/></g></svg>