<svg xmlns="http://www.w3.org/2000/svg" xmlns:xlink="http://www.w3.org/1999/xlink" width="100" height="100"><path fill="#34495E" d="M50 0c27.613 0 50 22.386 50 50s-22.387 50-50 50C22.386 100 0 77.614 0 50S22.386 0 50 0z"/><defs><circle id="a" cx="50" cy="50" r="50"/></defs><clipPath id="b"><use xlink:href="#a" overflow="visible"/></clipPath><g clip-path="url(#b)"><path fill="#ECF0F1" d="M59 51.213V28H41v23.213C26.592 55.16 16 68.34 16 84c0 18.777 15.222 34 34 34 18.777 0 34-15.223 34-34 0-15.66-10.592-28.84-25-32.787z"/><path fill="#17A085" d="M73.64 70H26.36C23.604 74.337 22 79.48 22 85c0 15.464 12.536 28 28 28s28-12.536 28-28c0-5.52-1.604-10.663-4.36-15z"/><path fill="#1ABC9C" d="M32.908 64.205c9.44-4.52 24.744-4.52 34.185 0s9.44 11.852 0 16.372c-9.438 4.52-24.744 4.52-34.185 0-9.44-4.52-9.44-11.85 0-16.372z"/><path fill="#BDC3C7" d="M41.01 25.744H58.9l.06 8.185-.56.3c-4.69 2.344-12.204 2.344-16.89 0l-.517-.274.017-8.212z"/><path fill="#fff" d="M41.51 23.744c4.687-2.344 12.285-2.344 16.973 0 4.686 2.343 4.686 6.143 0 8.485-4.688 2.343-12.287 2.343-16.973 0-4.686-2.343-4.686-6.143 0-8.486z"/><path fill="#BDC3C7" d="M45.75 26.58c2.337-.78 6.126-.78 8.464 0 2.336.782 2.336 2.05 0 2.83-2.338.78-6.127.78-8.464 0-2.336-.78-2.336-2.048 0-2.83z"/><path fill="#5FD0BA" d="M41.5 70c-2.48 0-4.49 2.008-4.5 4.486-.007.388.428.774 1.313 1.07 1.753.586 4.595.586 6.348 0 .875-.29 1.313-.675 1.315-1.058H46C46 72.016 43.985 70 41.5 70zM53 66c-1.654 0-2.994 1.33-3 2.977-.005.256.285.515.875.71 1.17.39 3.062.39 4.232 0 .582-.193.875-.447.875-.702H56C56 67.335 54.656 66 53 66zm8 6c-1.652 0-2.993 1.33-3 2.975-.005.258.285.516.875.71 1.17.39 3.062.39 4.232 0 .582-.19.873-.445.875-.7H64C64 73.335 62.656 72 61 72z"/><path fill="#9AA4AE" d="M44 10c-2.21 0-4 1.79-4 4s1.79 4 4 4 4-1.79 4-4-1.79-4-4-4zm0 6c-1.104 0-2-.896-2-2s.896-2 2-2 2 .896 2 2-.896 2-2 2zm1.5-21C42.462-5 40-2.537 40 .5 40 3.538 42.462 6 45.5 6S51 3.538 51 .5C51-2.537 48.538-5 45.5-5zm0 9C43.567 4 42 2.434 42 .5 42-1.433 43.567-3 45.5-3S49-1.433 49 .5C49 2.434 47.433 4 45.5 4zm11 1C53.463 5 51 7.463 51 10.5c0 3.038 2.463 5.5 5.5 5.5s5.5-2.462 5.5-5.5C62 7.463 59.537 5 56.5 5zm0 9c-1.934 0-3.5-1.566-3.5-3.5C53 8.567 54.566 7 56.5 7S60 8.567 60 10.5c0 1.934-1.566 3.5-3.5 3.5z"/><path fill="#17A085" d="M55.107 69.436c-1.17.39-3.063.39-4.232 0-.536-.178-.812-.406-.855-.64l-.02.18c-.005.257.285.516.875.71 1.17.39 3.062.39 4.232 0 .582-.192.875-.446.875-.7H56l-.023-.23c-.018.247-.303.492-.87.68zM44.66 75.31c-1.752.585-4.594.585-6.347 0-.83-.28-1.25-.64-1.293-1.003l-.02.18c-.007.39.428.775 1.313 1.072 1.753.585 4.595.585 6.348 0 .875-.294 1.313-.677 1.315-1.06H46l-.025-.25c-.003.383-.44.766-1.314 1.06zm18.447.126c-1.17.39-3.063.39-4.232 0-.535-.18-.81-.406-.855-.64l-.02.18c-.005.257.285.515.875.71 1.17.39 3.062.39 4.232 0 .582-.192.873-.446.875-.7H64l-.023-.23c-.017.246-.303.492-.87.68z"/></g></svg>