<svg xmlns="http://www.w3.org/2000/svg" width="100" height="100"><circle fill="#E74C3C" cx="50" cy="50" r="50"/><path fill="#fff" d="M8.862 21.59l.833.833c1.952 1.953 5.118 1.953 7.07 0l5.657-5.657c1.897-1.898 1.003-5.882-.842-7.897-4.967 3.438-9.28 7.752-12.718 12.72zM41 2c0 2.762 2.238 5 5 5h8c2.762 0 5-2.24 5-5V.824C56.08.292 53.074 0 50 0s-6.08.292-9 .824V2zm37.42 6.87c-1.846 2.014-2.74 5.998-.843 7.896l5.657 5.657c1.952 1.953 5.118 1.953 7.07 0l.833-.833c-3.438-4.968-7.75-9.282-12.718-12.72zm12.718 69.54l-.833-.834c-1.952-1.95-5.118-1.95-7.07 0l-5.657 5.658c-1.952 1.95-1.952 5.117 0 7.07l.833.833c4.972-3.44 9.287-7.755 12.728-12.727zm-74.372-.834c-1.952-1.95-5.118-1.95-7.07 0l-.834.834c3.438 4.968 7.75 9.28 12.718 12.72 1.845-2.015 2.74-6 .842-7.895l-5.656-5.66zM98 41c-2.762 0-5 2.24-5 5v8c0 2.762 2.238 5 5 5h1.177c.53-2.92.823-5.926.823-9s-.292-6.08-.823-9H98zM59 98c0-2.762-2.238-5-5-5h-8c-2.762 0-5 2.238-5 5v1.177c2.92.53 5.926.823 9 .823s6.08-.292 9-.823V98zM2 59c2.762 0 5-2.238 5-5v-8c0-2.76-2.238-5-5-5H.824C.292 43.92 0 46.926 0 50s.292 6.08.824 9H2z"/><circle fill="#C0392B" cx="50.066" cy="49.91" r="33"/><circle fill="#fff" cx="50.5" cy="50.634" r="25"/><path fill="#C0392B" d="M32.144 49.992c-.447-.074-.874-.203-1.28-.388s-.75-.407-1.03-.667l.56-.81c.048-.067.11-.123.19-.167.08-.045.164-.067.254-.067.093 0 .188.024.286.073l.317.178.377.213c.136.072.29.13.466.178l.215-2.204c-.28-.077-.558-.168-.833-.274-.276-.105-.525-.248-.746-.427-.223-.18-.402-.41-.54-.686-.14-.277-.208-.624-.208-1.042 0-.308.062-.608.187-.9.123-.293.305-.557.544-.79.24-.235.533-.427.883-.577.35-.15.75-.226 1.2-.226l.065-.66c.012-.11.06-.21.146-.298s.196-.133.333-.133h.666l-.117 1.147c.42.078.78.203 1.083.376s.56.358.77.557l-.443.647c-.066.097-.133.168-.2.213-.07.045-.15.067-.243.067l-.21-.04-.256-.103-.3-.13-.34-.123-.204 2.07.56.178c.187.064.366.138.54.222s.333.18.483.29c.15.108.28.236.39.384.11.148.197.318.26.51.062.192.093.41.093.656 0 .37-.062.716-.187 1.04-.125.326-.307.612-.548.86-.24.25-.536.453-.886.61-.35.158-.75.254-1.2.29l-.07.728c-.013.108-.062.207-.147.295-.085.087-.196.13-.333.13h-.665l.117-1.2zm-.268-6.256c0 .23.073.415.22.557.145.142.336.26.573.358l.174-1.76c-.18.027-.33.067-.452.12-.123.052-.222.116-.297.19-.076.073-.13.155-.167.247-.034.092-.052.188-.052.29zm2.472 3.772c0-.22-.07-.398-.212-.53s-.33-.243-.563-.333l-.187 1.924c.64-.113.962-.467.962-1.062zM38.686 56.662h2.8v-7.35c0-.36.01-.736.03-1.13l-1.65 1.37c-.107.086-.214.148-.32.185-.106.037-.21.055-.31.055-.173 0-.328-.038-.465-.114-.136-.077-.237-.158-.304-.245l-.98-1.3 4.54-3.81h2.56v12.34h2.4v2.24h-8.3v-2.24zm20.28-5.05c0 1.273-.137 2.377-.41 3.31-.273.934-.652 1.707-1.136 2.32s-1.057 1.07-1.72 1.37-1.382.45-2.155.45-1.488-.15-2.145-.45-1.225-.757-1.705-1.37-.855-1.387-1.125-2.32c-.27-.933-.405-2.036-.405-3.31s.135-2.377.405-3.31c.27-.934.645-1.707 1.125-2.32s1.048-1.068 1.705-1.365 1.37-.445 2.145-.445 1.492.148 2.155.445 1.236.752 1.72 1.365.862 1.387 1.136 2.32c.273.933.41 2.036.41 3.31zm-3.2 0c0-1.007-.063-1.832-.19-2.475s-.295-1.148-.505-1.516c-.21-.365-.447-.617-.714-.754s-.537-.205-.81-.205-.542.07-.806.206-.496.39-.7.755c-.203.368-.366.873-.49 1.517-.123.644-.185 1.468-.185 2.475 0 1.014.062 1.84.186 2.48.124.64.287 1.145.49 1.515.204.37.437.623.7.76s.53.205.805.205.544-.068.81-.205.506-.39.716-.76.38-.875.506-1.515c.126-.64.19-1.466.19-2.48zm14.8 0c0 1.273-.138 2.377-.41 3.31-.274.934-.653 1.707-1.137 2.32s-1.058 1.07-1.72 1.37-1.383.45-2.156.45-1.488-.15-2.145-.45-1.226-.757-1.706-1.37c-.48-.613-.854-1.387-1.125-2.32-.27-.933-.406-2.036-.406-3.31s.136-2.377.405-3.31c.27-.934.645-1.707 1.124-2.32.48-.613 1.05-1.068 1.705-1.365s1.37-.445 2.144-.445 1.492.148 2.155.445 1.235.752 1.72 1.365.86 1.387 1.135 2.32c.274.933.41 2.036.41 3.31zm-3.2 0c0-1.007-.064-1.832-.19-2.475s-.296-1.148-.506-1.516c-.21-.365-.448-.617-.715-.754s-.537-.205-.81-.205-.542.07-.806.206-.497.39-.7.755c-.204.368-.367.873-.49 1.517-.124.644-.186 1.468-.186 2.475 0 1.014.062 1.84.186 2.48.123.64.286 1.145.49 1.515.203.37.436.623.7.76s.53.205.804.205.544-.068.81-.205.506-.39.716-.76.378-.875.505-1.515c.127-.64.19-1.466.19-2.48z" enable-background="new"/><circle stroke="#fff" stroke-width="3" stroke-miterlimit="10" stroke-dasharray="6,6" cx="49.893" cy="50.551" r="29" fill="none"/></svg>