<svg xmlns="http://www.w3.org/2000/svg" width="512" height="512" viewBox="0 0 512 512"><circle cx="256" cy="256" r="256" fill="#E27C3E"/><path d="M155.38 193.546l-.002-.006c-.1.003-.09.004 0 .006zM361.766 193.54c-.196 0-.39.013-.585.015-7.578.055-195.024.055-204.944 0-.197-.002-.39-.015-.586-.015-.09 0-.18.006-.27.006-40.98.148-74.16 33.408-74.16 74.424 0 41.107 33.325 74.43 74.43 74.43 18.833 0 36.02-7.007 49.128-18.54H312.64c13.11 11.533 30.295 18.54 49.126 18.54 41.106 0 74.43-33.323 74.43-74.43 0-41.106-33.324-74.43-74.43-74.43z" fill="#F0EEEC"/><path d="M155.38 193.546l-.002-.006c-.1.003-.09.004 0 .006zM150.107 197.356h39.622v-3.772c-18.218-.005-31.088-.016-33.495-.03-.197 0-.39-.014-.586-.014-.09 0-.18.006-.27.006-17.038.062-32.715 5.86-45.232 15.544l2.78 2.314s19.368-14.048 37.18-14.048z" fill="#D1CFCD"/><path d="M155.38 204.452l-.002-.006c-.1 0-.09.004 0 .006zM361.766 204.446c-.196 0-.39.013-.585.014-7.578.054-195.024.055-204.944 0-.197 0-.39-.014-.586-.014-.09 0-.18.006-.27.006-40.98.146-74.16 33.407-74.16 74.424 0 41.107 33.325 74.43 74.43 74.43 18.833 0 36.02-7.006 49.128-18.54H312.64c13.11 11.534 30.295 18.54 49.126 18.54 41.106 0 74.43-33.323 74.43-74.43 0-41.108-33.324-74.43-74.43-74.43z" fill="#E8E6E4"/><circle cx="155.922" cy="278.876" r="38.896" fill="#D1CFCD"/><path d="M185.913 272.933c0-1.98-1.62-3.6-3.6-3.6h-10.796c-1.98 0-3.6-1.617-3.6-3.6V254.94c0-1.98-1.618-3.598-3.6-3.598h-16.794c-1.98 0-3.598 1.62-3.598 3.598v10.796c0 1.98-1.62 3.6-3.6 3.6H129.53c-1.98 0-3.598 1.62-3.598 3.6v16.793c0 1.98 1.62 3.6 3.598 3.6h10.797c1.98 0 3.6 1.62 3.6 3.598v10.797c0 1.98 1.62 3.6 3.598 3.6h16.795c1.98 0 3.6-1.62 3.6-3.6v-10.797c0-1.98 1.62-3.6 3.6-3.6h10.795c1.98 0 3.6-1.62 3.6-3.598v-16.794z" fill="#5C5A5A"/><path d="M183.187 288.964c0 1.8-1.473 3.27-3.27 3.27H131.93c-1.8 0-3.272-1.472-3.272-3.27v-15.268c0-1.8 1.473-3.272 3.272-3.272h47.984c1.8 0 3.27 1.473 3.27 3.272v15.268zM148.288 308.594c-1.8 0-3.27-1.473-3.27-3.27v-47.986c0-1.798 1.472-3.272 3.27-3.272h15.27c1.8 0 3.27 1.473 3.27 3.272v47.985c0 1.8-1.472 3.27-3.27 3.27h-15.27z" fill="#999796"/><circle cx="155.786" cy="281.33" r="8.315" fill="#A19E9D"/><circle cx="363.128" cy="279.876" r="65.07" fill="#999796"/><path d="M335.218 295.734c-6.878 2.85-15.346.37-19.908-5.91-4.56-6.284-4.29-15.093.55-20.752l42.67-31c6.762-2.504 15.06.172 19.464 6.235 4.402 6.064 4.37 14.773-.103 20.427l-42.672 31z" fill="#E8E6E4"/><circle cx="328.646" cy="280.139" r="12.362" fill="#45B39C"/><circle cx="364.656" cy="253.991" r="12.361" fill="#238AB4"/><path d="M368.153 321.442c-6.88 2.85-15.348.372-19.907-5.912-4.565-6.282-4.29-15.09.548-20.75l42.67-31c6.762-2.504 15.062.172 19.465 6.237 4.4 6.062 4.367 14.772-.104 20.425l-42.673 31z" fill="#E8E6E4"/><circle cx="361.581" cy="305.846" r="12.361" fill="#EFC84A"/><circle cx="397.59" cy="279.7" r="12.362" fill="#BD3E25"/><path d="M108.825 206.9l1.586 1.32c1.385 1.152 3.708 1.23 5.165.173 0 0 16.72-12.126 34.532-12.126h36.35c1.8 0 3.272-1.227 3.272-2.727 0-1.5-1.474-2.727-3.273-2.727H152.65c-1.8 0-4.738.128-6.53.285 0 0-21.685 1.897-37.295 15.8z" fill="#999796"/><path d="M362.036 193.546l.002-.006c.1.003.088.004-.002.006zM367.31 197.356h-40.17v-3.772c18.54-.005 31.36-.016 33.77-.03.195 0 .524-.014.72-.014.09 0 .25.006.34.006 17.037.062 32.748 5.86 45.266 15.544l-2.762 2.314s-19.354-14.048-37.165-14.048z" fill="#D1CFCD"/><path d="M408.59 206.9l-1.586 1.32c-1.383 1.152-3.707 1.23-5.163.173 0 0-16.72-12.126-34.53-12.126h-36.352c-1.8 0-3.27-1.227-3.27-2.727 0-1.5 1.47-2.727 3.27-2.727h33.807c1.8 0 4.738.128 6.53.285 0 0 21.687 1.897 37.296 15.8z" fill="#999796"/><ellipse cx="258.708" cy="193.54" rx="13.359" ry="2.727" fill="#F0EEEC"/><path d="M229.316 302.05c-2.06 0-4.078-1.26-4.907-3.26-.78-1.884-.358-3.828 1.128-5.314l12.29-12.256c.99-.99 2.196-1.496 3.49-1.496 2.06 0 4.08 1.407 4.907 3.408.78 1.884.36 3.902-1.128 5.39l-12.29 12.152c-.99.99-2.197 1.376-3.49 1.376z" fill="#5C5A5A"/><path d="M231.77 299.776c4.096-4.096 8.19-8.193 12.288-12.29 3.352-3.352-1.84-8.543-5.192-5.192-4.096 4.097-8.19 8.192-12.29 12.29-3.35 3.35 1.843 8.543 5.194 5.192z" fill="#999796"/><path d="M265.19 302.05c-2.06 0-4.078-1.26-4.906-3.26-.78-1.884-.358-3.828 1.13-5.314L273.7 281.22c.99-.99 2.197-1.496 3.49-1.496 2.062 0 4.08 1.407 4.908 3.408.78 1.884.357 3.902-1.13 5.39l-12.288 12.152c-.99.99-2.197 1.376-3.49 1.376z" fill="#5C5A5A"/><path d="M267.644 299.776l12.29-12.29c3.352-3.352-1.842-8.543-5.193-5.192l-12.287 12.29c-3.352 3.35 1.84 8.543 5.19 5.192z" fill="#999796"/><circle cx="212.726" cy="217.895" r="3.089" fill="#5C5A5A"/><circle cx="212.726" cy="228.802" r="3.089" fill="#5C5A5A"/><circle cx="218.181" cy="223.349" r="3.089" fill="#5C5A5A"/><circle cx="207.274" cy="223.349" r="3.089" fill="#5C5A5A"/><path d="M233.288 216.255c-.38-.473-.875-.712-1.484-.712-.196 0-.393.04-.595.116-.2.076-.382.19-.543.34-.158.147-.29.334-.395.56-.103.225-.153.486-.153.784 0 .39.107.705.324.946.216.242.503.47.865.686.228.146.457.306.687.48.232.177.44.382.627.614.186.232.336.496.45.79.112.294.167.633.167 1.016 0 .59-.095 1.105-.284 1.55-.19.445-.447.815-.773 1.116-.324.3-.7.526-1.12.68-.423.156-.872.233-1.346.233-.608 0-1.166-.11-1.678-.332-.512-.223-.906-.508-1.185-.858l1.1-1.298c.205.268.463.484.772.65.308.164.64.247.99.247.492 0 .903-.15 1.228-.45.323-.298.486-.726.486-1.282 0-.392-.105-.727-.316-1.005-.21-.278-.537-.55-.982-.82-.226-.134-.447-.286-.664-.456-.216-.168-.407-.365-.57-.586-.167-.22-.297-.474-.396-.758-.097-.282-.146-.615-.146-.996 0-.527.09-1.006.27-1.438.18-.434.425-.804.733-1.114.31-.31.675-.548 1.1-.718.42-.17.88-.256 1.375-.256.556 0 1.057.09 1.5.27.442.18.798.43 1.066.75l-1.112 1.25zM241.685 221.31c-.104.578-.244 1.12-.426 1.624-.183.504-.427.942-.735 1.314-.307.372-.69.664-1.145.88-.453.217-1 .325-1.637.325-.517 0-.96-.075-1.33-.224-.373-.15-.682-.36-.93-.626-.246-.27-.43-.58-.547-.936-.12-.355-.178-.745-.178-1.168 0-.175.006-.36.02-.556.018-.196.045-.408.087-.634l1.236-7.066h1.765l-1.223 6.896c-.03.175-.057.353-.077.535-.02.18-.03.356-.03.53 0 .445.096.82.285 1.13.19.31.544.464 1.06.464.34 0 .626-.073.858-.217.23-.145.424-.34.58-.587.154-.248.28-.53.378-.85.1-.32.177-.654.24-1.006l1.222-6.896h1.764l-1.237 7.067zM250.42 216.904c0 .62-.083 1.166-.256 1.64-.168.475-.408.873-.718 1.198-.31.324-.682.572-1.11.742-.437.17-.915.255-1.44.255h-1.33l-.79 4.452h-1.73l1.9-10.947h2.782c.36 0 .703.05 1.03.155.323.104.61.263.856.48.248.216.443.492.59.828.144.333.216.732.216 1.196zm-1.7.247c0-.432-.105-.774-.317-1.027-.21-.252-.53-.378-.966-.378h-1.02l-.605 3.557h1.1c.556 0 .996-.19 1.32-.573.325-.383.488-.908.488-1.58zM256.914 215.79h-3.03l-.54 3.016h2.892l-.25 1.468h-2.875l-.587 3.34h3.31l-.265 1.578h-5.01l1.902-10.947h4.732l-.278 1.546zM264.755 216.873c0 .876-.21 1.603-.627 2.18-.42.578-.967.96-1.648 1.145l1.346 4.994h-1.84l-1.143-4.7h-1.083l-.835 4.7h-1.7l1.9-10.947h2.814c.907 0 1.604.217 2.087.65.485.432.728 1.093.728 1.978zm-1.732.232c0-.495-.134-.848-.405-1.06-.266-.21-.596-.316-.988-.316h-1.05l-.605 3.448h1.082c.558 0 1.023-.184 1.4-.55.376-.365.566-.874.566-1.523zM274.866 216.533c-.322-.597-.824-.896-1.515-.896-.506 0-.953.18-1.346.542-.392.36-.722.817-.99 1.37-.268.553-.47 1.155-.61 1.805-.14.65-.208 1.266-.208 1.843 0 .775.148 1.403.447 1.883.3.48.782.72 1.453.72.27 0 .505-.027.712-.083.206-.058.392-.144.558-.257l.492-2.905h-1.498l.277-1.546h3.14l-.958 5.52c-.383.288-.815.515-1.3.68-.486.164-1.047.247-1.686.247-.568 0-1.064-.1-1.493-.302-.427-.2-.785-.484-1.072-.85-.29-.366-.506-.802-.65-1.307-.145-.505-.215-1.066-.215-1.686 0-.896.124-1.78.368-2.652.248-.87.598-1.655 1.047-2.35.447-.695.984-1.257 1.608-1.685.622-.427 1.317-.642 2.08-.642.648 0 1.187.113 1.622.34.432.227.763.547.988.96l-1.25 1.25zM281.25 225.192l-.077-2.366h-2.956l-1.002 2.366h-1.84l4.854-10.947h2.273l.54 10.947h-1.792zm-.186-9.232h-.06l-2.29 5.49h2.49l-.14-5.49zM293.435 225.192h-1.717l1.5-8.458h-.047l-3.677 8.458h-1.455l-.664-8.458h-.047l-1.468 8.458h-1.61l1.933-10.947h2.367l.693 8.056h.062l3.48-8.055h2.582l-1.932 10.947zM302.045 215.79h-3.03l-.54 3.016h2.89l-.246 1.468h-2.876l-.588 3.34h3.31l-.265 1.578h-5.01l1.903-10.947h4.732l-.28 1.546zM226.81 230.074h71.977v4.36H226.81z" fill="#5C5A5A"/><path d="M367.09 25.297c-6.964 2.682-12.765 8.868-16.34 15.795-9.667 18.746-3.504 41.98-.246 61.555 1.374 8.25 3.058 17.432.68 25.644-.663 2.297-2.782 4.98-3.93 5.822-.573.42-.75.573-.84.634-.026-.015-.038-.02-.06-.03-.03-.026-.035-.035-.07-.064-.334-.294-.633-.628-.93-.956-.786-.86-.418-.46-1.3-1.79-1.542-2.322-2.864-4.793-4.24-7.215-3.374-5.933-7.065-11.673-11.726-16.693-12.596-13.566-32.255-17.01-49.714-12.338-16.345 4.375-25.922 18.62-29.32 34.45-4.363 20.315-1.44 43.326 4.395 63.133 1.982 6.73 12.507 3.863 10.515-2.9-2.393-8.12-3.942-16.595-4.928-24.99-1.72-14.656-2.186-31.354 4.765-44.825 8.003-15.51 27.597-18.952 43.143-13.825 13.152 4.337 19.616 17.046 26.125 28.166 2.545 4.344 5.36 8.418 10.174 10.34 5.21 2.082 10.832-1.984 14.006-5.72 11.807-13.9 4.012-37.754 1.42-53.568-2.615-15.97-5.81-40.593 11.16-50.156 1.557-.876 2.857-1.07 4.454-1.064 1.017.005 3.388.583 5.493 1.414 2.924 1.154 8.21 4.386 12.066 6.22 3.39 1.613 6.688 2.635 9.902 3.2-10.96-7.608-22.537-14.394-34.654-20.24zm-20.634 109.47c-.013-.007-.015-.006-.025-.013.19-.003.11.06.026.014zm-.724.102c.244-.06.42-.09.544-.105l.03.023c-.067 0-.182-.012-.574.08z" fill="#575655"/></svg>