<svg xmlns="http://www.w3.org/2000/svg" width="100" height="100"><path fill="#E74C3C" d="M100 94c0 3.313-2.687 6-6 6H6c-3.313 0-6-2.687-6-6V6c0-3.313 2.687-6 6-6h88c3.313 0 6 2.687 6 6v88z"/><path fill-rule="evenodd" clip-rule="evenodd" fill="#C0392B" d="M68.494 10.847L50.207 0H74.59l-6.096 10.847zM33.832 0c-.212.913-.548 1.81-1.027 2.662L21.06 23.57.442 11.342 0 11.048V6c0-3.313 2.687-6 6-6h27.832zM2.658 49.794l1.955-3.48c2.704-4.812 8.742-6.432 13.488-3.616 4.743 2.814 6.4 8.996 3.697 13.808L10.05 77.414 0 71.454V48.217l2.658 1.576zm19.51 42.704c2.702-4.812 8.74-6.432 13.486-3.617l3.432 2.034 1.956-3.48c2.703-4.81 8.74-6.433 13.487-3.616 4.74 2.816 6.4 8.996 3.696 13.81L56.896 100H21.188c-.62-2.46-.347-5.145.977-7.502zm35.32-27.807L36.872 52.464c-4.746-2.815-6.398-8.997-3.697-13.81 2.704-4.81 8.742-6.43 13.487-3.616l3.432 2.034 1.956-3.478c2.705-4.812 8.742-6.433 13.488-3.618 4.742 2.817 6.4 8.998 3.697 13.81L57.488 64.692zm26.82-24.95c-4.745-2.814-6.397-8.996-3.696-13.81 2.703-4.812 8.742-6.432 13.486-3.616l3.432 2.034 1.957-3.48c.158-.282.332-.553.514-.814V49.05l-15.69-9.31zM73.302 93.585c-4.745-2.814-6.397-8.996-3.696-13.81 2.703-4.81 8.742-6.433 13.488-3.616l3.432 2.035 1.955-3.48c2.34-4.168 7.183-5.936 11.52-4.506v23.79c0 .413-.043.815-.12 1.202l-1.772 3.153C97.03 99.367 95.594 100 94 100h-9.885L73.3 93.584zM7.094 96.54c1.474.876 2.648 2.077 3.487 3.46H6c-2.843 0-5.21-1.982-5.83-4.637 2.28-.463 4.738-.117 6.923 1.178z"/><path opacity=".15" fill-rule="evenodd" clip-rule="evenodd" d="M70.116 47.232c1.354-.733 2.475-1.552 3.4-2.485 5.88-5.944 5.955-15.538.167-21.385-2.774-2.803-6.48-4.345-10.43-4.345-4.043 0-7.855 1.603-10.74 4.516-.946.957-1.772 2.124-2.51 3.54-.74-1.42-1.57-2.595-2.52-3.554-2.88-2.913-6.695-4.53-10.737-4.53-3.952 0-7.655 1.514-10.43 4.315-5.79 5.85-5.714 15.385.17 21.33.956.968 2.13 1.79 3.55 2.52-1.312.684-2.495 1.477-3.44 2.4-2.934 2.88-4.55 6.71-4.55 10.783 0 3.983 1.558 7.705 4.384 10.477 2.76 2.71 6.432 4.2 10.336 4.2 3.996 0 7.776-1.55 10.646-4.365 1.004-.985 1.857-2.23 2.586-3.606.728 1.377 1.58 2.62 2.585 3.605 2.87 2.815 6.652 4.366 10.647 4.366 3.903 0 7.575-1.492 10.337-4.2 2.825-2.772 4.382-6.493 4.383-10.478 0-4.072-1.615-7.9-4.55-10.783-.905-.89-2.034-1.658-3.284-2.323zm-38.152-18.28c2.69-2.645 7.127-2.567 9.912.17 2.926 2.875 4.15 13.854 4.128 13.877-.022.02-10.94-1.43-13.866-4.306-2.786-2.738-2.863-7.1-.174-9.743zm9.833 35.07c-2.76 2.59-7.155 2.66-9.82.16-2.662-2.5-2.586-6.626.173-9.216 2.897-2.72 13.84-3.975 13.86-3.954.022.02-1.315 10.29-4.213 13.01zm26.253.162c-2.67 2.5-7.073 2.43-9.838-.16-2.904-2.72-4.244-12.99-4.222-13.01.02-.022 10.984 1.234 13.89 3.953 2.763 2.59 2.84 6.717.17 9.217zm-.17-25.398C64.977 41.684 54.02 43.022 53.997 43c-.022-.023 1.317-10.964 4.22-13.862 2.764-2.76 7.167-2.835 9.835-.17 2.668 2.662 2.59 7.058-.172 9.818z"/><path fill-rule="evenodd" clip-rule="evenodd" fill="#fff" d="M100 39H74.98c4.362-6 3.956-14.332-1.297-19.64-2.774-2.802-6.48-4.344-10.43-4.344-3.386 0-6.602 1.137-9.254 3.213V0h-8v18.214c-2.652-2.08-5.87-3.226-9.254-3.226-3.952 0-7.655 1.514-10.43 4.314C21.03 24.645 20.65 33 25.102 39H0v8h25.316c-2.11 2.662-3.268 5.908-3.268 9.336 0 3.983 1.558 7.705 4.384 10.477 2.76 2.71 6.432 4.2 10.336 4.2 3.373 0 6.584-1.115 9.232-3.152V100h8V67.86c2.648 2.037 5.86 3.153 9.232 3.153 3.903 0 7.575-1.492 10.337-4.2 2.824-2.772 4.38-6.493 4.382-10.478 0-3.427-1.156-6.673-3.268-9.336H100v-8zM58.217 25.138c2.764-2.76 7.167-2.835 9.835-.17 2.668 2.663 2.59 7.06-.172 9.818C64.984 37.676 54.08 39.014 54 39v-.044c.07-.728 1.415-11.02 4.217-13.818zm-26.253-.187c2.69-2.643 7.127-2.565 9.912.172 2.812 2.763 4.05 13.003 4.124 13.82V39c-.102.01-10.948-1.44-13.862-4.306-2.786-2.738-2.863-7.1-.174-9.743zm9.833 35.072c-2.76 2.59-7.155 2.66-9.82.16-2.662-2.5-2.586-6.626.173-9.216 2.868-2.69 13.614-3.948 13.85-3.954v.108c-.13 1.096-1.475 10.342-4.203 12.902zm26.253.162c-2.67 2.5-7.073 2.43-9.838-.16-2.74-2.57-4.088-11.857-4.212-12.91v-.1c.217.002 11 1.26 13.88 3.953 2.763 2.59 2.84 6.717.17 9.217z"/><path opacity=".2" fill-rule="evenodd" clip-rule="evenodd" d="M94 100H6c-3.313 0-6-2.687-6-6V80c0 3.313 2.687 6 6 6h88c3.313 0 6-2.687 6-6v14c0 3.313-2.687 6-6 6z"/></svg>