<svg xmlns="http://www.w3.org/2000/svg" width="102" height="102"><circle opacity=".15" cx="50" cy="52" r="50"/><circle fill="#3B97D3" cx="52" cy="50" r="50"/><path fill="#fff" d="M52 10c22.09 0 40 17.91 40 40S74.09 90 52 90 12 72.09 12 50s17.91-40 40-40z"/><path fill-rule="evenodd" clip-rule="evenodd" fill="#6BC8F2" d="M52 20c16.57 0 30 13.43 30 30 0 16.568-13.43 30-30 30S22 66.568 22 50c0-16.57 13.43-30 30-30z"/><path fill="#fff" d="M52 30c11.046 0 20 8.955 20 20s-8.954 20-20 20-20-8.955-20-20 8.954-20 20-20z"/><path fill-rule="evenodd" clip-rule="evenodd" fill="#E64C3C" d="M52 40c5.523 0 10 4.477 10 10 0 5.522-4.477 10-10 10s-10-4.478-10-10c0-5.523 4.477-10 10-10z"/><path fill-rule="evenodd" clip-rule="evenodd" fill="#F0C419" d="M89 74H76l13 13h13L89 74z"/><path fill-rule="evenodd" clip-rule="evenodd" fill="#F29C1F" d="M89 100V87L76 74v13l13 13z"/><path fill-rule="evenodd" clip-rule="evenodd" fill="#F0C419" d="M89 74H76l13 13h13L89 74z"/><path opacity=".15" d="M50.44 48.44L15.12 83.756c.677.738 1.38 1.45 2.098 2.145L52.56 50.56c.586-.586.586-1.536 0-2.12-.585-.586-1.535-.586-2.12 0z"/><path fill="#E57E25" d="M90.363 89.896c-.384 0-.77-.146-1.062-.44L50.94 51.062c-.586-.585-.586-1.535 0-2.12.585-.586 1.535-.587 2.122 0l38.363 38.395c.585.586.585 1.536 0 2.122-.294.292-.678.44-1.062.44z"/></svg>