<svg xmlns="http://www.w3.org/2000/svg" width="87" height="100.001" viewBox="0 -0.016 87 100.001" enable-background="new 0 -0.016 87 100.001"><path fill="#08B059" d="M49.997 47.153l12.778-12.78C39.435 20.554 4.95.274 3-.016L2.844 0l47.153 47.153z"/><path fill="#1BB899" d="M.016 2.83L0 2.983v94l.015.15L47.168 49.98.016 2.83z"/><path fill="#F04F3E" d="M50.003 52.816L2.853 99.968l.147.017c1.958-.312 36.44-20.58 59.775-34.396L50.003 52.815z"/><path fill="#F99C1C" d="M84 46.984s-7.372-4.398-17.665-10.5L52.832 49.988 66.33 63.485C76.624 57.382 84 52.985 84 52.985c1.607-.845 3-1.344 3-3 0-1.657-1.584-2.226-3-3z"/></svg>