<svg xmlns="http://www.w3.org/2000/svg" width="512.693" height="512.906" viewBox="0 0 512.693 512.906"><path d="M512.693 256.906c0 141.38-114.613 256-256 256s-256-114.62-256-256 114.613-256 256-256 256 114.62 256 256z" fill="#334D5C"/><path d="M433.477 336.777l-6.074-144.082c-1.964.492-4.006.78-6.122.78-13.89 0-25.152-11.263-25.152-25.153l.002-.06c-14.29-.622-25.998-11.126-28.463-24.862-3.36 2.258-7.396 3.58-11.748 3.58-8.614 0-16.01-5.158-19.31-12.543H179.707l-1.393 10.826-.772-10.826h-22.68l-3.227 15.973-.84-15.973H88.1l-6.096 78.246 12.273 1.754-12.547 1.75-5.88 75.486 22.618 4.322-23.11 1.98-6.343 81.396H176.42l2.084-16.68 2.634 16.68h77.468l3.745-39.165 3.265 39.166h153.08l14.782-42.593z" fill="#EFC84A"/><path d="M124.586 191.984c0-10.338 8.383-18.72 18.72-18.72s18.722 8.382 18.722 18.72c0 10.34-8.383 18.73-18.72 18.73s-18.722-8.39-18.722-18.73z" fill="#2893C0"/><path d="M131.673 191.984c0-6.422 5.208-11.63 11.634-11.63s11.635 5.208 11.635 11.63c0 6.422-5.21 11.64-11.635 11.64s-11.634-5.218-11.634-11.64z" fill="#E8E8E8"/><path d="M218.632 367.86c-4.68 0-9.323-.165-13.8-.493-.94-.068-1.647-.885-1.576-1.822.068-.943.85-1.674 1.825-1.58 5.454.4 11.11.54 16.893.46.986-.06 1.717.735 1.73 1.677.013.943-.738 1.72-1.68 1.733-1.138.018-2.27.026-3.39.026zm20.387-.983c-.87 0-1.615-.664-1.696-1.547-.088-.94.6-1.768 1.538-1.858 5.484-.517 11.135-1.248 16.793-2.174.926-.16 1.806.477 1.96 1.406.15.928-.48 1.81-1.41 1.96-5.735.94-11.462 1.68-17.022 2.204-.057.005-.11.01-.164.01zm-50.973-1.64c-.104 0-.205-.01-.312-.026-5.866-1.077-11.5-2.49-16.747-4.202-.895-.295-1.385-1.258-1.092-2.152.293-.896 1.25-1.38 2.15-1.094 5.104 1.67 10.59 3.047 16.305 4.092.927.17 1.54 1.06 1.37 1.986-.15.82-.866 1.398-1.673 1.398zm84.62-3.82c-.78 0-1.483-.538-1.663-1.33-.21-.92.367-1.83 1.285-2.04 5.396-1.223 10.92-2.64 16.43-4.21.91-.26 1.848.27 2.106 1.173.26.906-.267 1.85-1.172 2.105-5.566 1.59-11.153 3.023-16.608 4.258-.128.03-.255.043-.38.043zm-116.84-6.954c-.272 0-.547-.066-.803-.205-5.395-2.885-10.216-6.215-14.323-9.9-.704-.625-.762-1.703-.134-2.406.632-.703 1.71-.762 2.41-.13 3.906 3.5 8.502 6.675 13.656 9.433.832.443 1.145 1.477.7 2.305-.31.575-.896.903-1.506.903zm149.63-2.383c-.71 0-1.373-.445-1.615-1.158-.305-.887.172-1.858 1.064-2.164 5.247-1.787 10.606-3.76 15.93-5.86.877-.35 1.866.085 2.212.962.346.877-.084 1.867-.96 2.21-5.372 2.122-10.782 4.112-16.08 5.92-.184.06-.37.09-.552.09zm31.727-12.492c-.654 0-1.276-.375-1.56-1.01-.386-.86.002-1.867.862-2.254 4.605-2.05 9.258-4.23 13.826-6.477.848-.408 1.865-.062 2.28.78.416.847.067 1.87-.778 2.284-4.605 2.26-9.294 4.458-13.94 6.53-.224.103-.46.148-.69.148zm-206.077-7.932c-.596 0-1.174-.31-1.486-.867-2.673-4.726-4.475-9.786-5.362-15.04l-.25-1.61c-.133-.933.514-1.796 1.447-1.933.934-.125 1.797.518 1.93 1.447l.237 1.535c.82 4.857 2.49 9.542 4.967 13.92.463.817.176 1.856-.646 2.325-.263.15-.552.22-.837.22zm-5.3-33.03c-.095 0-.19-.007-.288-.02-.93-.16-1.554-1.043-1.395-1.97 1-5.855 3.02-11.403 6.006-16.49.476-.817 1.522-1.08 2.334-.61.812.48 1.085 1.522.608 2.334-2.776 4.734-4.655 9.895-5.586 15.34-.14.83-.863 1.417-1.678 1.417zM339.22 275.84c-.894 0-1.642-.69-1.7-1.596-.06-.94.652-1.752 1.592-1.81 5.895-.38 11.475-1.175 16.59-2.362.914-.215 1.836.357 2.048 1.273.213.92-.357 1.838-1.274 2.05-5.3 1.23-11.066 2.05-17.143 2.44-.04.005-.077.005-.113.005zm-17.045 0c-.034 0-.067 0-.1-.004-5.555-.32-11.313-.955-17.113-1.88-.933-.147-1.564-1.02-1.415-1.952.146-.922 1.01-1.56 1.95-1.416 5.69.904 11.335 1.53 16.776 1.846.94.053 1.656.863 1.602 1.8-.052.905-.804 1.606-1.7 1.606zm-33.643-5.295c-.14 0-.278-.018-.42-.05-5.528-1.394-11.073-3.034-16.48-4.892-.892-.3-1.365-1.27-1.062-2.166.307-.89 1.274-1.37 2.168-1.057 5.317 1.82 10.77 3.436 16.207 4.803.913.23 1.47 1.158 1.238 2.07-.194.774-.888 1.292-1.65 1.292zm-146.016-.828c-.477 0-.95-.2-1.287-.586-.62-.708-.545-1.788.167-2.405 4.19-3.64 9.078-6.883 14.527-9.63.842-.42 1.865-.085 2.29.757.424.84.086 1.867-.755 2.29-5.196 2.618-9.85 5.7-13.825 9.155-.323.283-.722.42-1.12.42zm229.604-1.967c-.62 0-1.22-.34-1.52-.932-.428-.84-.094-1.867.746-2.293 5.215-2.654 9.613-5.943 13.076-9.78.633-.694 1.71-.745 2.408-.12.7.63.756 1.71.124 2.408-3.743 4.148-8.473 7.688-14.063 10.53-.247.126-.51.187-.77.187zm-115.85-8.19c-.206 0-.416-.035-.618-.115-5.18-2.022-10.575-3.754-16.032-5.156-.912-.233-1.46-1.163-1.23-2.077.236-.91 1.174-1.465 2.077-1.23 5.59 1.435 11.117 3.217 16.423 5.285.878.344 1.31 1.332.97 2.207-.264.673-.91 1.085-1.59 1.085zm-83.69-5.36c-.743 0-1.426-.493-1.64-1.24-.257-.907.27-1.85 1.175-2.108 5.385-1.53 11.092-2.674 16.963-3.402.934-.154 1.788.55 1.902 1.482.117.938-.547 1.787-1.482 1.902-5.7.705-11.234 1.82-16.45 3.303-.157.04-.314.062-.468.062zm50.73-3.098c-.075 0-.15-.006-.227-.014-5.597-.748-11.247-1.146-16.793-1.197-.942-.01-1.698-.776-1.69-1.72.007-.936.77-1.69 1.704-1.69h.016c5.687.05 11.477.463 17.213 1.22.934.13 1.59.985 1.466 1.92-.114.857-.848 1.482-1.69 1.482zm170.67-8.217c-.163 0-.33-.023-.495-.074-.9-.274-1.41-1.226-1.138-2.126 1.22-4.025 1.838-8.443 1.838-13.13-.002-1.024-.03-2.073-.088-3.138-.053-.94.666-1.746 1.607-1.797.902-.103 1.746.67 1.795 1.61.06 1.125.093 2.23.095 3.32 0 5.025-.667 9.777-1.982 14.12-.224.74-.9 1.215-1.634 1.215zm-.864-33.664c-.765 0-1.46-.517-1.653-1.288-1.408-5.615-3.312-10.883-5.654-15.652-.415-.846-.067-1.87.78-2.287.844-.408 1.866-.062 2.28.78 2.448 4.987 4.434 10.48 5.9 16.325.23.918-.323 1.844-1.237 2.072-.138.033-.28.05-.417.05zM167.44 181.3c-.7 0-1.357-.437-1.608-1.134-.314-.887.15-1.86 1.035-2.18.648-.232 1.596-.58 2.82-1.035 2.95-1.093 7.48-2.774 13.262-4.79.89-.303 1.86.158 2.17 1.05.31.892-.158 1.858-1.048 2.175-5.754 2-10.264 3.678-13.2 4.764-1.24.46-2.203.817-2.858 1.05-.19.068-.384.1-.574.1zm210.576-2.27c-.48 0-.956-.204-1.293-.597-3.564-4.14-7.717-7.854-12.34-11.03-.777-.534-.974-1.597-.44-2.372.532-.77 1.6-.97 2.372-.438 4.866 3.344 9.238 7.25 12.994 11.617.613.712.534 1.792-.18 2.405-.322.278-.718.414-1.114.414zm-178.295-8.915c-.725 0-1.397-.47-1.626-1.197-.28-.9.218-1.855 1.117-2.14 5.534-1.733 11.06-3.368 16.423-4.858.895-.252 1.85.277 2.102 1.185.25.906-.28 1.85-1.19 2.1-5.327 1.482-10.814 3.107-16.314 4.832-.168.053-.34.078-.51.078zm32.894-9.123c-.77 0-1.47-.527-1.66-1.31-.216-.92.35-1.835 1.265-2.056 5.686-1.36 11.32-2.584 16.747-3.645.92-.175 1.82.427 2 1.35.182.927-.422 1.823-1.347 2-5.382 1.05-10.968 2.265-16.608 3.612-.135.035-.267.05-.398.05zm117.704-1.26c-.21 0-.426-.04-.634-.125-4.916-1.97-10.31-3.598-16.03-4.832-.922-.197-1.506-1.105-1.31-2.025.2-.92 1.12-1.51 2.028-1.307 5.91 1.273 11.488 2.96 16.58 5.002.875.348 1.3 1.342.948 2.22-.265.665-.906 1.067-1.582 1.067zm-84.215-5.234c-.835 0-1.564-.61-1.685-1.463-.135-.932.512-1.795 1.443-1.932 5.84-.844 11.58-1.504 17.058-1.965.923-.037 1.764.615 1.843 1.557.082.938-.617 1.764-1.555 1.84-5.412.46-11.082 1.11-16.855 1.947-.082.01-.166.016-.247.016zm51.05-2.162c-.052 0-.1-.002-.15-.006-4.74-.41-9.776-.62-14.966-.62l-1.91.007h-.02c-.934 0-1.694-.754-1.705-1.688-.01-.942.746-1.714 1.69-1.724l1.953-.008c5.28 0 10.413.215 15.253.635.94.08 1.634.908 1.552 1.846-.08.886-.823 1.556-1.698 1.556zM383.322 308.49l-14.77 14.768-14.775-14.768-5.877 5.875 14.77 14.778-14.77 14.767 5.877 5.885 14.776-14.775 14.77 14.775 5.882-5.885-14.775-14.767 14.775-14.778z" fill="#E45136"/><path d="M377.832 219.012c2.025-21.26-11.053-42.305-39.637-43.45-28.584-1.142-52.975 9.53-77.367 5.718-24.393-3.81-84.61-3.05-84.61 21.725 0 24.773 44.592 30.11 61.36 16.008 16.77-14.102 48.785 0 73.177 11.814 24.39 11.814 64.028 20.198 67.077-11.815z" fill="#E27C3E"/><path d="M362.97 214.184c1.073-13.973-12.96-31.508-28.966-30.744-12.748.607-57.93 9.402-76.732 4.066-18.804-5.336-71.65-1.018-69.365 13.465 2.287 14.483 28.713 20.585 44.21 10.165 15.5-10.418 44.21-4.828 63.267 6.605 19.055 11.434 65.298 26.172 67.585-3.556z" fill="#45B39C"/><path d="M146.49 288.756c-5.883 16.867 0 42.305 26.68 46.115 26.678 3.812 75.462 36.59 75.843 9.148.382-27.44-9.528-45.354-8.003-60.598 1.523-15.244-48.02-16.77-59.837-4.574-11.816 12.197-28.966-6.48-34.683 9.91z" fill="#E27C3E"/><path d="M229.957 290.662c-2.682-13.2-24.774-15.246-34.683-4.574-9.91 10.672-36.97 1.523-38.112 15.625-1.142 14.102 77.368 50.69 84.23 42.305 6.858-8.385-6.48-28.965-11.435-53.356z" fill="#45B39C"/><path d="M219.285 292.185c-8.004-4.955-16.77 4.955-22.486 7.623-5.718 2.668-21.344 1.523-20.58 8.766.76 7.24 39.255 32.395 48.4 24.01 9.147-8.385-2.667-19.818-1.142-25.916 1.524-6.098 1.477-10.973-4.193-14.483z" fill="#334D5C"/><path d="M292.588 279.99c-7.094-5.332-25.662-7.37-27.186 3.3-1.524 10.673 13.466 16.01 21.088 27.19 7.62 11.18 28.114-13.94 6.098-30.49z" fill="#E27C3E"/><path d="M278.36 282.785c-2.858 3.506 3.556 10.672 8.384 17.53 4.828 6.862 14.99 4.07 10.672-4.57-4.32-8.642-13.467-19.82-19.057-12.96z" fill="#45B39C"/><path d="M274.803 312.514c-4.21-4.91-9.146-5.336-13.72.762-4.574 6.098 2.54 10.922 4.318 18.037 1.78 7.117 14.23 20.074 20.326 15.754 6.1-4.32 14.992-17.022 7.115-23.12-7.875-6.097-14.988-7.877-18.037-11.433z" fill="#E27C3E"/><path d="M271.754 319.88c-2.414 3.792.254 9.655 5.336 15.753 5.08 6.098 7.877 5.846 9.908 1.525 2.033-4.32.508-9.654-5.59-13.975-6.097-4.32-7.875-6.1-9.654-3.304z" fill="#45B39C"/><path d="M341.513 210.9c1.05-14.08-13.774-18.938-40.638-15.84-26.863 3.096-95.395-10.336-100.56 5.508-5.167 15.844 31.337-5.854 61.644 1.033 30.306 6.888 77.83 32.373 79.553 9.3z" fill="#334D5C"/><path d="M176.522 232.072c-2.737-14.596-59.663-5.8-68.78 26.105-9.114 31.902-14.916 77.89 3.315 96.95 18.23 19.063 19.06-2.067 9.945-23.198-9.116-21.132-14.09-41.85-2.902-60.495 11.188-18.644 62.152-19.476 58.422-39.363zM336.04 289.666c-.722-7.525 14.917-5.8 26.52-8.7 11.602-2.9 31.903-31.073 41.02-24.444 9.116 6.627 9.53 28.586-4.143 31.486-13.673 2.9-61.325 23.203-63.396 1.658z" fill="#2893C0"/><path d="M439.478 359.22c0 3.95 1.146 20.24-22.104 20.24 1.81-11.718 6.384-38.396 6.384-38.396l13.91 9.908 1.81 8.25z" fill="#EFC84A"/><path d="M427.402 192.695c-.262-7.127-7.504-7.318-8.79-4.428l-1.27 161.342c6.075-6.542 20.277-1.68 22.136 9.61l-12.076-166.525z" fill="#B2902F"/><path d="M512 255.998C512 397.378 397.387 512 255.998 512 114.612 512 0 397.38 0 255.998S114.612 0 255.998 0C397.388 0 512 114.617 512 255.998z" fill="#E27C3E"/><path d="M454.972 365.203c0 8.72-7.068 15.79-15.79 15.79H72.814c-8.722 0-15.79-7.07-15.79-15.79V171.488c0-8.725 7.068-15.793 15.79-15.793H439.18c8.723 0 15.79 7.068 15.79 15.793v193.715z" fill="#1B2C35"/><path d="M454.972 340.514c0 8.72-7.068 15.79-15.79 15.79H72.814c-8.722 0-15.79-7.07-15.79-15.79V146.8c0-8.726 7.068-15.794 15.79-15.794H439.18c8.723 0 15.79 7.068 15.79 15.793v193.714zM454.972 340.514c0 8.72-7.068 15.79-15.79 15.79H72.814c-8.722 0-15.79-7.07-15.79-15.79V146.8c0-8.726 7.068-15.794 15.79-15.794H439.18c8.723 0 15.79 7.068 15.79 15.793v193.714z" fill="#334D5C"/><path fill="#EBE7DF" d="M76.357 144.937H436.83v162.15H76.357z"/><path d="M85.81 330.11c0-8.882 7.198-16.07 16.077-16.07 8.866 0 16.07 7.188 16.07 16.07 0 8.88-7.204 16.073-16.07 16.073-8.88 0-16.076-7.193-16.076-16.072z" fill="#B2902F"/><path d="M89.342 330.11c0-6.93 5.616-12.54 12.545-12.54 6.916 0 12.53 5.61 12.53 12.54 0 6.93-5.614 12.542-12.53 12.542-6.93 0-12.545-5.613-12.545-12.54z" fill="#EFC84A"/><circle cx="97.829" cy="322.969" r="3.372" fill="#fff"/><path d="M398.55 324.545c0 2.594-2.098 4.693-4.688 4.693H167.46c-2.59 0-4.69-2.1-4.69-4.693 0-2.59 2.1-4.69 4.69-4.69h226.4c2.592 0 4.69 2.1 4.69 4.69zM398.55 340.75c0 2.59-2.098 4.69-4.688 4.69H167.46c-2.59 0-4.69-2.1-4.69-4.69 0-2.594 2.1-4.69 4.69-4.69h226.4c2.592 0 4.69 2.096 4.69 4.69z" fill="#1B2C35"/><path d="M65.605 265.557c-1.885 0-3.412-1.527-3.412-3.412v-93.348c0-1.885 1.527-3.412 3.412-3.412 1.88 0 3.412 1.527 3.412 3.412v93.348c0 1.884-1.533 3.412-3.412 3.412z" fill="#718F9E"/><path d="M434.445 199.81h-17.053v-5.114h17.053v5.115zm-34.107 0h-17.055v-5.114h17.055v5.115zm-34.11 0h-17.055v-5.114h17.055v5.115zm-34.11 0H315.06v-5.114h17.055v5.115zm-34.11 0h-17.053v-5.114h17.053v5.115zm-34.108 0h-17.055v-5.114H263.9v5.115zm-34.11 0h-17.055v-5.114h17.055v5.115zm-34.11 0h-17.055v-5.114h17.055v5.115zm-34.11 0h-17.053v-5.114h17.053v5.115zm-34.107 0h-17.055v-5.114h17.055v5.115zm-34.11 0H76.298v-5.114h17.055v5.115z" fill="#2E826C"/><path fill="#A6CB95" d="M264.19 213.37l172.64.99V144.94H265.127z"/><path d="M230.877 277.158c-1.033 0-2.078-.002-3.126-.006l-3.155-.008H76.325V266.91l151.467.012c11.237.03 20.965.084 26.16-5.092 3.484-3.465 5.18-9.477 5.18-18.37v-98.49h10.23v98.49c0 11.755-2.678 20.136-8.187 25.624-7.547 7.512-18.507 8.074-30.298 8.074zM263.674 207.65H436.87v10.232H263.675z" fill="#fff"/><path d="M434.445 259.467h-17.053v-5.12h17.053v5.12zm-34.107 0h-17.055v-5.12h17.055v5.12zm-34.11 0h-17.055v-5.12h17.055v5.12zm-34.11 0H315.06v-5.12h17.055v5.12zm-34.11 0h-17.053v-5.12h17.053v5.12zm-34.108 0h-17.055v-5.12H263.9v5.12zm-34.11 0h-17.055v-5.12h17.055v5.12zm-34.11 0h-17.055v-5.12h17.055v5.12zm-34.11 0h-17.053v-5.12h17.053v5.12zm-34.107 0h-17.055v-5.12h17.055v5.12zm-34.11 0H76.298v-5.12h17.055v5.12z" fill="#2E826C"/><path d="M155.383 307.416h-20.467v-70.494c0-37.934 19.887-59.69 54.562-59.69h247.3v20.464h-247.3c-8.432 0-34.095 0-34.095 39.227v70.493zM436.765 284.11h-96.06c-28.227 0-43.77-15.35-43.77-43.208v-53.44h17.055v53.44c0 18.332 7.99 26.15 26.715 26.15h96.06v17.057zM214.27 144.904h13.642v41.7H214.27zM76.217 150.086h141.557v10.234H76.217z" fill="#FEF976"/><path fill="#2E826C" d="M251.714 145.05h5.118v8.528h-5.118zM256.832 282.5h-5.118v-16.117h5.118V282.5zm0-32.23h-5.118v-16.115h5.118v16.115zm0-32.23h-5.118v-16.116h5.118v16.115zm0-32.233h-5.118v-16.113h5.118v16.113zM251.714 298.615h5.118v8.527h-5.118zM377.4 145.05h5.117v8.528H377.4zM382.518 282.5H377.4v-16.117h5.118V282.5zm0-32.23H377.4v-16.115h5.118v16.115zm0-32.23H377.4v-16.116h5.118v16.115zm0-32.233H377.4v-16.113h5.118v16.113zM377.4 298.615h5.117v8.527H377.4zM126.03 145.05h5.116v8.528h-5.115zM131.146 282.5h-5.115v-16.117h5.116V282.5zm0-32.23h-5.115v-16.115h5.116v16.115zm0-32.23h-5.115v-16.116h5.116v16.115zm0-32.233h-5.115v-16.113h5.116v16.113zM126.03 298.615h5.116v8.527h-5.115z"/><path d="M228.713 264.746c0-15.068 12.216-27.29 27.285-27.29 15.07 0 27.29 12.222 27.29 27.29s-12.22 27.29-27.29 27.29c-15.07 0-27.285-12.222-27.285-27.29z" fill="#A6CB95"/><path fill="#E27C3E" d="M255.998 240.69l-19.273 38.554 19.273-8.748z"/><path fill="#CD5929" d="M255.998 240.69l19.28 38.554-19.28-8.748z"/><path fill="#B74821" d="M236.725 279.244h38.552l-19.28-8.748z"/></svg>