<svg xmlns="http://www.w3.org/2000/svg" width="512" height="512" viewBox="0 0 512 512"><circle cx="256" cy="256" r="256" fill="#ECF0F0"/><path d="M291.164 278.754l-88 89.807-11.477-11.476-8.347-8.346-8.347-8.347-8.347-8.346-8.345-8.346-11.476-11.477 90.023-88.213c-35.785-29.788-83.738-57.38-130.196-42.194-59.663 19.503-43.392 67.444-81.39 105.443-6.018 6.02-13.2 10.317-21.338 13.608 8.033 45.445 28.063 86.74 56.69 120.523 2.547 3.008 5.164 5.956 7.847 8.843 2.68 2.884 5.423 5.704 8.232 8.46 2.81 2.76 5.68 5.453 8.613 8.08 2.94 2.632 5.938 5.198 9 7.693 33.567 27.382 74.21 46.41 118.766 53.933 3.236-7.66 7.41-14.45 13.145-20.186 37.998-38 85.822-21.844 105.325-81.51 14.845-45.403-11.312-92.374-40.376-127.946z" fill="#E27C3E"/><path d="M454.465 94.307c-2.497-3.06-5.064-6.06-7.693-8.998-2.627-2.935-5.322-5.807-8.08-8.615-2.757-2.81-5.577-5.553-8.46-8.23-2.887-2.685-5.835-5.302-8.844-7.85-3.186-2.702-6.44-5.326-9.76-7.87L236.85 224.007l-90.023 88.214 11.477 11.477 8.345 8.345 8.346 8.347 8.347 8.347 8.347 8.345 11.477 11.477 88-89.807L462.17 104.24c-2.488-3.375-5.057-6.687-7.705-9.933z" fill="#334D5C"/><path d="M102.833 413.245c-29.53-29.528-29.53-77.577 0-107.106 29.53-29.53 77.58-29.533 107.11-.003 29.53 29.528 29.53 77.582 0 107.11-29.53 29.53-77.58 29.528-107.11-.002z" fill="#EFC84A"/><circle cx="156.388" cy="359.692" r="60.984" fill="#334D5C"/><path fill="#4C738A" d="M370.248 93.29l51.847 51.85 4.13-4.218-51.76-51.76zM307.017 155.253l53.116 53.117 4.132-4.215-53.033-53.034zM243.783 217.213l54.388 54.39 4.133-4.214-54.305-54.307zM180.55 279.175l55.66 55.662 4.13-4.217-55.573-55.575z"/><path d="M420.258 59.656L59.656 420.258c.635.757 1.27 1.512 1.912 2.262l360.95-360.95c-.748-.643-1.503-1.28-2.26-1.914zM429.15 67.457L67.455 429.15c.667.726 1.34 1.444 2.014 2.162L431.313 69.47c-.718-.676-1.437-1.347-2.162-2.013zM437.66 75.64L75.64 437.66c.698.693 1.407 1.376 2.112 2.06L439.723 77.75c-.685-.707-1.368-1.413-2.062-2.11zM445.79 84.202L84.203 445.79c.73.66 1.473 1.31 2.21 1.962l361.338-361.34c-.652-.736-1.3-1.48-1.96-2.21zM453.534 93.15L93.15 453.534c.763.63 1.54 1.24 2.31 1.86l359.935-359.93c-.62-.773-1.23-1.55-1.86-2.314z" fill="#ECF0F0"/></svg>