<svg xmlns="http://www.w3.org/2000/svg" width="512" height="512" viewBox="0 0 512 512"><circle cx="256" cy="256" r="256" fill="#EFC84A"/><path d="M399.435 337.177c74-254.048-143.5-251.542-143.5-251.542s-217.5-2.506-143.5 251.542V320.45s-56.315-211.776 143.5-211.776 143.5 211.777 143.5 211.777v16.727z" fill="#1D2A33"/><path d="M347.435 271.076c0-6.117-4.96-11.076-11.076-11.076h-8.85c-6.116 0-11.075 4.96-11.075 11.076v131.848c0 6.117 4.96 11.076 11.076 11.076h8.85c6.116 0 11.075-4.96 11.075-11.076V271.076zM194.435 402.924c0 6.117-4.96 11.076-11.076 11.076h-8.85c-6.116 0-11.075-4.96-11.075-11.076V271.076c0-6.117 4.96-11.076 11.076-11.076h8.85c6.116 0 11.075 4.96 11.075 11.076v131.848z" fill="#172229"/><path d="M128.435 276.666v121.022c0 25.1 38.46 22.147 38.46 22.147 3.155-.24 5.54-2.432 5.54-4.868v-155.58c0-2.436-2.385-4.627-5.54-4.868 0 0-38.46-2.955-38.46 22.146z" fill="#283B47"/><path d="M112.435 293.318v87.496c0 18.148 13.95 16.013 13.95 16.013 1.14-.175 2.05-1.76 2.05-3.52v-112.48c0-1.762-.91-3.346-2.05-3.52 0 0-13.95-2.136-13.95 16.01z" fill="#344C5C"/><path d="M166.896 254.52s-38.46-2.954-38.46 22.146v8.86c0-25.1 38.46-22.147 38.46-22.147 3.154.24 5.54 2.432 5.54 4.868v-8.86c0-2.438-2.386-4.628-5.54-4.87z" fill="#385363"/><path d="M154.435 419.377c2 .22 3 .358 5 .443V254.533c-2 .085-3 .225-5 .442v164.402z" fill="#172229"/><path d="M96.48 274.05l11.244-1.448 4.71 39.17v49.22c0-.002-13.74-15.61-15.955-86.94zM383.435 276.666v121.022c0 25.1-38.46 22.147-38.46 22.147-3.155-.24-5.54-2.432-5.54-4.868v-155.58c0-2.436 2.385-4.627 5.54-4.868 0 0 38.46-2.955 38.46 22.146z" fill="#283B47"/><path d="M399.435 293.318v87.496c0 18.148-13.95 16.013-13.95 16.013-1.14-.175-2.05-1.76-2.05-3.52v-112.48c0-1.762.91-3.346 2.05-3.52-.002 0 13.95-2.136 13.95 16.01z" fill="#344C5C"/><path d="M344.974 254.52s38.46-2.954 38.46 22.146v8.86c0-25.1-38.46-22.147-38.46-22.147-3.154.24-5.54 2.432-5.54 4.868v-8.86c0-2.438 2.385-4.628 5.54-4.87z" fill="#385363"/><path d="M357.435 419.377c-1 .22-3 .358-5 .443V254.533c2 .085 4 .225 5 .442v164.402z" fill="#172229"/><path d="M415.483 274.05l-11.292-1.448-4.756 39.17v49.22c0-.002 13.835-15.61 16.05-86.94z" fill="#283B47"/><path d="M255.973 75.002c-153.74-1.33-159.61 137.137-159.61 137.137l1.733 9.1C111.56 83.97 255.974 86.03 255.974 86.03S400.428 84 413.89 222h.04l1.707-9.48S409.71 73.672 255.973 75.002z" fill="#385363"/><path d="M255.973 85.635S111.56 83.97 98.098 221.238l10.994-6.36c10.888-53.048 46.773-106.204 146.88-106.204 100.13 0 136.02 53.156 146.908 106.205l11.023 6.358C400.44 83.968 255.973 85.635 255.973 85.635z" fill="#283B47"/></svg>