<svg xmlns="http://www.w3.org/2000/svg" width="100" height="100"><path fill-rule="evenodd" clip-rule="evenodd" fill="#BDC3C7" d="M95 79H62v12h4.5c.828 0 1.5.67 1.5 1.5 0 .828-.672 1.5-1.5 1.5h-33c-.828 0-1.5-.67-1.5-1.5 0-.828.672-1.5 1.5-1.5H38V79H5c-2.76 0-5-2.24-5-5v-9h100v9c0 2.76-2.24 5-5 5z"/><path fill-rule="evenodd" clip-rule="evenodd" fill="#95A5A5" d="M38 79h24v2H38v-2z"/><path fill-rule="evenodd" clip-rule="evenodd" fill="#2C3E50" d="M5 0h90c2.76 0 5 2.24 5 5v60H0V5c0-2.76 2.24-5 5-5z"/><path fill-rule="evenodd" clip-rule="evenodd" fill="#35495E" d="M5 5h90v55H5V5z"/><circle fill-rule="evenodd" clip-rule="evenodd" fill="#35495E" cx="50" cy="72" r="2"/></svg>