<svg xmlns="http://www.w3.org/2000/svg" width="100" height="100.026"><path fill="#35495E" d="M50 0c27.613 0 50 22.386 50 50 0 27.615-22.387 50-50 50-27.614 0-50-22.385-50-50S22.386 0 50 0z"/><path fill="#F0C419" d="M54 20c-14.36 0-26 11.64-26 26 0 3.887.86 7.568 2.388 10.882l-3.534 3.533c-.913.913-.86 5.54-.867 5.608-.04.04-4.297-.443-5.235.494l-1.88 1.96c-1.195 1.198-.923 5.597-.944 5.522l-.005.005c.014.003-4.3-.357-5.217.557l-2.11 2.112c-.937.937-.697 5.353-.683 5.343.005-.006-4.482-.14-4.953.29C1.995 85.022 0 87.27 0 87.27l.018 12.756c0 .008 12.712-.023 12.712-.023l30.388-30.39C46.428 71.14 50.113 72 54 72c14.36 0 26-11.643 26-26 0-14.36-11.64-26-26-26zm6.74 13.48c3.19 0 5.78 2.588 5.78 5.78 0 2.765-1.946 5.074-4.542 5.64-1.842.303-3.795-.243-5.215-1.664-1.418-1.42-1.967-3.373-1.664-5.213.566-2.597 2.875-4.542 5.64-4.542z"/><path fill="#F29C1F" d="M66.652 33.314c-3.13-3.13-8.207-3.13-11.338 0-3.13 3.13-3.13 8.207 0 11.337 3.133 3.133 8.207 3.133 11.338 0 3.13-3.13 3.13-8.205 0-11.336zM64.5 42.5c-1.95 1.95-5.11 1.95-7.062 0s-1.95-5.114 0-7.065c1.95-1.95 5.112-1.95 7.062 0 1.952 1.95 1.952 5.113 0 7.064zM37.864 66.378c-.786-.623-1.54-1.285-2.25-1.994L.02 99.98v.043c0 .002 1.887 0 4.206-.006l33.64-33.64z"/><path fill="#EBECED" d="M75.967 0C64.055 0 54.174 8.682 52.294 20.06 52.86 20.026 53.426 20 54 20c1.09 0 2.16.075 3.212.206 1.763-8.75 9.488-15.34 18.755-15.34 10.567 0 19.135 8.565 19.135 19.134 0 10.567-8.564 19.134-19.135 19.134-6.84 0-12.822-3.6-16.207-8.996-.85.212-1.658.632-2.324 1.296-.62.62-1.02 1.37-1.246 2.158C60.518 43.877 67.76 48 75.967 48c13.254 0 24-10.745 24-24 0-13.254-10.744-24-24-24z"/><path fill="#C8C9CB" d="M61.104 36.017c-.48-.6-.934-1.225-1.344-1.88-.212.054-.42.12-.627.2h-.006c-.19.075-.376.163-.56.26l-.286.177-.26.168c-.19.14-.372.29-.544.458l-.074.073c-.16.166-.307.342-.44.523l-.183.276-.142.23c-.19.347-.344.712-.45 1.087.452.654.94 1.28 1.454 1.885l3.462-3.458z"/></svg>