<svg xmlns="http://www.w3.org/2000/svg" width="512" height="512" viewBox="0 0 512 512"><circle cx="256" cy="256" r="256" fill="#E05B49"/><path fill="#233540" d="M328.795 399h-136.73l10.517-10h115.696z"/><path fill="#3B5666" d="M328.202 401H192.52l-.456-2h136.73z"/><path fill="#233540" d="M253 314h15v85h-15z"/><linearGradient id="a" gradientUnits="userSpaceOnUse" x1="260.5" y1="388.808" x2="260.5" y2="369.601"><stop offset="0" stop-color="#fff" stop-opacity="0"/><stop offset="1"/></linearGradient><path fill="url(#a)" d="M253 363h15v22h-15z"/><path d="M451 366.894c0 4.477-3.63 8.106-8.106 8.106H70.106C65.63 375 62 371.37 62 366.894V154.107c0-4.477 3.63-8.107 8.106-8.107h372.787c4.477 0 8.106 3.63 8.106 8.107v212.787z" fill="#4D7085"/><path d="M445 363.894c0 4.478-3.63 8.106-8.106 8.106H71.106C66.63 372 63 368.37 63 363.894V158.106c0-4.476 3.63-8.106 8.106-8.106h365.787c4.477 0 8.106 3.63 8.106 8.106v205.788zM443 358.894c0 4.477-3.63 8.106-8.106 8.106H77.106C72.63 367 69 363.37 69 358.894V163.107c0-4.477 3.63-8.107 8.106-8.107h357.787c4.477 0 8.106 3.63 8.106 8.107v195.787z" fill="#233540"/><path d="M434 349.894c0 4.478-3.63 8.106-8.107 8.106H85.107C80.63 358 77 354.37 77 349.894V170.106c0-4.476 3.63-8.106 8.107-8.106h340.785c4.477 0 8.107 3.63 8.107 8.106v179.788z" fill="#141E24"/><path d="M431 345.894c0 4.477-3.63 8.106-8.106 8.106H89.106C84.63 354 81 350.37 81 345.894V173.107c0-4.477 3.63-8.107 8.106-8.107h333.787c4.477 0 8.106 3.63 8.106 8.107v172.787z" fill="#3B5666"/><path fill="#4E7287" d="M240.82 354l105.828-189h-98.833L141.987 354zM299.704 354l105.953-189h-35.88L263.95 354z"/></svg>