<svg width="100" height="100" xmlns="http://www.w3.org/2000/svg"><circle fill-rule="evenodd" clip-rule="evenodd" fill="#4A245A" cx="50" cy="50" r="50"/><clipPath id="a"><circle cx="50" cy="50" r="50"/></clipPath><g fill-rule="evenodd" clip-rule="evenodd" clip-path="url(#a)"><g opacity=".2"><path stroke="#fff" stroke-width="2" fill="none" d="M50 12L17 31"/><path stroke="#fff" stroke-width="2" fill="none" d="M17 31l-33-19"/><path stroke="#fff" stroke-width="2" fill="none" d="M17 31v38"/><path stroke="#fff" stroke-width="2" fill="none" d="M17 69l-33 19"/><path stroke="#fff" stroke-width="2" fill="none" d="M17 69l33 19"/><path stroke="#fff" stroke-width="2" fill="none" d="M50 88v38"/><path stroke="#fff" stroke-width="2" fill="none" d="M50 88l33-19"/><path stroke="#fff" stroke-width="2" fill="none" d="M83 69l33 19"/><path stroke="#fff" stroke-width="2" fill="none" d="M83 69V31"/><path stroke="#fff" stroke-width="2" fill="none" d="M83 31l33-19"/><path stroke="#fff" stroke-width="2" fill="none" d="M83 31L50 12"/><path stroke="#fff" stroke-width="2" fill="none" d="M50 12v-45"/><circle fill="#fff" cx="83" cy="69" r="4"/><circle fill="#4A245A" cx="83" cy="69" r="2"/><circle fill="#fff" cx="50" cy="88" r="4"/><circle fill="#4A245A" cx="50" cy="88" r="2"/><circle fill="#fff" cx="17" cy="69" r="4"/><circle fill="#4A245A" cx="17" cy="69" r="2"/><circle fill="#fff" cx="17" cy="31" r="4"/><circle fill="#4A245A" cx="17" cy="31" r="2"/><circle fill="#fff" cx="50" cy="12" r="4"/><circle fill="#4A245A" cx="50" cy="12" r="2"/><circle fill="#fff" cx="83" cy="31" r="4"/><circle fill="#4A245A" cx="83" cy="31" r="2"/></g><path fill="#fff" d="M52.67 30.995c2.578 0 4.698.283 6.36.85 1.928.812 2.892 2.486 2.892 5.02 0 2.29-.73 3.885-2.188 4.783-1.457.898-3.354 1.347-5.69 1.347h-13.08v-12H52.67zm2.075 22.01c2.403.024 4.27.343 5.597.954 2.38 1.09 3.567 3.097 3.567 6.02 0 3.454-1.23 5.79-3.682 7.013-1.353.658-3.244.99-5.67.99H40.962V53.006h13.783zm1.796-31L30 22v54.994L54.75 77c2.784 0 5.363-.247 7.742-.745 2.378-.497 4.44-1.418 6.19-2.76 1.55-1.17 2.843-2.613 3.878-4.328 1.628-2.588 2.44-5.51 2.44-8.77 0-3.158-.71-5.846-2.134-8.06-1.423-2.213-3.532-3.83-6.328-4.85 1.84-.945 3.233-1.99 4.178-3.134 1.69-2.04 2.538-4.74 2.538-8.097 0-3.258-.84-6.056-2.516-8.394-2.785-3.804-7.515-5.757-14.197-5.856z"/></g></svg>