<svg height="256" viewBox="0 0 256 256" width="256" xmlns="http://www.w3.org/2000/svg"><g><linearGradient gradientUnits="userSpaceOnUse" id="a" x1="106.858" x2="106.858" y1="-4.487" y2="186.081"><stop offset="0" stop-color="#F9AA2D"/><stop offset="1" stop-color="#E09115"/></linearGradient><path d="M198.325 211.28c0 5.19-4.244 9.434-9.43 9.434H24.823c-5.188 0-9.432-4.244-9.432-9.434V10.43c0-5.186 4.245-9.43 9.433-9.43h164.072c5.186 0 9.43 4.244 9.43 9.43v200.85z" fill="url(#a)"/><path d="M59.455 1H26.45c-5.186 0-9.43 4.244-9.43 9.43v200.85c0 5.19 4.244 9.434 9.43 9.434h33.005V1z" opacity=".2" fill="#2C2C2C"/><linearGradient gradientUnits="userSpaceOnUse" id="b" x1="36.609" x2="36.609" y1="-.986" y2="215.932"><stop offset="0" stop-color="#97671B"/><stop offset="1" stop-color="#7E520C"/></linearGradient><path d="M57.827 1H24.823c-5.188 0-9.432 4.244-9.432 9.43v200.85c0 5.19 4.245 9.434 9.433 9.434h33.004V1z" fill="url(#b)"/><path d="M188.896 217.07H24.823c-5.188 0-9.432-4.243-9.432-9.433v3.643c0 5.19 4.245 9.434 9.433 9.434h164.072c5.186 0 9.43-4.244 9.43-9.434v-3.643c0 5.19-4.244 9.434-9.43 9.434z" fill="#2C2C2C" opacity=".2"/><linearGradient gradientUnits="userSpaceOnUse" id="c" x1="165.855" x2="165.855" y1="35.29" y2="247.029"><stop offset="0" stop-color="#54BDF1"/><stop offset="1" stop-color="#3AA5D9"/></linearGradient><path d="M240.608 245.57c0 5.187-4.24 9.43-9.43 9.43H91.1V35.29h140.08c5.188 0 9.43 4.244 9.43 9.43v200.85z" fill="url(#c)"/><path d="M101.736 35.29h-33c-5.19 0-9.433 4.244-9.433 9.43v200.85c0 5.187 4.243 9.43 9.432 9.43h33V35.29z" opacity=".2" fill="#2C2C2C"/><linearGradient gradientUnits="userSpaceOnUse" id="d" x1="78.891" x2="78.891" y1="22.692" y2="256.416"><stop offset="0" stop-color="#367899"/><stop offset="1" stop-color="#236281"/></linearGradient><path d="M100.107 35.29H67.104c-5.187 0-9.43 4.244-9.43 9.43v200.85c0 5.187 4.243 9.43 9.43 9.43h33.003V35.29z" fill="url(#d)"/><path d="M231.18 251.357H67.103c-5.187 0-9.43-4.243-9.43-9.43v3.643c0 5.187 4.243 9.43 9.43 9.43h164.074c5.19 0 9.43-4.243 9.43-9.43v-3.643c0 5.187-4.24 9.43-9.43 9.43z" fill="#2C2C2C" opacity=".2"/><path opacity=".1" fill="#2C2C2C" d="M141.817 37.414l.295 90.385 22.204-26.643 21.02 26.642.294-90.386z"/><linearGradient gradientUnits="userSpaceOnUse" id="e" x1="163.724" x2="163.724" y1="42.5" y2="120.649"><stop offset="0" stop-color="#F15454"/><stop offset="1" stop-color="#D93B3B"/></linearGradient><path fill="url(#e)" d="M141.817 35.593l.295 90.385 22.204-26.643 21.02 26.643.294-90.385z"/><path fill="#2C2C2C" d="M185.335 122.335l-21.02-26.642-22.203 26.642-.282-86.742h-.013l.295 90.385 22.204-26.643 21.02 26.643.294-90.385h-.013z" opacity=".2"/></g></svg>