<svg xmlns="http://www.w3.org/2000/svg" width="88" height="99.998" viewBox="0 -0.001 88 99.998" enable-background="new 0 -0.001 88 99.998"><path fill="#F1C40E" d="M4 39.996h80c2.21 0 4 1.79 4 4v52c0 2.21-1.79 4-4 4H4c-2.21 0-4-1.79-4-4v-52c0-2.21 1.79-4 4-4z"/><path fill="#FFF55C" d="M4 35.996h80c2.21 0 4 1.79 4 4v5c0 2.21-1.79 4-4 4H4c-2.21 0-4-1.79-4-4v-5c0-2.21 1.79-4 4-4z"/><path fill="#364B5E" d="M73 38.996c-4.418 0-8 1.567-8 3.5 0 1.934 3.582 3.5 8 3.5s8-1.567 8-3.5-3.582-3.5-8-3.5zm-58 0c-4.418 0-8 1.567-8 3.5 0 1.934 3.582 3.5 8 3.5s8-1.567 8-3.5-3.582-3.5-8-3.5z"/><path fill="#EBEDEE" d="M44 0C24.7 0 9 14.707 9 34.017v7.978c0 .553 2.687 2 6 2s6-1.447 6-2l-.02-.07v-7.908c0-12.7 10.326-22.034 23.02-22.034 12.693 0 23.02 9.333 23.02 22.034v7.907l-.02.07c0 .554 2.688 2 6 2s6-1.446 6-2V34.02c0-19.31-15.7-34.02-35-34.02z"/><path fill="#BDC3C7" d="M44 5.998c-15.99 0-29 13.09-29 29.183v8.816c3.313 0 6-1.447 6-2l-.02-.07v-7.908c0-12.7 10.326-22.034 23.02-22.034 12.693 0 23.02 9.333 23.02 22.034v7.907l-.02.07c0 .554 2.688 2 6 2v-8.814C73 19.09 59.99 6 44 6z"/><path fill="#D8B00C" d="M0 95.997c0 2.21 1.79 4 4 4h80c2.21 0 4-1.79 4-4v-3H0v3z"/><path fill="#E5BA0D" d="M4 48.996c-1.86 0-3.413-1.278-3.858-3H0v50c0 2.21 1.79 4 4 4h40v-51H4z"/><path fill="#CDA70C" d="M0 92.997v3c0 2.21 1.79 4 4 4h40v-7H0z"/></svg>