<svg xmlns="http://www.w3.org/2000/svg" width="100" height="100"><path fill-rule="evenodd" clip-rule="evenodd" fill="#2C3E50" d="M10 62V5c0-2.762 2.24-5 5-5h70c2.762 0 5 2.238 5 5v57H10z"/><path fill-rule="evenodd" clip-rule="evenodd" fill="#35495E" d="M14 4h72v54H14V4z"/><path fill-rule="evenodd" clip-rule="evenodd" fill="#BDC3C7" d="M0 62h100v3c0 2.21-2.79 3-5 3H5c-2.21 0-5-.79-5-3v-3z"/><path fill-rule="evenodd" clip-rule="evenodd" fill="#95A5A5" d="M59.95 62c-.232 1.14-1.24 2-2.45 2h-15c-1.21 0-2.218-.86-2.45-2h19.9z"/></svg>