<svg xmlns="http://www.w3.org/2000/svg" width="100" height="100"><circle fill="#2C3E50" cx="50" cy="50" r="50"/><path clip-rule="evenodd" d="M16.488 73.027L70.906 18.61c1.172-1.172 4.02-.222 6.364 2.12s3.293 5.194 2.12 6.365L24.974 81.513l-8.485-8.486z" fill="none"/><path fill-rule="evenodd" clip-rule="evenodd" fill="#ECF0F1" d="M64.906 29.61L12.018 82.496c2.61 3.05 5.58 5.777 8.847 8.124l52.527-52.526c1.172-1.17.222-4.02-2.12-6.364-2.345-2.342-5.195-3.292-6.366-2.12z"/><path fill="#F0C419" d="M88.5 23.002c.767-6.9 4.6-10.735 11.5-11.5-6.9-.768-10.734-4.6-11.5-11.5-.767 6.9-4.6 10.733-11.5 11.5 6.9.765 10.733 4.6 11.5 11.5zM31.5 0c-.5 4.5-3 7-7.5 7.5 4.5.5 7 3 7.5 7.5.5-4.5 3-7 7.5-7.5-4.5-.5-7-3-7.5-7.5zm60 46c-.5 4.5-3 7-7.5 7.502 4.5.5 7 3 7.5 7.5.5-4.5 3-7 7.5-7.5-4.5-.5-7-3.002-7.5-7.5z"/><path fill="#fff" d="M71.5 53c-.367 3.3-2.2 5.133-5.5 5.5 3.3.366 5.134 2.2 5.5 5.5.367-3.3 2.2-5.134 5.5-5.5-3.3-.367-5.134-2.202-5.5-5.5zm-25-31c-.367 3.3-2.2 5.133-5.5 5.5 3.3.367 5.134 2.2 5.5 5.5.367-3.3 2.2-5.133 5.5-5.5-3.3-.367-5.134-2.2-5.5-5.5zm12-19c-.367 3.298-2.2 5.133-5.5 5.5 3.3.366 5.134 2.2 5.5 5.5.366-3.3 2.2-5.134 5.5-5.5-3.3-.367-5.134-2.202-5.5-5.5z"/></svg>