<svg xmlns="http://www.w3.org/2000/svg" width="100" height="100"><path fill-rule="evenodd" clip-rule="evenodd" fill="#D35400" d="M96.015 38.988H4.005c-1.103 0-2 .897-2 2.005v57c0 1.11.897 2.007 2 2.007h92.01c1.105 0 2-.897 2-2.006v-57c0-1.11-.895-2.006-2-2.006z"/><path fill-rule="evenodd" clip-rule="evenodd" fill="#ECF0F1" d="M5 15.974v82.004C5 99.095 5.896 100 7 100h86c1.105 0 2-.905 2-2.02V1.99c0-1.117-.895-2.02-2-2.02l-71.996.007L5 15.974z"/><path opacity=".1" d="M40 72l54.997-33L95 45.98 51.028 72H40z"/><path fill-rule="evenodd" clip-rule="evenodd" fill="#F39C12" d="M2 97.99c0 1.11.895 2.01 2 2.01h92c1.104 0 2-.9 2-2.01V42L50 71 2 42v55.99z"/><path fill-rule="evenodd" clip-rule="evenodd" fill="#F1C40F" d="M5 15.974l16 .01V0L5 15.974z"/><path fill="#F1C40F" d="M2 42l.052 54L50 71 2 42z"/><path fill="#E57E22" d="M98 42L50 71l48 25z"/><path opacity=".3" fill-rule="evenodd" clip-rule="evenodd" d="M98 97.99V96L50 71l47.328 28.482c.41-.367.672-.896.672-1.49zM2 97.99V96l48-25L2.672 99.482c-.41-.367-.672-.896-.672-1.49z"/></svg>