<svg xmlns="http://www.w3.org/2000/svg" width="84" height="100"><path fill="#2980B9" d="M27 0H0l30 60h27L27 0z"/><path fill="#3498DB" d="M57 0h27L54 60H27L57 0z"/><path fill="#F1C40E" d="M42 40c16.568 0 30 13.434 30 30 0 16.568-13.432 30-30 30-16.567 0-30-13.432-30-30s13.43-30 30-30z"/><path fill="#D8B00C" d="M42 46c-13.255 0-24 10.745-24 24s10.745 24 24 24 24-10.745 24-24-10.745-24-24-24zm0 46c-12.15 0-22-9.85-22-22 0-12.148 9.85-22 22-22s22 9.852 22 22c0 12.15-9.85 22-22 22z"/><path fill="#CDA70C" d="M16.377 85.61c3.935 6.442 10.234 11.282 17.69 13.32L51 82l-5-19-6.004-1.01-23.62 23.62z"/><path fill="#B8960A" d="M39.173 93.83l1.853-1.855c-8.243-.36-15.308-5.256-18.76-12.254l-1.487 1.486c3.606 6.817 10.397 11.683 18.393 12.623z"/><path fill="#FFF55C" d="M45.988 81.98V65.973h-5.992V61.99c.888.02 1.747.09 2.574-.075 1.02-.203 1.312-.278 1.95-.712 1.108-.75 1.372-1.23 1.768-1.926.558-.98.507-1.31.65-2.28h4.067V81.98h-5.017z"/></svg>