<svg xmlns="http://www.w3.org/2000/svg" width="512" height="512.001" viewBox="0 0 512 512.001"><path d="M512 256c0 141.38-114.61 256-255.998 256C114.612 512 0 397.38 0 256S114.613 0 256.002 0C397.39 0 512 114.618 512 256z" fill="#334D5C"/><path d="M326.39 49.876c6.456-1.316 16.954-2.262 16.954-2.262s-10.645-.822-17.06-2.094c.782-3.633 3.024-9.32 3.024-9.32s-5.473 2.16-9.11 2.975c-1.222-6.496-2.01-17.01-2.01-17.01s-.74 10.787-1.987 17.078c-3.616-.752-9.427-3.043-9.427-3.043s2.076 5.27 2.928 8.906c-6.567 1.29-16.962 2.215-16.962 2.215s10.492 1.005 16.996 2.36c-.822 3.635-2.96 9.054-2.96 9.054s5.604-2.21 9.24-3c1.198 6.356 1.88 17.036 1.88 17.036s.914-10.723 2.242-17.022c3.643.808 9.172 2.986 9.172 2.986s-2.06-5.22-2.917-8.858zM67.8 148.645c3.345-.682 8.782-1.174 8.782-1.174s-5.514-.425-8.838-1.082c.406-1.882 1.566-4.827 1.566-4.827s-2.834 1.118-4.717 1.54c-.633-3.363-1.045-8.81-1.045-8.81s-.38 5.59-1.027 8.847c-1.874-.39-4.882-1.576-4.882-1.576s1.074 2.732 1.516 4.614c-3.402.666-8.787 1.148-8.787 1.148s5.436.518 8.805 1.22c-.426 1.884-1.533 4.69-1.533 4.69s2.9-1.143 4.784-1.554c.623 3.294.977 8.825.977 8.825s.474-5.553 1.163-8.816c1.885.417 4.748 1.545 4.748 1.545s-1.066-2.702-1.51-4.587zM410.912 396.712c7.238-1.474 19-2.537 19-2.537s-11.928-.92-19.117-2.343c.877-4.07 3.39-10.442 3.39-10.442s-6.134 2.415-10.204 3.332c-1.368-7.28-2.26-19.06-2.26-19.06s-.823 12.09-2.22 19.138c-4.06-.846-10.564-3.41-10.564-3.41s2.324 5.908 3.277 9.978c-7.36 1.44-19.004 2.486-19.004 2.486s11.753 1.12 19.042 2.64c-.92 4.07-3.316 10.146-3.316 10.146s6.28-2.475 10.35-3.36c1.348 7.12 2.113 19.087 2.113 19.087s1.024-12.012 2.51-19.07c4.08.902 10.274 3.344 10.274 3.344s-2.307-5.848-3.272-9.928z" fill="#939FA7"/><path d="M251.54 348.43s.056-1.1.157-3.163l.182-3.828c.112-1.872.243-4.03.382-6.437.367-4.81.945-10.22 2.1-16.855.5-3.244 1.44-6.898 2.264-10.59 1.184-3.862 2.113-7.748 3.902-12.035 1.48-4.178 3.746-8.635 6.123-13.09 1.41-2.236 2.882-4.484 4.398-6.723 1.52-2.236 3.535-4.383 5.37-6.547 7.76-8.588 18.636-15.445 29.788-18.815 2.77-.732 5.607-1.683 8.367-2.11 2.752-.4 5.52-.764 8.27-1.09 2.74-.277 5.358-.152 8.034-.212l3.992-.003.247.003c-.523.032-.086.01-.18.02l.105.005.398.024.818.045 1.62.09c2.153.12 4.306.233 6.464.353l5.852.2c3.89.04 7.994.073 11.748-.21 7.658-.45 14.72-1.69 20.188-4.114 5.277-2.484 9.314-6.352 12.178-12.424.594-1.586 1.322-3.087 1.848-4.748.457-1.707 1.03-3.354 1.42-5.098.353-1.736.71-3.457 1.06-5.15.268-1.93.525-3.83.795-5.703.935-7.107 1.415-14.127 1.704-20.672.31-6.554.455-12.732 1.164-18.288.666-5.56 2.107-10.43 4.025-13.974 1.908-3.543 3.885-5.938 5.31-7.453 1.448-1.48 2.226-2.27 2.226-2.27l-1.66 2.694c-1.038 1.748-2.378 4.46-3.36 8.01-.988 3.56-1.272 7.994-.744 13.115.496 5.12 1.67 10.956 2.838 17.513 1.178 6.557 2.34 13.766 3.068 21.718.162 1.89.318 3.8.488 5.736.055 2.152.11 4.338.168 6.537.008 2.186-.2 4.467-.312 6.756-.186 2.302-.664 4.708-1.022 7.118-.63 2.422-1.215 4.914-2.14 7.402-1.046 2.466-1.976 5.045-3.544 7.414-2.723 4.99-6.852 9.23-11.215 12.96-9.02 7.073-19.076 10.933-28.557 13.78-4.83 1.48-9.44 2.502-14.215 3.538l-7.154 1.378c-2.17.37-4.34.736-6.49 1.105l-3.435.568-2.402.613c-1.555.443-3.22.682-4.625 1.22-1.37.573-2.71 1.107-4.03 1.6-1.306.522-2.255 1.335-3.368 1.894-4.105 2.678-6.318 5.625-7.863 8.867-.312.92-.787 1.576-1.05 2.535-.255.965-.528 1.872-.835 2.724-.355 2.08-.852 3.903-.994 6.106-.346 1.95-.242 4.338-.408 6.3.103 2.255.012 4.206.2 6.292.257 4 .733 7.908 1.202 10.768 1.193 6.758 1.87 10.627 1.87 10.627l-62.73 3.97zM133.244 279.876s.684-4.44 1.875-12.21c.73-4.327 1.78-9.366 3.372-15.434 1.764-6.077 3.955-13.03 7.59-20.438 3.594-7.363 8.47-14.99 14.498-21.866 5.984-6.938 13.065-12.96 20.502-18.02 1.85-1.338 3.73-2.564 5.654-3.688 1.912-1.13 3.812-2.39 5.766-3.412 1.943-1.03 3.902-2.074 5.865-3.113l.734-.394.186-.094.09-.05c.346-.225-.367.25-.262.188l.326-.172 1.332-.674 2.664-1.357 2.678-1.365 2.113-1.144c1.42-.77 2.906-1.5 4.264-2.395 1.382-.867 2.9-1.727 4.056-2.617l1.885-1.316 1.61-1.31c1.2-.885 1.865-1.724 2.846-2.575.66-.834 1.498-1.646 1.994-2.53 1.15-1.728 2.016-3.88 2.535-6.975.502-3.085.654-6.958.887-10.954.098-2.025.223-4.073.393-6.178l.125-1.555.043-1.144.035-.18.064-.352.137-.707.548-2.85c1.516-7.218 5.307-11.745 9.107-14.97.953-.705 1.896-1.414 2.842-2.11.916-.59 1.81-1.083 2.713-1.616 1.824-1.123 3.435-1.78 5.11-2.66 6.513-3.057 12.134-5.54 17.128-8.55 2.545-1.427 4.8-3.034 7.033-4.512 2.08-1.638 4.21-3.08 5.985-4.684 1.777-1.603 3.52-3.063 5.02-4.522 1.463-1.525 2.8-2.918 4.012-4.178 2.453-2.527 4.05-4.787 5.305-6.223 1.213-1.47 1.855-2.258 1.855-2.258l-1.254 2.63c-.873 1.685-1.912 4.323-3.713 7.423-.902 1.566-1.902 3.296-2.988 5.18-1.15 1.86-2.543 3.765-3.97 5.88-1.433 2.112-3.24 4.134-5.028 6.425-1.935 2.11-3.95 4.445-6.26 6.618-4.49 4.5-10.084 8.83-15.33 13.093-1.186 1.057-2.64 2.137-3.62 3.197l-1.595 1.58-1.19 1.528c-1.374 1.867-1.493 3.96-1.337 4.233l.152 2.828.04.716.02.363.008.177c-.008.242.055-1.754.03-.87l.02.08.22 1.317c.28 1.73.614 3.54.98 5.396.69 3.76 1.56 7.735 2.034 12.59.46 4.83.29 10.722-1.334 16.53-.73 2.96-1.936 5.627-3.156 8.35-1.355 2.432-2.748 5.076-4.314 7.144-.768 1.084-1.55 2.222-2.34 3.255l-2.43 2.908c-1.635 2.03-3.29 3.652-4.96 5.395-1.636 1.77-3.435 3.355-5.212 4.984l-2.673 2.428-2.27 1.965-2.262 1.962-1.123.974-.28.238c.048-.023-.714.484-.42.297l-.06.052-.124.107-.482.442c-1.29 1.162-2.566 2.322-3.844 3.473-1.28 1.13-2.352 2.363-3.52 3.508-1.182 1.142-2.256 2.312-3.225 3.504-4.117 4.654-7.227 9.264-9.266 13.622-2.085 4.36-3.276 8.44-4.01 12.355-.737 3.886-.856 7.824-.962 11.374.03 3.623.176 7.106.42 9.816.6 6.314.936 9.926.936 9.926l-62.82-1.826z" fill="#E27C3E"/><path d="M161.527 433.91c-38.352 14.02-80.81-5.7-94.828-44.062-14.022-38.35 5.71-80.81 44.063-94.826 38.354-14.024 80.81 5.705 94.83 44.055 14.014 38.36-5.708 80.815-44.066 94.832z" fill="#41ACB7"/><path d="M223.572 463.41C159.367 486.88 88.3 453.87 64.836 389.66c-23.467-64.188 9.55-135.257 73.752-158.726 64.197-23.465 135.264 9.558 158.732 73.75 23.47 64.204-9.562 135.267-73.748 158.727zM71.758 305.98s.307-.995.895-2.85c.633-1.925 1.564-4.757 2.738-8.353 2.483-7.206 6.19-17.514 11.958-29.534 2.88-6.005 6.295-12.435 10.428-19.044 4.154-6.597 9.004-13.4 14.98-19.903 5.943-6.48 13.06-12.73 21.5-17.563l4.94-2.774c1.23-.68 2.616-1.582 3.888-2.484 2.52-1.807 4.617-3.77 6.158-5.768 1.506-2.017 2.492-4.025 2.84-6.392.408-2.336.135-5.123-.77-8.078-1.806-5.97-5.9-12.145-10.374-17.72-1.193-1.466-2.19-2.64-3.61-4.29-1.134-1.326-2.577-3.1-3.782-4.79-2.338-3.392-4.71-7.188-5.426-12.083-.375-2.39-.154-4.963.545-7.12.672-2.16 1.648-4.03 2.703-5.58 2.09-3.136 4.318-5.483 6.348-7.79 4.11-4.506 7.607-8.62 10.37-12.625 2.743-3.984 4.776-7.73 6.292-10.91 1.457-3.197 2.473-5.8 3.088-7.595.61-1.808.938-2.77.938-2.77s-.16 1-.47 2.895c-.32 1.885-.89 4.634-1.84 8.116-.997 3.457-2.43 7.625-4.595 12.227-2.147 4.597-5.144 9.584-8.462 14.703-1.61 2.56-3.35 5.2-4.482 7.776-1.148 2.638-1.484 4.803-.715 6.737.646 2.007 2.468 4.332 4.706 6.577 1.137 1.123 2.195 2.078 3.723 3.367 1.452 1.22 2.917 2.46 4.4 3.698 6.007 5.35 12.228 11.425 16.856 20.155 2.273 4.334 4.08 9.54 4.348 15.29.38 5.733-1.023 11.772-3.453 16.815-2.435 5.08-5.708 9.338-9.155 12.95-1.742 1.8-3.47 3.456-5.49 5.138l-2.584 2.13-1.17.952-.146.117-.322.218-.05.05-.23.2-.453.39c-4.85 4.042-8.976 9.09-12.44 14.525-3.49 5.41-6.312 11.23-8.664 16.956-2.354 5.734-4.227 11.397-5.738 16.745-3.05 10.68-4.713 19.98-5.78 26.496-.49 3.31-.874 5.905-1.14 7.677-.252 1.85-.39 2.832-.39 2.832l-42.91-9.72zM222.312 384.11s.06 0 .184.016c.012.012-.018.03-.023.062.19.057.607.117 1.21.19 1.22.144 3.23.296 5.882.36 5.295.11 13.203-.164 22.152-1.93 8.95-1.744 18.773-5.098 27.395-11.158 4.252-3.082 8.205-6.867 11.61-11.5.913-1.123 1.597-2.412 2.446-3.623l.156-.238.082-.112c-.176.43.27-.645.24-.568l.047-.076.373-.63.736-1.26 1.473-2.515 1.482-2.523c.47-.82.97-1.678 1.658-2.728l3.795-5.862c5.258-7.463 11.12-14.684 19.31-20.63 2.048-1.454 4.1-2.86 6.48-3.978 1.17-.562 2.25-1.2 3.47-1.652l3.664-1.285c4.896-1.496 9.97-2.094 14.488-1.81 4.584.15 8.647.993 12.248 1.845 3.117.772 6.168 1.533 9.13 2.275l1.245.148.625.063c.227.035.15-.012.242-.012.21-.038.416.04.73.105.425-.113.866-.2 1.34-.268.47-.107.944-.414 1.45-.586 2-1.01 4.15-2.653 6.207-4.618 4.108-3.84 8.206-7.935 12.23-10.89 4.048-2.997 7.987-4.94 11.247-6.25 3.332-1.19 5.95-1.916 7.79-2.18l2.765-.513-2.545 1.187c-1.674.69-3.994 2.037-6.736 3.88-2.673 1.98-5.683 4.588-8.528 8.09-2.885 3.534-5.428 7.85-8.703 12.993-1.622 2.543-3.632 5.383-6.653 8.132-.818.655-1.584 1.376-2.537 1.974-.988.574-2.023 1.14-3.072 1.683-1.25.467-2.652.86-4.043 1.182-.312.068-.79.178-.977.2l-.617.082-1.243.18-.625.083-.312.038-.156.03c-.35-.018.674.026-.807-.022h-.086l-1.372.022c-.908.008-1.828.014-2.748.03-1.7.01-3.42.017-5.172.026-3.346.06-6.45.265-9.13.94-5.505 1.166-9.093 3.962-12.484 8.145-3.34 4.162-6.17 10.1-8.402 16.18l-1.48 4.502c-.246.664-.512 1.584-.785 2.55l-.807 2.825-.805 2.8-.396 1.403-.208.693-.025.096c-.05.135.373-.893.18-.404l-.066.217-.136.426c-.75 2.275-1.37 4.618-2.295 6.852-3.43 9.037-8.403 17.565-14.296 24.928-5.928 7.312-12.666 13.473-19.438 18.537-6.78 5.083-13.62 9.008-20.053 12.217-12.908 6.378-24.188 9.784-32.312 11.82-4.077 1.007-7.384 1.662-9.794 2.066-1.213.197-2.19.346-2.934.44-.482.042-.846.078-1.092.108-.117.02-.176.027-.176.027l-1.692-62.826zM163.324 309.857s.244-1.322.71-3.803c.11-.617.237-1.316.378-2.07.166-1.083.342-2.26.54-3.537.4-2.56.84-5.53 1.497-8.685.32-1.587.653-3.255 1.007-5.005.426-1.82.88-3.73 1.344-5.715.874-3.883 2.257-8.45 3.653-13.1 3.137-9.564 7.576-20.635 14.46-32.09 6.773-11.463 16.49-22.967 27.884-32.228 11.383-9.29 24.3-16.51 37.22-21.292 3.237-1.293 6.448-2.144 9.694-3.197l4.858-1.47.152-.05c-.49.224 1.328-.565-1.068.494l.234-.063.47-.115.944-.242 1.88-.473c2.386-.602 4.784-1.2 7.19-1.805 1.494-.334 3.05-.652 4.668-.953 7.106-1.968 13.873-4.692 19.522-8.155 5.756-3.455 10.332-7.957 14.268-14.006 1.822-3.1 3.604-6.466 4.87-10.308.733-1.854 1.222-3.912 1.82-5.924l.74-3.13.095-.394.047-.195c-.018 1.017.05-1.487.05-1.276l.034-.115.217-.925.45-1.843c.375-1.54.756-3.07 1.125-4.597.51-1.94 1.06-3.848 1.635-5.7.664-1.548 1.322-3.087 1.984-4.624l1.002-2.243 1.19-2.127c.812-1.384 1.612-2.766 2.413-4.135.872-1.307 1.817-2.555 2.726-3.8 1.742-2.534 3.893-4.694 5.896-6.84 8.273-8.42 17.986-13.618 26.97-16.28 2.194-.834 4.49-1.107 6.618-1.63 1.076-.216 2.127-.466 3.168-.642 1.055-.102 2.092-.205 3.12-.3 2.04-.165 3.997-.424 5.897-.45 1.885.045 3.715.086 5.496.125 7.02.357 12.884 1.42 17.556 2.668 4.717.982 8.203 2.468 10.605 3.232 2.384.832 3.65 1.27 3.65 1.27s-1.347.047-3.872.127c-2.516.137-6.16.012-10.728.76-4.54.48-9.992 1.54-15.756 3.457-1.412.506-2.877 1.023-4.38 1.566-1.466.584-2.884 1.398-4.35 2.1-.722.36-1.458.72-2.198 1.092-.705.423-1.39.91-2.084 1.37-1.355.982-2.86 1.712-4.103 2.9-5.32 4.136-9.702 9.7-12.18 15.99-.56 1.614-1.253 3.1-1.538 4.8l-.562 2.41-.275 2.47-.15 1.208.025 1.223.006 2.374c.18.555.322 1.06.42 1.55.066.317.072.296.146.884l.244 1.88.25 1.874.123.943.01.117c.003.29.07-2.127.048-1.04l.045.27.08.55.63 4.395c.308 3.01.708 6.047.788 9.254.384 6.34-.01 13.123-.95 20.058-2.084 13.852-7.53 28.55-15.928 40.89-8.322 12.48-18.61 22.724-29.424 31.34-2.95 2.192-5.953 4.36-8.992 6.495-2.258 1.588-4.512 3.172-6.748 4.746l-1.59 1.116-.79.56-.392.282-.193.14c-2.465 1.09-.727.34-1.287.59l-.068.06-2.004 1.75c-1.277 1.172-2.725 2.192-3.783 3.365-4.62 4.523-7.163 9.016-8.48 12.7-1.272 3.766-1.384 6.714-1.077 9.757.277 2.988.8 6.018 1.358 9.078.4 1.72.6 3.088 1.017 4.764.174.795.336 1.55.492 2.27.192.8.374 1.562.546 2.292.3 1.468.697 2.632.992 3.657.143.524.28 1.016.404 1.462.143.756.268 1.457.387 2.076.458 2.477.706 3.8.706 3.8l-125.712-.03z" fill="#E27C3E"/><path d="M215.752 448.654c-55.604 20.32-117.146-8.268-137.465-63.873-20.32-55.582 8.275-117.125 63.87-137.45 55.597-20.32 117.138 8.276 137.462 63.862 20.316 55.602-8.28 117.147-63.868 137.462zM148.375 226.677c3.078 4.275-.232 11.987-5.064 14.97-4.83 2.987-28.65 13.183-35.837 32.884 11.666 21.163 40.61-1.272 43.37-2.435 2.767-1.158 16.907-25.403 16.907-25.403l-6.912-14.53-12.463-5.485z" fill="#FFDB64"/><path d="M236.04 175.872c.067-.042.206-.074.82-.385.583-.29 1.474-.753 2.61-1.385 2.27-1.256 5.535-3.18 9.236-5.768 3.693-2.586 7.85-5.83 11.645-9.732 3.792-3.89 7.204-8.488 8.868-13.467.447-1.242.71-2.508.902-3.785.06-.29.096-.7.13-1.117l.097-1.23.205-2.438c.287-3.27.537-6.49.953-9.7.424-3.192.887-6.34 1.883-9.34.945-2.99 2.465-5.753 4.363-7.778 1.86-2.098 4.063-3.248 5.882-4.26.96-.408 1.852-.79 2.674-1.14.844-.28 1.617-.537 2.314-.77 1.375-.476 2.512-.68 3.25-.895.758-.188 1.156-.29 1.156-.29l-1.06.542c-.677.38-1.722.822-2.933 1.582-.61.37-1.287.777-2.016 1.22-.684.5-1.424 1.04-2.217 1.612-1.42 1.285-3.062 2.703-4.09 4.65-1.084 1.902-1.713 4.146-1.924 6.682-.238 2.52-.03 5.36.256 8.312.283 2.95.754 6.102 1.193 9.29.113.81.23 1.614.35 2.43l.172 1.214c.057.395.12.802.154 1.334.192 1.992.226 4.023.028 6.004-.348 3.983-1.367 7.81-2.72 11.334-1.352 3.53-3.032 6.777-4.825 9.762-3.6 5.957-7.617 10.88-11.228 14.898-3.62 4.02-6.877 7.117-9.238 9.252-1.188 1.068-2.15 1.893-2.84 2.47l-1.145.92-12.9-20.028zM309.195 245.39s.37-.63 1.06-1.818c.655-1.05 1.59-2.49 2.808-4.18 1.215-1.7 2.703-3.7 4.49-5.857 1.775-2.18 3.822-4.55 6.17-7.004 2.318-2.474 4.924-5.024 7.78-7.59 2.847-2.577 5.958-5.14 9.27-7.63 3.315-2.488 6.84-4.893 10.52-7.12 1.798-1.172 3.74-2.167 5.626-3.226l1.413-.783.357-.192.18-.096.045-.023c.06-.044-.367.267-.164.126l.08-.04.66-.353 2.65-1.42c1.886-.975 3.253-1.81 4.763-2.674 1.53-.812 2.93-1.886 4.406-2.85 1.425-1 2.724-2.067 4.028-3.14 1.166-1.125 2.46-2.215 3.426-3.434 1.125-1.164 1.934-2.447 2.842-3.71.71-1.324 1.578-2.614 2.062-4.028 1.238-2.736 1.805-5.672 2.244-8.453.703-5.624.492-10.65.322-14.113-.184-3.48-.342-5.48-.342-5.48s.728 1.86 1.932 5.162c1.18 3.316 2.89 8.055 3.99 14.307.44 3.137.83 6.698.38 10.57-.1 1.952-.612 3.9-1.05 5.95-.613 1.963-1.225 4.06-2.174 5.982-.824 2.05-1.95 3.87-3.043 5.817-1.18 1.82-2.42 3.685-3.758 5.424-1.38 1.68-2.69 3.473-4.27 5.092-1.524 1.652-3.153 3.41-4.5 4.717l-2.122 2.12-.527.532-.065.068c.174-.122-.275.205-.238.186l-.03.024-.124.125-.24.247-.95.99c-1.255 1.326-2.55 2.562-3.698 3.95-2.373 2.667-4.557 5.4-6.527 8.124-1.977 2.718-3.746 5.41-5.3 8.032-1.558 2.607-2.917 5.117-4.058 7.47-1.164 2.335-2.117 4.52-2.88 6.435-.792 1.918-1.366 3.588-1.808 4.932-.437 1.35-.7 2.347-.848 2.973-.066.292-.022.333-.035.444-.058.217-.085.326-.085.326l-34.67-14.913zM323.68 234.487l-26.207-8.338s-20.252 13.897-15.09 20.246c5.156 6.355 11.117 21.052 15.486 21.446 4.364.396 36.53-7.545 36.53-7.545l-1.19-27.4-9.53 1.59z" fill="#E27C3E"/><path d="M200.99 299.48s.12-.653.348-1.865c.055-.304.113-.644.188-1.015.084-.53.164-1.107.262-1.733.19-1.26.412-2.722.734-4.258.156-.784.32-1.605.496-2.46.21-.894.43-1.83.662-2.806.422-1.902 1.102-4.145 1.783-6.428 1.54-4.688 3.715-10.115 7.098-15.736 3.323-5.62 8.09-11.264 13.673-15.807 5.59-4.553 11.922-8.097 18.26-10.445 1.586-.635 3.158-1.055 4.752-1.564l2.385-.723.074-.02c-.242.107.652-.276-.52.238l.112-.026.23-.06.464-.116.924-.237c1.17-.29 2.342-.585 3.527-.884.733-.166 1.493-.32 2.292-.464 3.48-.97 6.8-2.304 9.568-4 2.82-1.696 5.07-3.905 6.998-6.874.898-1.516 1.766-3.164 2.39-5.053.36-.91.603-1.918.888-2.908l.373-1.527.044-.197.02-.096c-.006.494.022-.732.027-.62l.02-.062.102-.453.22-.907c.183-.75.37-1.507.552-2.257.254-.943.525-1.885.8-2.787.327-.765.653-1.518.976-2.27l.49-1.102.588-1.043c.393-.682.785-1.354 1.176-2.03.435-.644.902-1.253 1.346-1.864.855-1.24 1.906-2.3 2.89-3.35 4.058-4.127 8.82-6.682 13.224-7.983 1.082-.413 2.21-.542 3.25-.804.53-.107 1.04-.227 1.55-.312.522-.047 1.03-.1 1.53-.15 1.002-.078 1.97-.206 2.895-.218.93.023 1.82.04 2.696.062 3.443.176 6.322.696 8.61 1.31 2.312.482 4.02 1.21 5.206 1.585 1.168.406 1.79.62 1.79.62s-.66.02-1.903.066c-1.233.064-3.017.006-5.26.365-2.23.24-4.903.764-7.73 1.698-.694.244-1.41.504-2.15.768-.716.288-1.405.69-2.136 1.03-.348.172-.71.36-1.074.535-.346.214-.68.448-1.02.675-.666.477-1.404.842-2.012 1.42-2.61 2.03-4.762 4.762-5.977 7.846-.276.794-.614 1.522-.75 2.354l-.278 1.185-.135 1.206-.07.595.008.6.006 1.164c.085.273.153.523.206.766.03.15.033.143.068.428l.123.924.12.923.062.458.007.06c0 .14.03-1.044.02-.512l.023.14.04.26.308 2.156c.152 1.48.35 2.972.39 4.544.185 3.107-.005 6.438-.47 9.838-1.023 6.788-3.695 14-7.812 20.053-4.086 6.126-9.127 11.15-14.432 15.374-1.44 1.072-2.922 2.138-4.41 3.186l-3.31 2.326-.777.55-.387.277-.193.138-.1.07c-1.205.534-.354.162-.627.288l-.033.03-.982.853c-.623.583-1.34 1.08-1.86 1.657-2.265 2.215-3.515 4.418-4.157 6.227-.623 1.846-.676 3.295-.527 4.784.138 1.465.392 2.954.667 4.454.197.846.295 1.513.496 2.334l.244 1.113c.092.394.184.77.268 1.122.148.72.346 1.295.482 1.8.074.255.145.493.2.714.07.37.132.715.187 1.016l.348 1.863-61.662-.016zM181.404 247.132s17.604-17.34 40.58-16.34c22.98.997 34.898 5.195 45.094-1.04-10.697 21.138-34.818 32.145-34.818 32.145s-18.22 11.984-19.244 11.64c-1.02-.347-25.463-16.57-25.463-16.57l-6.15-9.835zM276.4 313.327s16.818-14.768 16.086-36.215c-.736-21.443 5.89-38.498 7.03-49.486-18.478 8.17-52.6 32.803-52.6 32.803l-17.67 21.106s17.87 20.635 18.075 21.105c.2.467 29.08 10.687 29.08 10.687z" fill="#FFDB64"/><path d="M190.012 113.356c.62-.92 1.146-1.873 1.76-2.645.64-.745 1.19-1.51 1.783-2.098.607-.59 1.152-1.116 1.623-1.575.498-.44.96-.762 1.316-1.048l1.137-.877s-.476.155-1.358.447c-.438.158-1.01.315-1.646.572-.633.288-1.354.62-2.166.994-.82.384-1.635.955-2.59 1.516-.938.586-1.838 1.38-2.885 2.16-1.877 1.755-4.014 3.914-5.734 6.686-1.837 2.726-3.38 5.967-4.636 9.514-1.293 3.55-2.156 7.404-2.832 11.43-.33 2.016-.527 4.053-.764 6.143-.113 2.066-.316 4.154-.338 6.322l-.018 3.295-.002 1.664.03 1.486.062 2.975.018.744.012.37v.136c-.006-.025.09.464.04.272l-.007.14-.13 1.1c-.194 1.456-.124 2.828-.614 4.204-.356 1.36-.6 2.658-1.237 3.94l-.746 1.865c-.3.616-.688 1.22-1.006 1.813-.34.596-.624 1.176-.976 1.744-.398.572-.795 1.135-1.193 1.695-.692 1.103-1.62 2.163-2.48 3.18-.788 1.026-1.806 1.982-2.696 2.91-.393.405-.81.76-1.215 1.147-.507 9.11-1.253 22.24-1.347 22.53-.078.23-3.014 1.58-5.78 2.79l15.54 20.812.254-.27 1.148-1.122c.998-.998 2.105-2.195 3.51-3.842 1.402-1.625 3.008-3.596 4.74-5.957 1.752-2.345 3.615-5.052 5.5-8.142 1.885-3.076 3.785-6.527 5.518-10.392.853-1.953 1.756-3.882 2.47-6.065.75-2.124 1.51-4.274 2.034-6.636.283-1.154.56-2.312.85-3.483.223-1.195.377-2.447.563-3.668.154-1.238.352-2.443.447-3.7.025-1.27.057-2.543.088-3.833.137-2.52-.205-5.112-.533-7.665-.193-2.542-1.045-5.025-1.693-7.46l-.523-1.808-.068-.227c-.042-.217.044.24.032.176l-.022-.042-.035-.09-.12-.345-.27-.698-1.052-2.783-.52-1.392-.42-1.225-.86-2.45c-.572-1.645-.994-3.388-1.504-5.08-.388-1.68-.817-3.378-1.118-5.037-.58-3.313-.988-6.574-.96-9.636-.005-3.062.278-5.98.954-8.574.564-2.652 1.633-4.894 2.666-6.91z" fill="#E27C3E"/><path d="M167.037 256.716l.77-4.992c.297-1.77.727-3.826 1.38-6.312.716-2.486 1.614-5.324 3.097-8.355 1.475-3.013 3.47-6.13 5.93-8.938 2.447-2.84 5.344-5.298 8.38-7.368.755-.54 1.526-1.047 2.312-1.51.783-.46 1.557-.97 2.357-1.387.797-.43 1.594-.852 2.4-1.28l.3-.157.076-.04.03-.022c.145-.088-.145.106-.105.08l.135-.072.547-.273 1.09-.554 1.094-.557.86-.472c.584-.314 1.19-.61 1.748-.98.566-.353 1.187-.702 1.652-1.067l.777-.538.656-.537c.494-.363.764-.705 1.158-1.053.27-.344.616-.674.82-1.03.47-.712.827-1.594 1.032-2.856.205-1.26.273-2.844.365-4.48.043-.826.094-1.66.164-2.522l.046-.635.02-.472.015-.072.024-.143.055-.29.226-1.165c.62-2.948 2.174-4.8 3.725-6.122.388-.282.778-.57 1.16-.858.38-.244.743-.443 1.112-.663.748-.458 1.402-.73 2.088-1.09 2.664-1.24 4.96-2.26 7.006-3.493 1.035-.583 1.96-1.244 2.87-1.842.85-.674 1.724-1.258 2.448-1.912.725-.66 1.44-1.256 2.053-1.855.6-.615 1.14-1.188 1.64-1.705 1.003-1.03 1.657-1.96 2.17-2.54.493-.605.755-.923.755-.923s-.178.37-.512 1.07c-.36.69-.783 1.77-1.52 3.035-.364.64-.774 1.35-1.216 2.117-.47.762-1.04 1.54-1.623 2.406-.587.863-1.323 1.693-2.056 2.62-.793.866-1.613 1.82-2.56 2.708-1.835 1.84-4.124 3.61-6.27 5.355-.48.436-1.073.873-1.48 1.31l-.65.645-.485.622c-.562.766-.612 1.617-.544 1.736l.06 1.148.02.295.005.147.005.078c0 .098.02-.72.014-.357l.005.035.096.535c.112.713.25 1.447.397 2.204.28 1.542.64 3.162.83 5.153.188 1.972.12 4.375-.545 6.754-.297 1.208-.79 2.3-1.29 3.41-.55.992-1.118 2.075-1.76 2.92-.317.445-.636.913-.96 1.335l-.992 1.183c-.664.833-1.346 1.495-2.03 2.21-.67.723-1.403 1.372-2.126 2.04l-1.096.99-.93.802-.922.797-.463.406-.113.094c.02-.008-.287.2-.168.125l-.03.02-.042.04-.2.183-1.575 1.42c-.523.46-.96.965-1.434 1.436-.485.468-.93.944-1.315 1.43-1.69 1.903-2.96 3.788-3.793 5.573-.85 1.78-1.338 3.45-1.64 5.045-.3 1.59-.35 3.203-.396 4.654.016 1.482.072 2.908.174 4.014l.383 4.055-25.686-.744zM112.225 317.54s.19-.59.543-1.703c.38-1.152.932-2.84 1.635-4.992 1.488-4.318 3.7-10.48 7.154-17.672 1.725-3.59 3.764-7.436 6.234-11.39 2.49-3.947 5.388-8.018 8.966-11.906 3.553-3.88 7.81-7.616 12.857-10.51l2.96-1.656c.73-.406 1.565-.945 2.323-1.49 1.512-1.075 2.766-2.252 3.686-3.445.902-1.21 1.488-2.408 1.697-3.823.25-1.4.08-3.067-.466-4.835-1.072-3.567-3.525-7.266-6.2-10.6-.716-.88-1.31-1.582-2.16-2.564-.683-.8-1.542-1.855-2.263-2.867-1.4-2.03-2.815-4.297-3.24-7.232-.23-1.42-.1-2.963.317-4.258.406-1.29.99-2.408 1.62-3.338 1.255-1.875 2.587-3.28 3.798-4.656 2.46-2.695 4.55-5.16 6.205-7.555 1.64-2.385 2.855-4.627 3.764-6.53.875-1.907 1.477-3.462 1.844-4.542.37-1.078.563-1.656.563-1.656s-.09.6-.284 1.73c-.186 1.13-.53 2.774-1.094 4.855-.598 2.07-1.455 4.564-2.748 7.316-1.29 2.755-3.078 5.732-5.063 8.8-.97 1.527-2.003 3.107-2.684 4.65-.684 1.578-.89 2.867-.428 4.03.383 1.204 1.473 2.59 2.818 3.935.676.67 1.314 1.238 2.225 2.013.864.73 1.755 1.472 2.636 2.212 3.594 3.207 7.316 6.834 10.082 12.057 1.357 2.596 2.445 5.707 2.6 9.146.232 3.434-.607 7.047-2.06 10.06-1.462 3.044-3.415 5.59-5.48 7.75-1.04 1.077-2.077 2.06-3.288 3.075l-1.547 1.272-.69.57-.095.068-.187.13-.032.034-.14.117-.27.23c-2.9 2.422-5.364 5.443-7.438 8.695-2.088 3.234-3.775 6.717-5.188 10.14-1.408 3.435-2.53 6.82-3.428 10.015-1.824 6.387-2.824 11.955-3.463 15.858-.29 1.978-.513 3.534-.68 4.59-.144 1.106-.233 1.696-.233 1.696l-25.672-5.824z" fill="#FFDB64"/><path d="M289.478 335.554s.03-.115.08-.336c.064-.354.16-.88.29-1.562.132-.795.308-1.406.515-2.248.195-.84.455-1.758.762-2.76.59-2.035 1.393-4.414 2.475-7.105 1.064-2.682 2.432-5.66 4.176-8.818 1.748-3.15 3.887-6.498 6.578-9.803 1.42-1.635 2.707-3.334 4.45-4.877 1.665-1.568 3.286-3.174 5.302-4.53.967-.687 1.94-1.38 2.924-2.073.967-.697 2.117-1.194 3.176-1.78 1.082-.552 2.168-1.103 3.256-1.656 1.113-.497 2.295-.837 3.438-1.245 1.152-.364 2.31-.737 3.463-1.114 1.162-.305 2.35-.44 3.52-.658 2.342-.394 4.66-.793 6.94-.688h3.397l1.674.018c.492.014.94.08 1.412.12l5.55.538c3.66.342 7.26.676 10.75 1.006 3.482.33 6.82.59 9.985.798 3.198.268 6.1.292 8.88.405 1.357.008 2.63-.062 3.885-.086 1.256 0 2.406-.118 3.484-.278 2.208-.182 4.058-.674 5.62-1.078 1.572-.373 2.72-.94 3.56-1.2l1.27-.468s-.367.29-1.055.84c-.71.506-1.662 1.44-3.082 2.31-1.408.907-3.147 2.04-5.33 2.974-1.074.538-2.238 1.057-3.482 1.47-1.24.44-2.57.96-3.954 1.403-2.738.79-5.785 1.754-8.938 2.504-3.178.824-6.53 1.652-9.98 2.435l-10.628 2.436c-1.8.41-3.615.82-5.44 1.232-.447.104-.928.196-1.355.318l-1.074.385-2.108.732c-1.44.37-2.656 1.137-3.846 1.795-.59.346-1.213.602-1.754.98l-1.502 1.232c-.484.407-1.006.727-1.438 1.16l-1.21 1.376c-.376.464-.83.798-1.146 1.32-.318.49-.633.984-.953 1.466-.684.86-1.127 1.996-1.63 2.973-.548.91-.84 2.107-1.24 3.084-.712 2.077-1.187 4.185-1.513 6.183-.314 1.998-.488 3.89-.54 5.576-.073 1.677-.054 3.165.032 4.325.023.596.057 1.11.12 1.525.052.408.07.854.144.926.057.186.096.167.12.41l.03.346-38.058-2.238z" fill="#E27C3E"/><path d="M256.592 371.788s.027 0 .084.012c.008.002-.012.012-.016.023.09.03.272.054.54.086.544.06 1.435.128 2.616.16 2.355.05 5.87-.07 9.85-.857 3.98-.776 8.344-2.267 12.178-4.964 1.89-1.37 3.648-3.05 5.166-5.106.404-.504.705-1.076 1.086-1.617l.066-.102.033-.05c-.072.185.125-.29.115-.26l.018-.03.168-.28.324-.56.654-1.12.658-1.118c.215-.36.432-.744.742-1.21l1.686-2.606c2.336-3.32 4.947-6.532 8.584-9.177.914-.646 1.824-1.268 2.885-1.768.517-.248.993-.533 1.542-.73l1.625-.574c2.18-.663 4.43-.935 6.44-.804 2.04.066 3.847.44 5.446.82 1.39.342 2.744.684 4.065 1.008l.55.066.276.03c.102.02.068-.003.107-.007.1-.012.187.018.33.045.187-.047.386-.086.59-.116.214-.048.42-.18.65-.257.888-.45 1.843-1.184 2.757-2.057 1.822-1.706 3.648-3.53 5.44-4.838 1.798-1.338 3.55-2.2 5-2.785 1.48-.53 2.646-.848 3.468-.965.8-.148 1.227-.234 1.227-.234s-.397.188-1.137.533c-.742.302-1.775.903-2.992 1.723-1.19.878-2.53 2.04-3.793 3.6-1.283 1.566-2.41 3.487-3.87 5.774-.72 1.13-1.616 2.392-2.958 3.617-.36.29-.7.613-1.13.875-.433.255-.892.51-1.366.75-.56.208-1.176.38-1.797.523-.138.03-.35.077-.427.09l-.277.042-.557.074-.278.037-.137.015-.072.016c-.154-.01.3.014-.36-.01l-.038-.002-.602.012c-.41.002-.816.006-1.23.014-.752 0-1.518.006-2.297.01-1.484.023-2.867.12-4.063.416-2.443.52-4.043 1.77-5.55 3.625-1.483 1.852-2.74 4.492-3.733 7.193l-.658 2.004c-.11.29-.227.702-.348 1.13l-.357 1.255-.36 1.244-.177.624-.092.31-.012.042c-.018.062.166-.393.084-.178l-.037.092-.057.193c-.33 1.012-.61 2.05-1.023 3.05-1.52 4.013-3.734 7.806-6.353 11.08-2.64 3.25-5.63 5.995-8.64 8.24-3.02 2.257-6.052 4.007-8.917 5.43-5.74 2.84-10.754 4.35-14.37 5.257-1.815.45-3.28.74-4.35.92-.544.086-.98.15-1.306.19-.215.026-.375.038-.488.054l-.075.012-.753-27.938zM282.342 375.075s16.48-18.952 15.127-35.572c-1.353-16.623-.396-18.344 2.83-24.312 3.23-5.963 6.376-13.445 5.978-21.94-14.334 13.548-28.477 19.693-28.477 19.693s-13.434 12.14-13.19 12.44c.244.3 7.77 22.33 7.77 22.33l2.288 13.557 7.674 13.805zM231.43 350.858s.02-.506.068-1.453c.018-.477.047-1.062.086-1.754.047-.864.104-1.85.172-2.958.174-2.207.43-4.69.965-7.73.228-1.49.66-3.162 1.04-4.86.54-1.77.97-3.555 1.793-5.52.676-1.92 1.72-3.962 2.805-6.007.648-1.033 1.322-2.06 2.02-3.088.693-1.022 1.62-2.01 2.467-3.004 3.557-3.94 8.543-7.087 13.664-8.63 1.27-.342 2.57-.776 3.84-.974 1.263-.183 2.532-.35 3.798-.497 1.252-.125 2.46-.074 3.686-.096l1.834-.006.113.007c-.247.012-.04.002-.083.01h.045l.185.008.375.022.744.045c.984.053 1.977.103 2.97.156l2.68.09c1.784.023 3.667.035 5.392-.092 3.516-.21 6.762-.777 9.267-1.885 2.416-1.146 4.27-2.917 5.584-5.7.27-.728.606-1.422.847-2.178.21-.79.47-1.54.652-2.346.163-.793.323-1.582.48-2.36.126-.882.25-1.755.366-2.618.432-3.26.652-6.482.787-9.483.14-3.01.21-5.845.533-8.398.303-2.548.967-4.78 1.846-6.404.875-1.635 1.783-2.73 2.438-3.424.664-.68 1.02-1.042 1.02-1.042s-.267.426-.76 1.238c-.48.8-1.093 2.045-1.544 3.674-.45 1.635-.58 3.668-.342 6.018.228 2.352.762 5.03 1.3 8.033.544 3.015 1.073 6.32 1.413 9.966l.223 2.633c.022.993.05 1.99.078 3 .002 1.003-.096 2.05-.143 3.1-.084 1.06-.307 2.16-.47 3.27-.29 1.108-.558 2.254-.983 3.393-.483 1.14-.906 2.317-1.627 3.404-1.25 2.293-3.143 4.234-5.145 5.945-4.14 3.246-8.754 5.018-13.107 6.324-2.215.68-4.334 1.152-6.52 1.623l-3.28.63c-.995.17-1.997.344-2.98.513l-1.577.26-1.098.282c-.72.203-1.482.316-2.123.56-.637.26-1.248.507-1.85.74-.604.23-1.035.602-1.55.864-1.884 1.226-2.892 2.575-3.61 4.067-.143.422-.36.72-.477 1.16-.12.44-.246.86-.387 1.254-.16.954-.386 1.79-.452 2.797-.162.896-.11 1.995-.193 2.892.055 1.034.012 1.93.102 2.893.113 1.83.334 3.626.55 4.935.544 3.102.852 4.877.852 4.877l-28.78 1.823z" fill="#FFDB64"/><path d="M175.64 394.128c18.202 0 33.77 11.172 40.28 27.023l7.05-22.6-12.356-12.358-31.406-8.244-19.04.568-13.644 5.404-8.668 14.066-7.104 12.36 4.56 10.964c6.465-15.93 22.07-27.182 40.33-27.182z" fill="#3D3D3D"/><path d="M237.682 236.804l-44.564 5.598-97.976 70.474 11.172 108.718 29.057-.102v-.016c0-22.244 18.036-40.28 40.272-40.28 22.154 0 40.12 17.896 40.262 40.01l13.31-.042 56.724-128.056-18.684-33.265-29.572-23.04z" fill="#5E5E5E"/><path fill="#7C7C7C" d="M267.252 259.843l-38.04 161.32 56.724-128.056zM237.682 236.804l-131.37 184.79-11.17-108.72 97.975-70.473z"/><path d="M174.562 311.178c0 11.692-9.475 21.164-21.162 21.164-11.69 0-21.17-9.472-21.17-21.164 0-11.687 9.48-21.163 21.17-21.163 11.688 0 21.162 9.476 21.162 21.163z" fill="#4F4F4F"/><path d="M145.117 302.206c-4.578 0-8.8 1.465-12.258 3.928-.397 1.62-.63 3.303-.63 5.044 0 11.692 9.48 21.164 21.17 21.164 4.568 0 8.79-1.462 12.246-3.93.4-1.614.63-3.296.63-5.042 0-11.685-9.47-21.164-21.16-21.164z" fill="#5E5E5E"/><path d="M173.65 347.914c0 6.43-5.205 11.64-11.635 11.64-6.436 0-11.646-5.21-11.646-11.64 0-6.43 5.21-11.642 11.645-11.642 6.43 0 11.635 5.21 11.635 11.642z" fill="#4F4F4F"/><path d="M157.457 342.978c-2.518 0-4.836.807-6.742 2.162-.21.89-.346 1.818-.346 2.774 0 6.43 5.21 11.64 11.645 11.64 2.51 0 4.838-.805 6.734-2.156.22-.893.353-1.822.353-2.777 0-6.43-5.216-11.642-11.646-11.642z" fill="#5E5E5E"/><path d="M268.26 305.202c0 7.25-5.877 13.127-13.127 13.127-7.248 0-13.125-5.878-13.125-13.128 0-7.254 5.877-13.125 13.125-13.125 7.25 0 13.127 5.87 13.127 13.125z" fill="#4F4F4F"/><path d="M249.996 299.638c-2.832 0-5.45.904-7.596 2.44-.252.998-.393 2.037-.393 3.124 0 7.25 5.877 13.127 13.125 13.127 2.834 0 5.45-.91 7.602-2.448.24-1 .385-2.036.385-3.117 0-7.25-5.876-13.127-13.124-13.127z" fill="#3A3A3A"/><path d="M243.738 320.61c0 3.44-2.79 6.232-6.238 6.232-3.434 0-6.232-2.793-6.232-6.232 0-3.44 2.8-6.234 6.232-6.234 3.447 0 6.238 2.793 6.238 6.234z" fill="#4F4F4F"/><path d="M235.06 317.964c-1.34 0-2.58.432-3.6 1.16-.124.48-.192.97-.192 1.486 0 3.44 2.8 6.232 6.232 6.232 1.352 0 2.594-.43 3.61-1.158.112-.48.183-.97.183-1.482 0-3.445-2.79-6.238-6.232-6.238z" fill="#3A3A3A"/></svg>