<svg xmlns="http://www.w3.org/2000/svg" xmlns:xlink="http://www.w3.org/1999/xlink" width="99.987" height="100.002" viewBox="0.007 0 99.987 100.002" enable-background="new 0.007 0 99.987 100.002"><path fill="#EBF0F1" d="M49.985 0c27.62 0 50.01 22.39 50.01 50.01S77.602 100 49.984 100 .007 77.628.007 50.01C.007 22.39 22.367 0 49.985 0z"/><defs><path id="a" d="M49.985 0c27.62 0 50.01 22.39 50.01 50.01S77.602 100 49.984 100 .007 77.628.007 50.01C.007 22.39 22.367 0 49.985 0z"/></defs><clipPath id="b"><use xlink:href="#a" overflow="visible"/></clipPath><g clip-path="url(#b)"><path fill="#1C3C50" d="M27.966 60.007h44.06v-4H28z"/><path fill="#23475F" d="M78.01 60.796v-7.062c0-1.508-1.527-2.73-3.023-2.73-1.495 0-2.96 1.225-2.96 2.73v7.062c0 12.544-9.566 22.25-22.018 22.25s-22.05-9.706-22.05-22.25l.062-7.062c0-1.508-1.557-2.73-3.054-2.73-1.497 0-2.96 1.225-2.96 2.73v7.062c0 14.188 10.454 25.96 24.01 27.917v11.303H32.91v.016c-2.172.007-3.93 1.854-3.93 3.98 0 2.123 1.76 4.013 3.93 4.02h34.154v-.005c2.164-.017 3.912-1.897 3.912-4.018 0-2.118-1.748-3.96-3.912-3.977v-.02H54.003v-11.3c13.554-1.96 24.006-13.73 24.006-27.917z"/><path fill="#BCC4C8" d="M50.01 9.007c9.94 0 18 8.06 18 18v34c0 9.94-8.06 18-18 18-9.942 0-18-8.06-18-18v-34c0-9.94 8.058-18 18-18z"/><path fill="#1C3C50" d="M68.004 57.007v4h-35.97v-4h-.025v4c0 9.94 8.058 18 18 18 9.94 0 18-8.06 18-18v-4h-.006z"/><path fill="#DF3627" d="M32.035 55.007h35.97v6h-35.97v-6z"/><path fill="#A9B0B4" d="M32.01 27.007v34c0 9.94 8.058 18 18 18v-70c-9.942 0-18 8.06-18 18z"/><path fill="#C83021" d="M32.035 55.007H50.01v6H32.034z"/><path fill="#193648" d="M32.035 61.007v-4h-.026v4c0 9.94 8.058 18 18 18v-18H32.034z"/><defs><path id="c" d="M50.01 9.007c9.94 0 18 8.06 18 18v34c0 9.94-8.06 18-18 18-9.942 0-18-8.06-18-18v-34c0-9.94 8.058-18 18-18z"/></defs><defs><path id="e" d="M50.01 9.007c9.94 0 18 8.06 18 18v34c0 9.94-8.06 18-18 18-9.942 0-18-8.06-18-18v-34c0-9.94 8.058-18 18-18z"/></defs><clipPath id="d"><use xlink:href="#c" overflow="visible"/></clipPath><clipPath id="f" clip-path="url(#d)"><use xlink:href="#e" overflow="visible"/></clipPath><path clip-path="url(#f)" fill="#7A8D8E" d="M78.01 44.007h-20c-1.658 0-3 1.343-3 3s1.342 3 3 3h20c1.656 0 3-1.343 3-3s-1.344-3-3-3zm0-9h-20c-1.658 0-3 1.343-3 3s1.342 3 3 3h20c1.656 0 3-1.343 3-3s-1.344-3-3-3zm0-9h-20c-1.658 0-3 1.343-3 3s1.342 3 3 3h20c1.656 0 3-1.343 3-3s-1.344-3-3-3zm-20-3h20c1.656 0 3-1.343 3-3 0-1.656-1.344-3-3-3h-20c-1.658 0-3 1.344-3 3 0 1.657 1.342 3 3 3z"/><path clip-path="url(#f)" fill="#1C3C50" d="M50.008 89.005c-1.358 0-2.692-.103-4-.292v2.295h8v-2.295c-1.307.19-2.64.292-4 .292z"/><path clip-path="url(#f)" fill="#6E7F80" d="M42.01 44.007h-20c-1.658 0-3 1.343-3 3s1.342 3 3 3h20c1.656 0 3-1.343 3-3s-1.344-3-3-3zm0-9h-20c-1.658 0-3 1.343-3 3s1.342 3 3 3h20c1.656 0 3-1.343 3-3s-1.344-3-3-3zm0-9h-20c-1.658 0-3 1.343-3 3s1.342 3 3 3h20c1.656 0 3-1.343 3-3s-1.344-3-3-3zm-20-3h20c1.656 0 3-1.343 3-3 0-1.656-1.344-3-3-3h-20c-1.658 0-3 1.344-3 3 0 1.657 1.342 3 3 3z"/></g></svg>