<svg xmlns="http://www.w3.org/2000/svg" width="100" height="100"><path fill-rule="evenodd" clip-rule="evenodd" fill="#24AE5F" d="M23.25 79L0 67V32.656L51.75 7 75 19v34.5L23.25 79z"/><path fill-rule="evenodd" clip-rule="evenodd" fill="#1E9450" d="M0 64.554v2.983L23.193 79.47l51.622-25.357V51.13L23.193 76.486 0 64.554zm0-5.22v2.983L23.193 74.25l51.622-25.356V45.91L23.193 71.266 0 59.334zm0-10.44v2.982l23.193 11.932 51.622-25.355V35.47L23.193 60.825 0 48.893zm0 5.22v2.982l23.193 11.932 51.622-25.356V40.69L23.193 66.045 0 54.113zm0-10.44v2.982l23.193 11.932 51.622-25.356V30.25L23.193 55.605 0 43.673zm23.25 1.46L0 33.085v3.013l23.25 12.05L75.004 22.54v-3.013L23.25 45.135zM0 38.455v2.982l23.25 11.932 51.753-25.356V25.03L23.25 50.384 0 38.453z"/><path fill-rule="evenodd" clip-rule="evenodd" fill="#24AE5F" d="M48.133 91.884L24.998 79.95V50.648l51.495-25.355L100 37.3v29L48.133 91.883z"/><path fill-rule="evenodd" clip-rule="evenodd" fill="#1E9450" d="M25 77.085v2.983L48.25 92 100 66.644V63.66L48.25 89.018 25 77.085zm0-5.22v2.983L48.25 86.78 100 61.424V58.44L48.25 83.797 25 71.866zm0-10.44v2.982L48.25 76.34 100 50.982V48L48.25 73.356 25 61.424zm0 5.22v2.982L48.25 81.56 100 56.204V53.22L48.25 78.577 25 66.644zm0-10.44v2.982L48.25 71.12 100 45.762V42.78L48.25 68.136 25 56.204zm23.25 6.366L25 50.64v2.983l23.25 11.932L100 40.2v-2.984L48.25 62.57z"/><path opacity=".1" d="M23.193 45.165L0 33.25v34.344L23.25 79.5l-.057-34.335zM48.193 62.6L25 50.685v29.292l23.25 11.906-.057-29.283z"/><path fill-rule="evenodd" clip-rule="evenodd" fill="#1E9450" d="M59.996 50.61l-11.363 5.458-9.702-5.22 13.14-6.436s-.913-2.62-.355-3.02c-.01.048-19.386 9.693-19.386 9.693l16.582 8.29 17.048-8.522s-1.67.055-3.148-.006c-1.502-.06-2.816-.238-2.816-.238zm13.446-3.497L93.5 37.5l-16.3-8.85-17.03 8.516c2.58-.133 4.696.978 4.696.978l12.126-5.94 10.448 5.22-13.99 6.72-.008 2.97z"/><path fill="#1E9450" d="M64.235 46.958c.715.015 1.378-.086 1.99-.302l-3.53-1.87-.3.078-.383.123c-.523.157-1.06.302-1.61.433-.55.13-1.11.213-1.68.246s-1.137 0-1.702-.1c-.566-.1-1.13-.3-1.693-.598-.574-.304-.973-.63-1.196-.977-.222-.347-.305-.693-.25-1.04.057-.345.237-.685.54-1.018.3-.334.685-.64 1.15-.924l-1.3-.69.98-.52 1.3.69c.556-.235 1.134-.425 1.735-.57.6-.145 1.21-.23 1.83-.255.62-.024 1.25.022 1.888.137.638.116 1.267.32 1.886.612l-2.362 1.25c-.46-.232-.983-.36-1.564-.388-.58-.026-1.06.06-1.437.26l2.99 1.585.508-.163.56-.17c1.044-.316 1.955-.503 2.73-.563.775-.058 1.45-.048 2.02.03.57.08 1.056.206 1.455.375.4.17.74.33 1.02.48.25.13.5.328.755.593.255.265.405.576.45.934.044.358-.06.753-.31 1.184-.25.432-.764.883-1.538 1.354l1.435.76-.98.52-1.436-.76c-1.332.61-2.69.918-4.075.924-1.384.007-2.796-.313-4.236-.96l2.344-1.24c.63.345 1.302.525 2.017.54zm3.45-1.23c.143-.152.233-.31.27-.473.037-.163.012-.326-.074-.49-.085-.162-.263-.315-.534-.458-.44-.233-.904-.335-1.395-.308-.49.027-1.153.166-1.987.417l3.242 1.718c.177-.117.338-.252.48-.406zM57.08 42.392c-.12.125-.195.256-.22.395-.026.14.007.277.098.413.09.137.255.268.492.393.372.198.775.29 1.21.273.435-.016.98-.133 1.637-.35l-2.753-1.457c-.188.1-.343.21-.464.335z"/><path fill-rule="evenodd" clip-rule="evenodd" fill="#1E9450" d="M34.583 32.61L23.22 38.067l-9.702-5.22 13.138-6.436s-.913-2.62-.354-3.02c-.01.048-19.386 9.693-19.386 9.693l16.583 8.29 17.047-8.522s-1.67.055-3.148-.006c-1.503-.06-2.817-.238-2.817-.238zm13.446-3.497L68.086 19.5l-16.3-8.85-17.03 8.516c2.58-.133 4.696.978 4.696.978l12.126-5.94 10.447 5.22-13.99 6.72-.008 2.97z"/><path fill="#1E9450" d="M38.822 28.958c.715.015 1.378-.085 1.99-.302l-3.53-1.87-.3.078-.384.123c-.523.157-1.06.302-1.61.433-.55.13-1.11.213-1.68.246s-1.136 0-1.702-.1c-.566-.1-1.13-.3-1.693-.598-.574-.304-.973-.63-1.196-.977-.223-.347-.306-.693-.25-1.04.057-.345.236-.684.538-1.017.302-.334.686-.64 1.15-.924l-1.3-.69.982-.52 1.3.69c.555-.236 1.133-.426 1.734-.57.602-.146 1.212-.23 1.832-.256.62-.024 1.25.022 1.887.137.637.117 1.266.32 1.885.613l-2.36 1.25c-.462-.232-.984-.36-1.565-.388-.58-.026-1.06.06-1.437.26l2.99 1.585.508-.163.56-.17c1.045-.316 1.956-.503 2.73-.563.776-.06 1.45-.048 2.02.03.572.08 1.057.206 1.456.376.4.17.74.33 1.02.48.25.13.5.33.755.594.256.265.406.576.45.934.045.358-.06.753-.31 1.184-.25.43-.763.882-1.537 1.353l1.435.76-.98.52-1.436-.76c-1.332.61-2.69.918-4.075.924-1.385.006-2.797-.314-4.237-.96l2.344-1.242c.63.345 1.303.525 2.018.54zm3.45-1.23c.143-.152.233-.31.27-.473.036-.163.01-.326-.075-.49-.086-.162-.264-.315-.535-.46-.44-.232-.904-.334-1.395-.307l-1.988.42 3.24 1.717c.18-.117.34-.252.482-.406zm-10.605-3.337c-.12.125-.195.256-.22.395-.026.14.007.277.098.413.092.137.255.268.492.393.372.198.775.29 1.21.273.436-.016.982-.133 1.638-.35l-2.753-1.457c-.19.1-.344.21-.465.335z"/></svg>