<svg xmlns="http://www.w3.org/2000/svg" width="100" height="100"><path fill-rule="evenodd" clip-rule="evenodd" fill="#2C3E50" d="M99.138 42.545l-22.134 11.28v5.178C77.004 66.733 64.92 73 50.01 73c-14.908 0-26.994-6.267-26.994-13.997v-5.167L.862 42.546c-1.15-.587-1.15-1.538 0-2.124L47.917 16.44c1.15-.587 3.014-.587 4.164 0L99.138 40.42c1.15.586 1.15 1.537 0 2.123z"/><path fill-rule="evenodd" clip-rule="evenodd" fill="#C03A2B" d="M50 43c12.152-.006 22.005 4.467 22.007 9.99.002 5.523-9.848 10.005-22 10.01-12.152.006-22.005-4.467-22.007-9.99-.002-5.523 9.848-10.004 22-10.01z"/><path fill-rule="evenodd" clip-rule="evenodd" fill="#35495E" d="M74.995 59.015c.006-3.076-2.434-6.152-7.32-8.5-9.765-4.687-25.594-4.687-35.358 0-4.852 2.33-7.287 5.38-7.317 8.433V45.062c-.03-3.09 2.405-6.187 7.317-8.545 9.763-4.688 25.593-4.688 35.357 0 4.887 2.347 7.327 5.423 7.32 8.5H75v14h-.005z"/><path fill-rule="evenodd" clip-rule="evenodd" fill="#3B536B" d="M75.022 45.775V58.22c-.38-2.806-2.778-5.56-7.245-7.706C62.87 48.158 56.43 46.988 50 47V33c6.43-.012 12.87 1.157 17.778 3.51 5.296 2.542 7.695 5.94 7.244 9.265z"/><path fill-rule="evenodd" clip-rule="evenodd" fill="#E64C3C" d="M29.722 52c.78.52 1.627 1.022 2.6 1.49 9.762 4.687 25.592 4.687 35.355 0 .973-.468 1.82-.97 2.6-1.49 7.04 4.692 6.19 11.268-2.6 15.49-9.763 4.687-25.593 4.687-35.356 0-8.79-4.222-9.637-10.798-2.598-15.49z"/><path opacity=".5" fill-rule="evenodd" clip-rule="evenodd" fill="#C03A2B" d="M50 57.005c-6.398 0-12.797-1.172-17.678-3.516-.973-.468-1.82-.97-2.6-1.49-7.038 4.69-6.19 11.268 2.6 15.488 4.882 2.344 11.28 3.516 17.678 3.516v-14z"/><path clip-rule="evenodd" stroke="#35495E" stroke-width="3" stroke-miterlimit="10" d="M94.995 40s.702 24.98-15.14 40.87" fill="none"/><path fill-rule="evenodd" clip-rule="evenodd" fill="#2C3E50" d="M91 74.14c0-2.764-2.233-5.004-4.988-5.004s-4.988 2.24-4.988 5.003c0 .285.038.56.084.834-1.834 1.616-6.25 5.015-11.097 5.157.117 7.63 8.416 9.87 8.416 9.87s5.943-5.17 7.978-10.897C88.974 78.898 91 76.767 91 74.14z"/></svg>