<svg xmlns="http://www.w3.org/2000/svg" width="100" height="100"><clipPath id="a"><circle cx="50" cy="50" r="50"/></clipPath><g fill-rule="evenodd" clip-rule="evenodd" clip-path="url(#a)"><circle fill="#316EAC" cx="50" cy="50" r="50"/><path fill="#fff" d="M14.084 107.072c-1.095 0-1.987-.88-2-1.977l-.06-5.095H7c-1.104 0-2-.896-2-2V78c0-.323.078-.642.23-.928l11-21c.16-.306.395-.564.684-.75L33.29 44.724l6.79-23.285c.218-.747.848-1.3 1.617-1.417L42 20c.662 0 1.29.33 1.664.89l5.62 8.43 5.35 1.783c.45.15.836.46 1.08.87l13.972 23.284 8.285-4.97c.322-.195.677-.287 1.03-.287.61 0 1.21.28 1.6.8l12 16c.083.11.154.23.213.354l7 15c.397.852.148 1.865-.6 2.436L70.3 106.662c-.35.266-.775.41-1.214.41h-55zM69.084 105.073h-55L14 98H7V78l11-21 17-11 7-24 6 9 6 2 15 25 10-6 12 16 7 15-28.916 22.073z"/><path fill="#6BC8F2" d="M8 108c-1.104 0-2-.896-2-2V76c0-.31.072-.617.21-.895l10-20c.16-.32.403-.59.704-.784l16.328-10.564 5.813-24.222C39.27 18.634 40.077 18 41 18h.04c.938.018 1.738.687 1.922 1.607l3 15c.038.196.048.395.028.593l-1 10c-.017.165-.054.328-.11.484l-4 11-4.81 13.468 2.89 14.456c.068.342.046.695-.063 1.025L35 97.323V106c0 1.104-.896 2-2 2H8zm62.998-25c-.337 0-.678-.085-.99-.264l-7-4c-.81-.462-1.19-1.42-.924-2.31l6-20c.15-.5.49-.922.944-1.175l9-5c.303-.166.638-.25.972-.25.35 0 .7.092 1.015.276.61.36.985 1.015.985 1.724v17c0 .395-.117.78-.336 1.11l-8 12c-.384.575-1.018.89-1.666.89zM70 57l-6 20 7 4 8-12V52l-9 5zM35 45L18 56 8 76v30h25v-9l4-12-3-15 5-14 4-11 1-10-3-15-6 25z"/><circle opacity=".2" fill="#fff" cx="76.5" cy="29.5" r="1.5"/><circle opacity=".1" fill="#fff" cx="14.5" cy="40.5" r="1.5"/><circle opacity=".43" fill="#fff" cx="56.5" cy="15.5" r="1.5"/></g></svg>