<svg xmlns="http://www.w3.org/2000/svg" width="99" height="65.991"><path fill="#EBECED" d="M97.99 28.692c-.85-1.646-2.137-2.917-3.64-3.746l.015-.01L46.687 0 .004 23.998l.15.084 47.35 24.836c4.395 2.305 6.104 7.766 3.82 12.197-.75 1.45-1.842 2.603-3.117 3.426l-.062.082-.04.03 47.78-24.98c3.08-2.665 4.06-7.196 2.105-10.98z"/><path fill="#BDC3C7" d="M47.504 48.918L0 24v20.39l39.235 20.58c1.32.692 2.734 1.022 4.127 1.022 3.237 0 6.364-1.774 7.962-4.875 2.283-4.433.574-9.894-3.82-12.2z"/><path fill="#7E8B8C" d="M18.37 22.306l4.574 2.305-7.688-.735-2.387 1.202 8.27 4.164 2.4-1.21-4.538-2.286 7.637.73 2.407-1.214-8.27-4.164-2.407 1.21zm13.058-.133l-1.63-.82 3.976-2.002-1.688-.85-3.977 2.002-1.313-.66 4.285-2.16-1.766-.89-6.848 3.45 8.27 4.163 6.973-3.512-1.872-.942-4.41 2.223zm7.694-10.32l3.748 2.772-5.906-1.683-2.418 1.218 3.352 2.976-5.503-1.892-2.427 1.222 10.107 3.238 2.506-1.262-3.76-3.35 6.655 1.892 2.506-1.263-6.444-5.08-2.414 1.214zm16.91-1.418c-.154-.373-.496-.692-1.027-.96-.45-.228-.97-.376-1.553-.45-.586-.072-1.242-.05-1.974.07-.73.12-1.772.398-3.13.84-.545.18-.934.273-1.162.28-.23.01-.41-.02-.54-.087-.183-.09-.26-.205-.235-.345.026-.14.188-.284.483-.435.36-.182.73-.28 1.104-.3.373-.018.778.052 1.215.206l2.27-1.283c-.964-.378-1.918-.526-2.863-.444-.95.08-1.952.388-3.01.92-.86.434-1.432.83-1.71 1.188-.276.357-.35.694-.22 1.008.133.314.41.58.836.793.646.326 1.42.474 2.316.44.896-.03 2.03-.265 3.4-.702.835-.27 1.432-.408 1.788-.416.356-.01.646.04.856.146.228.113.324.264.3.45-.025.184-.224.368-.587.553-.488.246-1.03.353-1.632.315-.37-.022-.774-.12-1.225-.292l-2.277 1.3c.904.386 1.9.577 2.98.577 1.083 0 2.33-.354 3.734-1.062.802-.403 1.35-.796 1.644-1.178.302-.378.372-.757.218-1.13z"/><path fill="#BDC2C6" d="M64.223 15.245L27.79 33.593l2.666 1.343 36.435-18.35-2.667-1.34zM34.01 36.725l7.998 4.026 10.662-5.368-7.998-4.027-10.662 5.37zm17.772-6.266l21.325-10.74-2.666-1.343-21.324 10.74 2.666 1.342zm23.99-9.398l-21.325 10.74 2.666 1.344 21.326-10.74-2.667-1.344z"/><path fill="#7E8B8C" d="M42.028 55.03L0 32.596v2.292l41.123 21.945c.144.077.3.114.45.114.355 0 .698-.2.874-.55.25-.498.063-1.11-.42-1.37z"/></svg>