<svg xmlns="http://www.w3.org/2000/svg" width="100" height="69"><path fill="#23475F" d="M91 62V5c0-2.76-2.238-5-5-5H14c-2.762 0-5 2.24-5 5v57H0v3c0 2.21 1.79 4 4 4h92c2.21 0 4-1.79 4-4v-3h-9z"/><path fill="#3498DB" d="M14 5h72v51H14V5z"/><path fill="#9ACCED" d="M58 19H43v4h15v-4zm-25 8v2h35v-2H33zm0 6h35v-2H33v2zm0 4h35v-2H33v2zm5 5h25v-2H38v2z"/><path fill="#1C394C" d="M9 60h82v2H9v-2z"/><path fill="#BCC4C8" d="M74.5 64c-.828 0-1.5.672-1.5 1.5 0 .83.672 1.5 1.5 1.5s1.5-.67 1.5-1.5c0-.828-.672-1.5-1.5-1.5zm5 0c-.828 0-1.5.672-1.5 1.5 0 .83.672 1.5 1.5 1.5s1.5-.67 1.5-1.5c0-.828-.672-1.5-1.5-1.5zm5 0c-.828 0-1.5.672-1.5 1.5 0 .83.672 1.5 1.5 1.5s1.5-.67 1.5-1.5c0-.828-.672-1.5-1.5-1.5z"/></svg>