<svg xmlns="http://www.w3.org/2000/svg" width="512" height="512" viewBox="0 0 512 512"><circle cx="256" cy="256" r="256" fill="#EFC84A"/><path d="M228.86 154.54l-30.87-30.87c-12.273-12.275-32.356-12.275-44.632 0L142.2 134.826l-7.438 7.44-11.158 11.157c-12.273 12.273-12.273 32.358 0 44.632l30.87 30.87c12.274 12.275 32.36 12.275 44.633 0l11.158-11.157 7.44-7.44 11.157-11.157c12.273-12.276 12.273-32.36 0-44.634zM210.265 217.768l7.44-7.438c-1.268 1.267-2.622 2.395-4.037 3.4-1.008 1.416-2.136 2.77-3.403 4.038zM142.2 134.827l-7.438 7.44c1.267-1.267 2.622-2.396 4.038-3.402 1.005-1.417 2.134-2.77 3.4-4.038z" fill="#E27676"/><path fill="#ECF0F0" d="M254.527 173.508l-81.08 81.08-39.425-39.425 81.08-81.08z"/><path fill="#FBFFFF" d="M256.016 160.12l-95.586 95.584-5.58-5.58 95.586-95.585zM244.856 148.96L149.27 244.55l-5.58-5.578 95.588-95.587zM233.7 137.802L138.11 233.39l-5.58-5.58 95.588-95.587z"/><path fill="#E3CB8F" d="M386.562 312.24l-19.712-19.714-37.195 37.195-37.193 37.194 19.713 19.712 85.297 10.91z"/><path fill="#5C5C5C" d="M394.53 374.542l-9.045.516-.035.035-10.418 10.425-.455 9.09 22.895 2.93z"/><path fill="#ECF0F0" d="M257.872 183.55l-18.596 18.597-18.596 18.596-18.598 18.598-18.597 18.598 128.69 128.688 5.207-31.986 31.986-5.206 5.207-31.988 31.987-5.207z"/><path fill="#45B39C" d="M251.18 176.856l-18.598 18.597-18.6 18.596-18.595 18.595-18.597 18.598 128.69 128.69 5.207-31.99 31.986-5.205 5.207-31.987 31.986-5.204z"/><path d="M179.396 142.266L347.88 310.75l6.695 6.696 42.896 80.09-10.91-85.297-67.69-67.692-67.276-67.275 2.93-3.764-5.95-5.952 7.44-7.44-5.58-5.58-7.438 7.44-5.58-5.578 7.44-7.44-5.58-5.578-7.438 7.44-5.578-5.58 7.438-7.44-5.578-5.58-7.44 7.44-5.578-5.58-3.347 3.348-13.762-13.76c-12.274-12.275-32.357-12.275-44.633 0l-11.16 11.157c-1.267 1.268-2.395 2.622-3.4 4.038 12.304-8.735 29.587-7.605 40.596 3.4zM317.382 354.64l-6.695-6.695-115.64-115.637c1.422-1.005-52.847-52.848-52.847-52.848-11.005-11.007-12.135-28.29-3.4-40.595-1.416 1.006-2.77 2.135-4.038 3.4l-11.158 11.16c-12.273 12.272-12.273 32.357 0 44.63l13.762 13.763-3.347 3.347 5.577 5.578-7.066 7.068 5.58 5.58 7.067-7.066 5.578 5.58-7.066 7.065 5.58 5.58 7.065-7.067 5.578 5.578-7.066 7.067 5.578 5.58 7.066-7.067 5.953 5.95 3.347-3.346 6.695 6.694 128.69 128.69 85.296 10.91-80.088-42.898z" opacity=".3" fill="#5D5D5D"/></svg>