<svg xmlns="http://www.w3.org/2000/svg" width="100" height="100"><circle fill="#F2F2F2" cx="50" cy="50" r="50"/><clipPath id="a"><circle cx="50" cy="50" r="50"/></clipPath><g fill-rule="evenodd" clip-rule="evenodd" clip-path="url(#a)"><path fill="#3B97D3" d="M28.016 74.252v20.66C34.652 98.167 42.11 100 50 100s15.348-1.833 21.984-5.088v-20.66L50 32.012l-21.984 42.24z"/><path opacity=".15" d="M40 98.998V82.9c-7.06-1.658-11.91-5.016-11.994-8.9l-.005.005v20.9c3.76 1.845 7.783 3.237 12 4.093z"/><path opacity=".15" fill="#fff" d="M60 98.998V82.9c7.06-1.658 11.912-5.016 11.995-8.9l.005.005v20.9c-3.76 1.845-7.782 3.237-12 4.093z"/><path fill="#F0C419" d="M71.982 73.894L56.495 44.396C54.553 45.416 52.347 46 50 46c-2.35 0-4.563-.586-6.51-1.61L28 73.893C28 79.474 37.85 84 50 84s22-4.525 22-10.106h-.018z"/><g><path fill="#D4896C" d="M50 76c-12.15 0-22-4.925-22-11V35c0-6.075 9.85-11 22-11s22 4.925 22 11v30c0 6.075-9.85 11-22 11z"/><ellipse fill="#DF9173" cx="50" cy="35" rx="22" ry="11"/><path fill="#F0C419" d="M50 86c-12.15 0-22-4.925-22-11V55c0 6.075 9.85 11 22 11s22-4.925 22-11v20c0 6.075-9.85 11-22 11z"/></g></g></svg>