<svg xmlns="http://www.w3.org/2000/svg" width="100" height="100"><path fill="#e74c3c" d="M50 74v26h.072l-.072.002c-12.816-.008-25.662-4.828-35.417-14.584C4.813 75.646-.007 62.838 0 50c.01-12.816 4.83-25.662 14.583-35.417L33 33c-4.682 4.683-6.996 10.85-7 17-.004 6.162 2.31 12.31 7 17 4.683 4.684 10.848 6.996 17 7z"/><path fill-opacity=".15" enable-background="new" d="M50 92C26.804 92 8 73.195 8 50c0-11.598 4.7-22.098 12.302-29.7l-5.72-5.717C7.87 21.3 0 33.438 0 50c0 27.062 21.625 50 50 50v-8z"/><path fill-opacity=".15" fill="#fff" enable-background="new" d="M32.928 67c-4.69-4.69-7.003-10.838-7-17 .004-6.15 2.316-12.317 7-17L27.3 27.373C21.51 33.163 17.93 41.163 17.93 50c0 17.673 14.327 32 32 32v-8c-6.152-.004-12.316-2.316-17-7z"/><path fill="#EFC22D" d="M63 87L50.014 74.01V74H50c-3.31.012-6.01 5.827-6.01 13 0 7.182 2.71 13.002 6.023 13.002v-.022L63 87z"/><path fill="#2D3E4F" d="M58.758 82.757C57.672 83.843 57 85.343 57 87c0 1.656.672 3.156 1.757 4.242L63 87l-4.242-4.243z"/><path fill="#3498db" d="M50 26V.003h-.072L50 0c12.816.008 25.662 4.828 35.417 14.584C95.187 24.354 100.01 37.164 100 50c-.008 12.818-4.828 25.664-14.583 35.42L67 67c4.682-4.682 6.995-10.85 7-17 .003-6.162-2.313-12.31-7-17-4.684-4.683-10.85-6.996-17-7z"/><path fill-opacity=".1" enable-background="new" d="M67 33.002c4.687 4.69 7.003 10.838 7 17-.005 6.15-2.318 12.318-7 17l5.626 5.627C78.416 66.84 82 58.84 82 50c0-17.672-14.327-32-32-32v8c6.15.004 12.316 2.317 17 7z"/><path fill-opacity=".15" fill="#fff" enable-background="new" d="M50 8c23.196 0 42 18.806 42 42 0 11.6-4.7 22.1-12.302 29.7l5.72 5.718C92.133 78.702 100 66.563 100 50c0-27.06-21.624-50-50-50v8z"/><path fill="#EFC22D" d="M37 13.002l12.986 12.99v.01H50c3.31-.012 6.008-5.827 6.008-13C56.008 5.82 53.298 0 49.986 0v.02L37 13.003z"/><path fill="#2D3E4F" d="M41.242 17.245C42.328 16.16 43 14.66 43 13.002c0-1.656-.672-3.156-1.757-4.242L37 13.002l4.242 4.243z"/></svg>