<svg xmlns="http://www.w3.org/2000/svg" width="100" height="72"><path fill="#E7F7FF" d="M0 0h100v44H0V0z"/><path fill="#3498DB" d="M84 69.2l13.938-13.94V38.946C96.828 38.74 96 37.95 96 37h-1c0 1.105-1.12 2-2.5 2s-2.5-.895-2.5-2h-1c0 1.105-1.12 2-2.5 2s-2.5-.895-2.5-2h-1c0 1.105-1.12 2-2.5 2s-2.5-.895-2.5-2h-1c0 1.105-1.12 2-2.5 2s-2.5-.895-2.5-2h-1c0 1.105-1.12 2-2.5 2s-2.5-.895-2.5-2h-1c0 1.105-1.12 2-2.5 2s-2.5-.895-2.5-2h-1c0 1.105-1.12 2-2.5 2s-2.5-.895-2.5-2h-1c0 1.105-1.12 2-2.5 2s-2.5-.895-2.5-2h-1c0 1.105-1.12 2-2.5 2s-2.5-.895-2.5-2h-1c0 1.105-1.12 2-2.5 2s-2.5-.895-2.5-2h-1c0 1.105-1.12 2-2.5 2s-2.5-.895-2.5-2h-1c0 1.105-1.12 2-2.5 2s-2.5-.895-2.5-2h-1c0 1.105-1.12 2-2.5 2s-2.5-.895-2.5-2h-1c0 1.105-1.12 2-2.5 2s-2.5-.895-2.5-2h-1c0 1.105-1.12 2-2.5 2S6 38.106 6 37H5c0 1.105-1.12 2-2.5 2S0 38.106 0 37v32.2h84z"/><path fill="#2F89C5" d="M65 46v2h34v-2H65zm2 6h32v-2H67v2zm-2 4h31v-2H65v2zm6 4h18v-2H71v2z"/><path fill="#2C81BA" d="M70.8 69.2H84V56z"/><path fill="#F39C12" d="M15.726 57.883c1.53 0 2.768-.99 2.768-2.215H19.6c0 1.225 1.24 2.215 2.77 2.215 1.528 0 2.767-.99 2.767-2.215h1.107c0 1.225 1.24 2.215 2.768 2.215 1.53 0 2.77-.99 2.77-2.215h1.105c0 1.225 1.24 2.215 2.77 2.215 1.528 0 2.768-.99 2.768-2.215h1.105c0 1.225 1.238 2.215 2.768 2.215.342 0 .668-.057.97-.146l9.735-9.734s-35.977-.004-36 0h-4V56c.197 1.062 1.336 1.883 2.723 1.883z"/><path fill="#34495E" d="M20 38h3v10h-3V38z"/><path fill="#F1C40E" d="M20 45h25L20 20v25z"/><path fill="#EBEDEE" d="M0 0v72h84l4-5H5V5h90v55l5-4V0z"/><path fill="#BDC3C7" d="M84 72V56h16L84 72z"/><path fill="#C3E4F8" d="M63.807 20.03c.12-.322.193-.666.193-1.03 0-1.656-1.343-3-3-3-.382 0-.744.078-1.08.21C59.553 14.38 57.938 13 56 13h-1c-2.21 0-4 1.79-4 4v1c0 .798.24 1.537.643 2.16-.957.352-1.643 1.262-1.643 2.34 0 1.38 1.12 2.5 2.5 2.5h11c1.38 0 2.5-1.12 2.5-2.5 0-1.275-.96-2.316-2.193-2.47z"/><path fill="#fff" d="M71.357 23.16c.403-.623.643-1.362.643-2.16v-1c0-2.21-1.79-4-4-4h-1c-1.938 0-3.553 1.38-3.92 3.21-.336-.132-.697-.21-1.08-.21-1.656 0-3 1.345-3 3 0 .364.075.708.193 1.03C57.96 23.185 57 24.226 57 25.5c0 1.38 1.12 2.5 2.5 2.5h11c1.38 0 2.5-1.12 2.5-2.5 0-1.078-.686-1.99-1.643-2.34z"/><path fill="#DA8C11" d="M53 48H13v2h38z"/><path fill="#C8CACB" d="M73 67l-5 5h16v-5z"/><path fill="#2875A8" d="M84 60v-2h-2l-2 2z"/></svg>