<svg xmlns="http://www.w3.org/2000/svg" xmlns:xlink="http://www.w3.org/1999/xlink" width="65" height="99.997" viewBox="0 -0.027 65 99.997" enable-background="new 0 -0.027 65 99.997"><path fill="#D48A6D" d="M18.013 70.973h-8c-1.104 0-2 .96-2 2.146v24.704c0 1.186.896 2.146 2 2.146h8c1.104 0 2-.964 2-2.146V73.12c0-1.186-.896-2.147-2-2.147zm37.98 0h-7.998c-1.104 0-2 .96-2 2.146v24.704c0 1.186.896 2.146 2 2.146h8c1.103 0 1.998-.964 1.998-2.146V73.12c0-1.186-.893-2.147-2-2.147z"/><path fill="#DF9274" d="M58.79 42.195c2.903-3.69 4.21-9.733 4.21-9.733l-13.473-9.487s-1.207 4.713-1.485 9.774c-4.45-2.402-9.546-3.775-15.01-3.775-5.8 0-11.296 1.546-16.085 4.227-.228-5.23-1.503-10.227-1.503-10.227L2 32.46s1.362 6.323 4.4 9.983C2.393 47.813 0 54.39 0 61.45c0 17.743 15.083 32.522 33.032 32.522 17.95 0 31.968-14.757 31.968-32.5 0-7.174-2.293-13.857-6.21-19.277z"/><path fill="#E9B39E" d="M32.5 53.973c6.902 0 12.5 4.48 12.5 10s-5.598 10-12.5 10c-6.903 0-12.5-4.48-12.5-10s5.597-10 12.5-10z"/><path fill="#BA8F7E" d="M27 59.973c1.104 0 2 .896 2 2v4c0 1.104-.896 2-2 2s-2-.896-2-2v-4c0-1.104.896-2 2-2zM38 59.973c1.104 0 2 .896 2 2v4c0 1.104-.896 2-2 2s-2-.896-2-2v-4c0-1.104.896-2 2-2z"/><path fill="#B2755D" d="M32.506 84.25h-.02c-6.86 0-9.433-3.844-9.69-4.256l-.014-.02-.003-.01c-.42-.712-.187-1.63.525-2.052.71-.424 1.63-.188 2.054.52.06.1 1.853 2.815 7.126 2.815s7.064-2.72 7.14-2.834c.435-.686 1.34-.908 2.037-.494.586.35.854 1.028.69 1.657-.035.135-.09.266-.164.39l-.005.01c-.297.497-2.777 4.264-9.67 4.272h-.01z"/><path fill="#fff" d="M20.07 44.973c2.21 0 3.937 1.815 3.937 4s-1.727 4-3.938 4S16 51.155 16 48.97s1.858-3.997 4.07-3.997z"/><path fill="#2C3E50" d="M20 46.973c1.104 0 2 .896 2 2s-.896 2-2 2-2-.896-2-2 .896-2 2-2z"/><path fill="#fff" d="M45.07 44.973c2.21 0 3.938 1.815 3.938 4s-1.727 4-3.938 4S41 51.155 41 48.97s1.86-3.997 4.07-3.997z"/><path fill="#2C3E50" d="M45 46.973c1.104 0 2 .896 2 2s-.896 2-2 2-2-.896-2-2 .896-2 2-2z"/><path fill="#F1C40E" d="M31.004-.027h3c1.103 0 2 .962 2 2.147v19.704c0 1.188-.897 2.148-2 2.148h-3c-1.104 0-2-.963-2-2.148V2.12c0-1.185.896-2.147 2-2.147z"/><path fill="#C9816B" d="M60.102 33.547l-8.27-5.82s-2.99 11.654 1.652 13.31c4.646 1.65 6.618-7.49 6.618-7.49z"/><defs><path id="a" d="M18.013 70.973h-8c-1.104 0-2 .96-2 2.146v24.704c0 1.186.896 2.146 2 2.146h8c1.104 0 2-.964 2-2.146V73.12c0-1.186-.896-2.147-2-2.147zm37.98 0h-7.998c-1.104 0-2 .96-2 2.146v24.704c0 1.186.896 2.146 2 2.146h8c1.103 0 1.998-.964 1.998-2.146V73.12c0-1.186-.893-2.147-2-2.147z"/></defs><clipPath id="b"><use xlink:href="#a" overflow="visible"/></clipPath><path d="M49 96.973c-1.657 0-3 1.344-3 3 0 1.655 1.343 3 3 3s3-1.345 3-3c0-1.657-1.343-3-3-3zm6 0c-1.657 0-3 1.344-3 3 0 1.655 1.343 3 3 3s3-1.345 3-3c0-1.657-1.343-3-3-3zm-44 0c-1.657 0-3 1.344-3 3 0 1.655 1.343 3 3 3s3-1.345 3-3c0-1.657-1.343-3-3-3zm6 0c-1.657 0-3 1.344-3 3 0 1.655 1.343 3 3 3s3-1.345 3-3c0-1.657-1.343-3-3-3z" clip-path="url(#b)" fill="#EBEDEE"/><g fill="#F5D34B"><path d="M29.004 14.973h7v2h-7zM29.004 18.973h7v2h-7zM29.004 2.973h7v2h-7zM29.004 10.973h7v2h-7zM29.004 6.973h7v2h-7z"/></g><path fill="#C9816B" d="M11.51 41.036c4.643-1.655 1.652-13.31 1.652-13.31l-8.27 5.82c.002 0 1.974 9.142 6.62 7.49z"/></svg>