<svg xmlns="http://www.w3.org/2000/svg" width="99.979" height="99.977" viewBox="-0.003 0 99.979 99.977" enable-background="new -0.003 0 99.979 99.977"><path fill="#EBECED" d="M92.87 7.105c9.477 9.476 9.477 24.832 0 34.308L41.41 92.87c-9.474 9.473-24.832 9.473-34.306 0-9.476-9.476-9.476-24.833 0-34.31L58.562 7.106c9.475-9.473 24.834-9.473 34.307 0z"/><path fill="#3B97D3" d="M32.548 33.122L7.105 58.562c-9.476 9.477-9.476 24.834 0 34.31 9.474 9.474 24.832 9.474 34.307 0L66.85 67.43 32.548 33.122z"/><path fill="#2086BF" d="M65.43 68.862L31.134 34.568l1.414-1.414 34.293 34.294z"/><path fill="#55A6DC" d="M38.096 41.51L12.7 66.906c-2.304 2.303-2.304 6.034 0 8.34 2.303 2.302 6.035 2.302 8.34 0l25.395-25.397-8.34-8.34z"/><path fill="#EFF0F1" d="M75.244 12.7c-2.306-2.305-6.037-2.305-8.343 0L39.51 40.096l8.34 8.34 27.395-27.397c2.3-2.304 2.3-6.037 0-8.34z"/><path fill="#4F9ED4" d="M47.862 48.444l-1.414 1.414-8.335-8.336 1.414-1.414z"/></svg>