<svg xmlns="http://www.w3.org/2000/svg" width="100.054" height="99.999" viewBox="-0.052 0.001 100.054 99.999" enable-background="new -0.052 0.001 100.054 99.999"><path fill="#EBEEEF" d="M99.98 59.968s-.01-1.188-2.02-2.002c-8.554-4.242-42.327-20.5-42.327-20.5-1.232-.616-2.23-.616-3.46 0 0 0-40.69 19.967-50.228 24.646-2.01.64-1.98 1.974-1.98 1.974-.022.008-.02 8.983 0 8.98 0 0 .033 1.214 2.02 1.91C10.53 78.82 44.25 94.538 44.25 94.538c1.23.613 2.23.613 3.46 0 0 0 40.563-19.355 50.224-23.728 1.95-.666 2.047-1.926 2.047-1.926.025.012.032-8.91 0-8.918z"/><path fill="#34495E" d="M30.462 60.748c4.684-2.346 12.275-2.346 16.96 0 4.684 2.344 4.684 6.146 0 8.488-4.685 2.346-12.276 2.346-16.96 0-4.683-2.343-4.683-6.145 0-8.488zM53.462 50.748c4.685-2.345 12.275-2.345 16.96 0 4.684 2.344 4.684 6.146 0 8.488-4.685 2.346-12.275 2.346-16.96 0-4.683-2.343-4.683-6.145 0-8.488z"/><path fill="#C0392C" d="M55.586 49.31c3.514-1.757 9.207-1.757 12.72 0 1.626.815 2.5-.137 2.62.93.018.16.02 3.32.004 3.48-.106 1.076-.98 2.137-2.623 2.958-3.514 1.758-9.207 1.758-12.72 0-1.6-.8-2.47-1.826-2.614-2.87-.02-.157-.024-3.313-.016-3.468.075-1.1.95-.19 2.63-1.03z"/><path fill="#E74C3C" d="M55.586 47.31c3.514-1.757 9.207-1.757 12.72 0 3.513 1.76 3.513 4.61 0 6.368s-9.206 1.758-12.72 0c-3.513-1.76-3.513-4.61 0-6.367z"/><path fill="#95A5A6" d="M32.586 59.31c3.513-1.757 9.208-1.757 12.72 0 3.513 1.76 3.513 5.61 0 7.368-3.512 1.758-9.207 1.758-12.72 0-3.513-1.76-3.513-5.61 0-7.367z"/><path fill="#34495E" d="M34.958 25v37c0 1.105 1.79 2 4 2s4-.895 4-2V25h-8z"/><path fill="#2C3E50" d="M34.958 31.445c1.274.353 2.612.556 4 .556 1.387 0 2.725-.203 4-.555v-6.443h-8v6.443z"/><path fill="#E74C3C" d="M38.958 0c8.284 0 15 6.717 15 15s-6.716 15-15 15-15-6.715-15-15 6.716-15 15-15z"/><path fill="#C0392C" d="M26.958 12c0-3.375 1.13-6.48 3.012-8.987-3.644 2.737-6.012 7.08-6.012 11.988 0 8.285 6.716 15 15 15 4.908 0 9.25-2.367 11.986-6.01-2.506 1.882-5.61 3.01-8.986 3.01-8.284 0-15-6.715-15-15z"/><path fill="#BDC3C7" d="M99.98 68.887s-.1 1.26-2.047 1.926C88.273 75.183 47.71 94.54 47.71 94.54c-1.233.614-2.23.614-3.462 0 0 0-33.72-15.72-42.265-19.563-1.987-.694-2.02-1.91-2.02-1.91-.007 0-.01-.856-.013-2.04-.006 2.643 0 7.042.012 7.04 0 0 .034 1.216 2.02 1.91C10.533 83.82 44.25 99.54 44.25 99.54c1.23.613 2.23.613 3.46 0 0 0 40.563-19.355 50.224-23.728 1.95-.666 2.047-1.926 2.047-1.926.02.008.026-4.646.02-7.23-.006 1.28-.012 2.235-.02 2.23z"/><path fill="#D4D7DA" d="M99.977 59.917c-.02.15-.227 1.272-2.043 1.896-9.66 4.37-50.223 23.726-50.223 23.726-1.23.614-2.228.614-3.46 0 0 0-33.718-15.72-42.265-19.563-1.96-.685-2.02-1.87-2.02-1.903v.014c-.022.006-.02 8.983 0 8.98 0 0 .033 1.215 2.02 1.91 8.546 3.842 42.265 19.56 42.265 19.56 1.23.615 2.23.615 3.46 0 0 0 40.563-19.353 50.224-23.726 1.95-.666 2.047-1.926 2.047-1.926.025.012.032-8.912 0-8.918l-.003-.05z"/><path fill="#BDC3C7" d="M44.25 85.54S10.532 69.82 1.985 65.976c-1.96-.687-2.02-1.87-2.02-1.903v.014c-.022.008-.02 8.983 0 8.98 0 0 .033 1.215 2.02 1.91 8.546 3.842 42.265 19.56 42.265 19.56.615.308 1.173.462 1.73.462v-9c-.557 0-1.115-.154-1.73-.46z"/><path fill="#95A5A6" d="M44.25 94.54S10.532 78.82 1.985 74.976c-1.987-.694-2.02-1.91-2.02-1.91-.007 0-.01-.854-.013-2.04-.006 2.643 0 7.042.012 7.04 0 0 .034 1.216 2.02 1.91C10.532 83.82 44.25 99.54 44.25 99.54c.616.307 1.173.46 1.73.46v-5c-.557 0-1.115-.154-1.73-.46z"/></svg>