<svg xmlns="http://www.w3.org/2000/svg" width="100" height="100"><path fill="#2C3E50" d="M13 20h74c1.656 0 3 1.343 3 3v7H10v-7c0-1.657 1.343-3 3-3z"/><path fill="#BDC3C7" d="M6 30h88c3.312 0 6 2.687 6 6v38c0 3.312-2.688 6-6 6H6c-3.313 0-6-2.688-6-6V36c0-3.313 2.687-6 6-6z"/><path fill="#2C3E50" d="M14 60h72c2.21 0 4 1.79 4 4v16H10V64c0-2.21 1.79-4 4-4z"/><path fill="#EBEDEE" d="M20 70h60v30H20V70zM80 30V0H20v30H10v16c0 2.21 1.79 4 4 4h72c2.21 0 4-1.79 4-4V30H80z"/><path fill="#BDC3C7" d="M30 14v2h40v-2H30zm0 6h40v-2H30v2zm0 4h40v-2H30v2zM30 6v2h40V6H30zm0 6h40v-2H30v2zm0 4h40v-2H30v2z"/><path fill="#D3D5D6" d="M20 70h60v2H20zM20 28h60v2H20z"/><path fill="#E74C3C" d="M23 37c1.657 0 3 1.343 3 3s-1.343 3-3 3-3-1.343-3-3 1.343-3 3-3z"/></svg>