<svg width="100" height="100" xmlns="http://www.w3.org/2000/svg"><path fill="#35495E" d="M74 15H6c-3.313 0-6 2.686-6 6v73c0 3.313 2.687 6 6 6h68c3.314 0 6-2.687 6-6V21c0-3.314-2.686-6-6-6z"/><rect x="49" y="15" rx="5" fill-rule="evenodd" clip-rule="evenodd" opacity=".2" width="32" height="76"/><path fill="#fff" d="M76 93c0 1.657-1.343 3-3 3H7c-1.657 0-3-1.343-3-3V32h72v61z"/><circle fill-rule="evenodd" clip-rule="evenodd" fill="#D15527" cx="9" cy="24" r="3"/><circle fill-rule="evenodd" clip-rule="evenodd" fill="#F19B2D" cx="17" cy="24" r="3"/><circle fill-rule="evenodd" clip-rule="evenodd" fill="#53BB72" cx="25" cy="24" r="3"/><path fill-rule="evenodd" clip-rule="evenodd" fill="#14A085" d="M8 36h64v56H8z"/><path fill-rule="evenodd" clip-rule="evenodd" fill="#26B99A" d="M34 36h38v56H34z"/><g fill-rule="evenodd" clip-rule="evenodd"><path fill="#35495E" d="M94 0H58c-3.313 0-6 2.687-6 6v76c0 3.313 2.687 6 6 6h36c3.314 0 6-2.687 6-6V6c0-3.313-2.686-6-6-6zm2 74H56V14h40v60z"/><path fill="#fff" d="M56 14h40v60H56z"/><path fill="#14A085" d="M59 17h34v54H59z"/><path fill="#26B99A" d="M59 44h34v27H59z"/><path fill="#2C3D4F" d="M69.5 6h12c.828 0 1.5.672 1.5 1.5 0 .83-.672 1.5-1.5 1.5h-12c-.828 0-1.5-.67-1.5-1.5 0-.828.672-1.5 1.5-1.5zM76 78c1.657 0 3 1.343 3 3s-1.343 3-3 3c-1.656 0-3-1.343-3-3s1.344-3 3-3z"/></g></svg>