<svg xmlns="http://www.w3.org/2000/svg" width="512" height="512" viewBox="0 0 512 512"><circle cx="256" cy="256" r="256" fill="#45B39C"/><path d="M139.73 44.74c9.81 40.508 19.622 81.015 29.433 121.522.333 1.372 2.38 1.335 2.733 0 10.18-38.618 20.357-77.235 30.536-115.854.467-1.77-2.267-2.773-2.732-1.007-10.18 38.62-20.358 78.6-30.538 115.6h2.733c-9.813-39-19.624-80.76-29.438-121.266-.43-1.774-3.16-.767-2.728 1.007z" fill="#ECF0F0"/><path fill="#2B2B2B" d="M184.618 338.553l-16.37 1L146.027 413h8.406z"/><path fill="#ECF0F0" d="M146.028 413l-5.17 17h6.61l6.966-17z"/><path fill="#2B2B2B" d="M326.908 338.553l16.372 1L365.5 413h-8.408z"/><path fill="#ECF0F0" d="M365.5 413l5.17 17h-6.61l-6.968-17z"/><path d="M415.435 355.62c0 10.703-8.677 19.38-19.38 19.38h-280.24c-10.703 0-19.38-8.677-19.38-19.38V189.38c0-10.704 8.677-19.38 19.38-19.38h280.24c10.703 0 19.38 8.677 19.38 19.38v166.24zM415.435 355.62c0 10.703-8.677 19.38-19.38 19.38h-280.24c-10.703 0-19.38-8.677-19.38-19.38V189.38c0-10.704 8.677-19.38 19.38-19.38h280.24c10.703 0 19.38 8.677 19.38 19.38v166.24z" fill="#BD3E25"/><path d="M103.435 360.856v-166.6c0-10.702 8.844-19.256 19.547-19.256H404.15c2.523 0 4.93.7 7.14 1.576-3.554-4.143-8.817-6.576-14.706-6.576H115.417c-10.703 0-18.982 8.15-18.982 18.854v166.6c0 8.177 4.79 15.158 11.956 18.003-2.906-3.39-4.955-7.787-4.955-12.6z" fill="#DE492C"/><path d="M400.435 193.022c0-5.215-4.56-9.022-9.777-9.022H119.413c-5.217 0-8.978 3.807-8.978 9.022v156.9c0 5.214 3.762 10.078 8.978 10.078h271.244c5.217 0 9.777-4.863 9.777-10.078v-156.9z" fill="#233540"/><path d="M350.435 193.022c0-5.215-4.055-9.022-9.272-9.022h-221.75c-5.217 0-8.978 3.807-8.978 9.022v156.9c0 5.214 3.762 10.078 8.978 10.078h221.75c5.217 0 9.272-4.863 9.272-10.078v-156.9z" fill="#2B2B2B"/><path d="M342.435 341.39c0 5.213-4.588 9.61-9.805 9.61H129.653c-5.217 0-9.22-4.397-9.22-9.61V203.26c0-5.215 4.003-9.262 9.22-9.262H332.63c5.217 0 9.805 4.047 9.805 9.262V341.39z" fill="#4A4A4A"/><path d="M331.435 332.558c0 5.215-4.228 9.442-9.443 9.442H137.878c-5.216 0-9.443-4.228-9.443-9.442V213.442c0-5.215 4.227-9.442 9.443-9.442H321.99c5.217 0 9.444 4.227 9.444 9.442v119.116z" fill="#363636"/><path d="M326.435 328.555c0 5.217-4.23 9.445-9.444 9.445H142.88c-5.217 0-9.445-4.228-9.445-9.445v-111.11c0-5.217 4.228-9.445 9.444-9.445h174.11c5.216 0 9.444 4.23 9.444 9.445v111.11z" fill="#2B2B2B"/><path d="M392.363 184h-41.93v176h41.93c5.217 0 9.07-4.863 9.07-10.078v-156.9c.002-5.215-3.853-9.022-9.07-9.022zM195.435 167.587c0 1.885-1.528 3.413-3.413 3.413h-44.174c-1.885 0-3.413-1.528-3.413-3.413v-.173c0-1.885 1.528-3.414 3.413-3.414h44.174c1.885 0 3.413 1.528 3.413 3.414v.173z" fill="#ECF0F0"/><path fill="#ADB0B0" d="M350.435 235h50v4h-50zM350.435 288h50v5h-50z"/><circle cx="375.942" cy="208.739" r="18.299" stroke="#ADB0B0" stroke-width=".944" stroke-miterlimit="10" fill="none"/><circle cx="375.942" cy="262.688" r="18.299" stroke="#ADB0B0" stroke-width=".944" stroke-miterlimit="10" fill="none"/><circle cx="392.728" cy="305.757" r="2.457" fill="#ADB0B0"/><circle cx="384.335" cy="305.757" r="2.457" fill="#ADB0B0"/><circle cx="375.942" cy="305.757" r="2.457" fill="#ADB0B0"/><circle cx="367.548" cy="305.757" r="2.457" fill="#ADB0B0"/><circle cx="359.155" cy="305.757" r="2.457" fill="#ADB0B0"/><circle cx="392.728" cy="313.943" r="2.457" fill="#ADB0B0"/><circle cx="384.335" cy="313.943" r="2.457" fill="#ADB0B0"/><circle cx="375.942" cy="313.943" r="2.457" fill="#ADB0B0"/><circle cx="367.548" cy="313.943" r="2.457" fill="#ADB0B0"/><circle cx="359.155" cy="313.943" r="2.457" fill="#ADB0B0"/><circle cx="392.728" cy="322.132" r="2.457" fill="#ADB0B0"/><circle cx="384.335" cy="322.132" r="2.457" fill="#ADB0B0"/><circle cx="375.942" cy="322.132" r="2.457" fill="#ADB0B0"/><circle cx="367.548" cy="322.132" r="2.457" fill="#ADB0B0"/><circle cx="359.155" cy="322.132" r="2.457" fill="#ADB0B0"/><circle cx="392.728" cy="330.32" r="2.457" fill="#ADB0B0"/><circle cx="384.335" cy="330.32" r="2.457" fill="#ADB0B0"/><circle cx="375.942" cy="330.32" r="2.457" fill="#ADB0B0"/><circle cx="367.548" cy="330.32" r="2.457" fill="#ADB0B0"/><circle cx="359.155" cy="330.32" r="2.457" fill="#ADB0B0"/><circle cx="392.728" cy="338.51" r="2.457" fill="#ADB0B0"/><circle cx="384.335" cy="338.51" r="2.457" fill="#ADB0B0"/><circle cx="375.942" cy="338.51" r="2.457" fill="#ADB0B0"/><circle cx="367.548" cy="338.51" r="2.457" fill="#ADB0B0"/><circle cx="359.155" cy="338.51" r="2.457" fill="#ADB0B0"/><path d="M395.185 346.7c0 1.354-1.1 2.454-2.456 2.454-1.357 0-2.458-1.1-2.458-2.455 0-1.36 1.1-2.458 2.457-2.458 1.355 0 2.455 1.098 2.455 2.457zM386.792 346.7c0 1.354-1.1 2.454-2.457 2.454-1.357 0-2.457-1.1-2.457-2.455 0-1.36 1.1-2.458 2.457-2.458 1.356 0 2.457 1.098 2.457 2.457zM378.398 346.7c0 1.354-1.1 2.454-2.456 2.454-1.357 0-2.457-1.1-2.457-2.455 0-1.36 1.1-2.458 2.457-2.458 1.356 0 2.456 1.098 2.456 2.457zM370.005 346.7c0 1.354-1.1 2.454-2.456 2.454-1.36 0-2.458-1.1-2.458-2.455 0-1.36 1.1-2.458 2.457-2.458 1.355 0 2.455 1.098 2.455 2.457zM361.612 346.7c0 1.354-1.1 2.454-2.457 2.454-1.357 0-2.457-1.1-2.457-2.455 0-1.36 1.1-2.458 2.457-2.458 1.357 0 2.457 1.098 2.457 2.457z" fill="#ADB0B0"/><path d="M378.542 197.355l-2.6-4.503-2.6 4.503c-5.136 1.18-8.97 5.772-8.97 11.266 0 6.39 5.18 11.57 11.57 11.57 6.39 0 11.568-5.18 11.568-11.57.002-5.493-3.83-10.085-8.968-11.265zM383.27 254.225l-.34-5.19-4.324 2.892c-5.13-1.21-10.597 1.213-13.023 6.14-2.823 5.732-.467 12.67 5.263 15.492 5.733 2.822 12.667.467 15.492-5.267 2.427-4.926 1.017-10.74-3.07-14.068z" fill="#fff"/><path fill="#4A4A4A" d="M238.095 208l-72.918 130h58.275l72.92-130zM317.89 208h-7.878l-72.92 130h21.078l68.882-122.667c-1.015-4.12-4.727-7.333-9.162-7.333z"/></svg>