<svg xmlns="http://www.w3.org/2000/svg" xmlns:xlink="http://www.w3.org/1999/xlink" width="100" height="100"><path fill="#ECF0F1" d="M50 0c27.613 0 50 22.386 50 50s-22.387 50-50 50C22.386 100 0 77.614 0 50S22.386 0 50 0z"/><defs><circle id="a" cx="50" cy="50" r="50"/></defs><clipPath id="b"><use xlink:href="#a" overflow="visible"/></clipPath><g clip-path="url(#b)"><path fill="#2C3E50" d="M44 71h6v44h-6V71z"/><path fill="#34495E" d="M50 71h8v44h-8V71z"/><path fill="#2C3E50" d="M44 75h14v7H44z"/><path fill="#253544" d="M44 75h6v7h-6z"/></g><path fill="#C0392C" d="M59 11h-7c-2.21 0-4 1.79-4 4v19c0 1.104.896 2 2 2s4-.896 4-2V23h5c2.21 0 4-1.79 4-4v-4c0-2.21-1.79-4-4-4z"/><path fill="#3498DB" d="M73 29l-44.988.028S28 36.943 28 46v23h.1c-.065.323-.1.657-.1 1 0 2.762 2.238 5 5 5h52c2.762 0 5-2.238 5-5V46c0-9.39-7.61-17-17-17z"/><path fill="#2980B9" d="M27 29c-9.39 0-17 7.61-17 17v23l.1.003c-.065.322-.1.655-.1.997 0 2.762 2.238 5 5 5h24c2.762 0 5-2.238 5-5V46c0-9.39-7.61-17-17-17z"/><path fill="#236D9D" d="M27 34c6.628 0 12 5.692 12 12.714V70H15V46.714C15 39.692 20.373 34 27 34z"/><path fill="#F1C40E" d="M24.908 44c.056.157.092.324.092.5 0 .828-.672 1.5-1.5 1.5s-1.5-.672-1.5-1.5c0-.176.036-.343.092-.5H5v26h17.092c-.056-.157-.092-.323-.092-.5 0-.828.672-1.5 1.5-1.5s1.5.672 1.5 1.5c0 .177-.036.343-.092.5H39V44H24.908zM23.5 66c-.828 0-1.5-.672-1.5-1.5s.672-1.5 1.5-1.5 1.5.672 1.5 1.5-.672 1.5-1.5 1.5zm0-5c-.828 0-1.5-.67-1.5-1.5 0-.828.672-1.5 1.5-1.5s1.5.672 1.5 1.5c0 .83-.672 1.5-1.5 1.5zm0-5c-.828 0-1.5-.672-1.5-1.5s.672-1.5 1.5-1.5 1.5.672 1.5 1.5-.672 1.5-1.5 1.5zm0-5c-.828 0-1.5-.67-1.5-1.5 0-.828.672-1.5 1.5-1.5s1.5.672 1.5 1.5c0 .83-.672 1.5-1.5 1.5z"/><path fill="#B5930C" d="M9 67h3V48H9v19zm6-19v19h3V48h-3zM29 48h3v19h-3V48z"/><path fill="#fff" d="M59.55 60.902c-1.96 0-3.55 1.59-3.55 3.55C56 66.412 57.59 68 59.55 68c1.958 0 3.548-1.59 3.548-3.548 0-1.96-1.59-3.55-3.55-3.55zm-1.217-7.81c-1.284 0-2.326 1.043-2.326 2.33s1.042 2.33 2.326 2.33c4.36 0 7.91 3.553 7.91 7.92 0 1.288 1.04 2.33 2.325 2.33 1.285 0 2.326-1.042 2.326-2.33 0-6.936-5.634-12.58-12.56-12.58zm-.074-7.09c-1.25 0-2.262 1.01-2.262 2.26 0 1.248 1.012 2.26 2.26 2.26 8.393 0 15.22 6.827 15.22 15.22 0 1.25 1.014 2.26 2.263 2.26 1.25 0 2.262-1.01 2.262-2.26-.002-10.887-8.857-19.74-19.743-19.74z"/><path fill="#C19D0B" d="M35 44h4v26h-4V44z"/><path fill="#3498DB" d="M5 70h39v5H0l5-5z"/></svg>