<svg xmlns="http://www.w3.org/2000/svg" xmlns:xlink="http://www.w3.org/1999/xlink" width="100" height="100"><path fill="#C8CACA" d="M47.93 3.242V1.767c-16.766.79-28.517 5.227-35.85 13.557C5.79 22.47 2.536 33.2 1.95 47.406h1.483C4.698 18.136 17.905 4.646 47.93 3.242zm48.586 43.914l1.473.11c-.587-14.217-3.84-24.563-10.132-31.715-7.333-8.333-19.085-12.774-35.85-13.564v1.476C82.03 4.866 95.25 17.865 96.515 47.156zM3.432 52.72H1.95c.586 14.138 3.9 24.69 10.186 31.804 7.328 8.29 19.07 12.705 35.827 13.49v-1.468C17.957 95.15 4.696 81.848 3.433 52.72zm48.605 43.608v1.47c16.756-.788 28.5-5.207 35.826-13.502C94.15 77.18 97.4 66.898 97.986 52.75H96.53C95.27 81.898 82.044 94.932 52.038 96.328z"/><path fill="#35495E" d="M3 47c-1.657 0-3 1.344-3 3 0 1.657 1.343 3 3 3s3-1.343 3-3c0-1.656-1.343-3-3-3zm94 0c-1.657 0-3 1.344-3 3 0 1.657 1.343 3 3 3s3-1.343 3-3c0-1.656-1.343-3-3-3zM50 0c-1.657 0-3 1.344-3 3 0 1.657 1.343 3 3 3s3-1.343 3-3c0-1.656-1.343-3-3-3zm0 94c-1.657 0-3 1.343-3 3s1.343 3 3 3 3-1.343 3-3-1.343-3-3-3z"/><path fill="#E64B3C" d="M50 5C25.147 5 5 25.147 5 50c0 24.854 20.147 45 45 45 24.854 0 45-20.146 45-45C95 25.147 74.854 5 50 5zm0 69c-13.255 0-24-10.745-24-24s10.745-24 24-24 24 10.745 24 24-10.745 24-24 24z"/><path d="M50 5C25.147 5 5 25.147 5 50c0 24.854 20.147 45 45 45 24.854 0 45-20.146 45-45C95 25.147 74.854 5 50 5zm0 69c-13.255 0-24-10.745-24-24s10.745-24 24-24 24 10.745 24 24-10.745 24-24 24z" fill="none"/><defs><path id="a" d="M50 5C25.146 5 5 25.147 5 50c0 24.854 20.146 45 45 45s45-20.146 45-45C95 25.147 74.854 5 50 5zm0 69c-13.255 0-24-10.745-24-24s10.745-24 24-24 24 10.745 24 24-10.745 24-24 24z"/></defs><clipPath id="b"><use xlink:href="#a" overflow="visible"/></clipPath><g clip-path="url(#b)" fill="#C54132"><path d="M67 58l33 33V58zM50 41V-1L13 4z"/></g><defs><path id="c" d="M50 5C25.147 5 5 25.147 5 50c0 24.854 20.147 45 45 45 24.854 0 45-20.146 45-45C95 25.147 74.854 5 50 5zm0 69c-13.255 0-24-10.745-24-24s10.745-24 24-24 24 10.745 24 24-10.745 24-24 24z"/></defs><clipPath id="d"><use xlink:href="#c" overflow="visible"/></clipPath><path clip-path="url(#d)" fill="#EBECED" d="M70 38v24h26V38H70zM4 62h26V38H4v24zm34 34h24V70H38v26zm0-66h24V4H38v26z"/></svg>