<svg xmlns="http://www.w3.org/2000/svg" width="512" height="512" viewBox="0 0 512 512"><circle cx="256" cy="256" r="256" fill="#EFC84A"/><path d="M372.942 75.975C370.302 69.81 362.654 65 355.947 65H156.053c-6.707 0-14.355 4.81-16.995 10.975l-15.86 35.997c-2.64 6.167-5.198 16.582-5.198 23.29v72.564c0 6.708 6.286 12.174 12.993 12.174H381.01c6.706 0 11.99-5.466 11.99-12.174v-72.564c0-6.708-2.058-17.123-4.698-23.29l-15.36-35.997z" fill="#797A7A"/><path d="M192.477 64.565h-36.424c-6.707 0-14.355 5.024-16.995 11.192l-15.643 36.105c-2.64 6.167-4.98 16.69-4.98 23.398v72.564c0 6.708 5.85 11.74 12.558 11.74h219.605l-158.12-155z" opacity=".3" fill="#5D5D5D"/><path d="M392 418.804c0 6.735-5.46 12.196-12.196 12.196h-249.61C123.46 431 118 425.54 118 418.804V136.196c0-6.735 5.46-12.196 12.194-12.196h249.61c6.734 0 12.194 5.46 12.194 12.196v282.608z" fill="#949696"/><path d="M386 418.9c0 3.37-2.73 6.1-6.1 6.1H130.098c-3.367 0-6.098-2.73-6.098-6.1V136.1c0-3.37 2.73-6.1 6.097-6.1h249.805c3.367 0 6.098 2.73 6.098 6.1v282.8z" fill="#A3A6A6"/><path d="M372 395.804c0 6.735-5.462 12.196-12.197 12.196H150.195C143.46 408 138 402.54 138 395.804V157.196c0-6.735 5.46-12.196 12.195-12.196h209.607c6.735 0 12.196 5.46 12.196 12.196v238.608z" fill="#949696"/><path d="M367 390.804c0 6.735-5.462 12.196-12.197 12.196H157.195C150.46 403 145 397.54 145 390.804V164.196c0-6.735 5.46-12.196 12.195-12.196h197.607c6.735 0 12.196 5.46 12.196 12.196v226.608z" fill="#A3A6A6"/><circle cx="256.009" cy="274.514" r="67.154" fill="#949696"/><circle cx="256.009" cy="265.48" r="67.154" fill="#949696"/><path d="M256.01 337.904c-34.955 0-63.392-28.438-63.392-63.39 0-34.954 28.437-63.392 63.39-63.392s63.392 28.438 63.392 63.39c0 34.955-28.437 63.392-63.39 63.392z" fill="#888A8A"/><path d="M256.01 322.77c-26.61 0-48.256-21.648-48.256-48.256S229.4 226.26 256.01 226.26c26.606 0 48.254 21.646 48.254 48.254s-21.648 48.256-48.255 48.256z" fill="#7B7D7D"/><circle cx="256.009" cy="274.514" r="44.491" fill="#A3A6A6"/><circle cx="255.821" cy="274.325" r="27.744" fill="#919494"/><path d="M372 275c0 4.97-4.03 9-9 9h-89c-4.972 0-9-4.03-9-9s4.028-9 9-9h89c4.97 0 9 4.03 9 9zM265 382c0 4.97-4.03 9-9 9-4.972 0-9-4.03-9-9v-89c0-4.97 4.028-9 9-9 4.97 0 9 4.03 9 9v89z" fill="#B9BDBD"/><path d="M264 382c0 4.97-4.03 9-9 9-4.972 0-9-4.03-9-9v-89c0-4.97 4.028-9 9-9 4.97 0 9 4.03 9 9v89zM264 168c0-4.97-4.03-9-9-9-4.972 0-9 4.03-9 9v89c0 4.97 4.028 9 9 9 4.97 0 9-4.03 9-9v-89zM372 275c0 4.97-4.03 9-9 9h-89c-4.972 0-9-4.03-9-9s4.028-9 9-9h89c4.97 0 9 4.03 9 9zM247 275c0-4.97-4.03-9-9-9h-89c-4.972 0-9 4.03-9 9s4.028 9 9 9h89c4.97 0 9-4.03 9-9z" fill="#919494"/><path d="M264 386c0 4.97-4.03 9-9 9-4.972 0-9-4.03-9-9v-89c0-4.97 4.028-9 9-9 4.97 0 9 4.03 9 9v89zM264 172c0-4.97-4.03-9-9-9-4.972 0-9 4.03-9 9v89c0 4.97 4.028 9 9 9 4.97 0 9-4.03 9-9v-89zM372 278c0 4.97-4.03 9-9 9h-89c-4.972 0-9-4.03-9-9s4.028-9 9-9h89c4.97 0 9 4.03 9 9zM247 278c0-4.97-4.03-9-9-9h-89c-4.972 0-9 4.03-9 9s4.028 9 9 9h89c4.97 0 9-4.03 9-9z" fill="#B9BDBD"/><circle cx="255.726" cy="274.231" r="18.617" fill="#CACFCF"/><circle cx="255.821" cy="278.089" r="27.744" fill="#B9BDBD"/><circle cx="255.726" cy="274.231" r="18.617" fill="#B3B8B8"/><circle cx="255.726" cy="277.994" r="18.617" fill="#CACFCF"/><path fill="#5D5D5D" d="M140 430h40v18h-40zM331 430h40v18h-40z"/><path d="M118.435 417.595c0 6.708 5.85 11.97 12.558 11.97h9.442v18h40v-18H302.51L118.434 212.418v205.178z" opacity=".3" fill="#5D5D5D"/></svg>