<svg xmlns="http://www.w3.org/2000/svg" width="512" height="512" viewBox="0 0 512 512"><path d="M512 255.998C512 397.378 397.385 512 256 512 114.613 512 0 397.378 0 255.998S114.613 0 256 0c141.385 0 256 114.618 256 255.998z" fill="#334D5C"/><path d="M512 255.998C512 397.378 397.385 512 256 512 114.613 512 0 397.378 0 255.998S114.613 0 256 0c141.385 0 256 114.618 256 255.998z" fill="#334D5C"/><path d="M206.684 71.376c7.22-1.474 18.967-2.53 18.967-2.53s-11.91-.92-19.087-2.344c.875-4.064 3.385-10.424 3.385-10.424s-6.12 2.415-10.19 3.325c-1.368-7.268-2.253-19.03-2.253-19.03s-.824 12.07-2.22 19.108c-4.048-.842-10.548-3.402-10.548-3.402s2.322 5.896 3.275 9.962c-7.348 1.44-18.975 2.478-18.975 2.478s11.736 1.123 19.012 2.64c-.92 4.066-3.313 10.128-3.313 10.128s6.27-2.472 10.338-3.358c1.344 7.113 2.105 19.06 2.105 19.06s1.022-11.995 2.508-19.043c4.072.902 10.26 3.34 10.26 3.34s-2.305-5.842-3.264-9.91zM352.064 413.358c3.088-.628 8.11-1.084 8.11-1.084s-5.09-.393-8.157-1c.37-1.736 1.443-4.457 1.443-4.457s-2.617 1.033-4.355 1.423c-.588-3.108-.963-8.14-.963-8.14s-.354 5.16-.95 8.173c-1.73-.36-4.51-1.456-4.51-1.456s.99 2.52 1.4 4.26c-3.142.617-8.114 1.058-8.114 1.058s5.018.482 8.13 1.132c-.396 1.738-1.417 4.33-1.417 4.33s2.683-1.06 4.42-1.437c.575 3.04.9 8.15.9 8.15s.437-5.128 1.075-8.144c1.74.387 4.385 1.43 4.385 1.43s-.983-2.498-1.396-4.238z" fill="#939FA7"/><path fill="#fff" d="M363.918 216.46l-165.02-66.567-75.9 143.645 196.213 78.97z"/><path d="M319.21 372.508c-8.548 21.244-59.4 20.788-113.585-1.016-54.19-21.81-91.178-56.706-82.627-77.954 8.55-21.24 59.398-20.78 113.584 1.024 54.188 21.81 91.178 56.707 82.63 77.946z" fill="#45B39C"/><path d="M290.986 361.15c-6.092 15.136-42.31 14.808-80.908-.728-38.6-15.536-64.95-40.39-58.86-55.524 6.093-15.13 42.315-14.8 80.91.732 38.6 15.534 64.948 40.39 58.858 55.52z" fill="#328E78"/><path d="M363.305 218.26c-7.203 17.888-50.027 17.507-95.664-.864-45.634-18.362-76.786-47.756-69.585-65.644 7.2-17.893 50.03-17.505 95.66.86 45.637 18.368 76.79 47.752 69.59 65.647z" fill="#fff"/><path fill="#328E78" d="M151.218 304.907l139.693 56.227-12.27 30.484L138.95 335.39z"/><path d="M278.285 392.72c-6.096 15.137-42.316 14.808-80.914-.722-38.597-15.536-64.948-40.395-58.858-55.533 6.092-15.128 42.316-14.798 80.914.732 38.6 15.537 64.945 40.393 58.86 55.522z" fill="#45B39C"/><path d="M189.72 251.47c-6.386 15.852-24.405 23.528-40.255 17.153l-71.098-28.616c-15.85-6.38-23.527-24.4-17.15-40.25L86.2 137.673c6.386-15.852 24.405-23.528 40.255-17.153l71.1 28.623c15.85 6.374 23.53 24.397 17.15 40.246l-24.986 62.08z" fill="#fff"/><path d="M184.35 245.568c-5.72 14.206-21.873 21.087-36.076 15.366L84.55 235.29c-14.204-5.72-21.085-21.87-15.368-36.07l22.394-55.643c5.72-14.205 21.867-21.084 36.072-15.367l63.723 25.645c14.206 5.714 21.085 21.867 15.37 36.07l-22.39 55.643z" fill="#41AAD8"/><path d="M428.412 347.54c-6.38 15.85-24.398 23.53-40.25 17.15l-71.098-28.61c-15.85-6.385-23.53-24.404-17.148-40.257l24.984-62.08c6.38-15.85 24.404-23.53 40.254-17.15l71.098 28.616c15.85 6.377 23.53 24.397 17.147 40.245L428.41 347.54z" fill="#fff"/><path d="M423.043 341.634c-5.72 14.206-21.87 21.087-36.076 15.367l-63.72-25.642c-14.204-5.714-21.085-21.866-15.372-36.072l22.4-55.643c5.713-14.203 21.863-21.084 36.066-15.367l63.724 25.645c14.21 5.718 21.086 21.87 15.37 36.073l-22.39 55.64z" fill="#41AAD8"/><path d="M301.465 88.61c2.107-5.238 8.062-7.774 13.3-5.666 5.23 2.104 7.772 8.062 5.663 13.297-2.104 5.238-8.062 7.772-13.293 5.664-5.242-2.104-7.776-8.06-5.67-13.294zM271.922 208.392l-13.164-5.297 50.457-108.81 1.69.68z" fill="#fff"/><circle cx="265.32" cy="220.665" r="48.783" fill="#334D5C"/><circle cx="265.321" cy="220.665" r="38.243" fill="#41AAD8"/><path d="M245.438 253.286c5.8 3.543 12.588 5.62 19.883 5.62 2.06 0 4.063-.207 6.034-.52v-75.443c-1.97-.312-3.975-.52-6.033-.52-7.294 0-14.083 2.078-19.882 5.62v65.243zM275.164 257.583c2.666-.712 5.22-1.686 7.623-2.925V186.67c-2.402-1.238-4.957-2.212-7.623-2.923v73.836zM97.752 240.602l50.52 20.333c.94.38 1.886.694 2.837.962V137.652l-23.462-9.442c-10.6-4.266-22.275-1.512-29.896 6.057v106.335zM155.3 262.716c4.175.506 8.34.057 12.21-1.257V144.252l-12.21-4.912v123.376z" fill="#ACD9EA"/><path fill="#fff" d="M157.338 135.603l6.455 2.6-45.8 113.715-6.455-2.6zM77.063 173.102l2.6-6.458L202 215.884l-2.6 6.46z"/><path d="M397.95 236.996l-31.608-12.72c-6.205-2.498-12.785-2.59-18.7-.718v117.616L386.966 357c3.603 1.45 7.332 2.084 10.982 1.998V236.996zM403.537 358.287c4.955-1.147 9.543-3.633 13.21-7.232V244.56l-13.21-5.316v119.043z" fill="#ACD9EA"/><path fill="#fff" d="M397.877 232.42l6.463 2.6-45.75 113.74-6.464-2.6zM316.4 269.426l2.6-6.455 122.327 49.27-2.6 6.454z"/></svg>