<svg xmlns="http://www.w3.org/2000/svg" width="100" height="100.016" viewBox="0 -0.008 100 100.016" enable-background="new 0 -0.008 100 100.016"><path fill="#23475F" d="M88.555-.008H83v.016c0 1.104-.896 2-2 2H19c-1.104 0-2-.896-2-2v-.016H4c-2.21 0-4 1.79-4 4v92.016c0 2.21 1.79 4 4 4h92c2.21 0 4-1.79 4-4v-84.49c.05-.09-11.436-11.455-11.445-11.526z"/><path fill="#1C3C50" d="M81.04 53.008H18.96c-1.104 0-2 .896-2 2v45h66.08v-45c0-1.106-.895-2-2-2zM19.083 43.008h61.834c1.104 0 2-.896 2-2V.548c-.235.84-1 1.46-1.917 1.46H19c-.916 0-1.68-.62-1.917-1.46v40.46c0 1.105.896 2 2 2z"/><path fill="#EBF0F1" d="M22 55.977h56c1.104 0 2 .896 2 2v37.03c0 1.105-.896 2-2 2H22c-1.104 0-2-.395-2-1.5v-37.53c0-1.105.896-2 2-2z"/><path fill="#BCC4C8" d="M25 77.008h50v1H25v-1zM25 87.008h50v1H25v-1z"/><path fill="#1C3C50" d="M7 84.008h3c1.104 0 2 .896 2 2v3c0 1.104-.896 2-2 2H7c-1.104 0-2-.896-2-2v-3c0-1.106.896-2 2-2zM90 84.008h3c1.104 0 2 .896 2 2v3c0 1.104-.896 2-2 2h-3c-1.104 0-2-.896-2-2v-3c0-1.106.896-2 2-2z"/><path fill="#BCC4C8" d="M37 1.98v36.027c0 1.104.896 2 2 2h39c1.104 0 2-.896 2-2V1.98c0 .008-42.982.008-43 0zM74 31.01c0 1.104-.896 2-2 2h-6c-1.104 0-2-.896-2-2V10.98c0-1.103.896-2 2-2h6c1.104 0 2 .897 2 2V31.01z"/><path fill="#FF9D00" d="M78 55.977H22c-1.104 0-2 .896-2 2v10.03h60v-10.03c0-1.105-.896-2-2-2z"/></svg>