<svg height="512" viewBox="0 0 512 512" width="512" xmlns="http://www.w3.org/2000/svg"><path d="M256 506.01C117.93 506.01 6 394.076 6 256 6 117.922 117.93 5.99 256 5.99c138.074 0 250 111.932 250 250.01 0 138.076-111.926 250.01-250 250.01z" fill="#EED8CF"/><path d="M306.842 101.098c0-.08.007-.156.007-.235-2.294-.463-4.72-.617-7.203-.378-8.308.847-14.19 5.79-17.482 12.46l-25.12-25.118-.18.183c-8.922-9.164-21.09-15.986-35.137-18.896-1.982 4.474-3.394 9.29-4.023 14.443-1.982 16.718 4.537 32.336 15.938 42.1l-.13.126 13.92 13.918c-.205-.084-.39-.155-.602-.243-35.162-15.215-72.175-3.647-66.627 64.17 2.015 18.795 8.292 36.17 20.183 48.05l-.24.238 18.663 18.662H118.52v43.495h.523l-.344.343 43.91 43.913v8.55h8.552l2.224 2.224h-69.49v43.488h.34l-.242.242 83.633 83.635c21.74 6.17 44.655 9.545 68.374 9.545 124.305 0 227.368-90.737 246.697-209.58L307.104 100.837l-.262.262z" opacity=".2" fill="#231F20"/><path d="M246.83 139.456c17.625 7.29 21.7 6.194 36.608-.073 35.077-15.387 72.18-3.98 66.953 63.866-3.54 34.276-21.097 64.033-61.517 64.113-8.206.026-16.113-1.17-23.45-3.41-7.298 2.28-15.213 3.505-23.452 3.53-40.385.074-58.09-29.593-61.768-63.858-5.548-67.816 31.464-79.384 66.628-64.17z" fill="#DC4225"/><path d="M221.728 69.113c31.69 6.567 53.928 32.99 50.508 61.484-.06.63-.192 1.26-.322 1.882-1.607-4.242-3.675-8.46-6.18-12.555-4.846-8.004-10.805-14.663-17.32-19.863 3.97 10.17 9.968 22.478 17.445 35.51-3.183.386-6.41.454-9.718.063-24.306-2.9-41.5-26.218-38.438-52.08.63-5.152 2.043-9.968 4.024-14.442z" fill="#103754"/><path d="M248.414 100.062c3.97 10.17 9.97 22.478 17.446 35.51-3.182.386-6.41.454-9.717.063-24.306-2.9-41.5-26.218-38.438-52.08.63-5.152 2.042-9.968 4.023-14.442" fill="#155079"/><path d="M306.85 100.863c.244 15.596-10.567 27.542-26.5 30.996-.306.065-1.34-5.695-1.16-7.828.92-11.76 7.963-22.275 20.457-23.547 2.482-.24 4.91-.085 7.202.378z" fill="#103754"/><path d="M265.13 144.493c-4.792-.076-10.068-1.63-18.3-5.038-35.164-15.215-72.177-3.647-66.63 64.17 3.68 34.264 21.384 63.93 61.77 63.856 8.126-.024 15.94-1.232 23.16-3.447v-119.54zM103.894 369.1h287.228v43.49H103.894z" fill="#EC632B"/><g fill="#155079"><path d="M137.8 380.692v20.31h-11.99v-20.31h11.99m7.762-7.764h-27.514v35.838h27.514v-35.838zM369.215 380.692v20.31h-11.99v-20.31h11.99m7.76-7.764h-27.513v35.838h27.514v-35.838z"/></g><path d="M330.764 380.692v20.31h-166.51v-20.31h166.51m7.762-7.764H156.49v35.838h182.036v-35.838zM118.52 270.576h263.286v43.495H118.52z" fill="#155079"/><path fill="#DC4225" d="M139.822 270.582h2.65v43.49h-2.65zM361.738 270.582h2.645v43.49h-2.645z"/><path d="M347.845 281.063v22.525H152.49v-22.525h195.355m2.66-2.663h-200.68v27.85h200.68V278.4z" fill="#fff"/><path fill="#DC4225" d="M162.61 315.403h255.624v51.474H162.61z"/><path fill="#fff" d="M178.588 315.403h42.995v51.474h-42.995zM230.51 315.403h7.988v51.48h-7.987z"/><path d="M406.754 356.225H373.91v-30.177h32.844v30.177zm-27.52-5.326h22.198v-19.526h-22.198V350.9z" fill="#EC632B"/></svg>