<svg xmlns="http://www.w3.org/2000/svg" width="100" height="100"><path fill-rule="evenodd" clip-rule="evenodd" fill="#2C3E50" d="M39.24 64.758c-2.35-2.352-6.165-2.352-8.518 0L8.764 86.718c-2.352 2.352-2.352 6.165 0 8.518 2.352 2.353 6.166 2.353 8.52 0L39.24 73.278c2.354-2.353 2.354-6.167 0-8.52z"/><path fill-rule="evenodd" clip-rule="evenodd" fill="#BDC2C7" d="M50.11 53.883c-1.177-1.177-3.086-1.177-4.263 0L34.883 64.848c-1.177 1.177-1.177 3.085 0 4.263s3.086 1.178 4.263 0L50.11 58.147c1.178-1.177 1.178-3.086 0-4.263z"/><path fill="#BDC2C7" d="M100 35.895c0 4.913-3.983 8.895-8.895 8.895H8.895C3.983 44.79 0 40.808 0 35.895 0 30.983 3.983 27 8.895 27h82.21c4.912 0 8.895 3.983 8.895 8.895z"/><circle fill="#D4D7DA" cx="9" cy="36" r="4"/><path fill="#ECF0F1" d="M68 65c-16.542 0-30-13.458-30-30S51.458 5 68 5s30 13.458 30 30-13.458 30-30 30z"/><path fill="#2C3E50" d="M68 7c15.44 0 28 12.56 28 28S83.44 63 68 63 40 50.44 40 35 52.56 7 68 7m0-4C50.327 3 36 17.327 36 35s14.327 32 32 32 32-14.327 32-32S85.673 3 68 3z"/><path clip-rule="evenodd" stroke="#fff" stroke-width="4" stroke-linecap="round" stroke-linejoin="round" stroke-miterlimit="10" stroke-dasharray="0,9,0" d="M68 13c12.15 0 22 9.85 22 22" fill="none"/></svg>