<svg height="128" viewBox="0 0 128 128" width="128" xmlns="http://www.w3.org/2000/svg"><circle cx="64" cy="64" fill="#D8984C" r="62"/><path fill="#050505" opacity=".2" d="M18.328 96.14l28.34-5.817 16.665 5.816 3.776-.005 26.39-5.787 18.47 5.79.78-.003-25.793-9.327-46.156-.183-25.79 9.51z"/><path fill="#F8F4E4" d="M83.96 36.44l6.39-2.776 2.392.326-.812-2.98-13.548-3.14 4.448 30.575 4.875-14.663z"/><path fill="#F5F7F8" stroke="#231F20" stroke-miterlimit="10" stroke-width=".02" d="M93.34 36.18l-.598-2.19-2.39-.326-6.39 2.777 3.743 7.342-4.875 14.663 3.695 25.395 21.94 7.793z"/><path fill="#020202" opacity=".1" d="M92.517 33.164l-3.853-.145-5.785 3.242-1.703 5.094-.715.812 6.063 41.672 21.94 7.793z"/><path fill="#6CA27A" d="M93.34 36.18l-.598-2.19-2.39-.326-6.39 2.777 3.743 7.342-4.875 14.663 3.695 25.395 21.94 7.793z"/><path fill="#F8F3F3" stroke="#919396" stroke-miterlimit="10" stroke-width=".02" d="M85.26 30.49l-6.727-1.583.07.49 6.76 1.6zM81.21 35.974l-1.71-.428.08.556 1.718.433z"/><path fill="#E9CF8D" stroke="#E47425" stroke-miterlimit="10" stroke-width=".242" d="M92.196 31.987l.26.96"/><path fill="#E9CF8D" d="M92.457 32.946l-.26-.96-6.965-1.627.013.058-.043-.024-2.493 2.698-3.698-.892.14.962 2.85.695-2.375 2.57.3 2.05 6.323-6.995z"/><path fill="#fff" d="M78.382 27.87l13.548 3.14 16.536 60.623-21.94-7.793.43 2.968 25.793 9.327L93.565 30.21 78.21 26.69z"/><path d="M93.566 30.21L78.21 26.69l.173 1.18.63 4.33.07.49.487 3.34.01.073.066.455.28 1.92.537 3.69 6.063 41.672.432 2.97 25.792 9.326L93.566 30.21z" fill="#070707" opacity=".1"/><path fill="#F8F4E4" d="M63.88 31.476v47.72l4.475-3.345 13.18-11.572 1.295-5.833-4.448-30.574z"/><path fill="#F5F7F8" stroke="#231F20" stroke-miterlimit="10" stroke-width=".02" d="M81.534 64.278L68.354 75.85l-4.475 3.346V92.81l22.645-8.97-3.695-25.395z"/><path fill="#020202" opacity=".1" d="M77.524 47.917l-9.38 15.547-4.265 6.216v23.13l22.645-8.97-6.063-41.672z"/><path fill="#6CA27A" d="M81.534 64.278L68.354 75.85l-4.475 3.346V92.81l22.645-8.97-3.695-25.395z"/><path fill="#F8F3F3" stroke="#919396" stroke-miterlimit="10" stroke-width=".02" d="M68.493 30.33l.732-.183"/><path fill="#F8F3F3" stroke="#919396" stroke-miterlimit="10" stroke-width=".02" d="M69.62 38.18l-.317-6.45 9.3-2.334-.07-.49-9.255 2.31-.053-1.07-.732.183.045 1.07-4.66 1.164v.526l4.68-1.174.27 6.475-4.95 1.32v.6l4.976-1.332.173 4.17-5.148 1.433v.655l5.174-1.448.25 6 .87-.256-.292-5.975 7.463-2.09-.07-.612-7.424 2.066-.203-4.155 9.933-2.663-.08-.556z"/><path fill="#E9CF8D" stroke="#E47425" stroke-miterlimit="10" stroke-width=".242" d="M74.85 28.75l1.3-.324"/><path fill="#E9CF8D" d="M77.59 40.19l-.784-6.412 2.346-.616-.14-.962-2.325.604-.536-4.378-1.3.323.48 4.406-11.45 2.974v1.038l11.557-3.03.91 8.35-2.94 5.432-9.528 2.81v1.338l8.626-2.57L63.88 62.52v2.71L74.1 49.484h.006l5.818-11.007-.3-2.05z"/><path fill="#fff" d="M63.88 92.81v3.325l23.077-9.327-.432-2.968zM78.21 26.69l-14.33 3.52v1.266L78.38 27.87z"/><path fill="#F8F4E4" d="M49.375 27.87l-8.142 55.97 6.715 2.66 3.827-7.054 12.104-.25v-47.72z"/><path fill="#F5F7F8" stroke="#231F20" stroke-miterlimit="10" stroke-width=".02" d="M51.775 79.446L47.948 86.5l15.93 6.31V79.197z"/><path fill="#020202" opacity=".1" d="M62.147 71.026l-6.773 6.414-13.813 4.146-.327 2.254 22.646 8.97V69.68z"/><path fill="#6CA27A" d="M51.775 79.446L47.948 86.5l15.93 6.31V79.197z"/><path fill="#A9D7B4" d="M62.276 36.216l-13.598-3.55-1.95 13.41 15.334 4.537z"/><path fill="#F3AA7A" d="M43.29 69.698l-.97 6.676L52.51 73z"/><path d="M44.927 69.75l.77.81 8.726-8.89 5.62 1.83 1.404 1.36.57-.552-1.647-1.583-.002-.002-3.592-3.45 5.617-5.722-.762-.628-5.596 5.64-6-5.763 8.7-2.297-.473-.735-8.943 2.344-3.043-2.922-.125.86 2.35 2.276-2.79.73-.133.92 3.635-.96 6.286 6.085-1.54 1.552-8.932-2.887-.118.81 8.398 2.734-8.38 8.44zm11.313-9.93l2.435 2.356-3.605-1.165 1.17-1.19zM62.233 39.266l-.01.595 1.656.45v-.6zM62.16 44.096l-.01.65 1.73.49v-.655zM49.23 28.86l-.07.49 14.72 3.74v-.526z" fill="#F8F3F3" stroke="#919396" stroke-miterlimit="10" stroke-width=".02"/><path fill="#E9CF8D" stroke="#E47425" stroke-miterlimit="10" stroke-width=".242" d="M61.758 30.95l1.368.34"/><path fill="#E9CF8D" d="M62.892 63.374l.084-11.575.903.268V50.73l-.894-.264.1-13.507.793.208V36.13l-.788-.204.034-4.637-1.368-.34-.095 4.605L48.746 32.2l-.14.962 13.036 3.42-.277 13.407-14.582-4.3-.18 1.23 14.735 4.39-.282 13.65-8.225 7.1-9.397-3.343-.257 1.763 7.592 2.736-8.357 2.525-.343 2.37 10.97-3.366.017.02.047-.04.062-.02-.012-.023 10.73-9.45v-2.708z"/><path fill="#E49390" d="M46.255 53.735l-.62 4.416 8.427 2.758 1.452-1.93-6.295-6.167z"/><path fill="#fff" d="M63.88 30.21l-14.333-3.52-.172 1.18 14.504 3.606zM41.233 83.84l-.432 2.968 23.08 9.327V92.81z"/><path fill="#020202" opacity=".1" d="M49.547 26.69l-.172 1.18-.144.99-.044.312-.503 3.458-.077.532-.268 1.843-1.61 11.07-.537 3.68-.04.295-1.124 7.714-.04.273-1.696 11.66-.432 2.973-.447 3.07-.034.24-.815 5.606-.327 2.254-.432 2.968 23.08 9.327V30.21z"/><path fill="#F8F4E4" d="M35.828 31.01L19.292 91.634l21.94-7.793 8.143-55.97z"/><path fill="#020202" opacity=".1" d="M37.726 85.085l3.507-1.245.328-2.254z"/><path fill="#A9D7B4" d="M44.16 33.763l-2.56 13.71 5.127-1.397 1.95-13.41z"/><path fill="#F3AA7A" d="M34.935 83.16l7.384-6.786.97-6.676-6.218 2.018z"/><path fill="#F8F3F3" stroke="#919396" stroke-miterlimit="10" stroke-width=".02" d="M25.28 89.506l-1.284.456M26.814 64.056l.24-.88"/><path fill="#F8F3F3" stroke="#919396" stroke-miterlimit="10" stroke-width=".02" d="M31.997 61.687l2.998-12.413-.943.255L30.95 62l-3.896 1.173-.24.88 3.92-1.186-6.738 27.092 1.284-.456 6.51-26.957 13.118-3.974.118-.812zM39.578 57.81l.445.497 5.555-4.332.133-.918zM41.99 48.032l-.628.714 4.787 1.304.124-.86zM32.023 44.963L42.265 42.3l.12-.623L32.2 44.31zM35.547 32.044l-.142.52L49.16 29.35l.07-.49zM33.36 40.06l9.79-2.44.112-.572-9.74 2.416z"/><path fill="#E9CF8D" stroke="#E47425" stroke-miterlimit="10" stroke-width=".242" d="M44.473 29.007l1.403-.325M32.187 87.053l-4.06 1.442M23.293 76.965l.525-1.926"/><path fill="#E9CF8D" d="M36.5 81.018l1.592-8.88 5.084-1.658.257-1.763-5.018 1.617 3.988-22.263 4.2-1.15.18-1.23-4.155 1.127 2.284-12.755 3.694-.9.14-.962-3.658.883.788-4.4-1.403.324-.852 4.43-9.05 2.186-.28 1.027 9.14-2.227L40.96 47.27l-10.33 2.806-.362 1.324 10.45-2.866-4.322 22.452-12.576 4.053-.525 1.925 12.75-4.158-2.003 10.408-5.913 5.28 4.06-1.442 9.88-8.944.344-2.37z"/><path fill="#fff" d="M19.292 91.633L35.828 31.01l13.547-3.14.172-1.18-15.355 3.52L15.01 96.134l4.694-1.698 21.097-7.63.433-2.967z"/><g stroke="#4D4D4D" stroke-linejoin="round" stroke-width="2" fill="none"><path d="M43.453 69.618l-1.19.383"/><path stroke-dasharray="1.5195,1.2156" d="M41.106 70.373l-2.025.652"/><path d="M38.502 71.21l-1.19.384-.232 1.228"/><path stroke-dasharray="2.1477,1.7181" d="M36.76 74.51l-1.275 6.753"/><path d="M35.326 82.107l-.232 1.23.938-.827"/><path stroke-dasharray="2.4268,1.9414" d="M37.49 81.227l4.988-4.39 10.35-3.212 9.156-8.094L63.848 64l9.777-14.96 3.516-6.743-.302-2.576"/><path d="M76.724 38.757l-.146-1.24 1.633-.47"/></g><path d="M44.19 12.138c-10.702 0-19.376 8.674-19.376 19.375 0 2.874.787 6.172 2.118 8.72l.172.308 16.17 29.053s.26.675.915.675c.62 0 .913-.675.913-.675l16.262-29.215c1.437-2.715 2.2-5.99 2.2-8.865 0-10.7-8.676-19.375-19.376-19.375zm-.012 34.44c-8.284 0-15-6.716-15-15 0-8.284 6.716-15 15-15 8.284 0 15 6.716 15 15 0 8.284-6.716 15-15 15z" fill="#D04946"/><circle cx="44.178" cy="31.578" fill="#F5F7F8" r="15"/><path d="M77.987 9.113c-5.243 0-9.494 4.25-9.494 9.494 0 1.408.386 3.024 1.038 4.272l.085.15 7.924 14.236s.126.33.447.33c.305 0 .448-.33.448-.33l7.968-14.315c.704-1.33 1.078-2.935 1.078-4.343 0-5.244-4.25-9.494-9.493-9.494zM77.98 25.99c-4.058 0-7.35-3.292-7.35-7.35 0-4.06 3.292-7.35 7.35-7.35 4.06 0 7.35 3.29 7.35 7.35 0 4.058-3.29 7.35-7.35 7.35z" fill="#689EAD"/><circle cx="77.981" cy="18.639" fill="#F5F7F8" r="7.35"/><path d="M49.866 38.57l-1.094-2.875H39.46l-1.094 2.938c-.428 1.146-.792 1.92-1.094 2.32-.303.4-.797.602-1.484.602-.584 0-1.1-.214-1.547-.64-.447-.428-.67-.912-.67-1.454 0-.31.05-.634.155-.968.104-.333.275-.797.516-1.39l5.86-14.876.602-1.54c.234-.598.484-1.095.75-1.49.266-.397.614-.717 1.047-.962.43-.245.965-.367 1.6-.367.647 0 1.186.123 1.618.367.432.245.78.56 1.047.945.266.385.49.8.672 1.24.182.444.414 1.035.695 1.774l5.984 14.78c.47 1.126.703 1.944.703 2.454 0 .53-.223 1.02-.665 1.46-.443.443-.977.665-1.602.665-.365 0-.678-.065-.938-.195-.26-.13-.48-.307-.656-.53-.18-.225-.368-.568-.57-1.032-.203-.463-.378-.872-.524-1.226zm-9.187-6.36h6.843l-3.453-9.453-3.39 9.453zM78.573 24.185h-3.325c-.48 0-.823-.107-1.028-.323s-.308-.558-.308-1.028v-8.18c0-.48.104-.824.315-1.034.21-.21.55-.315 1.02-.315h3.526c.52 0 .97.032 1.35.096.382.065.724.19 1.025.372.257.154.484.348.683.583.2.235.35.495.454.78.104.283.155.584.155.9 0 1.09-.545 1.885-1.634 2.39 1.43.455 2.146 1.34 2.146 2.657 0 .61-.156 1.157-.468 1.644s-.732.848-1.262 1.08c-.332.14-.713.236-1.144.293-.43.056-.932.085-1.505.085zm-2.457-9.226v2.812h2.02c.55 0 .973-.052 1.272-.156.3-.104.527-.302.687-.594.123-.208.186-.44.186-.698 0-.55-.195-.914-.586-1.095s-.987-.272-1.788-.272h-1.79zm2.293 4.393h-2.294v3.176h2.367c1.49 0 2.234-.538 2.234-1.61 0-.55-.193-.948-.58-1.196s-.96-.37-1.728-.37z" fill="#3F4449"/></svg>