<svg xmlns="http://www.w3.org/2000/svg" width="100" height="100" viewBox="0 0 100 100"><path fill-rule="evenodd" clip-rule="evenodd" fill="#BDC3C7" d="M97.55 85.718L45.407 33.574c-4.588-4.587 3.054-15.538-5.73-24.32L23.665 0l-3.38 3.38 8.83 8.83c3.382 3.38.85 10.984-2.544 14.378-3.367 3.367-10.977 5.906-14.357 2.525l-8.833-8.83L0 23.663 9.254 39.68c8.734 8.735 19.87 1.277 24.32 5.73C37.315 49.145 85.72 97.55 85.72 97.55c3.268 3.268 8.564 3.268 11.832 0s3.267-8.565 0-11.832zm-3.38 8.45c-1.4 1.402-3.67 1.402-5.07 0-1.4-1.4-1.4-3.67 0-5.07s3.67-1.398 5.07 0 1.4 3.67 0 5.07z"/><path fill="#95A5A6" d="M33.682 12.334L22.512 1.15l-2.23 2.23 8.833 8.83c3.38 3.38.85 10.984-2.545 14.378-3.367 3.367-10.977 5.906-14.357 2.525l-8.833-8.83-1.975 1.975 11.177 11.19c1.524 1.525 3.914 2.332 6.91 2.332 4.493 0 9.454-1.824 12.064-4.437 4.417-4.42 6.31-14.822 2.126-19.01zM95.746 87.95L45.776 37.97c-1.043-1.042-2.427-1.615-3.9-1.615s-2.856.574-3.897 1.615c-2.15 2.15-2.15 5.648 0 7.798l49.97 49.976c1.04 1.042 2.426 1.615 3.898 1.615s2.857-.572 3.898-1.614c2.15-2.148 2.15-5.646 0-7.797zm-1.577 6.22c-1.4 1.4-3.67 1.4-5.07 0-1.4-1.4-1.4-3.672 0-5.07s3.67-1.4 5.07 0 1.4 3.67 0 5.07z"/><path fill-rule="evenodd" clip-rule="evenodd" fill="#ECF0F1" d="M80 14L93 4l7 7-10 13h-5L55 54l-5-5 30-30v-5z"/><path fill-rule="evenodd" clip-rule="evenodd" fill="#BDC3C7" d="M52.5 51.5L55 54l30-30h5l10-13-3.5-3.5z"/><path fill-rule="evenodd" clip-rule="evenodd" fill="#D35400" d="M42.51 46.095l.854.845L5.768 84.16c-2.356 2.333-2.356 6.115 0 8.448l5.12 5.068c2.355 2.332 5.17 3.326 7.525.994l38.603-38.216.853.845c.94.932 2.47.932 3.412 0s.942-2.447 0-3.38l-15.36-15.204c-.94-.933-2.47-.933-3.412 0s-.943 2.446 0 3.38z"/><path fill-rule="evenodd" clip-rule="evenodd" fill="#E66612" d="M50.25 53.75L8.594 95.406l2.293 2.27c2.356 2.333 5.17 3.327 7.526.995l38.573-38.185-6.736-6.735z"/></svg>