<svg xmlns="http://www.w3.org/2000/svg" width="100" height="100"><path fill-rule="evenodd" clip-rule="evenodd" fill="#ECF0F1" d="M83.005 65.265C71.94 87.008 50 100 50 100S28.06 87.008 16.995 65.265C5.565 42.805 5 15.785 5 15.785L50 0l45 15.784s-.566 27.022-11.995 49.48z"/><path fill-rule="evenodd" clip-rule="evenodd" fill="#E64C3C" d="M49.99 87c-6.456-4.8-17.698-14.432-24.24-27.342-6.673-13.166-9.256-28.423-10.244-37.38L50 10.128l34.494 12.15c-.987 8.95-3.57 24.21-10.243 37.38C67.74 72.504 56.45 82.183 49.99 87z"/><path fill-rule="evenodd" clip-rule="evenodd" fill="#fff" d="M62.79 46.04c2.943-2.983 2.94-7.818 0-10.802-1.505-1.523-3.487-2.268-5.458-2.236-2.757.047-7.304 3.746-7.304 3.746s-4.675-3.75-7.5-3.747c-1.925.005-3.848.75-5.317 2.238-2.94 2.984-2.943 7.82 0 10.803L50 59l12.79-12.96z"/><path opacity=".08" fill-rule="evenodd" clip-rule="evenodd" d="M50 0L5 15.784s.566 27.022 11.995 49.48C28.06 87.01 50 100 50 100V0z"/></svg>