<svg xmlns="http://www.w3.org/2000/svg" xmlns:xlink="http://www.w3.org/1999/xlink" width="100" height="100"><path fill="#2980BA" d="M50 0c27.613 0 50 22.386 50 50s-22.387 50-50 50C22.386 100 0 77.614 0 50S22.386 0 50 0z"/><defs><circle id="a" cx="50" cy="50" r="50"/></defs><clipPath id="b"><use xlink:href="#a" overflow="visible"/></clipPath><g clip-path="url(#b)"><path fill="#2D3E50" d="M-15 17h133v87H-15V17z"/><path fill="#EDF0F1" d="M51 17v95h32V17H51zm-34 95h32V17H17v95z"/><path fill="#E64B3C" d="M73 26H27l18.095 21.905L38 55v48h24V55l-7.098-7.098z"/><path fill="#D5D9D8" d="M26 17l.05 36L50 29l.082-12H26zM74 17l-.05 36-23.857-24-.08-12H74z"/><path fill="#C03A2B" d="M73 26H27l11.77 14.25 11.275-11.294 11.203 11.266z"/><path fill="#fff" d="M69 12v5H31v-5l-5 5v33l24-24 24 24V17z"/><path fill="#C03A2B" d="M56 49l-1.098-1.098.744-.902h-11.3l.75.905L44 49z"/><path fill="#DE9273" d="M31-1v19.674h.045c.24 1.587 2.065 3.15 5.517 4.362 7.42 2.606 19.452 2.606 26.872 0 3.45-1.212 5.274-2.775 5.518-4.362H69V-1H31z"/><path fill="#BE7C63" d="M69-1s.014 4.435-.018 4.467C65.708 6.877 61.102 9 56 9H44c-5.122 0-9.744-2.14-13.022-5.573C31.002 3.452 31-1 31-1h38z"/><path fill="#E39D82" d="M50-1v25.99c4.86 0 9.725-.65 13.434-1.954 3.45-1.212 5.274-2.775 5.518-4.362H69V-1H50z"/><path fill="#C0866E" d="M56 9c5.102 0 9.708-2.123 12.982-5.533.01-.01.015-.395.018-.93V-1H50V9h6z"/></g></svg>