<svg xmlns="http://www.w3.org/2000/svg" xmlns:xlink="http://www.w3.org/1999/xlink" width="100" height="100"><path fill="#E64B3C" d="M50 0c27.613 0 50 22.386 50 50s-22.387 50-50 50C22.386 100 0 77.614 0 50S22.386 0 50 0z"/><defs><circle id="a" cx="50" cy="50" r="50"/></defs><clipPath id="b"><use xlink:href="#a" overflow="visible"/></clipPath><g clip-path="url(#b)"><path fill="#C03A2B" d="M35 25l-67 67 27 27h57V29l-17-4z"/><path fill="#EBECED" d="M50 20c14.36 0 26 11.64 26 26v43c0 14.36-11.64 26-26 26s-26-11.64-26-26V46c0-14.36 11.64-26 26-26z"/><path fill="#A1A5A9" d="M46 43h8c1.657 0 3 1.343 3 3v13c0 1.657-1.343 3-3 3h-8c-1.657 0-3-1.343-3-3V46c0-1.657 1.343-3 3-3z"/><path fill="#2D3E50" d="M50 45c.553 0 1 .447 1 1s-.447 1-1 1c-.552 0-1-.447-1-1s.448-1 1-1z"/><path fill="#BDC2C7" d="M51 49H36v3h10v4c0 1.657 1.343 3 3 3h2c1.657 0 3-1.343 3-3v-4h10v-3H51z"/><path fill="#2D3E50" d="M50 53c1.104 0 2 .896 2 2s-.896 2-2 2-2-.896-2-2 .896-2 2-2z"/><path fill="#35495E" d="M66 43h4c1.657 0 3 1.343 3 3v9c0 1.657-1.343 3-3 3h-4c-1.657 0-3-1.343-3-3v-9c0-1.657 1.343-3 3-3z"/><path fill="#2D3E50" d="M66 43h4v15h-4V43z"/><path fill="#35495E" d="M30 43h4c1.657 0 3 1.343 3 3v9c0 1.657-1.343 3-3 3h-4c-1.657 0-3-1.343-3-3v-9c0-1.657 1.343-3 3-3z"/><path fill="#2D3E50" d="M30 43h4v15h-4V43z"/><path fill="#F29C1F" d="M50 69c-6.075 0-11 4.925-11 11 0 3.86 1.992 7.25 5 9.213V91.5c0 .828.67 1.5 1.5 1.5s1.5-.672 1.5-1.5c0 .828.67 1.5 1.5 1.5s1.5-.672 1.5-1.5c0 .828.672 1.5 1.5 1.5s1.5-.672 1.5-1.5c0 .828.672 1.5 1.5 1.5s1.5-.672 1.5-1.5v-2.287c3.008-1.963 5-5.354 5-9.213 0-6.075-4.925-11-11-11zm-3.5 14c-1.38 0-2.5-1.12-2.5-2.5s1.12-2.5 2.5-2.5 2.5 1.12 2.5 2.5-1.12 2.5-2.5 2.5zm7 0c-1.38 0-2.5-1.12-2.5-2.5s1.12-2.5 2.5-2.5 2.5 1.12 2.5 2.5-1.12 2.5-2.5 2.5z"/><path fill="#919598" d="M37 53h9v-2h-9v2zm17-2v2h9v-2h-9z"/><g fill="#D4D5D6"><path d="M37 51h6v2h-6zM57 51h6v2h-6z"/></g><g fill="#AAAFB4"><path d="M54 51h9v1h-9zM37 51h9v1h-9z"/></g></g></svg>