<svg xmlns="http://www.w3.org/2000/svg" width="100" height="100"><circle fill="#33495F" cx="50" cy="50" r="50"/><clipPath><circle cx="50" cy="50" r="50"/></clipPath><clipPath id="a"><path d="M100 50c0 27.614-22.387 50-50 50-27.614 0-50-22.386-50-50S22.386 0 50 0h50v50z"/></clipPath><g clip-path="url(#a )" fill="#fff"><path opacity=".2" clip-path="url(#a)" enable-background="new" d="M31 19.5c2.55-.45 4.05-1.95 4.5-4.5.45 2.55 1.95 4.05 4.5 4.5-2.55.45-4.05 1.95-4.5 4.5-.45-2.55-1.95-4.05-4.5-4.5z"/><path opacity=".1" clip-path="url(#a)" enable-background="new" d="M71 74.5c2.55-.45 4.05-1.95 4.5-4.5.45 2.55 1.95 4.05 4.5 4.5-2.55.45-4.05 1.95-4.5 4.5-.45-2.55-1.95-4.05-4.5-4.5zM11 64.5c2.55-.45 4.05-1.95 4.5-4.5.45 2.55 1.95 4.05 4.5 4.5-2.55.45-4.05 1.95-4.5 4.5-.45-2.55-1.95-4.05-4.5-4.5z"/></g><g clip-path="url(#a)"><path fill="#E94B35" d="M100 .1c-.156.018-.117.058-.1-.1-23.316 2.98-36.54 12.28-44.035 22.035-.268.35-.528.698-.782 1.047l-.008.01C47.015 34.196 46.087 45.812 46 49h-1l-1 3 4 4 3-1v-1c1.152-.02 3.74-.11 7.066-.773l.002.002c.73-.183.932.075.932 3.77v9c0 1.81.943 2.497 1.945 1.494 2.423-2.428 3.003-3.023 8.5-8.528 4.16-4.167 4.676-6.595 2.957-11.06C83.952 41.37 96.432 27.89 100 .1z"/><path fill="#C23824" d="M48 56l-4-4 1-3h2l4 4v2l-3 1zm4-28c-1.718-.69-2-1-4-1s-4.183 1.38-6.86 4.063c-4.255 4.26-4.85 4.84-8.517 8.508-1.198 1.2.64 1.43 3.377 1.43 5.233 0 9.297-.125 10.79 1.42C48.765 44.46 52 28 52 28zM100 0c-.64 4.973-1.566 9.58-2.72 13.678-1.05-1.97-2.563-4.364-4.5-6.272-2.152-2.12-4.813-3.632-6.827-4.585C91.98 1.09 96.783.413 100 0z"/><path opacity=".3" fill="#fff" enable-background="new" d="M72.402 47.907c1.72 4.463 1.312 6.788-2.854 10.954-.844.845-7.828 7.86-8.604 8.634C59.94 68.496 59.034 67.81 59 66v-.652c3-3 9.69-8.938 11-11.348.768-1.41.352-3.654 0-5-3.312 1.76-11.516 4.094-11.932 4.23-3.162.645-5.6.713-7.068.77v-.656S80.975 43.68 100 0c-3.594 28.047-16.047 41.37-27.598 47.907z"/><path fill="#fff" d="M77.5 28c-3.584 0-6.5-2.916-6.5-6.5s2.916-6.5 6.5-6.5 6.5 2.916 6.5 6.5-2.916 6.5-6.5 6.5z"/><path fill="#C23824" d="M77.5 16c3.037 0 5.5 2.462 5.5 5.5S80.537 27 77.5 27 72 24.538 72 21.5s2.463-5.5 5.5-5.5m0-2c-4.137 0-7.5 3.364-7.5 7.5s3.363 7.5 7.5 7.5 7.5-3.364 7.5-7.5-3.363-7.5-7.5-7.5z"/><path fill="#D7DCDE" d="M44 52l4 4-35 36-6-6 37-34z"/><path fill="#F7F7F7" d="M43.875 52l2 2L7.5 91.5l-3-3L43.875 52z"/></g></svg>