<svg xmlns="http://www.w3.org/2000/svg" xmlns:xlink="http://www.w3.org/1999/xlink" width="100" height="100"><path fill="#34495E" d="M50 0c27.613 0 50 22.386 50 50s-22.387 50-50 50C22.386 100 0 77.614 0 50S22.386 0 50 0z"/><defs><circle id="a" cx="50" cy="50" r="50"/></defs><clipPath id="b"><use xlink:href="#a" overflow="visible"/></clipPath><g clip-path="url(#b)"><path fill="#1ABC9C" d="M20 66h60v64H20V66z"/><path fill="#17A085" d="M20 71h30v59H20V71z"/><path fill="#FFF55C" d="M50 86c12.15 0 22 9.85 22 22s-9.85 22-22 22-22-9.85-22-22 9.85-22 22-22z"/><path fill="#E5DC52" d="M50 86c.008.023-.005 44.037 0 44-12.15 0-22-9.85-22-22s9.85-22 22-22z"/><path fill="#687786" d="M34 24h32c2.21 0 4 1.79 4 4v21c0 2.21-1.79 4-4 4H34c-2.21 0-4-1.79-4-4V28c0-2.21 1.79-4 4-4z"/><path fill="#fff" d="M45 34h10c2.21 0 4 1.79 4 4v16c0 2.21-1.79 4-4 4H45c-2.21 0-4-1.79-4-4V38c0-2.21 1.79-4 4-4z"/><path fill="#EBEDEE" d="M40 48h20c11.046 0 20 8.954 20 20H20c0-11.046 8.954-20 20-20z"/><path fill="#BDC3C7" d="M20 67h60c1.104 0 2 .896 2 2s-.896 2-2 2H20c-1.104 0-2-.896-2-2s.896-2 2-2zM31 48h38c2.016 0 3 4 3 4H28s.954-4 3-4z"/><path fill="#AAAFB3" d="M20 67c-1.104 0-2 .896-2 2s.896 2 2 2h30v-4H20z"/><path fill="#D3D5D6" d="M50 67V52H28.036c-4.62 3.46-7.68 8.86-7.986 15H50z"/><path fill="#AAAFB3" d="M31 48c-2.046 0-3 4-3 4h22v-4H31z"/><path fill="#E5E5E5" d="M50 34h-5c-2.21 0-4 1.79-4 4v10h9V34z"/><path fill="#E74C3C" d="M50 39c1.657 0 3 1.343 3 3s-1.343 3-3 3-3-1.343-3-3 1.343-3 3-3z"/></g></svg>