<svg xmlns="http://www.w3.org/2000/svg" width="100.208" height="83"><path fill="#3B97D3" d="M86.786 28.94c.145-.946.243-1.905.243-2.89 0-10.47-8.49-18.957-18.958-18.957-3.696 0-7.13 1.075-10.046 2.904-4.56-6.007-11.77-9.89-19.888-9.89-13.777 0-24.945 11.17-24.945 24.946 0 1.314.104 2.604.3 3.864C5.8 31.334.222 38.517.222 47.007c0 10.47 8.487 18.956 18.952 18.956h61.863c10.475 0 18.963-8.486 18.963-18.957 0-8.467-5.55-15.633-13.214-18.067z"/><path fill="#66B5E4" d="M21.11 53h57.783v30H21.11V53z"/><path fill="#53A4DB" d="M34.035 69h32l-14 14H21.14l-.03-.968L34.034 69z"/><path fill="#6BC9F2" d="M67.993 41.99L78.893 53H21.11l10.886-10.992 35.997-.018z"/><path fill="#EBECED" d="M29.003 26h41.955l.045 7.986V50h-42V26z"/><g fill="#2880BA"><circle cx="65.502" cy="68" r="3"/><circle cx="34.502" cy="68" r="3"/></g><path fill="#BDC2C7" d="M39.003 33v2h22v-2h-22zm0 6h22v-2h-22v2zm0 4h22v-2h-22v2z"/><path fill="#DADADB" d="M29.003 50v-2h42v2h-42z"/><path fill="#EBECED" d="M36.003 66h28c1.104 0 2 .896 2 2s-.896 2-2 2h-28c-1.104 0-2-.896-2-2s.896-2 2-2z"/><path fill="#DADADB" d="M66.002 68h-32c0 1.104.896 2 2 2h28c1.105 0 2-.896 2-2z"/></svg>