<svg xmlns="http://www.w3.org/2000/svg" width="512" height="512" viewBox="0 0 512 512"><path d="M512 255.998C512 397.38 397.384 512 256 512 114.614 512 0 397.38 0 255.998 0 114.618 114.614 0 256 0c141.384 0 256 114.62 256 255.998z" fill="#334D5C"/><path d="M134.338 105.685c0 14.165-11.472 25.616-25.63 25.616-14.157 0-25.634-11.45-25.634-25.615 0-14.143 11.477-25.615 25.635-25.615 14.156 0 25.628 11.472 25.628 25.615zM146.277 154.29c0 8.513-6.895 15.39-15.398 15.39-8.505 0-15.4-6.877-15.4-15.39 0-8.498 6.895-15.388 15.4-15.388 8.502 0 15.397 6.89 15.397 15.388z" fill="#4E6F7C"/><path d="M197.738 171.78c-3.368 0-6.098-2.732-6.098-6.1V111.68c0-7.062-2.353-9.33-9.683-9.33h-7.59c-3.368 0-6.1-2.73-6.1-6.1 0-3.367 2.73-6.097 6.1-6.097h7.59c14.11 0 21.88 7.647 21.88 21.527v54.003c0 3.37-2.73 6.1-6.1 6.1z" fill="#152730"/><path d="M299.752 262.715l-43.01-114.34c-.074-.222-.15-.442-.244-.652l-.202-.535h-.086c-1.122-1.928-3.19-3.24-5.58-3.24h-79.625c-3.578 0-6.478 2.9-6.478 6.48v62.623c0 .77.158 1.496.402 2.177v47.488H299.75z" fill="#EFC84A"/><path d="M171.61 198.318c-.894 0-1.62-.726-1.62-1.622v-40.728c0-4.09 3.328-7.416 7.42-7.416.896 0 1.62.72 1.62 1.617s-.724 1.62-1.62 1.62c-2.303 0-4.18 1.875-4.18 4.18v40.727c0 .895-.725 1.62-1.62 1.62z" fill="#FCF3D9"/><path d="M164.526 213.05c0 .77.158 1.496.402 2.177v47.488h134.824l-23.1-61.407H164.526v11.743z" fill="#D7B441"/><path d="M265.39 180.438c0 1.873-1.517 3.392-3.39 3.392h-65.076c-1.87 0-3.388-1.52-3.388-3.392 0-1.873 1.52-3.39 3.388-3.39H262c1.873 0 3.39 1.517 3.39 3.39z" fill="#9B7713"/><path d="M320.695 209.424v-.29H143.232c-48.646 0-88.08 39.44-88.08 88.085 0 48.636 39.434 88.075 88.08 88.075 2.606 0 5.182-.136 7.73-.36h148.86c3.673.224 7.376.36 11.128.36 69.99 0 126.728-39.44 126.728-88.076 0-46.365-51.552-84.336-116.983-87.796zM320.695 209.424v-.29H143.232c-48.646 0-88.08 39.44-88.08 88.085 0 48.636 39.434 88.075 88.08 88.075 2.606 0 5.182-.136 7.73-.36h148.86c3.673.224 7.376.36 11.128.36 69.99 0 126.728-39.44 126.728-88.076 0-46.365-51.552-84.336-116.983-87.796z" fill="#EFC84A"/><path d="M81.303 302.075c-2.684 0-4.86-2.176-4.86-4.856 0-40.897 33.267-74.165 74.16-74.165 2.682 0 4.857 2.18 4.857 4.86 0 2.682-2.175 4.86-4.858 4.86-35.533 0-64.44 28.906-64.44 64.443 0 2.68-2.176 4.857-4.86 4.857z" fill="#FCF3D9"/><path d="M429.06 265.28c.223 2.077.37 4.176.37 6.3 0 46.543-54.294 84.28-121.264 84.28-3.59 0-7.134-.132-10.645-.343H155.08c-2.44.21-4.902.343-7.397.343-46.55 0-84.28-37.737-84.28-84.28 0-4.773.418-9.44 1.18-14-6.02 11.918-9.43 25.373-9.43 39.64 0 48.636 39.434 88.075 88.08 88.075 2.606 0 5.182-.136 7.73-.36h148.86c3.673.224 7.376.36 11.128.36 69.99 0 126.73-39.44 126.73-88.076 0-11.275-3.068-22.04-8.62-31.94z" fill="#D7B441"/><circle cx="153.649" cy="300.896" r="31.671" fill="#C6A036"/><circle cx="243.531" cy="300.896" r="31.671" fill="#C6A036"/><circle cx="333.413" cy="300.896" r="31.671" fill="#C6A036"/><circle cx="239.425" cy="296.725" r="31.672" fill="#9B7713"/><circle cx="239.426" cy="296.725" r="24.754" fill="#1F96B2"/><circle cx="329.081" cy="296.725" r="31.671" fill="#9B7713"/><path d="M304.325 296.725c0-13.67 11.086-24.753 24.755-24.753 13.673 0 24.755 11.082 24.755 24.753 0 13.668-11.082 24.753-24.755 24.753-13.67 0-24.755-11.085-24.755-24.753z" fill="#1F96B2"/><path d="M434.626 295.24c0 1.556-1.26 2.81-2.81 2.81h-42.072c-1.554 0-2.81-1.255-2.81-2.81 0-1.55 1.256-2.81 2.81-2.81h42.072c1.55 0 2.81 1.26 2.81 2.81z" fill="#9B7713"/><path d="M446.23 238.944c-.036-.01-.07-.02-.105-.02-4.913 0-8.895 11.018-8.895 24.604 0 13.58 3.98 24.594 8.895 24.594.035 0 .068-.015.104-.015v-49.163zM446.23 303.18c-.036 0-.07-.01-.105-.01-4.913 0-8.895 11.008-8.895 24.595 0 13.58 3.98 24.6 8.895 24.6.035 0 .068-.02.104-.02V303.18z" fill="#EFC84A"/><path d="M457.61 291.705c0 2.16-1.752 3.914-3.92 3.914-2.16 0-3.912-1.755-3.912-3.915s1.752-3.91 3.913-3.91c2.168 0 3.92 1.75 3.92 3.91z" fill="#9ACAE2"/><circle cx="463.545" cy="298.993" r="5.802" fill="#9ACAE2"/><path d="M479.468 287.25c0 3.95-3.198 7.148-7.148 7.148-3.95 0-7.156-3.197-7.156-7.148 0-3.945 3.205-7.147 7.156-7.147 3.95 0 7.148 3.202 7.148 7.147zM492.545 303.88c0 5.21-4.216 9.423-9.427 9.423-5.208 0-9.43-4.213-9.43-9.424 0-5.202 4.222-9.425 9.43-9.425 5.21 0 9.427 4.223 9.427 9.424z" fill="#9ACAE2"/><circle cx="149.77" cy="296.725" r="31.671" fill="#9B7713"/><circle cx="149.77" cy="296.725" r="24.755" fill="#1F96B2"/><path d="M169.194 96.214c0-2.88 2.337-5.22 5.22-5.22 2.884 0 5.22 2.34 5.22 5.22 0 2.883-2.336 5.22-5.22 5.22-2.882 0-5.22-2.337-5.22-5.22z" fill="#1F96B2"/></svg>