<svg xmlns="http://www.w3.org/2000/svg" xmlns:xlink="http://www.w3.org/1999/xlink" width="100" height="100"><path fill="#EBEEEF" d="M50 0c27.613 0 50 22.386 50 50s-22.387 50-50 50C22.386 100 0 77.614 0 50S22.386 0 50 0z"/><defs><circle id="a" cx="50" cy="50" r="50"/></defs><clipPath id="b"><use xlink:href="#a" overflow="visible"/></clipPath><g clip-path="url(#b)"><path fill="#F1C40E" d="M45 61h10c11.046 0 20 8.954 20 20v8c0 11.046-8.954 20-20 20H45c-11.046 0-20-8.954-20-20v-8c0-11.046 8.954-20 20-20z"/><path fill="#FFF55C" d="M49.865 79.994c-2.042 0-3.863 1.538-3.863 3.152 0 .685.51 1.19 1.24 1.19.847 0 1.152-.504 1.38-.985.244-.518.44-.962 1.335-.962.793 0 1.398.377 1.398 1.06 0 .59-.7.8-1.318 1.268-.72.546-1.535 1.166-1.535 2.226 0 .606.43 1.223 1.224 1.223.89 0 1.088-.49 1.25-.907.06-.157.116-.308.207-.438.125-.178.436-.396.764-.625.867-.608 2.057-1.44 2.057-2.938 0-2.41-2.23-3.263-4.14-3.263zm-.1 9.126c-.78 0-1.412.646-1.412 1.438 0 .797.632 1.44 1.412 1.44.78 0 1.41-.647 1.41-1.44s-.63-1.438-1.41-1.438zM51 53c7.732 0 14 4.48 14 10s-6.268 10-14 10-14-4.48-14-10 6.268-10 14-10z"/><path fill="#4D301A" d="M33 47h36c1.104 0 2 .896 2 2v11c0 1.104-.896 2-2 2H33c-1.104 0-2-.896-2-2V49c0-1.104.896-2 2-2z"/><path fill="#DF9274" d="M51 19c11.046 0 20 11.193 20 25 0 13.81-8.954 25-20 25S31 57.81 31 44c0-13.807 8.954-25 20-25z"/><path fill="#fff" d="M43.5 43c1.933 0 3.5 1.567 3.5 3.5S45.433 50 43.5 50 40 48.433 40 46.5s1.567-3.5 3.5-3.5z"/><path fill="#3498DB" d="M43.5 45c.83 0 1.5.672 1.5 1.5 0 .83-.67 1.5-1.5 1.5s-1.5-.67-1.5-1.5c0-.828.67-1.5 1.5-1.5z"/><path fill="#fff" d="M57.5 43c1.934 0 3.5 1.567 3.5 3.5S59.434 50 57.5 50 54 48.433 54 46.5s1.566-3.5 3.5-3.5z"/><path fill="#3498DB" d="M57.5 45c.828 0 1.5.672 1.5 1.5 0 .83-.672 1.5-1.5 1.5s-1.5-.67-1.5-1.5c0-.828.672-1.5 1.5-1.5z"/><path fill="#4D301A" d="M70.62 39.143C68.81 27.66 60.715 19 51 19c-10.006 0-18.296 9.186-19.768 21.18 1.56.523 11.375 3.338 23.86-5.73 2.588 2.925 7.728 7.18 15.527 4.693z"/><path fill="#C0392C" d="M70.027 37c-1.202.008-.996 3.358-.996 7.5 0 .835-.01 1.637-.02 2.388-1.044 1.618-3.776 5.537-7.024 7.566-2.707 1.692-6.332 2.837-8.23 3.364C53.296 56.748 52.236 56 51 56c-1.657 0-3 1.343-3 3s1.343 3 3 3c1.39 0 2.55-.952 2.89-2.236 1.27-.306 5.732-1.474 8.917-3.463 2.562-1.602 4.854-4.362 6.262-6.293.1 1.233.352 1.993.957 1.993 3.3 0 5.973-3.358 5.973-7.5s-2.674-7.522-5.973-7.5zM32 37c-3.313-.022-6 3.358-6 7.5s2.687 7.5 6 7.5c1.283 0 1-3.358 1-7.5s.207-7.492-1-7.5z"/></g></svg>