<svg xmlns="http://www.w3.org/2000/svg" width="512" height="512.075" viewBox="0 0 512 512.075"><circle cx="256" cy="256" r="256" fill="#334D5C"/><path d="M170.842 49.604c-6.604 0-12.78 1.824-18.06 4.987 15.815 3.034 27.66 15.406 27.66 30.215 0 14.808-11.845 27.18-27.66 30.213 5.28 3.163 11.457 4.986 18.06 4.986 19.44 0 35.2-15.76 35.2-35.2 0-19.44-15.76-35.2-35.2-35.2z" fill="#EFD378"/><path d="M195.435 125.827c0 5.184-4.203 9.387-9.387 9.387H91.82c-5.183 0-9.386-4.203-9.386-9.387v-.227c0-5.184 4.203-9.387 9.387-9.387h94.228c5.184 0 9.387 4.203 9.387 9.387v.227zM149.435 113.823c0 4.634-3.756 8.39-8.39 8.39h-70.22c-4.635 0-8.39-3.756-8.39-8.39v-.22c0-4.633 3.755-8.39 8.39-8.39h70.22c4.634 0 8.39 3.757 8.39 8.39v.22zM473.435 136.827c0 5.184-4.203 9.387-9.387 9.387H369.82c-5.183 0-9.386-4.203-9.386-9.387v-.227c0-5.184 4.203-9.387 9.387-9.387h94.228c5.184 0 9.387 4.203 9.387 9.387v.227zM427.435 123.823c0 4.634-3.757 8.39-8.39 8.39h-70.22c-4.634 0-8.39-3.756-8.39-8.39v-.22c0-4.633 3.756-8.39 8.39-8.39h70.22c4.633 0 8.39 3.757 8.39 8.39v.22z" fill="#56829C"/><path d="M254.033 97.288l-70.07 88.264c-38.746 48.805-77.49 97.61-116.237 146.415l-33.54 42.247c-2.03 2.558 1.57 6.206 3.62 3.62 23.358-29.42 46.715-58.842 70.072-88.263l116.236-146.414 33.54-42.247c2.03-2.558-1.57-6.207-3.62-3.622zM254.347 100.91l70.07 88.262 116.236 146.415 33.54 42.248c2.052 2.585 5.65-1.063 3.62-3.62l-70.07-88.264-116.236-146.414-33.54-42.248c-2.052-2.585-5.65 1.064-3.62 3.62zM242.753 62.232l11.52 37.547c.738 2.405 4.233 2.478 4.938 0 3.557-12.517 7.112-25.032 10.67-37.548.903-3.183-4.037-4.634-4.94-1.464-3.555 12.516-7.11 25.445-10.667 37.445h4.938c-3.84-12-7.68-24.93-11.52-37.445-.965-3.146-5.908-1.7-4.937 1.464z" fill="#E8E8E8"/><path fill="#399481" d="M74.624 378.214l176.1-279.04 176.1 279.04z"/><path d="M256.995 101.658s9.415 18.942 9.604 19.36c.187.416 12.694 48.267 12.694 48.267l3.443 57.813-26.056 51.33-40.04 99.785H79.25l175.358-278.01 2.387 1.455z" fill="#45B39C"/><path fill="#EFC84A" d="M296.753 378.214l-40.057-99.748-40.056 99.748z"/><path fill="#45B39C" d="M296.753 378.138l25.11-12.786-65.167-86.962z"/><path d="M256.696 278.39s46.89-69.425-.854-179.29c0 0 77.61 136.716.854 179.29z" fill="#307D6C"/><path d="M263.435 99.08c0 1.18-.955 2.134-2.134 2.134h-9.73c-1.18 0-2.135-.955-2.135-2.133v-.733c0-1.178.955-2.133 2.134-2.133h9.73c1.18 0 2.135.955 2.135 2.133v.734z" fill="#E8E8E8"/><path fill="#EFBE21" d="M256.696 278.466l-10.83 99.748H216.64z"/><path fill="#40A690" d="M221.755 205.034l-92.443 173.18h35.27z"/><path fill="#307D6C" d="M312.208 244.402l32.712 133.812h29.582z"/><path d="M324.155 85.068c0-10.34-6.58-16.92-16.92-16.92 10.34 0 16.92-6.58 16.92-16.922 0 10.34 6.582 16.922 16.922 16.922-10.34 0-16.922 6.58-16.922 16.92z" fill="#EFDC9E"/><path d="M385.595 107.604c0-6.773-4.31-11.083-11.083-11.083 6.773 0 11.083-4.31 11.083-11.084 0 6.773 4.312 11.085 11.086 11.085-6.773 0-11.085 4.31-11.085 11.084z" fill="#EFD378"/><path d="M30.962 378.214c43.368 79 127.883 133.86 225.038 133.86 97.155 0 181.67-54.86 225.038-133.86H30.962z" fill="#21313B"/></svg>