<svg xmlns="http://www.w3.org/2000/svg" width="100" height="100"><path fill="#EBECED" d="M97 0h-5c0 1.657-1.343 3-3 3s-3-1.343-3-3h-5c0 1.657-1.343 3-3 3s-3-1.343-3-3h-5c0 1.657-1.343 3-3 3s-3-1.343-3-3h-5c0 4.97-4.03 9-9 9s-9-4.03-9-9h-5c0 1.657-1.343 3-3 3s-3-1.343-3-3h-5c0 1.657-1.343 3-3 3s-3-1.343-3-3h-5c0 1.657-1.343 3-3 3S8 1.657 8 0H3c0 1.657-1.343 3-3 3v76c1.657 0 3 1.343 3 3h5c0-1.657 1.343-3 3-3s3 1.343 3 3h5c0-1.657 1.343-3 3-3s3 1.343 3 3h5c0-1.657 1.343-3 3-3s3 1.343 3 3h5c0-4.97 4.03-9 9-9s9 4.03 9 9h5c0-1.657 1.343-3 3-3s3 1.343 3 3h5c0-1.657 1.343-3 3-3s3 1.343 3 3h5c0-1.657 1.343-3 3-3s3 1.343 3 3h5c0-1.657 1.343-3 3-3V3c-1.657 0-3-1.343-3-3zM97 0h-5c0 1.657-1.343 3-3 3s-3-1.343-3-3h-5c0 1.657-1.343 3-3 3s-3-1.343-3-3h-5c0 1.657-1.343 3-3 3s-3-1.343-3-3h-5c0 4.97-4.03 9-9 9s-9-4.03-9-9h-5c0 1.657-1.343 3-3 3s-3-1.343-3-3h-5c0 1.657-1.343 3-3 3s-3-1.343-3-3h-5c0 1.657-1.343 3-3 3S8 1.657 8 0H3c0 1.657-1.343 3-3 3v76c1.657 0 3 1.343 3 3h5c0-1.657 1.343-3 3-3s3 1.343 3 3h5c0-1.657 1.343-3 3-3s3 1.343 3 3h5c0-1.657 1.343-3 3-3s3 1.343 3 3h5c0-4.97 4.03-9 9-9s9 4.03 9 9h5c0-1.657 1.343-3 3-3s3 1.343 3 3h5c0-1.657 1.343-3 3-3s3 1.343 3 3h5c0-1.657 1.343-3 3-3s3 1.343 3 3h5c0-1.657 1.343-3 3-3V3c-1.657 0-3-1.343-3-3z"/><path fill="#BDC2C7" d="M86 15H14c-2.21 0-4 1.79-4 4v44c0 2.21 1.79 4 4 4h72c2.21 0 4-1.79 4-4V19c0-2.21-1.79-4-4-4zm2 47c0 1.657-1.343 3-3 3H15c-1.657 0-3-1.343-3-3V20c0-1.656 1.343-3 3-3h70c1.657 0 3 1.344 3 3v42z"/><path fill="#EBECED" d="M97 84h-5c0 1.657-1.343 3-3 3s-3-1.343-3-3h-5c0 1.657-1.343 3-3 3s-3-1.343-3-3h-5c0 1.657-1.343 3-3 3s-3-1.343-3-3h-5c0 4.97-4.03 9-9 9s-9-4.03-9-9h-5c0 1.657-1.343 3-3 3s-3-1.343-3-3h-5c0 1.657-1.343 3-3 3s-3-1.343-3-3h-5c0 1.657-1.343 3-3 3s-3-1.343-3-3H3c0 1.657-1.343 3-3 3v13h100V87c-1.657 0-3-1.343-3-3zM97 84h-5c0 1.657-1.343 3-3 3s-3-1.343-3-3h-5c0 1.657-1.343 3-3 3s-3-1.343-3-3h-5c0 1.657-1.343 3-3 3s-3-1.343-3-3h-5c0 4.97-4.03 9-9 9s-9-4.03-9-9h-5c0 1.657-1.343 3-3 3s-3-1.343-3-3h-5c0 1.657-1.343 3-3 3s-3-1.343-3-3h-5c0 1.657-1.343 3-3 3s-3-1.343-3-3H3c0 1.657-1.343 3-3 3v13h100V87c-1.657 0-3-1.343-3-3z"/><path fill="#C13E30" d="M36.216 50.168c-.11-.2-.258-.39-.447-.57-.19-.18-.434-.327-.733-.44-.3-.112-.682-.17-1.148-.17-.97 0-1.693.26-2.167.775-.474.516-.71 1.42-.71 2.71 0 .525.045 1.005.138 1.44.094.434.224.775.39 1.025.23.353.525.62.884.802.36.183.83.272 1.413.272 1.04 0 1.77-.285 2.196-.856.425-.57.638-1.474.638-2.706 0-.55-.063-1.08-.193-1.586-.065-.264-.153-.497-.26-.696zm-1.56 3.72c-.067.29-.172.503-.315.638-.143.135-.31.2-.507.2-.296 0-.522-.157-.678-.475-.156-.314-.234-.906-.234-1.77 0-.855.072-1.442.213-1.76.142-.316.372-.475.69-.475.312 0 .545.155.7.465.157.312.235.917.235 1.82 0 .615-.033 1.068-.1 1.357zm7.353-1.64c.283-.188.49-.378.623-.576.176-.266.264-.55.264-.857 0-.523-.22-.96-.664-1.307-.443-.346-1.126-.52-2.052-.52-.698 0-1.26.14-1.686.417-.545.362-.817.827-.817 1.396 0 .347.094.653.283.92.14.193.36.37.66.527-.393.15-.684.364-.873.642s-.284.613-.284 1.013c0 .408.1.777.302 1.106.202.33.496.58.883.75.388.17.948.256 1.682.256.39 0 .758-.04 1.103-.113.345-.076.633-.194.865-.354.23-.162.426-.39.585-.685.16-.296.24-.613.24-.952 0-.354-.093-.674-.278-.965-.182-.292-.46-.525-.836-.7zm-2.304-1.894c.146-.144.336-.215.57-.215.23 0 .418.072.566.22.148.146.222.335.222.572 0 .226-.07.408-.213.55s-.322.214-.542.214c-.25 0-.448-.07-.598-.215-.15-.144-.224-.333-.224-.566 0-.23.074-.417.22-.56zm1.212 4.212c-.183.192-.39.29-.62.29-.24 0-.45-.097-.637-.286s-.278-.436-.278-.733c0-.315.09-.565.267-.75.177-.187.386-.278.625-.278.243 0 .456.095.64.286.184.19.276.438.276.736.002.296-.09.54-.272.734zm7.543-2.32c.284-.186.492-.376.625-.574.176-.266.265-.55.265-.857 0-.523-.222-.96-.664-1.307-.442-.346-1.126-.52-2.052-.52-.7 0-1.26.14-1.686.417-.545.362-.817.827-.817 1.396 0 .347.096.653.284.92.14.193.36.37.662.527-.394.15-.685.364-.874.642s-.283.613-.283 1.013c0 .408.1.777.3 1.106.202.33.497.58.884.75s.948.256 1.682.256c.39 0 .758-.04 1.103-.113.344-.076.632-.194.863-.354.23-.162.427-.39.585-.685.16-.296.24-.613.24-.952 0-.354-.093-.674-.277-.965-.184-.292-.464-.525-.84-.7zm-2.3-1.892c.145-.144.335-.215.568-.215.23 0 .418.072.567.22.148.145.222.335.222.572 0 .226-.07.408-.212.55-.142.144-.323.214-.543.214-.25 0-.448-.07-.597-.215-.15-.144-.225-.333-.225-.566 0-.23.072-.417.22-.56zm1.21 4.212c-.183.192-.39.29-.62.29-.238 0-.45-.097-.637-.286s-.28-.436-.28-.733c0-.315.09-.565.268-.75.18-.187.387-.278.627-.278.242 0 .456.095.64.286.185.19.276.438.276.736 0 .296-.09.54-.273.734zm7.984-5.578h-1.678l-3.504 4.37v1.584h3.504v.957h1.678v-1.272h.87v-1.465h-.87v-4.175zm-1.678 4.457h-1.852l1.852-2.42v2.42zm6.656-2.08c-.318 0-.6.056-.84.166-.244.11-.48.278-.71.508.06-.73.15-1.205.278-1.43.174-.308.416-.46.728-.46.174 0 .32.053.438.16s.2.295.252.557l1.912-.23c-.108-.365-.27-.668-.48-.91-.21-.24-.477-.423-.797-.548-.318-.126-.754-.188-1.305-.188-.934 0-1.662.284-2.188.853-.524.57-.79 1.47-.79 2.695 0 .837.127 1.51.377 2.018.25.51.585.88 1.004 1.11s.976.35 1.668.35c.576 0 1.056-.097 1.438-.286.382-.19.682-.472.896-.842.217-.37.323-.78.323-1.23 0-.663-.213-1.212-.64-1.645-.426-.432-.946-.647-1.563-.647zm.127 3.19c-.17.188-.382.283-.634.283-.273 0-.506-.104-.694-.312s-.282-.496-.282-.864c0-.36.09-.64.27-.834.18-.194.406-.292.674-.292.262 0 .48.102.657.302.177.2.265.492.265.875 0 .372-.086.653-.256.842zm7.89-2.54c-.427-.433-.947-.647-1.564-.647-.318 0-.6.055-.842.165-.24.108-.48.278-.71.507.063-.73.155-1.205.28-1.428.174-.31.416-.463.73-.463.172 0 .317.053.437.16.12.11.202.294.253.557l1.913-.23c-.11-.365-.27-.668-.48-.91-.212-.24-.478-.423-.798-.548-.318-.127-.754-.19-1.306-.19-.933 0-1.66.286-2.188.856-.524.57-.787 1.47-.787 2.695 0 .838.125 1.51.375 2.02.25.508.585.88 1.004 1.11s.975.347 1.667.347c.577 0 1.058-.095 1.438-.285.384-.19.683-.47.897-.84.216-.37.324-.78.324-1.23 0-.666-.215-1.215-.64-1.646zm-1.44 2.54c-.17.188-.38.283-.633.283-.272 0-.504-.104-.693-.312-.188-.21-.283-.496-.283-.864 0-.36.093-.64.272-.834.182-.194.404-.292.673-.292.262 0 .48.102.657.302.176.2.265.492.265.875 0 .372-.085.653-.256.842z"/><path fill="#5F6F7F" d="M20 40c-.552 0-1 .448-1 1 0 .553.448 1 1 1s1-.447 1-1c0-.552-.448-1-1-1zm10 0c-.552 0-1 .448-1 1 0 .553.448 1 1 1s1-.447 1-1c0-.552-.448-1-1-1zm10 0c-.552 0-1 .448-1 1 0 .553.448 1 1 1s1-.447 1-1c0-.552-.448-1-1-1zm10 0c-.552 0-1 .448-1 1 0 .553.448 1 1 1 .553 0 1-.447 1-1 0-.552-.447-1-1-1zm10 0c-.552 0-1 .448-1 1 0 .553.448 1 1 1 .553 0 1-.447 1-1 0-.552-.447-1-1-1zm10 0c-.553 0-1 .448-1 1 0 .553.447 1 1 1s1-.447 1-1c0-.552-.447-1-1-1zm10 0c-.553 0-1 .448-1 1 0 .553.447 1 1 1s1-.447 1-1c0-.552-.447-1-1-1zm-55 0c-.552 0-1 .448-1 1 0 .553.448 1 1 1s1-.447 1-1c0-.552-.448-1-1-1zm10 0c-.552 0-1 .448-1 1 0 .553.448 1 1 1s1-.447 1-1c0-.552-.448-1-1-1zm10 0c-.552 0-1 .448-1 1 0 .553.448 1 1 1s1-.447 1-1c0-.552-.448-1-1-1zm10 0c-.552 0-1 .448-1 1 0 .553.448 1 1 1 .553 0 1-.447 1-1 0-.552-.447-1-1-1zm10 0c-.553 0-1 .448-1 1 0 .553.447 1 1 1s1-.447 1-1c0-.552-.447-1-1-1zm10 0c-.553 0-1 .448-1 1 0 .553.447 1 1 1s1-.447 1-1c0-.552-.447-1-1-1z"/><path fill="#35495E" d="M21.69 26.104l-2.698 6.794h2.264l.35-1.12h2.518l.36 1.12h2.32l-2.695-6.794h-2.42zm.398 4.205l.784-2.443.792 2.442h-1.576zm11.31-3.237c-.26-.312-.592-.552-.99-.718-.4-.167-.925-.25-1.575-.25H27.54v6.793h3.293c.395 0 .835-.062 1.32-.185.357-.09.69-.27 1-.54.31-.27.552-.605.727-1.006.175-.4.262-.963.262-1.69 0-.463-.06-.9-.176-1.315-.117-.414-.307-.776-.568-1.09zm-1.65 3.626c-.11.242-.264.412-.46.51-.195.097-.524.146-.988.146h-.543v-3.712h.553c.574 0 .985.133 1.233.398s.372.76.372 1.48c0 .542-.055.935-.166 1.177zm7.576-.462L38.2 26.104H35.28v6.794h1.816v-5.18l1.397 5.18h1.644l1.398-5.18v5.18h1.816v-6.794H40.44l-1.116 4.134zm5.533 2.66h2.222v-6.794h-2.223v6.794zm3.31-5.116h2.26v5.116h2.22v-5.116h2.26v-1.678h-6.74v1.678zM61.68 25.99c-1.164 0-2.072.308-2.727.926-.652.618-.98 1.48-.98 2.59 0 .795.165 1.456.494 1.984.33.528.76.914 1.29 1.158.53.244 1.2.366 2.01.366.797 0 1.46-.142 1.994-.424.534-.282.942-.68 1.226-1.187.283-.508.424-1.16.424-1.953 0-1.095-.323-1.944-.97-2.552-.645-.606-1.566-.91-2.76-.91zm1.12 5.014c-.26.293-.63.44-1.104.44-.463 0-.83-.15-1.1-.45-.27-.3-.404-.792-.404-1.48 0-.69.137-1.187.408-1.487.27-.3.63-.448 1.075-.448.468 0 .837.146 1.11.44s.406.763.406 1.402c0 .76-.128 1.288-.39 1.582zm8.593-1.14l-2.703-3.76h-2.07v6.794h2.085v-3.73l2.688 3.73h2.09v-6.794h-2.09v3.76zm5.78 1.496v-1.34h3.45v-1.386h-3.45v-1.08h3.72v-1.45H74.95v6.794H81V31.36h-3.827zM79.5 52.925v-.105l.025.084L82 51.01h-3V51h-.072l-.943-3-.938 3.008-.547.002H74l2.455 1.885.045-.144v.18l-.045-.035-.97 3.105 2.51-1.923-.097-.073h.19l-.095.073L80.5 56l-.975-3.096-.025.02zM79 51.51v-.28l.088.277-.088.002zM24.493 52.925v-.105l.026.084 2.473-1.896h-3V51h-.073l-.943-3-.94 3.008-.544.002h-2.5l2.455 1.885.045-.146v.18l-.045-.035-.97 3.105 2.51-1.923-.095-.073h.19l-.095.073L25.493 56l-.974-3.096-.027.02zm-.5-1.416v-.28l.087.277-.087.002z"/></svg>