<svg xmlns="http://www.w3.org/2000/svg" width="100" height="100"><clipPath id="a"><circle cx="50" cy="50" r="50"/></clipPath><g fill-rule="evenodd" clip-rule="evenodd" clip-path="url(#a)"><path fill="#34495E" d="M100 50c0 6.67-1.306 13.093-3.676 19H3.677C1.307 63.094 0 56.67 0 50 0 22.386 22.386 0 50 0c27.613 0 50 22.386 50 50z"/><path fill="#D7DBDE" d="M-1 70h102v31H-1z"/><path fill="#fff" d="M100 71v29H0V71h100m2-2H-2v33h104V69z"/><path fill="#DF9274" d="M-22.758-33.75c8.363-8.362 21.92-8.362 30.284 0L73.73 32.453c8.36 8.363 8.36 21.92 0 30.284C69.694 66.77 64.287 69 59 69c-5.673 0-11.227-1.935-15.556-6.263L-22.758-3.465c-8.363-8.363-8.363-21.922 0-30.285z"/><path opacity=".3" fill="#fff" d="M61.215 19.844l12.5 12.5c6.195 6.195 7.804 15.227 4.856 22.91L61.276 37.958c-5-5-5.016-13.088-.06-18.114z"/><path opacity=".2" d="M46.456 14.13c-.39.392-1.023.392-1.414 0-.39-.39-.39-1.02 0-1.414l4.502-4.5 1.414 1.414-4.502 4.5zm-7 2.002c-.39.39-1.023.39-1.414 0s-.39-1.024 0-1.414l9.002-9.002 1.414 1.414-9.002 9.002z"/></g></svg>