<svg xmlns="http://www.w3.org/2000/svg" width="100" height="100"><path fill-rule="evenodd" clip-rule="evenodd" fill="#E64C3C" d="M20 88.5c-1.93 0-3.5-1.57-3.5-3.5V42c0-1.93 1.57-3.5 3.5-3.5h60c1.93 0 3.5 1.57 3.5 3.5v43c0 1.93-1.57 3.5-3.5 3.5H20z"/><path fill="#C03A2B" d="M80 40c1.103 0 2 .897 2 2v43c0 1.103-.897 2-2 2H20c-1.103 0-2-.897-2-2V42c0-1.103.897-2 2-2h60m0-3H20c-2.76 0-5 2.24-5 5v43c0 2.76 2.24 5 5 5h60c2.76 0 5-2.24 5-5V42c0-2.76-2.24-5-5-5z"/><path fill-rule="evenodd" clip-rule="evenodd" fill="#2C3E50" d="M23 90c-2.76 0-5 2.237-5 5s2.238 5 5 5c2.76 0 5-2.24 5-5v-5h-5z"/><circle fill-rule="evenodd" clip-rule="evenodd" fill="#495E74" cx="23" cy="95" r="3"/><path fill-rule="evenodd" clip-rule="evenodd" fill="#2C3E50" d="M77 90c2.76 0 5 2.237 5 5s-2.238 5-5 5c-2.76 0-5-2.24-5-5v-5h5z"/><circle fill-rule="evenodd" clip-rule="evenodd" fill="#495E74" cx="77" cy="95" r="3"/><path fill-rule="evenodd" clip-rule="evenodd" fill="#495E74" d="M63 37V7c0-1.657-1.343-3-3-3H40c-1.657 0-3 1.343-3 3v30h-4V5c0-2.76 2.24-5 5-5h24c2.76 0 5 2.24 5 5v32h-4z"/><path fill-rule="evenodd" clip-rule="evenodd" fill="#2C3E50" d="M66.958 6V4.586C66.745 2.022 64.62 0 62 0H38c-2.76 0-5 2.24-5 5v4c0 1.105.895 2 2 2s2-.895 2-2V7c0-1.657 1.343-3 3-3h20c1.657 0 3 1.343 3 3v2c0 1.105.895 2 2 2s2-.895 2-2V6h-.042z"/><path fill-rule="evenodd" clip-rule="evenodd" fill="#EBECED" d="M63.042 37h8.018L77 42.94 58.93 61.01l-9.948-9.95L63.042 37z"/><path fill-rule="evenodd" clip-rule="evenodd" fill="#C03A2B" d="M33 37h4v47h-4zM63 37h4v47h-4z"/><path fill-rule="evenodd" clip-rule="evenodd" fill="#F0C419" d="M37 61h-4c-1.105 0-2 .896-2 2v4c0 1.105.895 2 2 2h4c1.104 0 2-.896 2-2v-4c0-1.105-.896-2-2-2zm0 6h-4v-4h4v4z"/><path fill-rule="evenodd" clip-rule="evenodd" fill="#90241D" d="M65 80l-2-2v12h4V78l-2 2zm-32-2v12h4V78l-2 2-2-2zm2-17c.552 0 1-.448 1-1s-.448-1-1-1-1 .448-1 1 .448 1 1 1zm0-5c.552 0 1-.448 1-1s-.448-1-1-1-1 .447-1 1c0 .552.448 1 1 1zm0-5c.552 0 1-.448 1-1s-.448-1-1-1-1 .447-1 1c0 .552.448 1 1 1zm0-5c.552 0 1-.448 1-1s-.448-1-1-1-1 .447-1 1 .448 1 1 1zm30 15c.552 0 1-.448 1-1s-.448-1-1-1-1 .448-1 1 .448 1 1 1zm0-5c.552 0 1-.448 1-1s-.448-1-1-1-1 .447-1 1c0 .552.448 1 1 1zm0-5c.552 0 1-.448 1-1s-.448-1-1-1-1 .447-1 1c0 .552.448 1 1 1zm0-5c.552 0 1-.448 1-1s-.448-1-1-1-1 .447-1 1 .448 1 1 1zM35 66c.552 0 1-.448 1-1s-.448-1-1-1-1 .447-1 1c0 .552.448 1 1 1zm30 0c.552 0 1-.448 1-1s-.448-1-1-1-1 .447-1 1c0 .552.448 1 1 1z"/><path fill-rule="evenodd" clip-rule="evenodd" fill="#FCF062" d="M37 63v4h-4l-1.414 1.414c.362.362.862.586 1.414.586h4c1.104 0 2-.896 2-2v-4c0-.552-.224-1.052-.586-1.414L37 63z"/><path fill-rule="evenodd" clip-rule="evenodd" fill="#F0C419" d="M67 61h-4c-1.105 0-2 .896-2 2v4c0 1.105.895 2 2 2h4c1.104 0 2-.896 2-2v-4c0-1.105-.896-2-2-2zm0 6h-4v-4h4v4z"/><path fill-rule="evenodd" clip-rule="evenodd" fill="#FCF062" d="M67 63v4h-4l-1.414 1.414c.362.362.862.586 1.414.586h4c1.104 0 2-.896 2-2v-4c0-.552-.224-1.052-.586-1.414L67 63z"/></svg>