<svg height="512" viewBox="0 0 512 512" width="512" xmlns="http://www.w3.org/2000/svg"><circle cx="256" cy="256" fill="#83B2A8" r="256"/><path fill="#002856" d="M112.16 200.96h266.88v85.12H112.16z"/><path fill="#ECF0F1" d="M343.2 102.4v214.4H146.08V157.305l65.952-54.905z"/><path opacity=".2" d="M239.125 102.4l-29.045 54.905V102.4z"/><path fill="#fff" d="M210.08 102.205v55.235h-66.002z"/><path fill="#0F5092" opacity=".7" d="M201.12 166.4h85.12v7.68h-85.12zM163.36 274.56h162.56v7.68H163.36zM163.36 204.16h162.56v7.68H163.36zM163.36 222.08h162.56v7.68H163.36zM163.36 239.36h162.56v7.68H163.36zM163.36 257.28h162.56v7.68H163.36z"/><g fill="#231F20"><path d="M100.64 275.33c0-2.192-1.778-3.97-3.97-3.97h-2.94c-2.192 0-3.97 1.778-3.97 3.97v20.86c0 2.192 1.778 3.97 3.97 3.97h2.94c2.192 0 3.97-1.778 3.97-3.97v-20.86zM98.72 281.6h6.4v8.32h-6.4z"/></g><path d="M388.64 285.44h-18.56v-58.445c0-2.795 3.492-4.915 7.487-4.915h4.13c3.995 0 6.942 2.12 6.942 4.915v58.445zM122.4 285.44h-18.56v-58.445c0-2.795 3.87-4.915 7.863-4.915h4.135c3.993 0 6.563 2.12 6.563 4.915v58.445z" fill="#8C1B06"/><path fill="#821906" d="M119.84 282.24h250.24v33.92H119.84z"/><path d="M416.16 396.8H75.04v-2.045c0-7.7 6.748-13.314 14.453-13.314h313.04c7.705 0 13.628 5.615 13.628 13.315v2.045z" fill="#8C1B06"/><path d="M174.84 278.757M188.388 265.902" stroke="#000" stroke-linecap="round" stroke-miterlimit="10" stroke-width="2.066" fill="none"/><path d="M246.098 315.033c33.42 0 61.575-14.36 70.21-33.115-11.49 16.19-38.603 28-70.226 28-31.55 0-58.604-11.755-70.14-27.888 8.696 18.7 36.8 33.003 70.156 33.003z" opacity=".3"/><path fill="#D35400" d="M393.753 255.36H97.585l.343-5.76h296.17z"/><circle cx="93.107" cy="252.01" fill="#F39C12" r="8.265"/><circle cx="400.985" cy="252.01" fill="#F39C12" r="8.265"/><path d="M160.16 253.725c0 2.67-2.165 4.835-4.838 4.835h-11.445c-2.672 0-4.837-2.165-4.837-4.835v-2.49c0-2.67 2.165-4.835 4.837-4.835h11.445c2.673 0 4.838 2.165 4.838 4.835v2.49zM340.64 253.725c0 2.67-2.165 4.835-4.835 4.835h-11.45c-2.67 0-4.835-2.165-4.835-4.835v-2.49c0-2.67 2.165-4.835 4.835-4.835h11.45c2.67 0 4.835 2.165 4.835 4.835v2.49z" fill="#F39C12"/><g opacity=".2"><path d="M295.228 290.545c-3.52-2.93-7.048-5.855-10.575-8.775l-.354.285c3.264 3.13 6.46 6.317 9.584 9.555-.128.377-.022.805.56 1.377.683.66 1.365 1.323 2.045 1.983.194.19 1.127.162 1.834-.395.705-.558.822-1.365.315-1.813-.616-.545-1.236-1.088-1.854-1.633-.31-.27-1.143-.71-1.558-.585zM289.1 295.143l-9.268-9.752-.382.24c2.803 3.43 5.535 6.904 8.197 10.416-.173.36-.12.792.38 1.413l1.763 2.166c.165.205 1.085.275 1.848-.195.76-.474.975-1.254.532-1.75-.537-.6-1.077-1.197-1.617-1.794-.27-.3-1.033-.82-1.453-.743zM282.5 299.01c-2.628-3.525-5.247-7.052-7.862-10.585-.135.068-.27.133-.405.2 2.31 3.675 4.555 7.388 6.728 11.127-.214.335-.217.768.196 1.433.487.772.975 1.545 1.46 2.317.138.22 1.032.385 1.842-.005.808-.388 1.115-1.135.74-1.67-.455-.645-.907-1.292-1.362-1.935-.23-.325-.913-.917-1.336-.882zM275.513 302.145c-2.14-3.75-4.266-7.505-6.378-11.265-.143.055-.282.105-.425.155 1.795 3.875 3.525 7.775 5.192 11.69-.255.313-.314.74.008 1.44.382.813.765 1.625 1.145 2.44.107.23.97.48 1.815.175s1.24-1.01.94-1.577c-.365-.685-.73-1.368-1.098-2.053-.182-.342-.78-.995-1.2-1.005zM268.218 304.547c-1.63-3.925-3.24-7.857-4.828-11.792-.147.035-.292.075-.44.113 1.264 4.017 2.463 8.052 3.604 12.103-.293.286-.405.703-.178 1.426.272.845.548 1.688.82 2.53.074.24.895.573 1.768.35.875-.22 1.354-.882 1.13-1.472-.272-.715-.545-1.428-.82-2.143-.136-.36-.644-1.062-1.056-1.113zM260.695 306.215c-1.103-4.052-2.18-8.11-3.228-12.175-.15.025-.3.05-.45.072.715 4.113 1.375 8.235 1.978 12.365-.325.255-.492.66-.357 1.4l.482 2.593c.045.245.813.65 1.707.512.89-.137 1.45-.748 1.306-1.357-.18-.735-.357-1.47-.535-2.205-.09-.367-.5-1.115-.903-1.205zM253.032 307.147c-.57-4.13-1.1-8.265-1.6-12.402-.15.01-.303.02-.455.027.162 4.158.272 8.317.335 12.478-.355.225-.572.612-.537 1.36.047.875.097 1.748.145 2.623.013.248.723.72 1.625.667.902-.055 1.532-.61 1.468-1.23-.08-.745-.163-1.492-.245-2.24-.04-.375-.35-1.155-.736-1.283zM245.308 307.345c-.025-4.16-.01-8.323.047-12.483-.152-.005-.302-.007-.454-.015-.395 4.15-.832 8.295-1.312 12.44-.383.188-.65.552-.713 1.302l-.197 2.62c-.02.25.625.784 1.53.814.902.03 1.604-.465 1.617-1.085.018-.75.032-1.5.047-2.253.008-.377-.197-1.182-.564-1.342zM237.603 306.805c.52-4.143 1.085-8.28 1.695-12.41l-.45-.06c-.948 4.09-1.93 8.175-2.95 12.252-.405.15-.717.49-.877 1.228l-.534 2.59c-.052.245.522.84 1.417.955.895.11 1.655-.315 1.75-.93.113-.748.225-1.49.34-2.235.054-.375-.043-1.195-.39-1.39zM230.002 305.525c1.058-4.075 2.165-8.137 3.325-12.19l-.44-.098c-1.49 3.975-3.01 7.948-4.555 11.908-.425.115-.783.422-1.038 1.14-.292.845-.58 1.685-.87 2.527-.083.24.413.888 1.292 1.083.877.2 1.69-.155 1.865-.76l.628-2.19c.107-.37.114-1.193-.206-1.42zM222.59 303.505c1.583-3.955 3.225-7.895 4.923-11.815-.143-.047-.285-.095-.43-.145-2.015 3.815-4.055 7.623-6.115 11.42-.44.073-.837.345-1.185 1.035l-1.195 2.435c-.115.23.3.925 1.15 1.205.855.282 1.713.007 1.965-.578.3-.708.605-1.415.91-2.123.152-.355.267-1.177-.023-1.435zM215.442 300.745c2.098-3.79 4.255-7.555 6.475-11.295-.138-.058-.275-.118-.413-.183-2.525 3.6-5.063 7.192-7.617 10.777-.45.027-.883.258-1.32.913-.505.77-1.01 1.542-1.51 2.313-.145.215.18.95.998 1.32.817.365 1.712.178 2.042-.38.393-.677.787-1.355 1.182-2.032.198-.338.423-1.148.162-1.433zM208.647 297.243c2.59-3.573 5.243-7.113 7.96-10.618-.13-.075-.26-.15-.39-.228-3.007 3.333-6.02 6.658-9.045 9.982-.455-.023-.917.164-1.44.774-.605.72-1.21 1.438-1.813 2.158-.17.203.062.973.836 1.425.772.453 1.695.355 2.095-.17.48-.635.963-1.272 1.446-1.907.246-.32.572-1.105.35-1.417zM202.28 292.998c3.058-3.308 6.18-6.573 9.368-9.79-.123-.09-.243-.18-.365-.272-3.455 3.015-6.912 6.025-10.375 9.032-.452-.07-.945.068-1.547.623-.696.66-1.396 1.316-2.09 1.976-.2.185-.06.985.66 1.522.72.54 1.66.54 2.126.058.565-.59 1.13-1.178 1.697-1.763.285-.296.712-1.048.527-1.385z"/></g><g fill="#fff"><path d="M293.952 291.25c-3.478-2.98-6.96-5.958-10.442-8.93l-.36.278c3.218 3.18 6.365 6.412 9.44 9.697-.133.377-.032.808.538 1.385.675.672 1.347 1.342 2.02 2.015.188.193 1.122.18 1.838-.365.715-.55.845-1.353.342-1.81-.607-.555-1.217-1.105-1.827-1.66-.305-.275-1.133-.725-1.548-.61zM287.755 295.755c-3.04-3.295-6.082-6.59-9.117-9.89-.13.08-.26.157-.39.235 2.752 3.47 5.435 6.985 8.042 10.538-.178.357-.133.79.357 1.417.577.73 1.155 1.46 1.73 2.195.162.208 1.08.29 1.85-.17.77-.46.995-1.235.56-1.74-.53-.605-1.06-1.212-1.59-1.82-.264-.305-1.02-.835-1.442-.765zM281.098 299.525c-2.575-3.565-5.14-7.13-7.7-10.703l-.41.195c2.255 3.71 4.442 7.453 6.56 11.228-.22.33-.23.762.173 1.433.48.782.954 1.563 1.43 2.342.132.22 1.024.4 1.84.022.814-.377 1.132-1.118.765-1.66l-1.333-1.958c-.225-.326-.9-.926-1.324-.9zM274.063 302.555c-2.083-3.78-4.15-7.568-6.205-11.36-.143.053-.285.1-.428.15 1.737 3.9 3.408 7.825 5.016 11.765-.26.31-.325.735-.013 1.44.37.818.74 1.638 1.107 2.458.104.233.963.495 1.813.203s1.255-.992.965-1.564c-.354-.69-.71-1.38-1.067-2.067-.178-.35-.765-1.01-1.187-1.025zM266.732 304.845c-1.57-3.948-3.12-7.903-4.65-11.863-.145.035-.292.073-.44.107 1.2 4.037 2.34 8.09 3.42 12.152-.294.282-.414.697-.196 1.425.263.848.52 1.695.78 2.542.072.24.887.584 1.765.376.876-.21 1.366-.865 1.15-1.458-.262-.717-.524-1.438-.787-2.155-.13-.358-.628-1.07-1.04-1.128zM259.188 306.4c-1.043-4.067-2.058-8.14-3.045-12.22-.15.022-.3.045-.45.065.652 4.125 1.25 8.255 1.79 12.393-.327.25-.5.652-.378 1.397.148.865.298 1.732.443 2.597.042.245.805.663 1.7.538.892-.125 1.462-.725 1.324-1.337l-.502-2.212c-.083-.37-.48-1.122-.882-1.22zM251.51 307.22c-.505-4.14-.975-8.283-1.412-12.428-.15.01-.303.018-.455.022.1 4.16.15 8.32.147 12.482-.357.218-.583.603-.558 1.35l.105 2.623c.01.25.712.73 1.614.69s1.546-.586 1.49-1.204c-.07-.748-.142-1.498-.214-2.245-.034-.372-.33-1.16-.716-1.29zM243.782 307.3c.04-4.16.118-8.32.237-12.48-.153-.005-.303-.012-.455-.02-.458 4.14-.958 8.28-1.5 12.415-.385.185-.658.545-.732 1.292-.078.873-.155 1.745-.235 2.618-.022.248.615.795 1.518.84.902.042 1.61-.442 1.632-1.06.028-.752.056-1.502.08-2.252.015-.378-.178-1.186-.546-1.353zM236.09 306.645c.58-4.135 1.208-8.263 1.88-12.385-.15-.02-.3-.04-.45-.065-1.007 4.075-2.053 8.145-3.132 12.205-.405.147-.725.482-.895 1.218-.193.86-.385 1.72-.575 2.58-.055.245.51.848 1.402.973.893.128 1.663-.287 1.765-.9.123-.744.248-1.486.373-2.23.062-.375-.025-1.195-.368-1.395zM228.51 305.25c1.118-4.058 2.288-8.103 3.508-12.138l-.44-.105c-1.55 3.953-3.127 7.903-4.735 11.84-.425.107-.787.407-1.052 1.125l-.907 2.512c-.085.238.4.893 1.275 1.103s1.695-.13 1.878-.732l.66-2.183c.112-.364.132-1.19-.186-1.422zM221.127 303.12c1.643-3.933 3.342-7.845 5.1-11.74l-.428-.15c-2.073 3.785-4.17 7.56-6.288 11.328-.44.063-.84.33-1.2 1.018-.41.805-.822 1.61-1.23 2.415-.118.228.285.928 1.132 1.223.848.295 1.71.033 1.97-.547.313-.705.627-1.408.942-2.11.162-.353.287-1.176 0-1.436zM214.022 300.252c2.155-3.757 4.37-7.49 6.643-11.192-.138-.063-.272-.127-.408-.192-2.58 3.563-5.172 7.115-7.78 10.662-.45.02-.885.243-1.335.893-.515.763-1.03 1.528-1.545 2.288-.145.22.17.956.98 1.336.813.38 1.71.205 2.045-.35l1.215-2.01c.205-.338.44-1.146.185-1.434zM207.28 296.65c2.643-3.535 5.348-7.035 8.118-10.495l-.385-.235c-3.055 3.285-6.12 6.567-9.193 9.843-.455-.028-.922.152-1.455.755l-1.843 2.13c-.172.203.05.973.815 1.438.768.462 1.69.38 2.098-.138.493-.63.982-1.257 1.478-1.887.244-.315.585-1.095.367-1.41zM200.978 292.31c3.107-3.265 6.28-6.48 9.513-9.65-.12-.09-.237-.185-.357-.278-3.5 2.963-7.005 5.92-10.51 8.877-.455-.078-.945.05-1.56.6-.708.644-1.415 1.29-2.12 1.94-.2.184-.075.984.638 1.532.713.55 1.65.565 2.126.087.572-.58 1.147-1.158 1.723-1.736.287-.29.727-1.037.548-1.374z"/></g><path d="M381.942 359.35c-4.218-18.208-4.085-36.29.39-54.502 1.76-7.153 7.436-4.048 7.288-21.328h-76.248c-5.545 17.28-33.552 30.365-67.274 30.365-33.72 0-61.725-13.085-67.27-30.365h-75.733c0 21.12 5.435 13.772 7.185 20.788 4.533 18.172 4.738 36.482.613 54.652-1.788 7.873-7.798 4.56-7.798 23.76H389.62c1.263-20.48-5.897-15.67-7.678-23.37z" fill="#BD2508"/><g opacity=".4"><path d="M139.553 334.265c-3.37 0-6.18-2.395-6.818-5.578-.09.445-.137.908-.137 1.377 0 3.84 3.115 6.955 6.955 6.955s6.955-3.116 6.955-6.956c0-.47-.047-.933-.137-1.377-.64 3.183-3.448 5.578-6.817 5.578zM163.388 334.265c-3.37 0-6.178-2.395-6.815-5.578-.09.445-.14.908-.14 1.377 0 3.84 3.115 6.955 6.955 6.955 3.842 0 6.955-3.116 6.955-6.956 0-.47-.045-.933-.135-1.377-.64 3.183-3.45 5.578-6.82 5.578zM187.225 334.265c-3.368 0-6.178-2.395-6.818-5.578-.09.445-.137.908-.137 1.377 0 3.84 3.112 6.955 6.955 6.955 3.842 0 6.955-3.116 6.955-6.956 0-.47-.048-.933-.138-1.377-.64 3.183-3.447 5.578-6.817 5.578zM211.063 334.265c-3.37 0-6.18-2.395-6.82-5.578-.088.445-.135.908-.135 1.377 0 3.84 3.112 6.955 6.955 6.955 3.84 0 6.955-3.116 6.955-6.956 0-.47-.05-.933-.138-1.377-.64 3.183-3.447 5.578-6.817 5.578zM234.897 334.265c-3.37 0-6.178-2.395-6.817-5.578-.087.445-.138.908-.138 1.377 0 3.84 3.115 6.955 6.955 6.955 3.843 0 6.955-3.116 6.955-6.956 0-.47-.047-.933-.135-1.377-.64 3.183-3.45 5.578-6.82 5.578zM258.735 334.265c-3.37 0-6.178-2.395-6.818-5.578-.09.445-.137.908-.137 1.377 0 3.84 3.112 6.955 6.955 6.955 3.842 0 6.955-3.116 6.955-6.956 0-.47-.048-.933-.138-1.377-.64 3.183-3.448 5.578-6.817 5.578zM282.572 334.265c-3.37 0-6.18-2.395-6.82-5.578-.09.445-.135.908-.135 1.377 0 3.84 3.112 6.955 6.955 6.955 3.84 0 6.955-3.116 6.955-6.956 0-.47-.05-.933-.14-1.377-.637 3.183-3.445 5.578-6.815 5.578zM306.407 334.265c-3.37 0-6.18-2.395-6.817-5.578-.09.445-.138.908-.138 1.377 0 3.84 3.115 6.955 6.955 6.955 3.843 0 6.955-3.116 6.955-6.956 0-.47-.047-.933-.138-1.377-.636 3.183-3.447 5.578-6.817 5.578zM330.242 334.265c-3.367 0-6.175-2.395-6.814-5.578-.09.445-.14.908-.14 1.377 0 3.84 3.114 6.955 6.954 6.955 3.843 0 6.958-3.116 6.958-6.956 0-.47-.048-.933-.138-1.377-.64 3.183-3.45 5.578-6.82 5.578zM354.08 334.265c-3.367 0-6.178-2.395-6.817-5.578-.09.445-.138.908-.138 1.377 0 3.84 3.115 6.955 6.955 6.955 3.843 0 6.957-3.116 6.957-6.956 0-.47-.05-.933-.14-1.377-.64 3.183-3.447 5.578-6.817 5.578z"/></g><g fill="#fff"><circle cx="139.552" cy="328" r="6.955"/><circle cx="163.387" cy="328" r="6.955"/><circle cx="187.225" cy="328" r="6.955"/><circle cx="211.063" cy="328" r="6.955"/><circle cx="234.897" cy="328" r="6.955"/><circle cx="258.735" cy="328" r="6.955"/><circle cx="282.572" cy="328" r="6.955"/><circle cx="306.407" cy="328" r="6.955"/><circle cx="330.244" cy="328" r="6.957"/><circle cx="354.081" cy="328" r="6.956"/></g><g opacity=".4"><path d="M151.29 346.15c-3.37 0-6.178-2.397-6.817-5.578-.09.445-.14.905-.14 1.378 0 3.84 3.115 6.955 6.958 6.955 3.84 0 6.956-3.115 6.956-6.955 0-.473-.048-.933-.138-1.378-.64 3.18-3.45 5.578-6.818 5.578zM175.208 346.64c-3.37 0-6.18-2.397-6.817-5.58-.09.447-.137.907-.137 1.38 0 3.84 3.113 6.955 6.955 6.955 3.84 0 6.955-3.115 6.955-6.955 0-.473-.047-.933-.138-1.38-.64 3.183-3.447 5.58-6.817 5.58zM199.125 346.882c-3.368 0-6.178-2.397-6.817-5.577-.09.445-.138.905-.138 1.377 0 3.842 3.115 6.955 6.955 6.955 3.842 0 6.955-3.113 6.955-6.955 0-.473-.048-.933-.138-1.377-.64 3.18-3.447 5.577-6.817 5.577zM222.797 347.127c-3.37 0-6.177-2.397-6.815-5.578-.09.444-.14.904-.14 1.377 0 3.842 3.115 6.955 6.955 6.955 3.843 0 6.955-3.112 6.955-6.955 0-.473-.047-.933-.135-1.378-.64 3.18-3.45 5.577-6.82 5.577zM246.963 347.373c-3.37 0-6.18-2.397-6.82-5.578-.087.445-.135.905-.135 1.377 0 3.84 3.113 6.955 6.956 6.955 3.84 0 6.954-3.115 6.954-6.955 0-.472-.05-.932-.14-1.377-.638 3.18-3.446 5.578-6.815 5.578zM270.88 348.105c-3.37 0-6.178-2.395-6.817-5.578-.09.445-.138.908-.138 1.377 0 3.843 3.112 6.955 6.955 6.955 3.84 0 6.955-3.113 6.955-6.956 0-.47-.048-.932-.138-1.377-.64 3.183-3.45 5.578-6.817 5.578zM294.798 347.618c-3.37 0-6.178-2.397-6.818-5.578-.09.445-.137.905-.137 1.377 0 3.84 3.114 6.955 6.955 6.955 3.84 0 6.955-3.115 6.955-6.955 0-.473-.048-.933-.138-1.377-.64 3.18-3.448 5.578-6.817 5.578zM318.715 347.86c-3.37 0-6.178-2.395-6.817-5.575-.09.445-.138.905-.138 1.377 0 3.84 3.112 6.955 6.955 6.955s6.955-3.115 6.955-6.955c0-.473-.048-.933-.138-1.377-.64 3.18-3.447 5.575-6.817 5.575zM342.633 346.15c-3.368 0-6.178-2.397-6.817-5.578-.088.445-.138.905-.138 1.378 0 3.84 3.114 6.955 6.955 6.955 3.842 0 6.955-3.115 6.955-6.955 0-.473-.046-.933-.136-1.378-.64 3.18-3.45 5.578-6.82 5.578z"/></g><g fill="#fff"><circle cx="151.289" cy="339.882" r="6.956"/><circle cx="175.208" cy="340.373" r="6.955"/><circle cx="199.125" cy="340.615" r="6.955"/><circle cx="222.797" cy="340.86" r="6.955"/><circle cx="246.962" cy="341.105" r="6.955"/><circle cx="270.88" cy="341.84" r="6.955"/><circle cx="294.798" cy="341.35" r="6.955"/><circle cx="318.715" cy="341.595" r="6.955"/><circle cx="342.633" cy="339.882" r="6.955"/></g><g opacity=".4"><path d="M139.553 358.61c-3.37 0-6.18-2.395-6.818-5.575-.09.445-.137.905-.137 1.375 0 3.845 3.115 6.955 6.955 6.955s6.955-3.11 6.955-6.955c0-.47-.047-.93-.137-1.375-.64 3.18-3.448 5.575-6.817 5.575zM163.388 358.61c-3.37 0-6.178-2.395-6.815-5.575-.09.445-.14.905-.14 1.375 0 3.845 3.115 6.955 6.955 6.955 3.842 0 6.955-3.11 6.955-6.955 0-.47-.045-.93-.135-1.375-.64 3.18-3.45 5.575-6.82 5.575zM187.225 358.61c-3.368 0-6.178-2.395-6.818-5.575-.09.445-.137.905-.137 1.375 0 3.845 3.112 6.955 6.955 6.955 3.842 0 6.955-3.11 6.955-6.955 0-.47-.048-.93-.138-1.375-.64 3.18-3.447 5.575-6.817 5.575zM211.063 358.61c-3.37 0-6.18-2.395-6.82-5.575-.088.445-.135.905-.135 1.375 0 3.845 3.112 6.955 6.955 6.955 3.84 0 6.955-3.11 6.955-6.955 0-.47-.05-.93-.138-1.375-.64 3.18-3.447 5.575-6.817 5.575zM234.897 358.61c-3.37 0-6.178-2.395-6.817-5.575-.087.445-.138.905-.138 1.375 0 3.845 3.115 6.955 6.955 6.955 3.843 0 6.955-3.11 6.955-6.955 0-.47-.047-.93-.135-1.375-.64 3.18-3.45 5.575-6.82 5.575zM258.735 358.61c-3.37 0-6.178-2.395-6.818-5.575-.09.445-.137.905-.137 1.375 0 3.845 3.112 6.955 6.955 6.955 3.842 0 6.955-3.11 6.955-6.955 0-.47-.048-.93-.138-1.375-.64 3.18-3.448 5.575-6.817 5.575zM282.572 358.61c-3.37 0-6.18-2.395-6.82-5.575-.09.445-.135.905-.135 1.375 0 3.845 3.112 6.955 6.955 6.955 3.84 0 6.955-3.11 6.955-6.955 0-.47-.05-.93-.14-1.375-.637 3.18-3.445 5.575-6.815 5.575zM306.407 358.61c-3.37 0-6.18-2.395-6.817-5.575-.09.445-.138.905-.138 1.375 0 3.845 3.115 6.955 6.955 6.955 3.843 0 6.955-3.11 6.955-6.955 0-.47-.047-.93-.138-1.375-.636 3.18-3.447 5.575-6.817 5.575zM330.242 358.61c-3.367 0-6.175-2.395-6.814-5.575-.09.445-.14.905-.14 1.375 0 3.845 3.114 6.955 6.954 6.955 3.843 0 6.958-3.11 6.958-6.955 0-.47-.048-.93-.138-1.375-.64 3.18-3.45 5.575-6.82 5.575zM354.08 358.61c-3.367 0-6.178-2.395-6.817-5.575-.09.445-.138.905-.138 1.375 0 3.845 3.115 6.955 6.955 6.955 3.843 0 6.957-3.11 6.957-6.955 0-.47-.05-.93-.14-1.375-.64 3.18-3.447 5.575-6.817 5.575z"/></g><g fill="#fff"><circle cx="139.552" cy="352.345" r="6.955"/><circle cx="163.387" cy="352.345" r="6.955"/><circle cx="187.225" cy="352.345" r="6.955"/><circle cx="211.063" cy="352.345" r="6.955"/><circle cx="234.897" cy="352.345" r="6.955"/><circle cx="258.735" cy="352.345" r="6.955"/><circle cx="282.572" cy="352.345" r="6.955"/><circle cx="306.407" cy="352.345" r="6.955"/><circle cx="330.244" cy="352.345" r="6.957"/><circle cx="354.081" cy="352.345" r="6.956"/></g><path d="M334.88 380.8h-179.2v-5.11c0-4.51 3.81-8.33 8.317-8.33h162.75c4.51 0 8.133 3.82 8.133 8.33v5.11z" opacity=".3"/><path d="M335.52 382.72h-179.2v-5.11c0-4.51 3.81-8.33 8.318-8.33h162.75c4.51 0 8.132 3.82 8.132 8.33v5.11z" fill="#fff"/><path d="M435.622 303.105c-.697-.663-1.6-1.007-2.56-.953l-20.035 1.113c-.678-2.103-1.895-3.513-3.298-3.535l-.455-20.333c-.028-1.22-1.038-2.188-2.258-2.16l-.25.005c-.585.015-1.143.26-1.548.682-.405.425-.626 1.15-.613 1.735l.04 1.94h-5.768v-5.99c0-2.19-1.74-4.25-3.934-4.25h-3.08c-2.192 0-3.867 2.06-3.867 4.25v20.99c0 2.19 1.674 4.2 3.866 4.2h3.08c2.192 0 3.933-2.01 3.933-4.2v-6.68h5.972l.57 25.424c.012.585.257 1.222.682 1.625.423.404.99.664 1.578.65l.252.016c1.218-.028 2.188-1.03 2.158-2.25l-.025-1.083c1.235-.21 2.3-1.495 2.93-3.353l20.105 1.12c.96.053 1.822-.292 2.52-.955.7-.66 1.018-1.58 1.018-2.542v-2.925c0-.96-.318-1.883-1.018-2.543z" fill="#231F20"/></svg>