<svg xmlns="http://www.w3.org/2000/svg" width="100" height="100"><path fill-rule="evenodd" clip-rule="evenodd" fill="#E64C3C" d="M87.55 15.63L11.91 91.01c-2.724 2.75-7.142 2.75-9.867 0-2.725-2.753-2.725-7.215 0-9.966l2.56-2.584c.583-.59 1.53-.59 2.114 0 .584.59.584 1.546 0 2.136l-2.56 2.584c-1.556 1.573-1.556 4.122 0 5.695 1.558 1.573 4.083 1.573 5.64 0l75.638-75.38c.584-.59 1.53-.59 2.114 0 .583.59.583 1.545 0 2.135z"/><path fill-rule="evenodd" clip-rule="evenodd" fill="#3B97D3" d="M90.86 91.004c-4.45-11.3-13.11-20-25.063-24.58-4.45-11.788-21.31-28.732-33.023-33.212-4.834-12.764-13.538-20.25-22.608-24.434C19.143 3.215 29.71 0 41.03 0 73.598 0 100 26.553 100 59.308c0 11.66-3.36 22.526-9.14 31.696z"/><path clip-rule="evenodd" d="M383.894 632.447c0-32.568-26.553-58.97-59.307-58.97s-59.308 26.4-59.308 58.97c0 32.568 26.552 58.97 59.307 58.97s59.307-26.402 59.307-58.97z" fill="none"/><path opacity=".15" fill-rule="evenodd" clip-rule="evenodd" fill="#fff" d="M83.306 17.98c.204 1.99.31 4.008.31 6.05 0 16.544-6.782 31.685-17.82 42.395 11.954 4.58 20.613 13.28 25.063 24.58 5.78-9.17 9.14-20.036 9.14-31.697 0-16.074-6.368-30.645-16.694-41.327z"/><path opacity=".15" fill-rule="evenodd" clip-rule="evenodd" d="M32.77 33.2C43.36 23.168 57.653 17 73.394 17c3.325 0 6.58.288 9.756.816C72.447 6.826 57.534 0 41.03 0 29.71 0 19.143 3.215 10.166 8.778 19.233 12.96 27.936 20.444 32.77 33.2z"/></svg>