<svg xmlns="http://www.w3.org/2000/svg" width="512" height="512" viewBox="0 0 512 512"><path d="M512 256.002C512 397.382 397.387 512 256.006 512 114.616 512 0 397.382 0 256.002 0 114.62 114.615 0 256.006 0 397.386 0 512 114.62 512 256.002z" fill="#334D5C"/><path d="M335.543 339.768H176.08L138.607 483.47c35.168 18.192 75.067 28.53 117.4 28.53 42.19 0 81.954-10.27 117.036-28.346l-37.5-143.886z" fill="#CDECF9"/><path d="M256.006 512c23.908 0 47.033-3.305 68.977-9.453l-18.605-162.78H205.254L186.652 502.44c22.053 6.216 45.31 9.56 69.354 9.56z" fill="#E5F4F9"/><path d="M134.242 394.21c7.22-1.474 18.967-2.533 18.967-2.533s-11.913-.917-19.087-2.34c.873-4.064 3.383-10.428 3.383-10.428s-6.12 2.414-10.19 3.328c-1.368-7.268-2.253-19.03-2.253-19.03s-.828 12.07-2.22 19.107c-4.05-.843-10.544-3.406-10.544-3.406s2.315 5.897 3.27 9.962c-7.35 1.444-18.976 2.48-18.976 2.48s11.738 1.122 19.016 2.638c-.92 4.067-3.31 10.13-3.31 10.13s6.267-2.472 10.33-3.358c1.347 7.113 2.105 19.06 2.105 19.06s1.027-11.995 2.514-19.042c4.07.902 10.257 3.34 10.257 3.34s-2.306-5.843-3.265-9.91zM146 103.513c3.092-.628 8.115-1.08 8.115-1.08s-5.096-.394-8.162-1.005c.375-1.735 1.447-4.457 1.447-4.457s-2.617 1.034-4.355 1.425c-.588-3.11-.97-8.138-.97-8.138s-.35 5.16-.942 8.17c-1.732-.36-4.512-1.456-4.512-1.456s.993 2.522 1.4 4.263c-3.148.615-8.116 1.06-8.116 1.06s5.018.48 8.13 1.128c-.394 1.74-1.413 4.333-1.413 4.333s2.68-1.057 4.417-1.438c.574 3.043.898 8.152.898 8.152s.44-5.13 1.072-8.144c1.748.384 4.393 1.43 4.393 1.43s-.986-2.5-1.4-4.24zM392.783 161.874c4.61-.944 12.113-1.62 12.113-1.62s-7.602-.586-12.188-1.494c.56-2.594 2.158-6.658 2.158-6.658s-3.908 1.543-6.5 2.127c-.88-4.64-1.44-12.152-1.44-12.152s-.524 7.706-1.417 12.202c-2.585-.54-6.735-2.178-6.735-2.178s1.482 3.768 2.09 6.363c-4.69.92-12.12 1.584-12.12 1.584s7.495.714 12.146 1.685c-.585 2.594-2.114 6.464-2.114 6.464s4-1.576 6.6-2.144c.852 4.54 1.346 12.17 1.346 12.17s.646-7.66 1.6-12.16c2.596.58 6.547 2.134 6.547 2.134s-1.473-3.732-2.087-6.326z" fill="#939FA7"/><path d="M405.436 266.926l-300.033-5.344 24.537 58.227h.174c7.148 19.51 60.77 34.68 125.893 34.68 64.11 0 117.072-14.7 125.52-33.778h.033l23.876-53.786z" fill="#246D5A"/><path d="M465.594 250.56c0 35.734-93.844 64.705-209.588 64.705-115.754 0-209.588-28.97-209.588-64.704 0-35.738 93.834-64.71 209.588-64.71 115.744.002 209.588 28.972 209.588 64.71z" fill="#45B39C"/><path d="M441.916 250.56c0 31.696-83.242 57.395-185.91 57.395-102.678 0-185.91-25.698-185.91-57.394 0-31.7 83.232-57.396 185.91-57.396 102.668 0 185.91 25.696 185.91 57.397z" fill="#EADB94"/><path d="M403.848 250.56c0 25.21-66.193 45.64-147.842 45.64-81.65 0-147.846-20.43-147.846-45.64 0-25.213 66.195-45.643 147.846-45.643 81.648 0 147.842 20.43 147.842 45.644z" fill="#45B39C"/><path d="M383.443 251.887c0 21.73-57.055 39.342-127.438 39.342-70.387 0-127.447-17.613-127.447-39.343 0-21.736 57.06-39.345 127.447-39.345 70.384 0 127.438 17.608 127.438 39.345z" fill="#EADB94"/><path d="M256.006 315.266c-115.754 0-209.588-28.97-209.588-64.704 0 45.776 93.834 82.888 209.588 82.888 115.744 0 209.588-37.11 209.588-82.888 0 35.733-93.844 64.704-209.588 64.704z" fill="#328E78"/><path d="M369.86 250.086c0-17.076-14.03-111.367-113.888-111.52v-.006c-.053 0-.102.003-.154.003-.045 0-.107-.044-.146-.003-.006.003 0 .006 0 .006-99.857.152-113.887 94.443-113.887 111.52l114.033-2.24 114.04 2.24z" fill="#A0DCEA"/><path d="M166.607 226.14c-.64 0-1.285-.095-1.932-.288-3.525-1.062-5.523-4.787-4.457-8.312 6.762-22.392 25.643-61.05 76.127-68.424 3.605-.506 7.035 1.99 7.568 5.64.533 3.645-1.992 7.03-5.637 7.564-41.025 5.993-58.145 35.432-65.283 59.076-.87 2.88-3.52 4.745-6.386 4.745z" fill="#fff"/><path d="M370.166 251.02c0 19.467-51.11 35.245-114.16 35.245s-114.162-15.778-114.162-35.245c0-19.47 51.113-35.246 114.162-35.246 63.05 0 114.16 15.777 114.16 35.246z" fill="#81C2CC"/></svg>