<svg xmlns="http://www.w3.org/2000/svg" width="100" height="100"><path fill="#EBEDEE" d="M4 0h92c2.21 0 4 1.79 4 4v92c0 2.21-1.79 4-4 4H4c-2.21 0-4-1.79-4-4V4c0-2.21 1.79-4 4-4z"/><path fill="#fff" d="M10 20h80v70H10V20z"/><path fill="#E74C3C" d="M13 7c1.657 0 3 1.344 3 3 0 1.657-1.343 3-3 3s-3-1.343-3-3c0-1.656 1.343-3 3-3z"/><path fill="#F39C12" d="M23 7c1.657 0 3 1.344 3 3 0 1.657-1.343 3-3 3s-3-1.343-3-3c0-1.656 1.343-3 3-3z"/><path fill="#17A085" d="M33 7c1.657 0 3 1.344 3 3 0 1.657-1.343 3-3 3s-3-1.343-3-3c0-1.656 1.343-3 3-3z"/><path fill="#fff" d="M45 7h45v6H45V7z"/><path fill="#BDC3C7" d="M20 45v5h25v-5H20zm0 15h25v-5H20v5zm0 10h25v-5H20v5zm0 10h25v-5H20v5z"/><path fill="#1ABC9C" d="M20 30h60v10H20V30z"/><path fill="#BDC3C7" d="M50 45v15h30V45H50zm0 35h30V65H50v15z"/></svg>