<svg xmlns="http://www.w3.org/2000/svg" width="511.999" height="512" viewBox="0 0 511.999 512"><path d="M512 256.002C512 397.382 397.385 512 256 512S0 397.382 0 256.002C0 114.62 114.614 0 256 0s256 114.62 256 256.002z" fill="#E05B49"/><path d="M47.015 403.76C93.38 469.223 169.67 512 256 512c86.33 0 162.616-42.777 208.987-108.24H47.015z" fill="#A84437"/><ellipse cx="145.661" cy="165.986" rx="3.118" ry="16.146" fill="#fff"/><path d="M296.048 356.632h-154.57c-10.894-29.048-9.336-118.953 24.897-176.01h27.23s-14.263 151.386 50.572 151.386h58.614l-6.742 24.624z" fill="#EFC84A"/><path d="M297.075 332.008l-6.744 24.624h5.718l6.744-24.624h-5.717zM238.46 332.008h5.718c-64.835 0-50.573-151.387-50.573-151.387h-5.714S173.626 332.01 238.46 332.01z" fill="#D7B441"/><path d="M96.963 356.725c0-25.973 21.063-47.035 47.036-47.035 25.975 0 47.038 21.062 47.038 47.035 0 25.98-21.063 47.036-47.04 47.036-25.972 0-47.035-21.054-47.035-47.035z"/><path d="M122.525 356.725c0-11.86 9.617-21.47 21.474-21.47 11.86 0 21.473 9.61 21.473 21.47S155.863 378.2 144 378.2c-11.857-.002-21.475-9.616-21.475-21.475z" fill="#fff"/><path d="M306.163 356.725c0-25.973 21.06-47.035 47.037-47.035 25.973 0 47.03 21.062 47.03 47.035 0 25.98-21.058 47.036-47.03 47.036-25.976 0-47.037-21.054-47.037-47.035z"/><path d="M331.722 356.725c0-11.86 9.62-21.47 21.48-21.47 11.852 0 21.47 9.61 21.47 21.47s-9.617 21.474-21.47 21.474c-11.86-.002-21.48-9.616-21.48-21.475z" fill="#fff"/><path d="M380.83 221.508h-45.85c-34.374 0-62.243 27.866-62.243 62.244v72.922h170.336v-72.922c0-34.378-27.863-62.244-62.242-62.244zM380.83 221.508h-45.85c-34.374 0-62.243 27.866-62.243 62.244v72.922h170.336v-72.922c0-34.378-27.863-62.244-62.242-62.244z" fill="#EFC84A"/><path d="M380.83 221.508h-23.433c34.38 0 62.246 27.866 62.246 62.244v72.922h23.43v-72.922c0-34.378-27.863-62.244-62.242-62.244z" fill="#D7B441"/><path d="M206.676 356.725c-.45-33.92-28.045-61.286-62.066-61.286s-61.623 27.365-62.07 61.285h124.136z" fill="#EFC84A"/><path d="M144.61 295.44c-2.893 0-5.71.267-8.496.648 30.002 4.115 53.17 29.594 53.58 60.637h16.98c-.447-33.92-28.043-61.286-62.065-61.286zM443.073 356.867c-.613-46.52-38.46-84.05-85.12-84.05-46.663 0-84.507 37.53-85.12 84.05h170.24z" fill="#D7B441"/><path d="M348.927 273.3c-42.418 4.474-75.52 40.087-76.094 83.567h152.193c-.574-43.48-33.673-79.094-76.1-83.566z" fill="#EFC84A"/><path d="M443.356 223.586c0 11.175-9.055 20.23-20.227 20.23H292.42c-11.175 0-20.233-9.055-20.233-20.23 0-11.172 9.058-20.23 20.232-20.23h130.71c11.172 0 20.226 9.058 20.226 20.23z"/><path d="M151.773 152.34c0-3.545 2.88-6.425 6.425-6.425h34.828c3.553 0 6.43 2.88 6.43 6.426v25.455c0 3.55-2.877 6.426-6.43 6.426h-34.828c-3.546 0-6.425-2.876-6.425-6.425V152.34z" fill="#EFC84A"/><path d="M193.026 145.915H182.93c3.552 0 6.428 2.88 6.428 6.426v25.455c0 3.55-2.876 6.426-6.428 6.426h10.096c3.553 0 6.43-2.876 6.43-6.425V152.34c0-3.545-2.877-6.425-6.43-6.425z" fill="#D7B441"/><path d="M218.354 162.384c0 2.74-2.218 4.958-4.958 4.958H185.72c-2.742 0-4.96-2.22-4.96-4.958 0-2.734 2.218-4.954 4.96-4.954h27.676c2.74 0 4.958 2.22 4.958 4.954z" fill="#334D5C"/><path d="M145.458 180.755c0 2.626 2.13 4.75 4.755 4.75h4.61c2.622 0 4.75-2.124 4.75-4.75V149.83c0-2.62-2.128-4.748-4.75-4.748h-4.61c-2.626 0-4.755 2.13-4.755 4.748v30.925z"/><path d="M206.02 95.568c-4.26.444-7.658 8.7-7.658 18.854 0 10.15 3.398 18.405 7.658 18.854V95.568zM174.683 153.642c-.316 0-.63-.065-.93-.21-1.068-.514-1.518-1.8-1.003-2.865.477-.998 11.765-24.487 14.146-29.016 2.313-4.386 4.726-8.318 8.837-8.318 2.668 0 6.435.23 6.598.24 1.18.076 2.08 1.097 2.01 2.28-.075 1.182-1.103 2.045-2.282 2.01-.035-.004-3.79-.233-6.324-.233-1.32 0-2.778 1.744-5.038 6.022-2.347 4.46-13.958 28.626-14.075 28.873-.37.77-1.14 1.217-1.937 1.217z" fill="#fff"/></svg>