<svg xmlns="http://www.w3.org/2000/svg" width="100" height="100"><path fill="#1C3C50" d="M98 10h-4c-1.104 0-9 4.896-9 6H74v26h11c0 1.104 7.896 6 9 6h4c1.104 0 2-.896 2-2V12c0-1.104-.896-2-2-2zM69.98 48.57c.005 2.148.014 3.43.02 3.43v-3l-.02-.43zM12 58c0 .14.014.27.04.402.187.91.994 1.598 1.96 1.598h8.957c1.812 2.618 4.46 6 6.043 6h2c5.523 0 10 4.48 10 10v20c0 2.21 1.79 4 4 4h13c2.21 0 4-1.79 4-4V66h5c2.21 0 3-.79 3-3V52H12v6z"/><path fill="#EBEEEF" d="M70 0H12C5.373 0 0 5.373 0 12v28c0 6.628 5.373 12 12 12h58c-.05 0-.07-52.05 0-52z"/><path fill="#C8CBCB" d="M27 15h-6c-1.104 0-2 .895-2 2v6c0 1.105.896 2 2 2h6c1.104 0 2-.896 2-2v-6c0-1.104-.896-2-2-2z"/><path fill="#23475F" d="M72 0h-2v52h2c1.104 0 2-.896 2-2V2c0-1.104-.896-2-2-2zM85 16h-3v26h3V16z"/><path fill="#fff" d="M54 12c-3.312 0-6 2.687-6 6 0 3.314 2.688 6 6 6s6-2.687 6-6-2.688-6-6-6z"/><path fill="#FF4B39" d="M54 14c-2.21 0-4 1.79-4 4s1.79 4 4 4 4-1.79 4-4-1.79-4-4-4z"/><path fill="#00BD9C" d="M37 14H13c-1.104 0-2 .896-2 2v4c0 1.104.896 2 2 2h24c1.104 0 2-.895 2-2v-4c0-1.104-.896-2-2-2z"/><path fill="#1C3C50" d="M28 13h-6c-1.104 0-2 .895-2 2v6c0 1.105.896 2 2 2h6c1.104 0 2-.896 2-2v-6c0-1.104-.896-2-2-2z"/><path fill="#23475F" d="M26 13h-2v10h2V13z"/><path fill="#BCC4C8" d="M0 36v4c0 6.628 5.373 12 12 12h58c-.02 0-.033-7.073-.04-16H0z"/><path fill="#23475F" d="M98 10h-4c-.176 0-.538.135-1 .35v37.3c.462.215.824.35 1 .35h4c1.104 0 2-.896 2-2V12c0-1.104-.896-2-2-2z"/><path fill="#00A185" d="M20 21v-5.722c-.595.346-1 .984-1 1.723v5h1.277c-.172-.295-.277-.634-.277-1z"/><path fill="#23475F" d="M22.957 60c1.812 2.618 4.46 6 6.043 6h38c2.21 0 3-.79 3-3"/><path fill="#23475F" d="M22.957 60c1.812 2.618 4.46 6 6.043 6h38c2.21 0 3-.79 3-3v-3H22.957z"/></svg>