<svg xmlns="http://www.w3.org/2000/svg" xmlns:xlink="http://www.w3.org/1999/xlink" width="512" height="512.001" viewBox="0 0 512 512.001"><circle cx="256" cy="256" r="256" fill="#45B39C"/><path d="M373.07 164.145H130.017c-15.026 0-27.208 12.182-27.208 27.208h267.54v78.333l2.72.57c15.027 0 27.21-12.183 27.21-27.21v-51.693c0-15.027-12.183-27.208-27.21-27.208z" fill="#E37D3E"/><path d="M392.116 191.353c0-12-9.77-21.766-21.77-21.766h-237.61c-12 0-21.765 9.765-21.765 21.766v.907c0 12 9.765 21.766 21.767 21.766H370.35v56.23h21.767v-78.903zM392.116 191.353c0-12-9.77-21.766-21.77-21.766h-237.61c-12 0-21.765 9.765-21.765 21.766v.907c0 12 9.765 21.766 21.767 21.766H370.35v56.23h21.767v-78.903zM119.464 174.12c.455-.35.924-.685 1.408-1-.484.316-.953.65-1.408 1zM120.9 173.102c.953-.62 1.957-1.167 3.004-1.635-1.048.467-2.05 1.014-3.003 1.635zM131.063 169.658c.553-.043 1.11-.07 1.674-.07-.564 0-1.122.027-1.674.07zM129.178 169.883c.522-.087 1.052-.154 1.586-.202-.534.05-1.064.116-1.586.203zM124 171.424c.504-.223 1.018-.426 1.54-.61-.522.184-1.036.387-1.54.61zM370.345 174.12H119.462c-1.673 1.292-3.15 2.82-4.388 4.536h255.27c12.002 0 21.772 9.764 21.772 21.766v-4.535c0-12-9.77-21.766-21.77-21.766zM370.345 183.19h-257.78c-.585 1.443-1.02 2.96-1.285 4.535h259.065c12 0 21.77 9.766 21.77 21.767v-4.534c0-12.003-9.77-21.767-21.77-21.767zM125.704 170.76c1.038-.356 2.11-.635 3.213-.83-1.1.195-2.175.474-3.213.83z" fill="#A3BA7D"/><path d="M370.345 178.657h-255.27c-1.008 1.396-1.853 2.917-2.51 4.534h257.78c12 0 21.77 9.766 21.77 21.768v-4.535c0-12.003-9.77-21.766-21.77-21.766zM125.54 170.815c.054-.02.108-.037.164-.055-.055.018-.11.035-.163.055zM123.903 171.467c.033-.014.064-.03.097-.043-.032.014-.063.03-.097.043zM120.872 173.12c.01-.007.02-.013.028-.02l-.028.02zM119.462 174.12h.002zM130.764 169.68c.1-.008.2-.016.3-.02-.1.004-.2.012-.3.02zM128.917 169.93c.087-.016.174-.033.26-.047-.086.014-.173.03-.26.047zM370.345 169.587H132.737c-.563 0-1.12.028-1.674.07l-.3.023c-.533.048-1.062.115-1.585.202-.087.014-.174.03-.26.047-1.103.194-2.176.473-3.214.83-.056.017-.11.034-.163.054-.522.184-1.036.387-1.54.61l-.097.042c-1.047.468-2.05 1.014-3.003 1.635-.01.007-.02.013-.028.02-.484.315-.953 1-1.408 1h-.002 250.883c12 0 21.77 9.766 21.77 21.767v-4.534c0-12-9.77-21.766-21.77-21.766z" fill="#7B8C5E"/><path d="M389.038 143.06c8.303 5.386 10.69 16.583 5.307 24.888L278.252 346.98c-5.383 8.3-16.583 10.69-24.885 5.306l-113.82-73.807c-8.304-5.384-10.688-16.582-5.306-24.885L250.335 74.563c5.386-8.304 16.582-10.69 24.884-5.307l113.82 73.805z" fill="#334D5C"/><path d="M134.19 253.676l3.31-5.106 258.835-95.747c1.557 4.952.985 10.537-2.04 15.202L278.2 347.058c-5.385 8.304-16.53 10.612-24.833 5.228l-113.82-73.807c-8.304-5.384-10.743-16.503-5.357-24.804z" opacity=".2" fill="#5D5D5D"/><g fill="#ECF0F0"><path d="M247.204 300.006l-.385.593-4.596-4.287.114 1.855-.624.012-.1-2.523.348-.534 5.242 4.883zM251.156 293.91l-2.456 3.787-.557-.516-.616-4.425c-.028-.224-.062-.43-.104-.62-.04-.187-.094-.36-.16-.52-.07-.16-.155-.303-.26-.435-.105-.13-.24-.25-.4-.355-.152-.098-.304-.154-.46-.172-.154-.018-.307-.005-.453.04-.146.042-.282.114-.408.214-.125.102-.234.225-.33.37-.233.362-.322.72-.266 1.073.057.353.2.664.437.936l-.485.493c-.16-.192-.293-.402-.395-.63-.1-.228-.162-.465-.183-.71-.02-.248.003-.498.066-.753.064-.254.177-.507.34-.758.136-.212.298-.397.483-.557.187-.16.39-.276.608-.353.22-.074.445-.102.682-.078.234.022.47.108.703.26.24.155.43.317.57.486.14.17.25.354.336.553.083.2.147.418.19.655.045.237.086.504.125.798l.51 3.882 2.013-3.102.468.437zM249.74 288.752l.167-.26c.325-.502.472-.963.438-1.384-.032-.42-.27-.774-.712-1.062-.29-.188-.578-.236-.86-.143-.284.094-.517.28-.697.56-.17.26-.263.538-.28.833-.015.294.055.582.21.866l-.59.306c-.364-.828-.307-1.613.173-2.353.136-.21.295-.392.475-.544.183-.15.38-.26.594-.325.212-.066.434-.086.667-.06.23.028.463.118.697.27.172.11.324.244.455.4.128.15.228.325.297.52.068.19.1.404.097.635-.003.232-.046.48-.13.74l.017.013c.122-.113.256-.204.404-.273.148-.07.306-.115.473-.134.166-.018.335-.008.507.032.173.04.336.11.492.213.284.185.518.405.7.662.182.257.302.532.36.827.057.294.054.603-.013.924-.065.32-.2.642-.407.96-.14.217-.302.402-.482.56-.18.155-.372.278-.577.367-.205.09-.42.143-.643.16-.226.017-.45-.01-.676-.076l.176-.728c.162.066.324.096.486.09.163-.006.32-.04.47-.1.15-.06.29-.148.42-.262.128-.115.243-.247.34-.397.134-.206.223-.418.268-.634.045-.216.047-.427.006-.63-.042-.206-.126-.4-.254-.58-.128-.184-.3-.345-.517-.485-.374-.242-.727-.295-1.057-.156-.33.137-.627.407-.887.81l-.17.26-.44-.42zM255.316 283.21l.57-.877.466.434-.57.878 1.268 1.178-.374.577-1.267-1.178-1.758 2.71-.545-.498-1.82-5.69.52-.804 3.51 3.27zm-3.282-2.137l-.01.017 1.55 4.806 1.367-2.106-2.906-2.717zM258.25 271.16l-1.507 2.324 1.6 1.56c.07-.302.19-.585.36-.847.17-.263.364-.473.58-.633.22-.16.45-.268.69-.324.244-.057.49-.062.74-.02.25.043.485.137.708.28.297.192.55.42.76.69.21.266.36.56.446.876.087.318.102.658.04 1.02-.06.36-.212.73-.457 1.11-.28.43-.616.723-1.01.884-.392.16-.782.195-1.166.104l.115-.71c.296.082.584.065.864-.05s.508-.307.68-.574c.17-.262.28-.52.325-.774.046-.256.04-.496-.014-.723-.056-.226-.157-.435-.31-.633-.15-.195-.338-.368-.566-.517-.368-.238-.742-.318-1.12-.24-.38.08-.696.313-.95.704-.136.21-.25.455-.343.732-.094.276-.144.53-.15.763l-2.646-2.57 1.86-2.867.47.434zM261.824 270.153l.026-.006c.003-.15.027-.303.075-.463.048-.158.12-.314.218-.465.152-.234.33-.425.53-.57.2-.147.418-.246.65-.298.23-.05.47-.055.715-.012.243.044.482.142.717.293.312.203.564.44.755.715.19.273.315.567.38.88.06.315.058.636-.01.965-.065.33-.2.652-.407.97-.17.262-.368.47-.59.627-.226.156-.464.262-.72.318-.253.057-.512.06-.77.01-.262-.05-.508-.15-.742-.303-.29-.188-.53-.443-.72-.765-.192-.32-.37-.733-.534-1.237l-1.23-3.766.472-.727 1.186 3.833zm1.224 2.076c.16.103.33.175.507.214.176.04.35.043.52.01.17-.03.336-.1.494-.203.156-.104.293-.245.41-.425.15-.234.25-.473.292-.715.043-.242.038-.478-.015-.707-.054-.228-.152-.44-.297-.64-.145-.196-.325-.364-.542-.505-.155-.102-.32-.172-.49-.21-.173-.04-.342-.048-.51-.02-.165.026-.325.09-.477.19-.15.1-.285.24-.4.417-.15.23-.247.467-.294.71-.047.243-.047.48-.002.713.047.233.14.45.275.655.135.203.312.375.528.516zM264.78 261.143l3.188 6.842-.456.703-3.152-6.95-1.876 2.894-.467-.434 2.276-3.512.487.457zM270.13 258.793c.33-.038.657.047.974.252.335.217.59.468.767.752.177.283.285.58.325.89.04.312.02.622-.063.933-.08.31-.21.6-.382.865-.15.234-.33.434-.532.598-.2.166-.42.283-.65.354-.233.07-.475.09-.727.058-.25-.033-.5-.13-.746-.29-.234-.15-.424-.332-.57-.54-.144-.21-.25-.433-.31-.667-.063-.234-.086-.475-.07-.72.014-.242.064-.476.145-.7l-.017-.012c-.248.174-.514.266-.8.274-.287.01-.555-.067-.806-.23-.25-.162-.454-.36-.61-.594-.158-.232-.265-.483-.318-.754-.056-.27-.056-.547 0-.833.055-.286.167-.56.337-.823.146-.224.312-.41.497-.564.187-.153.384-.26.592-.318.21-.06.426-.072.65-.038.222.034.445.123.668.268.195.127.353.277.474.452.12.175.21.36.268.556.06.194.09.395.09.602.002.206-.027.408-.085.61l.018.01c.253-.225.547-.355.88-.392zm-3.134 1.21c.128.083.26.14.4.17.136.03.277.032.42.007.144-.026.278-.082.403-.166s.237-.202.335-.353c.126-.193.202-.396.227-.604.026-.21.016-.408-.03-.598-.048-.188-.123-.357-.224-.506-.1-.148-.215-.264-.343-.348-.322-.208-.625-.276-.91-.203-.282.074-.526.267-.728.58-.116.177-.186.362-.213.556-.026.192-.018.38.026.562.042.183.12.353.23.512.11.158.246.29.406.394zm2.467 2.573c.318.207.64.273.967.2.326-.074.6-.284.824-.63.155-.24.257-.478.305-.717.046-.24.045-.466-.007-.68-.05-.217-.144-.417-.276-.603-.134-.185-.308-.348-.52-.486-.145-.093-.3-.155-.462-.185s-.324-.028-.482.01c-.16.034-.31.104-.45.206-.142.103-.265.234-.37.396-.14.218-.234.444-.28.68-.045.236-.047.467-.006.69.04.225.125.435.254.628.128.195.296.36.503.492zM275.642 250.492l-.027.006c-.002.148-.026.303-.074.462-.048.16-.12.313-.218.464-.15.234-.33.426-.532.574-.205.15-.422.25-.653.302-.232.052-.468.056-.71.008-.244-.046-.483-.146-.717-.298-.312-.2-.564-.44-.754-.714-.19-.274-.317-.568-.378-.88-.062-.314-.06-.636.006-.965.067-.327.204-.65.41-.97.166-.256.36-.463.587-.62.227-.16.467-.267.722-.324.253-.057.512-.06.772-.01.26.05.508.15.74.303.29.187.53.442.723.764.19.322.37.734.534 1.237l1.23 3.767-.473.728-1.185-3.833zm-1.224-2.077c-.155-.1-.324-.17-.505-.208-.18-.038-.356-.04-.526-.01-.17.033-.335.1-.494.203-.157.104-.294.244-.41.424-.15.233-.247.473-.285.716-.04.243-.034.48.02.708.053.23.15.44.293.635s.32.363.538.504c.156.1.32.17.49.21.173.04.34.047.504.02.165-.028.322-.093.474-.192.15-.1.285-.24.4-.418.145-.223.242-.457.29-.702.05-.245.053-.484.01-.718-.042-.233-.13-.45-.268-.655-.136-.204-.313-.377-.53-.517zM280.925 248.004l-.386.594-4.596-4.287.114 1.856-.624.012-.1-2.523.35-.534 5.24 4.884zM278.287 238.776c.18-.28.387-.482.62-.607.23-.128.48-.194.746-.2.265-.006.538.042.82.146.28.104.558.243.83.42.285.185.572.4.863.65.29.247.564.515.82.804.256.29.482.592.68.91.197.318.344.643.438.973.096.33.13.658.1.984-.03.325-.142.643-.342.948-.185.284-.393.49-.625.616-.232.127-.478.194-.736.2-.256.008-.525-.04-.803-.14-.28-.103-.558-.244-.837-.425-.29-.188-.582-.405-.877-.652-.295-.246-.57-.514-.827-.803-.256-.29-.482-.594-.678-.915-.196-.32-.342-.646-.438-.974-.096-.326-.13-.654-.098-.982.03-.328.146-.646.345-.952zm.472.37c-.183.28-.24.604-.175.976.064.37.216.754.456 1.148.24.395.55.78.927 1.16.377.38.788.713 1.234 1.002.207.135.415.245.625.334.208.088.406.14.595.152.188.016.366-.014.533-.088.168-.074.31-.203.43-.39.178-.272.236-.595.175-.964-.062-.37-.21-.75-.45-1.143-.236-.393-.54-.776-.915-1.154-.374-.378-.784-.712-1.23-1-.208-.136-.416-.247-.628-.337-.21-.09-.414-.143-.608-.162-.194-.017-.373.01-.54.08-.165.073-.31.2-.428.385zM287.213 238.305l-.385.594-4.595-4.287.114 1.856-.624.01-.1-2.522.348-.535 5.243 4.882zM293.07 229.276l-.386.594-4.596-4.286.115 1.856-.625.01-.1-2.52.35-.536 5.24 4.882zM296.213 224.427l-.386.594-4.595-4.285.114 1.855-.624.01-.1-2.522.348-.535 5.243 4.884zM300.165 218.332l-2.456 3.787-.558-.517-.616-4.426c-.028-.224-.063-.43-.104-.62-.04-.187-.094-.36-.162-.52-.068-.158-.154-.303-.26-.434-.103-.13-.237-.25-.4-.355-.15-.098-.303-.154-.458-.172-.155-.018-.307-.005-.453.038-.148.044-.284.115-.41.216-.124.102-.234.225-.328.37-.235.362-.324.72-.268 1.072.057.354.2.665.438.936l-.486.494c-.16-.192-.292-.402-.393-.63-.102-.227-.162-.464-.183-.71-.02-.247.002-.497.066-.752.063-.254.176-.508.34-.758.136-.21.298-.396.483-.557.187-.158.39-.275.608-.352.218-.074.444-.102.68-.08.235.022.47.11.705.262.24.154.428.317.57.486.138.17.25.354.336.553.082.2.147.418.19.655.044.237.086.504.125.798l.51 3.882 2.013-3.102.467.436zM302.5 214.73l-.384.593-4.595-4.286.115 1.855-.624.01-.098-2.52.347-.535 5.24 4.882z"/></g><path d="M243.347 130.916c2.402 1.555 3.085 4.758 1.527 7.16l-.014.02-1.815 2.8-2.275 3.507c-.094.146-.3.19-.446.098l-12.636-8.194c-.168-.107-.21-.314-.114-.46l2.273-3.51 1.394-2.15c1.49-2.298 4.556-2.95 6.854-1.462.605.395 1.11.897 1.448 1.473 1.278-.24 2.636-.04 3.805.72zm-8.66 1.918l-1.124 1.732c-.04.064-.017.166.062.22l.796.514c.063.042.147.005.186-.057l1.125-1.733c.14-.208.017-.523-.277-.715-.293-.187-.63-.172-.767.04zm6.02 2.153c-.374-.242-.834-.182-1.02.11l-.014.02-1.56 2.402c-.038.06-.036.15.025.192l1.128.73c.064.043.166.018.207-.045l1.556-2.4.013-.022c.19-.29.063-.732-.336-.988zM239.354 117.674c.108-.165.342-.252.508-.23l16.26 2.738c.165.02.235.184.14.33l-2.193 3.383c-.093.146-.32.268-.51.232l-.868-.118c-.188-.033-.414.088-.51.232l-2.572 3.97c-.094.144-.112.4-.007.56l.466.745c.104.157.103.392-.01.56l-2.19 3.38c-.095.15-.276.15-.36.006l-9.134-13.725c-.085-.144-.104-.393.006-.56l.972-1.504zm8.497 5.837c.136-.207.043-.385-.177-.41l-1.652-.243c-.243-.036-.324.09-.19.295l.896 1.41c.113.19.313.202.448-.007l.677-1.044zM251.11 99.55c.107-.168.314-.212.48-.104l12.636 8.193c.145.095.19.3.082.468l-2.194 3.383c-.097.15-.32.267-.522.257l-7.31-.348c-.177 0-.218.063-.052.17l5.243 3.4c.145.096.188.3.08.467l-2.193 3.385c-.097.146-.303.19-.446.096l-12.636-8.192c-.167-.11-.21-.314-.117-.462l2.196-3.383c.108-.166.332-.286.535-.274l7.31.348c.198.012.22-.064.05-.174l-5.22-3.385c-.165-.107-.21-.314-.114-.46l2.193-3.384zM255.022 93.514c.108-.168.317-.21.482-.104l3.57 2.315c.148.098.21.047.137-.118l-2.144-4.74c-.07-.165-.054-.42.056-.59l2.464-3.8c.094-.146.24-.14.31.022l3.258 7.422c.07.164.3.312.467.33l9.205.217c.182-.005.244.127.135.292l-2.465 3.802c-.094.146-.32.265-.5.27l-5.94-.083c-.198-.01-.22.065-.05.173l4.133 2.682c.148.094.19.3.084.47l-2.196 3.38c-.095.148-.3.192-.448.098l-12.632-8.195c-.167-.106-.212-.312-.118-.46l2.194-3.384z" fill="#ECF0F0"/><path fill="#334D5C" d="M228.99 146.5l43.464-67.022.906.587-43.465 67.022zM224.48 143.555l43.463-67.03.906.588-43.464 67.03zM233.22 149.246l43.463-67.02.907.587-43.464 67.02z"/><path d="M374.146 149.005c7.19 4.663 9.237 14.27 4.575 21.457-4.66 7.19-14.264 9.237-21.453 4.575-7.188-4.663-9.24-14.266-4.578-21.455 4.66-7.19 14.268-9.238 21.456-4.577zM374.146 149.005c7.19 4.663 9.237 14.27 4.575 21.457-4.66 7.19-14.264 9.237-21.453 4.575-7.188-4.663-9.24-14.266-4.578-21.455 4.66-7.19 14.268-9.238 21.456-4.577z" fill="#EFC84A"/><circle cx="354.451" cy="179.376" r="15.514" fill="#E05B49"/><path d="M366.06 169.088c-.136-.152-.276-.305-.42-.452-.007-.012-.016-.02-.027-.03-.347-.36-.715-.707-1.104-1.038-.065-.055-.132-.112-.2-.167-.096-.077-.19-.153-.29-.23-.103-.08-.206-.16-.314-.237-.076-.06-.15-.115-.23-.172-.19-.134-.384-.27-.584-.4-1.7-1.1-3.535-1.823-5.408-2.194-.01-.005-.02-.005-.026-.006-.67-.13-1.346-.22-2.024-.262h-.015c-.334-.02-.663-.032-.994-.03h-.03c-.663.003-1.322.048-1.975.136l-.104.014c-.306.042-.615.094-.92.155l-.037.007c-.33.068-.655.144-.98.23-3.553.97-6.782 3.193-8.944 6.527-4.662 7.19-2.613 16.795 4.575 21.457 7.19 4.662 16.795 2.61 21.46-4.575 2.16-3.336 2.877-7.19 2.307-10.83-.032-.213-.07-.426-.113-.635-.005-.025-.008-.05-.012-.076-.045-.197-.087-.396-.137-.594-.01-.036-.016-.07-.025-.107-.05-.19-.103-.383-.158-.574-.012-.037-.02-.076-.032-.113-.056-.19-.118-.377-.183-.564-.015-.038-.025-.08-.04-.117-.065-.185-.135-.37-.208-.555-.016-.037-.032-.075-.045-.114-.076-.184-.153-.363-.233-.542l-.052-.116c-.082-.18-.17-.355-.26-.53-.017-.04-.038-.077-.057-.116-.09-.174-.184-.344-.277-.516-.013-.017-.02-.035-.03-.05h-.003c-.517-.91-1.13-1.767-1.837-2.563-.005-.01-.01-.016-.015-.022z" fill="#E05B49"/><path d="M360.24 161.678l-6.57 10.133c.235.288.482.57.74.84l6.903-10.64c-.356-.125-.713-.234-1.072-.332zM357.19 174.985l7.385-11.39c-.308-.196-.618-.377-.933-.55l-7.334 11.312c.285.216.576.428.88.628zM360.423 176.608l6.952-10.722c-.253-.26-.516-.518-.79-.764l-7.18 11.074c.335.15.677.288 1.018.412zM364.162 177.46l5.514-8.507c-.194-.346-.408-.68-.633-1.01l-6.06 9.347c.39.072.784.13 1.18.17z" fill="#EFC84A"/><path d="M221.2 303.123c.5.322.426.654-.163.735l-17.737 2.47c-.59.082-1.204-.317-1.37-.888l-4.978-17.2c-.165-.57.107-.773.605-.45l23.643 15.333z" fill="#E27C3E"/><path fill="#ECF0F0" d="M320.145 223.19l1.51.98-57.343 88.475-1.51-.978zM330.253 234.044l1.51.978-55.386 85.456-1.51-.978z"/><path d="M370.345 192.26H110.97c0 1.555.168 3.07.48 4.535h258.895c12 0 21.77 9.764 21.77 21.766v-4.534c0-12.002-9.77-21.766-21.77-21.766z" fill="#A3BA7D"/><path d="M370.345 187.725H111.28c-.2 1.182-.31 2.392-.31 3.628v.907h259.374c12 0 21.77 9.764 21.77 21.766v-4.534c.002-12.002-9.768-21.767-21.77-21.767z" fill="#7B8C5E"/><path d="M370.345 201.33H112.958c.75 1.63 1.694 3.15 2.806 4.533h254.58c12.002 0 21.772 9.765 21.772 21.766v-4.535c0-12-9.77-21.766-21.77-21.766zM370.345 210.4H120.723c3.446 2.288 7.576 3.626 12.014 3.626H370.35v56.23h21.767v-38.092c0-12.002-9.77-21.765-21.772-21.765z" fill="#A3BA7D"/><path d="M370.345 196.795H111.45c.336 1.582.847 3.1 1.508 4.534h257.387c12 0 21.77 9.764 21.77 21.765v-4.534c0-12-9.77-21.765-21.77-21.765zM370.345 205.864h-254.58c1.408 1.754 3.08 3.286 4.958 4.535h249.622c12 0 21.77 9.763 21.77 21.765v-4.535c0-12.002-9.77-21.766-21.77-21.766z" fill="#7B8C5E"/><path d="M425.672 298.37c0 19.95 1.814 36.276-18.14 36.276H355.84c-19.953 0-36.277-16.325-36.277-36.277 0-19.953 16.324-36.278 36.276-36.278h51.693c19.953 0 18.14 16.325 18.14 36.277z" fill="#733F1F"/><path d="M422.95 304.718c0 19.952 1.815 36.276-18.138 36.276h-51.694c-19.952 0-36.276-16.324-36.276-36.276s16.324-36.276 36.276-36.276h51.694c19.953 0 18.14 16.324 18.14 36.276z" fill="#542E17"/><path d="M370.35 214.026H132.738c-12.002 0-21.767-9.764-21.767-21.766v-.907h-8.16v.907c0 15.025 12.18 27.207 27.207 27.207l240.333 50.22v-42.02c14.922 9.068 38.998 19.01 38.998 19.01s3.627-32.65-38.998-32.65z" fill="#C26B35"/><path d="M382.14 219.467H130.017c-15.026 0-27.208-12.182-27.208-27.207V378.178c0 15.027 12.18 27.208 27.207 27.208H382.14c15.026 0 27.208-12.18 27.208-27.208V246.675c0-15.026-12.182-27.208-27.208-27.208z" fill="#9E572B"/><path d="M127.295 382.713c-5 0-9.068-4.068-9.068-9.07V227.027c2.93.598 5.964 6.046 9.068 6.046H379.42c5 0 9.068 4.068 9.068 9.07v131.502c0 5-4.07 9.07-9.07 9.07H127.296z" fill="#AD5F2F"/><defs><path id="a" d="M382.14 219.467H130.017c-15.026 0-27.208-12.182-27.208-27.207V378.178c0 15.027 12.18 27.208 27.207 27.208H382.14c15.026 0 27.208-12.18 27.208-27.208V246.675c0-15.026-12.182-27.208-27.208-27.208z"/></defs><clipPath id="b"><use xlink:href="#a" overflow="visible"/></clipPath><path d="M94.102 205.846l-1.274-1.576c-.643-.772-1.284-1.546-1.284-1.546l1.55-1.325 1.315 1.58 1.28 1.586-1.588 1.28zM97.98 210.586l-1.312-1.573-1.29-1.583 1.588-1.283 1.278 1.57 1.293 1.55-1.558 1.32z" clip-path="url(#b)" fill="#733F1F"/><path clip-path="url(#b)" fill="none" d="M97.98 210.586l1.335 1.553 1.537-1.343-1.315-1.53zM91.543 202.724l-.653-.747-.665-.717 1.467-1.42s.358.39.718.775l.685.783-1.552 1.326z"/><path d="M103.52 216.652s-.736-.722-1.438-1.474c-.713-.742-1.4-1.506-1.4-1.506l1.51-1.373s.673.747 1.37 1.47c.684.735 1.4 1.437 1.4 1.437l-1.44 1.445zM108.105 220.82l-1.576-1.34c-.768-.692-1.527-1.393-1.528-1.393l1.398-1.487s.735.678 1.478 1.348l1.52 1.293-1.293 1.58z" clip-path="url(#b)" fill="#733F1F"/><path clip-path="url(#b)" fill="none" d="M108.105 220.82l1.632 1.28 1.228-1.63-1.567-1.23zM100.68 213.672l-.69-.762-.676-.77 1.537-1.343.665.756.675.746-1.51 1.372z"/><path d="M114.97 225.498s-.233-.117-.572-.312c-.335-.2-.782-.47-1.23-.737-.452-.26-.872-.568-1.2-.777l-.543-.36 1.156-1.682s.207.14.518.344c.313.2.715.496 1.144.74.425.254.85.51 1.17.7.32.186.54.296.54.296l-.98 1.788zM120.717 228.02l-.624-.205c-.375-.123-.856-.332-1.346-.52-.49-.185-.97-.396-1.323-.568-.355-.166-.593-.275-.593-.275l.88-1.842.56.26c.33.164.782.36 1.243.533.46.177.912.375 1.262.488l.584.192-.643 1.937z" clip-path="url(#b)" fill="#733F1F"/><path d="M120.717 228.02s.5.16 1 .324l1.016.268.51-1.977-.95-.248-.934-.306-.643 1.94zM111.424 223.313s-.43-.293-.847-.602l-.84-.61 1.228-1.63.805.586c.4.297.81.574.81.574l-1.156 1.683z" clip-path="url(#b)" fill="none"/><path d="M128.972 229.52s-1.056-.006-2.1-.152c-1.053-.086-2.085-.305-2.085-.305l.368-2.007s.96.204 1.938.282c.972.14 1.952.143 1.952.143l-.073 2.04zM131.04 227.516h4.066v2.04h-4.066z" clip-path="url(#b)" fill="#733F1F"/><path clip-path="url(#b)" fill="none" d="M135.107 227.516h2.033v2.04h-2.033zM124.787 229.063l-1.035-.19c-.51-.132-1.02-.26-1.02-.26l.51-1.978.95.242.963.18-.368 2.006z"/><path clip-path="url(#b)" fill="#733F1F" d="M139.173 227.516h4.065v2.04h-4.065zM145.272 227.516h4.066v2.04h-4.066z"/><path clip-path="url(#b)" fill="none" d="M149.338 227.516h2.033v2.04h-2.032zM137.14 227.516h2.033v2.04h-2.033z"/><path clip-path="url(#b)" fill="#733F1F" d="M153.404 227.516h4.065v2.04h-4.066zM159.503 227.516h4.066v2.04h-4.067z"/><path clip-path="url(#b)" fill="none" d="M163.57 227.516h2.033v2.04h-2.033zM151.37 227.516h2.034v2.04h-2.033z"/><path clip-path="url(#b)" fill="#733F1F" d="M167.635 227.516h4.066v2.04h-4.065zM173.735 227.516h4.066v2.04h-4.065z"/><path clip-path="url(#b)" fill="none" d="M177.8 227.516h2.033v2.04H177.8zM165.603 227.516h2.032v2.04h-2.032z"/><path clip-path="url(#b)" fill="#733F1F" d="M181.866 227.516h4.066v2.04h-4.066zM187.966 227.516h4.065v2.04h-4.064z"/><path clip-path="url(#b)" fill="none" d="M192.032 227.516h2.033v2.04h-2.033zM179.833 227.516h2.033v2.04h-2.033z"/><path clip-path="url(#b)" fill="#733F1F" d="M196.098 227.516h4.066v2.04h-4.066zM202.197 227.516h4.065v2.04h-4.065z"/><path clip-path="url(#b)" fill="none" d="M206.263 227.516h2.033v2.04h-2.033zM194.065 227.516h2.033v2.04h-2.033z"/><path clip-path="url(#b)" fill="#733F1F" d="M210.33 227.516h4.065v2.04h-4.066zM216.428 227.516h4.066v2.04h-4.066z"/><path clip-path="url(#b)" fill="none" d="M220.494 227.516h2.033v2.04h-2.033zM208.296 227.516h2.033v2.04h-2.034z"/><path clip-path="url(#b)" fill="#733F1F" d="M224.56 227.516h4.066v2.04h-4.065zM230.66 227.516h4.065v2.04h-4.066z"/><path clip-path="url(#b)" fill="none" d="M234.726 227.516h2.033v2.04h-2.034zM222.528 227.516h2.033v2.04h-2.032z"/><path clip-path="url(#b)" fill="#733F1F" d="M238.792 227.516h4.065v2.04h-4.065zM244.89 227.516h4.067v2.04h-4.066z"/><path clip-path="url(#b)" fill="none" d="M248.957 227.516h2.033v2.04h-2.033zM236.76 227.516h2.032v2.04h-2.033z"/><path clip-path="url(#b)" fill="#733F1F" d="M253.023 227.516h4.066v2.04h-4.067zM259.122 227.516h4.066v2.04h-4.066z"/><path clip-path="url(#b)" fill="none" d="M263.19 227.516h2.03v2.04h-2.03zM250.99 227.516h2.032v2.04h-2.032z"/><path clip-path="url(#b)" fill="#733F1F" d="M267.254 227.516h4.066v2.04h-4.066zM273.354 227.516h4.065v2.04h-4.066z"/><path clip-path="url(#b)" fill="none" d="M277.42 227.516h2.032v2.04h-2.033zM265.22 227.516h2.034v2.04h-2.033z"/><path clip-path="url(#b)" fill="#733F1F" d="M281.486 227.516h4.066v2.04h-4.066zM287.585 227.516h4.065v2.04h-4.065z"/><path clip-path="url(#b)" fill="none" d="M291.65 227.516h2.034v2.04h-2.033zM279.452 227.516h2.033v2.04h-2.033z"/><path clip-path="url(#b)" fill="#733F1F" d="M295.716 227.516h4.066v2.04h-4.066zM301.816 227.516h4.066v2.04h-4.066z"/><path clip-path="url(#b)" fill="none" d="M305.882 227.516h2.032v2.04h-2.032zM293.684 227.516h2.032v2.04h-2.032z"/><path clip-path="url(#b)" fill="#733F1F" d="M309.947 227.516h4.066v2.04h-4.066zM316.047 227.516h4.065v2.04h-4.065z"/><path clip-path="url(#b)" fill="none" d="M320.112 227.516h2.033v2.04h-2.033zM307.914 227.516h2.033v2.04h-2.033z"/><path clip-path="url(#b)" fill="#733F1F" d="M324.18 227.516h4.065v2.04h-4.066zM330.28 227.516h4.064v2.04h-4.065z"/><path clip-path="url(#b)" fill="none" d="M334.344 227.516h2.033v2.04h-2.033zM322.146 227.516h2.033v2.04h-2.034z"/><path clip-path="url(#b)" fill="#733F1F" d="M338.41 227.516h4.066v2.04h-4.066zM344.51 227.516h4.065v2.04h-4.066z"/><path clip-path="url(#b)" fill="none" d="M348.575 227.516h2.033v2.04h-2.033zM336.377 227.516h2.033v2.04h-2.033z"/><path clip-path="url(#b)" fill="#733F1F" d="M352.642 227.516h4.065v2.04h-4.065zM358.74 227.516h4.066v2.04h-4.066z"/><path clip-path="url(#b)" fill="none" d="M362.807 227.516h2.033v2.04h-2.033zM350.61 227.516h2.032v2.04h-2.033z"/><path clip-path="url(#b)" fill="#733F1F" d="M366.873 227.516h4.065v2.04h-4.065zM372.972 227.516h4.066v2.04h-4.066z"/><path clip-path="url(#b)" fill="none" d="M377.038 227.516h2.033v2.04h-2.032zM364.84 227.516h2.033v2.04h-2.033z"/><path d="M384.986 229.815l-.593-.09c-.354-.074-.833-.102-1.312-.12-.934-.068-1.976-.048-1.976-.048v-2.04s.993-.024 2.088.052c.537.02 1.072.052 1.47.13l.662.104-.338 2.01zM390.394 231.688s-.208-.12-.535-.27c-.327-.15-.75-.378-1.193-.562l-1.238-.454c-.168-.066-.313-.104-.415-.13-.102-.024-.16-.04-.16-.04l.563-1.96.18.046c.114.027.276.07.464.145.378.14.882.323 1.387.508.494.207.97.46 1.335.628.364.172.598.305.598.305l-.99 1.785z" clip-path="url(#b)" fill="#733F1F"/><path d="M390.394 231.688s1.65.98 1.618 1.028l1.18-1.664c.035-.05-1.81-1.15-1.81-1.15l-.988 1.786zM379.072 227.516h2.032v2.04h-2.032z" clip-path="url(#b)" fill="none"/><path d="M396.07 236.763l-.36-.48c-.108-.143-.233-.312-.368-.493-.15-.166-.314-.344-.475-.52-.326-.352-.633-.725-.913-.95l-.444-.405 1.358-1.522.496.452c.31.256.657.668 1.02 1.062.182.198.36.397.53.584.15.202.292.39.413.55l.402.537-1.66 1.186zM398.57 241.912l-.04-.16c-.022-.104-.07-.245-.135-.412l-.454-1.238c-.19-.44-.412-.865-.564-1.19l-.188-.393-.086-.142 1.782-.993s.035.06.096.158l.213.438c.172.365.417.844.633 1.335.185.504.37 1.01.51 1.387.07.188.124.348.15.463l.045.18-1.96.567z" clip-path="url(#b)" fill="#733F1F"/><path d="M398.57 241.912l.24.928c.063.232.12.465.14.644.025.18.043.297.043.297l2.012-.344-.052-.332c-.022-.2-.085-.46-.155-.72l-.268-1.04-1.96.568zM393.51 233.914l-.223-.2c-.132-.124-.31-.286-.507-.423l-.77-.574 1.182-1.664s.43.32.86.643c.22.153.42.334.565.47l.25.227-1.358 1.522z" clip-path="url(#b)" fill="none"/><path d="M399.258 249.69v-2.032c.02-1.04-.052-1.974-.052-1.974l2.037-.117s.077 1.098.056 2.09v2.033h-2.042zM399.258 251.723h2.04v4.066h-2.04z" clip-path="url(#b)" fill="#733F1F"/><path clip-path="url(#b)" fill="none" d="M399.258 255.79h2.04v2.032h-2.04zM399.206 245.684l-.015-.3c-.014-.18-.003-.42-.052-.656l-.147-.947 2.013-.344.162 1.062c.052.265.043.534.06.734.012.2.018.335.018.335l-2.037.117z"/><path clip-path="url(#b)" fill="#733F1F" d="M399.258 259.856h2.04v4.066h-2.04zM399.258 265.955h2.04v4.065h-2.04z"/><path clip-path="url(#b)" fill="none" d="M399.258 270.02h2.04v2.034h-2.04zM399.258 257.823h2.04v2.033h-2.04z"/><path clip-path="url(#b)" fill="#733F1F" d="M399.258 274.086h2.04v4.066h-2.04zM399.258 280.186h2.04v4.067h-2.04z"/><path clip-path="url(#b)" fill="none" d="M399.258 284.252h2.04v2.033h-2.04zM399.258 272.054h2.04v2.032h-2.04z"/><path clip-path="url(#b)" fill="#733F1F" d="M399.258 288.32h2.04v4.064h-2.04zM399.258 294.418h2.04v4.064h-2.04z"/><path clip-path="url(#b)" fill="none" d="M399.258 298.483h2.04v2.033h-2.04zM399.258 286.285h2.04v2.033h-2.04z"/><path clip-path="url(#b)" fill="#733F1F" d="M399.258 302.55h2.04v4.065h-2.04zM399.258 308.65h2.04v4.065h-2.04z"/><path clip-path="url(#b)" fill="none" d="M399.258 312.715h2.04v2.033h-2.04zM399.258 300.516h2.04v2.033h-2.04z"/><path clip-path="url(#b)" fill="#733F1F" d="M399.258 316.78h2.04v4.067h-2.04zM399.258 322.88h2.04v4.065h-2.04z"/><path clip-path="url(#b)" fill="none" d="M399.258 326.946h2.04v2.033h-2.04zM399.258 314.748h2.04v2.032h-2.04z"/><path clip-path="url(#b)" fill="#733F1F" d="M399.258 331.012h2.04v4.066h-2.04zM399.258 337.112h2.04v4.065h-2.04z"/><path clip-path="url(#b)" fill="none" d="M399.258 341.177h2.04v2.033h-2.04zM399.258 328.98h2.04v2.032h-2.04z"/><path clip-path="url(#b)" fill="#733F1F" d="M399.258 345.243h2.04v4.065h-2.04zM399.258 351.342h2.04v4.066h-2.04z"/><path clip-path="url(#b)" fill="none" d="M399.258 355.41h2.04v2.032h-2.04zM399.258 343.21h2.04v2.033h-2.04z"/><path clip-path="url(#b)" fill="#733F1F" d="M399.258 359.475h2.04v4.066h-2.04zM399.258 365.574h2.04v4.066h-2.04z"/><path clip-path="url(#b)" fill="none" d="M399.258 369.64h2.04v2.032h-2.04zM399.258 357.442h2.04v2.033h-2.04z"/><path clip-path="url(#b)" fill="#733F1F" d="M399.258 373.705h2.04v4.066h-2.04zM398.414 383.46s.09-.222.17-.573l.327-1.276.2-1.303c.065-.354.07-.595.07-.595l2.03.182s-.005.268-.076.665l-.224 1.46-.366 1.43c-.092.393-.19.643-.19.644l-1.94-.633z"/><path d="M398.414 383.46s-.65 1.806-.702 1.784l1.857.846c.055.023.783-1.998.784-1.997l-1.94-.632zM399.258 371.672h2.04v2.033h-2.04z" clip-path="url(#b)" fill="none"/><path d="M394.5 389.987l.404-.443.414-.455.425-.563c.606-.746 1.074-1.586 1.074-1.586l1.75 1.05s-.525.938-1.202 1.775l-.476.627-.463.51-.452.496-1.474-1.41zM389.91 393.41l.147-.07c.095-.047.233-.103.384-.204.31-.186.72-.436 1.128-.685.4-.263.773-.57 1.064-.778.292-.212.475-.367.475-.367l1.31 1.564s-.204.173-.53.41c-.325.237-.742.577-1.19.87-.46.28-.917.56-1.262.768-.17.11-.323.176-.43.228-.104.052-.165.08-.165.08l-.93-1.815z" clip-path="url(#b)" fill="#733F1F"/><path d="M389.91 393.41l-.864.418c-.212.113-.44.19-.608.252-.17.06-.28.103-.28.103l.72 1.91s.125-.048.314-.116c.19-.07.442-.158.68-.283l.97-.467-.932-1.816zM396.818 386.94l.156-.257c.092-.154.228-.353.322-.575l.416-.863 1.857.846-.47.968c-.106.248-.256.47-.358.645l-.174.286-1.75-1.05z" clip-path="url(#b)" fill="none"/><path d="M382.537 395.276l.6-.03c.36-.016.84-.03 1.31-.124.473-.08.952-.127 1.3-.215l.58-.15.5 1.978-.65.166c-.39.1-.925.155-1.454.243-.53.102-1.066.12-1.47.14l-.67.033-.046-2.04zM376.462 395.297h4.066v2.04h-4.066z" clip-path="url(#b)" fill="#733F1F"/><path clip-path="url(#b)" fill="none" d="M374.43 395.297h2.032v2.04h-2.033zM386.328 394.756l.928-.242.9-.33.72 1.908-1.01.37-1.038.272-.5-1.978z"/><path clip-path="url(#b)" fill="#733F1F" d="M368.33 395.297h4.066v2.04h-4.066zM362.23 395.297h4.067v2.04h-4.066z"/><path clip-path="url(#b)" fill="none" d="M360.198 395.297h2.032v2.04h-2.032zM372.397 395.297h2.032v2.04h-2.033z"/><path clip-path="url(#b)" fill="#733F1F" d="M354.1 395.297h4.065v2.04H354.1zM348 395.297h4.065v2.04H348z"/><path clip-path="url(#b)" fill="none" d="M345.967 395.297H348v2.04h-2.033zM358.165 395.297h2.033v2.04h-2.033z"/><path clip-path="url(#b)" fill="#733F1F" d="M339.867 395.297h4.066v2.04h-4.066zM333.77 395.297h4.064v2.04h-4.065z"/><path clip-path="url(#b)" fill="none" d="M331.736 395.297h2.033v2.04h-2.034zM343.934 395.297h2.033v2.04h-2.033z"/><path clip-path="url(#b)" fill="#733F1F" d="M325.636 395.297h4.066v2.04h-4.066zM319.537 395.297h4.066v2.04h-4.066z"/><path clip-path="url(#b)" fill="none" d="M317.504 395.297h2.033v2.04h-2.033zM329.702 395.297h2.033v2.04h-2.033z"/><path clip-path="url(#b)" fill="#733F1F" d="M311.405 395.297h4.065v2.04h-4.065zM305.307 395.297h4.065v2.04h-4.065z"/><path clip-path="url(#b)" fill="none" d="M303.274 395.297h2.033v2.04h-2.033zM315.47 395.297h2.034v2.04h-2.033z"/><path clip-path="url(#b)" fill="#733F1F" d="M297.174 395.297h4.066v2.04h-4.066zM291.075 395.297h4.065v2.04h-4.065z"/><path clip-path="url(#b)" fill="none" d="M289.042 395.297h2.033v2.04h-2.033zM301.24 395.297h2.033v2.04h-2.033z"/><path clip-path="url(#b)" fill="#733F1F" d="M282.943 395.297h4.066v2.04h-4.067zM276.844 395.297h4.066v2.04h-4.066z"/><path clip-path="url(#b)" fill="none" d="M274.81 395.297h2.034v2.04h-2.033zM287.01 395.297h2.032v2.04h-2.033z"/><path clip-path="url(#b)" fill="#733F1F" d="M268.712 395.297h4.065v2.04h-4.065zM262.612 395.297h4.066v2.04h-4.066z"/><path clip-path="url(#b)" fill="none" d="M260.58 395.297h2.032v2.04h-2.033zM272.778 395.297h2.033v2.04h-2.032z"/><path clip-path="url(#b)" fill="#733F1F" d="M254.48 395.297h4.066v2.04h-4.065zM248.38 395.297h4.067v2.04h-4.066z"/><path clip-path="url(#b)" fill="none" d="M246.348 395.297h2.033v2.04h-2.032zM258.546 395.297h2.033v2.04h-2.034z"/><path clip-path="url(#b)" fill="#733F1F" d="M240.25 395.297h4.065v2.04h-4.066zM234.15 395.297h4.067v2.04h-4.067z"/><path clip-path="url(#b)" fill="none" d="M232.117 395.297h2.032v2.04h-2.033zM244.316 395.297h2.032v2.04h-2.032z"/><path clip-path="url(#b)" fill="#733F1F" d="M226.018 395.297h4.066v2.04h-4.066zM219.92 395.297h4.064v2.04h-4.065z"/><path clip-path="url(#b)" fill="none" d="M217.886 395.297h2.033v2.04h-2.034zM230.084 395.297h2.033v2.04h-2.033z"/><path clip-path="url(#b)" fill="#733F1F" d="M211.786 395.297h4.066v2.04h-4.066zM205.688 395.297h4.065v2.04h-4.065z"/><path clip-path="url(#b)" fill="none" d="M203.654 395.297h2.033v2.04h-2.033zM215.853 395.297h2.033v2.04h-2.033z"/><path clip-path="url(#b)" fill="#733F1F" d="M197.555 395.297h4.066v2.04h-4.065zM191.456 395.297h4.066v2.04h-4.066z"/><path clip-path="url(#b)" fill="none" d="M189.423 395.297h2.033v2.04h-2.033zM201.62 395.297h2.034v2.04h-2.033z"/><path clip-path="url(#b)" fill="#733F1F" d="M183.324 395.297h4.065v2.04h-4.066zM177.225 395.297h4.066v2.04h-4.065z"/><path clip-path="url(#b)" fill="none" d="M175.192 395.297h2.033v2.04h-2.033zM187.39 395.297h2.033v2.04h-2.033z"/><path clip-path="url(#b)" fill="#733F1F" d="M169.093 395.297h4.065v2.04h-4.065zM162.993 395.297h4.066v2.04h-4.067z"/><path clip-path="url(#b)" fill="none" d="M160.96 395.297h2.033v2.04h-2.033zM173.158 395.297h2.033v2.04h-2.032z"/><path clip-path="url(#b)" fill="#733F1F" d="M154.862 395.297h4.066v2.04h-4.066zM148.762 395.297h4.067v2.04h-4.068z"/><path clip-path="url(#b)" fill="none" d="M146.73 395.297h2.032v2.04h-2.032zM158.928 395.297h2.032v2.04h-2.032z"/><path clip-path="url(#b)" fill="#733F1F" d="M140.63 395.297h4.066v2.04h-4.066zM134.53 395.297h4.066v2.04h-4.065z"/><path clip-path="url(#b)" fill="none" d="M132.498 395.297h2.033v2.04H132.5zM144.696 395.297h2.033v2.04h-2.034z"/><path d="M126.673 394.89s.23.058.58.12c.35.08.817.155 1.29.198.47.073.945.057 1.3.08.355.015.622.01.622.01v2.04s-.24.006-.648-.008c-.405-.025-.95-.012-1.488-.094-.542-.05-1.077-.136-1.474-.225-.4-.07-.66-.14-.66-.14l.477-1.98zM121.4 392.606s.823.52 1.69.947c.857.443 1.76.775 1.76.775l-.715 1.91s-1.012-.37-1.96-.86c-.958-.474-1.854-1.04-1.854-1.04l1.08-1.732z" clip-path="url(#b)" fill="#733F1F"/><path d="M121.4 392.606l-.818-.528-.795-.57-1.214 1.642.858.613c.445.29.89.576.89.576l1.08-1.734zM130.465 395.297h2.033v2.04h-2.033z" clip-path="url(#b)" fill="none"/><path d="M115.398 387.55s.17.182.426.452l.965.96c.714.685 1.464 1.32 1.464 1.32l-1.323 1.554s-.8-.68-1.553-1.4c-.37-.37-.74-.737-1.017-1.013-.27-.284-.447-.474-.447-.474l1.485-1.4zM111.582 382.952s.593.806 1.215 1.587c.624.777 1.27 1.534 1.27 1.534l-1.545 1.332s-.675-.79-1.32-1.598c-.647-.81-1.258-1.64-1.26-1.64l1.64-1.216z" clip-path="url(#b)" fill="#733F1F"/><path d="M111.582 382.952s-.306-.396-.59-.808l-.58-.816-1.675 1.164.597.842c.293.424.608.834.608.834l1.64-1.216zM118.253 390.283s.367.328.758.625c.385.307.776.6.776.6l-1.214 1.64s-.422-.315-.833-.644c-.42-.318-.81-.668-.81-.668l1.323-1.553z" clip-path="url(#b)" fill="none"/><path d="M107.173 376.252s.505.87 1.042 1.72c.522.857 1.078 1.692 1.078 1.692l-1.707 1.12s-.57-.86-1.105-1.737c-.55-.87-1.064-1.758-1.064-1.758l1.757-1.038zM104.26 370.96l.94 1.783c.483.884.97 1.765.97 1.765l-1.78 1.002-.987-1.8-.956-1.813 1.812-.936z" clip-path="url(#b)" fill="#733F1F"/><path clip-path="url(#b)" fill="none" d="M104.26 370.96l-.913-1.798-1.828.907.925 1.827zM109.293 379.664l.556.835c.28.414.563.828.563.828l-1.676 1.164-.58-.852-.57-.857 1.706-1.12z"/><path d="M100.773 363.68l.834 1.84c.43.914.856 1.828.856 1.828l-1.84.88-.87-1.854-.844-1.863 1.863-.83zM98.407 358.098l.767 1.87.788 1.86-1.874.81-.798-1.884-.775-1.893 1.892-.762z" clip-path="url(#b)" fill="#733F1F"/><path clip-path="url(#b)" fill="none" d="M98.407 358.098l-.748-1.88-1.9.745.755 1.9zM102.463 367.348l.884 1.814-1.828.907-.898-1.842z"/><path clip-path="url(#b)" fill="#733F1F" d="M95.53 350.535l1.402 3.797-1.908.725-1.415-3.833zM93.56 344.793l.64 1.92.658 1.914-1.928.67s-.33-.965-.663-1.93l-.645-1.94 1.94-.634z"/><path clip-path="url(#b)" fill="none" d="M93.56 344.793l-.62-1.927-1.946.62.628 1.942zM96.932 354.332l.727 1.887-1.9.743-.736-1.906z"/><path d="M91.176 337.058l.57 1.94.587 1.938-1.95.602-.593-1.955-.575-1.96 1.96-.565zM90.225 331.375v2.229l.07.276c.062.228.12.44.167.623l.166.608-1.968.542-.168-.618-.17-.635-.114-.44c-.047-.115-.014-.263-.023-.364v-2.222h2.04z" clip-path="url(#b)" fill="#733F1F"/><path clip-path="url(#b)" fill="none" d="M88.185 329.342h2.04v2.033h-2.04zM92.333 340.936l.606 1.93-1.946.62-.61-1.95z"/><path clip-path="url(#b)" fill="#733F1F" d="M88.185 323.242h2.04v4.066h-2.04zM88.185 317.143h2.04v4.066h-2.04z"/><path clip-path="url(#b)" fill="none" d="M88.185 315.11h2.04v2.033h-2.04zM88.185 327.31h2.04v2.032h-2.04z"/><path clip-path="url(#b)" fill="#733F1F" d="M88.185 309.01h2.04v4.067h-2.04zM88.185 302.912h2.04v4.066h-2.04z"/><path clip-path="url(#b)" fill="none" d="M88.185 300.88h2.04v2.032h-2.04zM88.185 313.077h2.04v2.032h-2.04z"/><path clip-path="url(#b)" fill="#733F1F" d="M88.185 294.78h2.04v4.066h-2.04zM88.185 288.68h2.04v4.066h-2.04z"/><path clip-path="url(#b)" fill="none" d="M88.185 286.648h2.04v2.033h-2.04zM88.185 298.846h2.04v2.033h-2.04z"/><path clip-path="url(#b)" fill="#733F1F" d="M88.185 280.55h2.04v4.064h-2.04zM88.185 274.45h2.04v4.066h-2.04z"/><path clip-path="url(#b)" fill="none" d="M88.185 272.416h2.04v2.033h-2.04zM88.185 284.615h2.04v2.033h-2.04z"/><path clip-path="url(#b)" fill="#733F1F" d="M88.185 266.317h2.04v4.066h-2.04zM88.185 260.218h2.04v4.066h-2.04z"/><path clip-path="url(#b)" fill="none" d="M88.185 258.186h2.04v2.032h-2.04zM88.185 270.383h2.04v2.033h-2.04z"/><path clip-path="url(#b)" fill="#733F1F" d="M88.185 252.086h2.04v4.066h-2.04zM88.185 245.987h2.04v4.066h-2.04z"/><path clip-path="url(#b)" fill="none" d="M88.185 243.953h2.04v2.033h-2.04zM88.185 256.153h2.04v2.033h-2.04z"/><path clip-path="url(#b)" fill="#733F1F" d="M88.185 237.855h2.04v4.065h-2.04zM88.185 231.756h2.04v4.065h-2.04z"/><path clip-path="url(#b)" fill="none" d="M88.185 229.723h2.04v2.033h-2.04zM88.185 241.92h2.04v2.033h-2.04z"/><path clip-path="url(#b)" fill="#733F1F" d="M88.185 223.623h2.04v4.067h-2.04zM88.185 217.525h2.04v4.065h-2.04z"/><path clip-path="url(#b)" fill="none" d="M88.185 215.492h2.04v2.032h-2.04zM88.185 227.69h2.04v2.033h-2.04z"/><path clip-path="url(#b)" fill="#733F1F" d="M88.185 209.393h2.04v4.066h-2.04zM88.185 203.293h2.04v4.066h-2.04z"/><path clip-path="url(#b)" fill="none" d="M88.185 201.26h2.04v2.033h-2.04zM88.185 213.46h2.04v2.032h-2.04z"/><path d="M406.324 311.973c0 19.953 17.534 36.277-2.418 36.277h-60.764c-19.952 0-36.277-16.324-36.277-36.277 0-19.95 16.325-36.276 36.277-36.276h60.764c-4.23 0 2.418 16.325 2.418 36.276z" fill="#874B25"/><path d="M425.672 311.973c0-.234 0-.465.002-.698.044-1.96.046-4 .034-6.103.012-2.103.01-4.144-.034-6.103l-.002-.7c0-12.11.66-22.877-3.277-29.475-2.55 4.273-7.02 6.802-14.86 6.802h-59.857c-10.32 0-19.662 4.375-26.285 11.353-6.18 6.513-9.99 15.292-9.99 24.923 0 19.953 16.323 36.277 36.275 36.277h59.856c19.952 0 18.138-16.324 18.138-36.277z" fill="#9E572B"/><defs><path id="c" d="M425.672 311.973c0-.234 0-.465.002-.698.044-1.96.046-4 .034-6.103.012-2.103.01-4.144-.034-6.103l-.002-.7c0-12.11.66-22.877-3.277-29.475-2.55 4.273-7.02 6.802-14.86 6.802h-59.857c-10.32 0-19.662 4.375-26.285 11.353-6.18 6.513-9.99 15.292-9.99 24.923 0 19.953 16.323 36.277 36.275 36.277h59.856c19.952 0 18.138-16.324 18.138-36.277z"/></defs><clipPath id="d"><use xlink:href="#c" overflow="visible"/></clipPath><path clip-path="url(#d)" fill="#733F1F" d="M426.807 281.026l-.055-4.138 2.04-.048.056 4.17zM426.817 287.248l.003-4.15 2.042-.006-.004 4.158z"/><path clip-path="url(#d)" fill="none" d="M426.817 287.248l-.002 2.075 2.04.007.003-2.08zM426.752 276.888l-.013-1.034-.06-.996 2.035-.14s.03.54.063 1.08l.014 1.042-2.04.048z"/><path clip-path="url(#d)" fill="#733F1F" d="M428.848 291.425l-.028 4.152-2.04-.014.028-4.152zM428.813 297.666l-.032 4.154-2.04-.016.032-4.154z"/><path clip-path="url(#d)" fill="none" d="M426.73 303.846l.016-2.076 2.04.017-.017 2.076zM428.863 289.338l-.007 2.076-2.04-.006.006-2.076z"/><path clip-path="url(#d)" fill="#733F1F" d="M428.727 305.963l-.033 4.154-2.04-.016.033-4.153zM428.69 312.195l-.028 4.156-2.04-.013.027-4.156z"/><path clip-path="url(#d)" fill="none" d="M426.61 318.392l.01-2.078 2.042.01-.01 2.077zM428.733 303.88l-.017 2.08-2.04-.018.017-2.078z"/><path clip-path="url(#d)" fill="#733F1F" d="M426.62 324.65l-.006-4.165 2.04-.002.006 4.144zM426.154 330.277l.072-.142c.05-.09.11-.217.17-.37.145-.308.256-.712.31-1.076.013-.248-.006-.9-.016-1.268l-.018-.66 2.04-.094.014.637c.002.412.04.797.01 1.588-.086.666-.276 1.264-.46 1.663-.082.21-.16.376-.22.484-.06.112-.092.177-.092.177l-1.81-.94z"/><path d="M426.154 330.277l-.135.257c-.093.15-.216.355-.34.558-.135.2-.27.4-.373.55l-.185.245 1.64 1.218s.08-.11.204-.275l.43-.63.4-.663c.102-.19.168-.318.168-.318l-1.81-.943zM426.614 320.485v-2.082l2.04.007v2.073z" clip-path="url(#d)" fill="none"/><path d="M420.988 336.246s.764-.67 1.483-1.378c.723-.708 1.394-1.45 1.394-1.45l1.52 1.362s-.722.798-1.483 1.545c-.76.75-1.558 1.45-1.558 1.45l-1.354-1.53zM416.17 339.973s.844-.562 1.658-1.172c.82-.6 1.608-1.243 1.608-1.243l1.283 1.588s-.823.67-1.68 1.297c-.85.635-1.734 1.225-1.734 1.225l-1.137-1.694z" clip-path="url(#d)" fill="#733F1F"/><path d="M416.17 339.973s-.422.283-.848.555l-.86.53 1.047 1.753.906-.56c.45-.286.89-.583.89-.583l-1.137-1.694zM423.864 333.418s.338-.37.65-.756c.32-.38.608-.776.608-.776l1.64 1.218s-.326.443-.675.857c-.343.423-.704.82-.704.82l-1.52-1.362z" clip-path="url(#d)" fill="none"/><path d="M409.237 343.15c.026 0 .22-.003.5-.036.305-.05.74-.148 1.188-.315.895-.313 1.785-.776 1.785-.776l.914 1.824s-.954.503-2.023.876c-.526.195-1.105.338-1.57.41-.49.06-.818.057-.792.057v-2.04zM403.005 343.15h4.154v2.04h-4.155z" clip-path="url(#d)" fill="#733F1F"/><path clip-path="url(#d)" fill="none" d="M400.928 343.15h2.077v2.04h-2.077zM412.71 342.023s.442-.222.882-.464c.436-.25.87-.502.87-.502l1.047 1.753-.932.534c-.47.26-.955.503-.955.503l-.914-1.824z"/><path clip-path="url(#d)" fill="#733F1F" d="M394.696 343.15h4.153v2.04h-4.154zM388.464 343.15h4.154v2.04h-4.154z"/><path clip-path="url(#d)" fill="none" d="M386.387 343.15h2.077v2.04h-2.077zM398.85 343.15h2.078v2.04h-2.078z"/><path clip-path="url(#d)" fill="#733F1F" d="M380.155 343.15h4.154v2.04h-4.155zM373.924 343.15h4.154v2.04h-4.154z"/><path clip-path="url(#d)" fill="none" d="M371.847 343.15h2.077v2.04h-2.077zM384.31 343.15h2.077v2.04h-2.077z"/><path clip-path="url(#d)" fill="#733F1F" d="M365.615 343.15h4.154v2.04h-4.155zM359.384 343.15h4.154v2.04h-4.154z"/><path clip-path="url(#d)" fill="none" d="M357.307 343.15h2.077v2.04h-2.077zM369.77 343.15h2.077v2.04h-2.077z"/><path clip-path="url(#d)" fill="#733F1F" d="M351.074 343.15h4.154v2.04h-4.154zM344.94 343.008l2.006.102c.496.035 1.008.047 1.403.04h.647v2.04h-.648c-.386.008-.912-.004-1.453-.04l-2.142-.11.184-2.032z"/><path d="M344.94 343.008c-.008.062-1.99-.27-1.99-.27l-.318 2.016s2.117.35 2.124.285l.183-2.032zM355.23 343.15h2.077v2.04h-2.078z" clip-path="url(#d)" fill="none"/><path d="M337.133 341.215l.588.22c.356.125.818.33 1.31.434l1.945.507-.452 1.99-2.075-.543c-.525-.114-1.02-.33-1.398-.463l-.628-.233.71-1.912zM331.73 338.57s.214.134.535.33c.325.19.735.487 1.198.686.903.44 1.807.883 1.807.883l-.837 1.86-1.927-.94c-.493-.218-.932-.53-1.28-.73-.34-.212-.57-.353-.57-.353l1.074-1.736z" clip-path="url(#d)" fill="#733F1F"/><path d="M331.73 338.57l-.856-.524c-.217-.13-.43-.264-.574-.385-.15-.112-.25-.19-.25-.19l-1.184 1.663.268.2c.155.13.38.273.61.41l.913.563 1.073-1.735zM340.975 342.377s.48.153.982.21l.992.15-.318 2.017-1.06-.165c-.535-.063-1.05-.223-1.05-.223l.453-1.99z" clip-path="url(#d)" fill="none"/><path d="M325.506 333.517l.42.468 1.016.94c.37.34.74.68 1.02.935.134.13.255.23.346.293l.14.105-1.29 1.582-.147-.11c-.096-.07-.225-.175-.37-.315l-1.085-.995c-.393-.364-.793-.722-1.08-1l-.448-.5 1.48-1.403zM321.806 328.766l.324.538c.2.32.52.71.812 1.118l.823 1.11c.216.312.395.49.395.49l-1.57 1.306s-.188-.19-.418-.522l-.88-1.183c-.313-.434-.65-.853-.862-1.192l-.347-.57 1.723-1.094z" clip-path="url(#d)" fill="#733F1F"/><path clip-path="url(#d)" fill="none" d="M321.806 328.766l-1.04-1.723-1.79.98 1.107 1.837zM328.445 336.258l1.604 1.213-1.185 1.663-1.71-1.293z"/><path d="M318.397 321.504l.69 1.89c.164.476.342.945.52 1.278l.273.566-1.85.862-.29-.604c-.188-.355-.38-.855-.556-1.36l-.734-2.016 1.947-.616zM317.156 315.612s.15.994.304 1.987c.064.498.153.992.265 1.354.095.364.156.608.156.608l-1.98.486-.166-.648c-.117-.387-.212-.912-.283-1.445l-.32-2.12 2.026-.223z" clip-path="url(#d)" fill="#733F1F"/><path d="M317.156 315.612l-.044-.31c-.01-.19-.02-.44-.034-.69l-.05-1.006-2.04.093.056 1.07.038.734.046.332 2.028-.224zM319.88 325.24l.436.905.298.624c.075.172.15.273.15.273l-1.788.98s-.08-.107-.16-.292c-.088-.18-.204-.422-.32-.664l-.464-.966 1.85-.86z" clip-path="url(#d)" fill="none"/><path d="M317.34 307.6l-.09.62c-.04.374-.158.867-.17 1.37l-.096 2.008-2.04-.04.103-2.143c.015-.536.136-1.063.18-1.462l.096-.664 2.016.31zM318.84 301.778s-.328.95-.658 1.897l-.477 1.952-1.992-.445.512-2.084.702-2.027 1.914.708z" clip-path="url(#d)" fill="#733F1F"/><path d="M318.84 301.778s.157-.478.34-.944l.422-.912-1.862-.834s-.225.487-.448.976c-.195.498-.364 1.008-.364 1.008l1.913.706zM316.985 311.598l-.016.314c-.02.188-.013.44.006.69l.052 1.004-2.04.093-.052-1.07c-.02-.27-.025-.535-.007-.736.01-.2.015-.336.015-.336l2.04.04z" clip-path="url(#d)" fill="none"/><path d="M322.594 294.7l-.366.512c-.225.304-.518.712-.754 1.157l-1.01 1.736-1.804-.956 1.077-1.854c.254-.473.564-.91.804-1.233l.39-.545 1.664 1.183zM326.54 290.15l-.456.435c-.268.266-.656.588-.97.984l-1.317 1.52-1.584-1.285 1.4-1.62c.335-.42.747-.765 1.032-1.048l.485-.463 1.41 1.477z" clip-path="url(#d)" fill="#733F1F"/><path d="M326.54 290.15l.728-.692c.184-.172.36-.353.505-.473l.248-.192-1.31-1.564c-.043-.05-1.58 1.444-1.58 1.444l1.41 1.477zM320.463 298.107s-.07.104-.152.275l-.287.627-.42.912-1.863-.834.45-.974c.11-.244.225-.486.31-.67.087-.18.16-.293.16-.293l1.803.957z" clip-path="url(#d)" fill="none"/><path d="M332.988 285.395s-.228.108-.542.315l-1.173.73c-.424.27-.86.52-1.167.737-.298.23-.497.386-.497.386l-1.205-1.648.53-.41c.328-.232.792-.5 1.245-.79.455-.28.91-.564 1.253-.777.337-.22.58-.334.58-.334l.975 1.79zM338.535 283.06s-3.788 1.345-3.74 1.456l-.853-1.854.603-.293c.357-.186.875-.338 1.374-.533l1.385-.506c.377-.138.632-.22.632-.22l.598 1.95z" clip-path="url(#d)" fill="#733F1F"/><path clip-path="url(#d)" fill="none" d="M338.535 283.06l1.95-.493-.47-1.987-2.077.53zM329.61 287.563l-1.59 1.23-1.31-1.564 1.695-1.315z"/><path d="M346.45 281.766l-2.01.106-1.988.298-.337-2.012 2.12-.316 2.137-.115.078 2.04zM348.487 279.664h4.154v2.04h-4.153z" clip-path="url(#d)" fill="#733F1F"/><path clip-path="url(#d)" fill="none" d="M352.642 279.664h2.077v2.04h-2.078zM342.452 282.17l-.995.147-.974.25-.468-1.987 1.04-.263 1.06-.16.337 2.013z"/><path clip-path="url(#d)" fill="#733F1F" d="M356.796 279.664h4.154v2.04h-4.154zM363.028 279.664h4.154v2.04h-4.154z"/><path clip-path="url(#d)" fill="none" d="M367.182 279.664h2.077v2.04h-2.078zM354.72 279.664h2.076v2.04h-2.077z"/><path clip-path="url(#d)" fill="#733F1F" d="M371.337 279.664h4.153v2.04h-4.153zM377.57 279.664h4.153v2.04h-4.154z"/><path clip-path="url(#d)" fill="none" d="M381.723 279.664h2.077v2.04h-2.077zM369.26 279.664h2.077v2.04h-2.078z"/><path clip-path="url(#d)" fill="#733F1F" d="M385.877 279.664h4.154v2.04h-4.153zM392.11 279.664h4.153v2.04h-4.154z"/><path clip-path="url(#d)" fill="none" d="M396.263 279.664h2.077v2.04h-2.077zM383.8 279.664h2.077v2.04H383.8z"/><path clip-path="url(#d)" fill="#733F1F" d="M400.417 279.664h4.154v2.04h-4.153zM410.958 281.345s-1.053.195-2.146.296c-.543.038-1.133.065-1.515.065h-.65v-2.04h.65c.397 0 .846-.026 1.338-.058.978-.09 1.97-.273 1.97-.272l.353 2.01z"/><path d="M410.958 281.345s.53-.088 1.05-.205c.524-.106 1.042-.23 1.043-.23l-.47-1.985s-.494.118-.988.22c-.493.11-.987.19-.987.192l.353 2.008zM398.34 279.664h2.077v2.04h-2.077z" clip-path="url(#d)" fill="none"/><path d="M419.128 279.02s-.993.376-1.998.717c-1.005.34-2.025.63-2.025.63l-.564-1.962s.98-.276 1.94-.603c.963-.327 1.913-.687 1.913-.687l.735 1.905zM424.898 276.184s-.227.156-.58.355c-.354.198-.814.493-1.297.726-.948.508-1.927.932-1.927.932l-.833-1.863s.93-.402 1.81-.875c.456-.217.87-.486 1.195-.67.326-.183.527-.32.527-.32l1.106 1.714z" clip-path="url(#d)" fill="#733F1F"/><path d="M424.898 276.184l.91-.62c.445-.335.875-.706.875-.706l-1.343-1.536s-.357.308-.74.597l-.807.55 1.105 1.714zM415.105 280.365s-.508.155-1.022.286l-1.03.26-.473-1.986.983-.246c.492-.125.978-.272.978-.273l.565 1.96z" clip-path="url(#d)" fill="none"/><circle cx="353.593" cy="312.2" r="22.9" fill="#733F1F"/><circle cx="356.314" cy="312.2" r="22.9" fill="#FFD54F"/><circle cx="356.314" cy="312.2" r="20.059" fill="#EFC84A"/><circle cx="356.314" cy="312.2" r="16.668" fill="#D6B342"/><circle cx="356.314" cy="312.2" r="13.262" fill="#EFC84A"/></svg>