<svg xmlns="http://www.w3.org/2000/svg" xmlns:xlink="http://www.w3.org/1999/xlink" width="99.5" height="100"><path fill="#CAA40B" d="M45.087 11.32c1.61-.204 3.247-.32 4.913-.32 2.033 0 4.03.156 5.98.456L50.5 0l-5.413 11.32zM0 49.5l11.318 5.413C11.115 53.303 11 51.666 11 50c0-2.033.156-4.03.456-5.98L0 49.5zm19.082-23.26c2.223-2.888 4.834-5.455 7.766-7.62l-11.703-3.977 3.937 11.597zm62.104.34l4.67-11.937L74.01 19.28c2.698 2.11 5.115 4.562 7.176 7.3zm-7.133 54.108l10.803 3.67-3.7-10.898c-2.045 2.706-4.435 5.134-7.103 7.228zm-54.97-6.928l-3.94 11.597 10.87-4.614c-2.592-2.03-4.922-4.374-6.93-6.983zm26.004 14.92L50.5 100l5.48-11.456c-1.95.3-3.947.456-5.98.456-1.666 0-3.303-.116-4.913-.32zM45.087 11.32c1.61-.204 3.247-.32 4.913-.32 2.033 0 4.03.156 5.98.456L50.5 0l-5.413 11.32zM0 49.5l11.318 5.413C11.115 53.303 11 51.666 11 50c0-2.033.156-4.03.456-5.98L0 49.5zm19.082-23.26c2.223-2.888 4.834-5.455 7.766-7.62l-11.703-3.977 3.937 11.597zm62.104.34l4.67-11.937L74.01 19.28c2.698 2.11 5.115 4.562 7.176 7.3zm-7.133 54.108l10.803 3.67-3.7-10.898c-2.045 2.706-4.435 5.134-7.103 7.228zm-54.97-6.928l-3.94 11.597 10.87-4.614c-2.592-2.03-4.922-4.374-6.93-6.983zm26.004 14.92L50.5 100l5.48-11.456c-1.95.3-3.947.456-5.98.456-1.666 0-3.303-.116-4.913-.32z"/><path fill="#F1C411" d="M33.104 7.324l-.438 7.74c2.064-1.027 4.232-1.873 6.484-2.523l-6.046-5.216zM13.04 37.56c.7-2.083 1.563-4.09 2.59-5.998l-7.634.477 5.043 5.52zM68.56 7.013l-6.456 5.91c2.455.802 4.803 1.84 7.018 3.09l-.56-9zm-60 61.12l6.853-.12c-.873-1.672-1.627-3.415-2.254-5.22l-4.6 5.34zm25.292 24.88l5.885-5.388c-2.205-.6-4.334-1.386-6.365-2.346l.48 7.734zm34.945-1.518l.428-7.568c-1.904 1.082-3.906 2.015-5.994 2.768l5.567 4.8zM33.104 7.324l-.438 7.74c2.064-1.027 4.232-1.873 6.484-2.523l-6.046-5.216zM13.04 37.56c.7-2.083 1.563-4.09 2.59-5.998l-7.634.477 5.043 5.52zM68.56 7.013l-6.456 5.91c2.455.802 4.803 1.84 7.018 3.09l-.56-9zm-60 61.12l6.853-.12c-.873-1.672-1.627-3.415-2.254-5.22l-4.6 5.34zm25.292 24.88l5.885-5.388c-2.205-.6-4.334-1.386-6.365-2.346l.48 7.734zm34.945-1.518l.428-7.568c-1.904 1.082-3.906 2.015-5.994 2.768l5.567 4.8z"/><path fill="#F6D759" d="M50 14c19.882 0 36 16.117 36 36 0 19.882-16.118 36-36 36-19.883 0-36-16.118-36-36 0-19.883 16.117-36 36-36z"/><path fill="#DDC14E" d="M54 82c-19.882 0-36-16.118-36-36 0-8.923 3.253-17.08 8.63-23.37C18.9 29.23 14 39.04 14 50c0 19.882 16.118 36 36 36 10.973 0 20.78-4.917 27.387-12.655C71.094 78.732 62.934 82 54 82z"/><path fill="#C5AE47" d="M77.387 73.345C71.094 78.733 62.934 82 54 82 40.98 82 29.58 75.09 23.257 64.74l-4 4C25.582 79.09 36.982 86 49.998 86c10.973 0 20.783-4.917 27.39-12.655z"/><defs><circle id="a" cx="50" cy="50" r="36"/></defs><clipPath id="b"><use xlink:href="#a" overflow="visible"/></clipPath><path clip-path="url(#b)" fill="#DCC050" d="M47 41L2 86h84V41z"/><path fill="#fff" d="M95.584 49.71c.582-1.63.916-3.38.916-5.21C96.5 35.94 89.56 29 81 29c-6.523 0-12.096 4.034-14.382 9.74C64.27 36.428 61.055 35 57.5 35c-7.18 0-13 5.82-13 13 0 3.062 1.064 5.872 2.838 8.094-3.865.564-6.838 3.884-6.838 7.906 0 4.418 3.582 8 8 8h38c7.18 0 13-5.82 13-13 0-3.643-1.502-6.93-3.916-9.29zM95.584 49.71c.582-1.63.916-3.38.916-5.21C96.5 35.94 89.56 29 81 29c-6.523 0-12.096 4.034-14.382 9.74C64.27 36.428 61.055 35 57.5 35c-7.18 0-13 5.82-13 13 0 3.062 1.064 5.872 2.838 8.094-3.865.564-6.838 3.884-6.838 7.906 0 4.418 3.582 8 8 8h38c7.18 0 13-5.82 13-13 0-3.643-1.502-6.93-3.916-9.29z"/></svg>