<svg xmlns="http://www.w3.org/2000/svg" width="100" height="74"><path fill="#2C3E50" d="M70 30c1.104 0 2 .895 2 2v17c0 1.103-.896 2-2 2s-2-.897-2-2V32c0-1.106.895-2 2-2z"/><path fill="#34495E" d="M4 46h92c2.21 0 4 1.79 4 4v20c0 2.21-1.79 4-4 4H4c-2.21 0-4-1.79-4-4V50c0-2.208 1.79-4 4-4z"/><path fill="#495C6E" d="M8 51h84c1.657 0 3 1.344 3 3v12c0 1.656-1.343 3-3 3H8c-1.657 0-3-1.344-3-3V54c0-1.656 1.343-3 3-3z"/><path fill="#F1C40E" d="M14 57c1.657 0 3 1.344 3 3s-1.343 3-3 3-3-1.344-3-3 1.343-3 3-3z"/><path fill="#2ECC71" d="M85 58c1.104 0 2 .895 2 2 0 1.104-.896 2-2 2s-2-.896-2-2c0-1.106.895-2 2-2zM75 58c1.104 0 2 .895 2 2 0 1.104-.896 2-2 2s-2-.896-2-2c0-1.106.895-2 2-2zM65 58c1.104 0 2 .895 2 2 0 1.104-.896 2-2 2s-2-.896-2-2c0-1.106.895-2 2-2zM55 58c1.104 0 2 .895 2 2 0 1.104-.896 2-2 2s-2-.896-2-2c0-1.106.895-2 2-2zM45 58c1.104 0 2 .895 2 2 0 1.104-.896 2-2 2s-2-.896-2-2c0-1.106.895-2 2-2z"/><path fill="#BDC3C7" d="M65.375 28.002c-.542 0-1.056-.342-1.28-.914-.302-.762.028-1.643.735-1.967 3.275-1.5 7.062-1.5 10.34 0 .707.325 1.036 1.206.736 1.968-.3.762-1.12 1.117-1.824.793-2.585-1.183-5.58-1.18-8.164.003-.177.08-.36.12-.543.12zM60.473 24.013c-.483 0-.957-.255-1.232-.72-.43-.724-.226-1.68.454-2.137 3.086-2.072 6.654-3.168 10.322-3.17 3.666 0 7.234 1.096 10.32 3.17.68.456.883 1.413.453 2.135-.43.724-1.33.94-2.01.483-2.62-1.76-5.65-2.815-8.765-2.815-3.116 0-6.147 1.056-8.77 2.816-.237.162-.507.24-.772.24zM46.49 11.997c-.407 0-.813-.166-1.107-.492-.55-.61-.5-1.552.11-2.102C52.226 3.34 60.93 0 69.998 0c9.067 0 17.77 3.34 24.504 9.4.61.55.66 1.49.11 2.103-.55.612-1.492.66-2.1.11-6.19-5.57-14.187-8.636-22.518-8.637-8.332 0-16.327 3.068-22.515 8.64-.28.256-.636.38-.99.38zM89.452 15.98c-.347 0-.692-.115-.98-.35C83.31 11.37 76.75 8.963 70.007 8.963c-6.744 0-13.302 2.406-18.467 6.663-.65.533-1.612.448-2.153-.19-.54-.637-.455-1.587.19-2.12 5.715-4.71 12.97-7.302 20.43-7.302 7.46 0 14.714 2.594 20.43 7.305.645.534.73 1.483.19 2.12-.303.356-.738.54-1.175.54zM84.512 19.997c-.313 0-.63-.1-.9-.31-3.944-3.03-8.647-4.697-13.604-4.697-4.953 0-9.654 1.664-13.6 4.695-.66.507-1.602.374-2.102-.3-.498-.675-.366-1.634.295-2.143 4.47-3.434 9.796-5.25 15.407-5.25 5.612 0 10.94 1.816 15.408 5.253.662.51.793 1.468.295 2.142-.293.4-.74.61-1.198.61z"/></svg>