<svg xmlns="http://www.w3.org/2000/svg" width="100" height="100"><circle fill-rule="evenodd" clip-rule="evenodd" fill="#F3F3F3" cx="50" cy="50" r="50"/><clipPath id="a"><circle cx="50" cy="50" r="50"/></clipPath><g fill-rule="evenodd" clip-rule="evenodd" clip-path="url(#a)"><path fill="#27B99A" d="M67 112.75c0 1.38-1.12 2.5-2.5 2.5h-43c-1.38 0-2.5-1.12-2.5-2.5v-54C19 36.25 36 21.017 36 2v-22c-.883-.386-2-1.225-2-2.25v-6.25c0-1.38 1.12-2.5 2.5-2.5h13c1.38 0 2.5 1.12 2.5 2.5v6.25c0 1.025-1.117 1.864-2 2.25V2c0 19.007 17 34.25 17 56.75v54z"/><path fill="#56C1A7" d="M22 61h12c1.657 0 3 1.343 3 3v33c0 1.657-1.343 3-3 3H22c-1.657 0-3-1.343-3-3V64c0-1.657 1.343-3 3-3z"/><path fill="#BDC2C7" d="M69 96v19h14v3H51v-3h14V96c0-15.094-14-14.36-14-37 0-13.082 3-23 3-23h26s3 9.918 3 23c0 22.64-14 21.906-14 37z"/><path fill="#EBECED" d="M65 100v-4c0-15.094-14-14.36-14-37 0-13.082 3-23 3-23h7.22C64.39 43.246 67 50.94 67 59.75V100h-2z"/><path fill="#FBF063" d="M79.517 49c.29 2.904.483 6.138.483 9.494 0 12.01-3.787 16.68-7.798 21.77-2.336 2.337-7.9 2.37-10.404-.137C57.788 75.04 54 70.504 54 58.494c0-3.357.193-6.59.483-9.494h25.034z"/><path fill="#F0C419" d="M72.202 80.263c-1.18 1.18-3.185 1.772-5.202 1.746V59.75c0-3.77-.485-7.335-1.28-10.75h13.798c.29 2.904.482 6.138.482 9.494 0 12.01-3.787 16.68-7.798 21.77z"/><path opacity=".6" fill="#fff" d="M59.5 55c-.828 0-1.5.672-1.5 1.5s.672 1.5 1.5 1.5 1.5-.672 1.5-1.5-.672-1.5-1.5-1.5zm12 8c-.828 0-1.5.672-1.5 1.5s.672 1.5 1.5 1.5 1.5-.672 1.5-1.5-.672-1.5-1.5-1.5zm-1 12c-.828 0-1.5.672-1.5 1.5s.672 1.5 1.5 1.5 1.5-.672 1.5-1.5-.672-1.5-1.5-1.5z"/></g></svg>