<?xml version="1.0" encoding="utf-8"?>
<!-- Generator: Adobe Illustrator 17.0.2, SVG Export Plug-In . SVG Version: 6.00 Build 0)  -->
<!DOCTYPE svg PUBLIC "-//W3C//DTD SVG 1.1//EN" "http://www.w3.org/Graphics/SVG/1.1/DTD/svg11.dtd">
<svg version="1.1" id="Layer_1" xmlns="http://www.w3.org/2000/svg" xmlns:xlink="http://www.w3.org/1999/xlink" x="0px" y="0px"
	 width="376px" height="66.001px" viewBox="0 0 376 66.001" enable-background="new 0 0 376 66.001" xml:space="preserve">
<rect x="-42.552" y="-59.326" display="none" width="460" height="200"/>
<g>
	<path fill="#FFFFFF" d="M31.5,64.832v-5.151c-3.501,4.083-9.042,6.319-15.264,6.319C8.652,66.001,0,60.749,0,50.447
		c0-10.886,8.558-15.358,16.236-15.358c6.416,0,11.763,2.043,15.264,6.027v-7c0-5.441-4.568-8.747-10.987-8.747
		c-5.247,0-9.915,1.944-13.9,6.027L2.334,24.3c5.444-5.249,12.249-7.581,19.735-7.581c10.499,0,19.636,4.374,19.636,16.912v31.202
		H31.5z M31.5,54.141V46.95c-2.433-3.209-6.807-4.86-11.182-4.86c-5.735,0-10.109,3.4-10.109,8.456
		c0,5.151,4.374,8.457,10.109,8.457C24.693,59.002,29.067,57.348,31.5,54.141z"/>
	<path fill="#FFFFFF" d="M48.334,64.832V0H58.54v24.398c3.791-5.055,9.236-7.679,15.069-7.679c12.151,0,20.901,9.428,20.901,24.592
		c0,15.553-8.846,24.69-20.901,24.69c-6.028,0-11.473-2.917-15.069-7.581v6.413H48.334z M70.693,56.96
		c8.068,0,13.222-6.514,13.222-15.649c0-9.039-5.153-15.552-13.222-15.552c-4.862,0-9.819,2.818-12.153,6.318v18.664
		C60.874,54.238,65.831,56.96,70.693,56.96z"/>
	<path fill="#FFFFFF" d="M100.112,41.311c0-13.511,9.142-24.592,24.11-24.592c14.971,0,24.109,11.081,24.109,24.592
		c0,13.413-9.139,24.69-24.109,24.69C109.254,66.001,100.112,54.724,100.112,41.311z M137.736,41.311
		c0-8.263-4.763-15.552-13.514-15.552c-8.65,0-13.512,7.29-13.512,15.552c0,8.358,4.861,15.649,13.512,15.649
		C132.974,56.96,137.736,49.669,137.736,41.311z"/>
	<path fill="#FFFFFF" d="M185.718,64.832v-6.22c-3.306,3.692-9.139,7.388-16.526,7.388c-10.109,0-15.166-5.347-15.166-14.872V17.885
		h10.208v29.454c0,7.287,3.692,9.622,9.527,9.622c5.152,0,9.625-3.015,11.957-6.125V17.885h10.206v46.948H185.718z"/>
	<path fill="#FFFFFF" d="M210.343,53.85V26.731h-7.776v-8.847h7.776V5.054h10.209v12.831h9.527v8.847h-9.527v24.59
		c0,3.208,1.557,5.639,4.474,5.639c1.943,0,3.691-0.875,4.469-1.751l2.434,7.778c-1.849,1.651-4.861,3.013-9.529,3.013
		C214.428,66.001,210.343,61.721,210.343,53.85z"/>
	<path fill="#E37F1C" d="M236.813,59.002c0-3.598,3.111-6.706,6.805-6.706c3.694,0,6.807,3.108,6.807,6.706
		c0,3.691-3.112,6.901-6.807,6.901C239.925,65.904,236.813,62.693,236.813,59.002z"/>
	<path fill="#EEB111" d="M313.237,64.832V34.215c0-5.054-2.235-8.456-7.776-8.456c-4.568,0-8.847,3.11-10.889,6.221v32.852h-10.207
		V34.215c0-5.054-2.14-8.456-7.682-8.456c-4.568,0-8.749,3.206-10.889,6.221v32.852h-10.206V17.885h10.206v6.319
		c2.044-2.82,8.168-7.485,15.362-7.485c6.997,0,11.276,3.499,12.832,8.554c2.625-4.18,8.848-8.554,15.942-8.554
		c8.557,0,13.515,4.665,13.515,14.191v33.922H313.237z"/>
	<path fill="#EEB111" d="M329.142,41.311c0-13.609,9.916-24.592,23.816-24.592C367.054,16.719,376,27.41,376,42.185v2.527h-36.166
		c0.78,7.001,6.027,12.929,14.876,12.929c4.666,0,10.012-1.849,13.415-5.251l4.665,6.707c-4.764,4.474-11.667,6.903-19.053,6.903
		C339.542,66.001,329.142,56.182,329.142,41.311z M352.861,25.079c-8.651,0-12.736,6.708-13.124,12.344h26.443
		C365.887,31.882,362.096,25.079,352.861,25.079z"/>
</g>
</svg>
