<svg xmlns="http://www.w3.org/2000/svg" width="376" height="66.001" viewBox="0 0 376 66.001"><path fill="#fff" d="M31.5 64.832v-5.15C28 63.763 22.458 66 16.236 66 8.652 66 0 60.75 0 50.447 0 39.56 8.558 35.09 16.236 35.09c6.416 0 11.763 2.042 15.264 6.026v-7c0-5.44-4.568-8.747-10.987-8.747-5.247 0-9.915 1.943-13.9 6.026L2.333 24.3c5.445-5.25 12.25-7.58 19.736-7.58 10.498 0 19.635 4.373 19.635 16.91v31.203H31.5zm0-10.69V46.95c-2.433-3.21-6.807-4.86-11.182-4.86-5.735 0-10.11 3.4-10.11 8.456 0 5.15 4.375 8.457 10.11 8.457 4.375 0 8.75-1.655 11.182-4.862zM48.334 64.832V0H58.54v24.398c3.79-5.055 9.236-7.68 15.07-7.68 12.15 0 20.9 9.43 20.9 24.593 0 15.554-8.846 24.69-20.9 24.69-6.03 0-11.474-2.916-15.07-7.58v6.413H48.334zm22.36-7.872c8.067 0 13.22-6.514 13.22-15.65 0-9.038-5.152-15.55-13.22-15.55-4.863 0-9.82 2.817-12.154 6.317V50.74c2.334 3.498 7.29 6.22 12.153 6.22zM100.112 41.31c0-13.51 9.142-24.59 24.11-24.59 14.97 0 24.11 11.08 24.11 24.59 0 13.414-9.14 24.69-24.11 24.69-14.968 0-24.11-11.276-24.11-24.69zm37.624 0c0-8.262-4.763-15.55-13.514-15.55-8.65 0-13.512 7.29-13.512 15.55 0 8.36 4.86 15.65 13.512 15.65 8.752 0 13.514-7.29 13.514-15.65zM185.718 64.832v-6.22c-3.306 3.692-9.14 7.388-16.526 7.388-10.11 0-15.166-5.347-15.166-14.872V17.885h10.208V47.34c0 7.286 3.692 9.62 9.527 9.62 5.153 0 9.626-3.014 11.958-6.124v-32.95h10.206v46.947h-10.206zM210.343 53.85V26.73h-7.776v-8.846h7.776V5.054h10.21v12.83h9.526v8.848h-9.528v24.59c0 3.208 1.557 5.64 4.474 5.64 1.943 0 3.69-.876 4.47-1.752l2.433 7.778c-1.85 1.65-4.862 3.013-9.53 3.013-7.972 0-12.057-4.28-12.057-12.15z"/><path fill="#E37F1C" d="M236.813 59.002c0-3.598 3.11-6.706 6.805-6.706 3.694 0 6.807 3.108 6.807 6.706 0 3.69-3.112 6.9-6.807 6.9-3.693.002-6.805-3.21-6.805-6.9z"/><path fill="#EEB111" d="M313.237 64.832V34.215c0-5.054-2.235-8.456-7.776-8.456-4.567 0-8.846 3.11-10.888 6.22v32.852h-10.207V34.215c0-5.054-2.14-8.456-7.682-8.456-4.568 0-8.75 3.205-10.89 6.22v32.852H255.59V17.885h10.206v6.32c2.044-2.82 8.168-7.486 15.362-7.486 6.997 0 11.276 3.498 12.832 8.553 2.625-4.18 8.848-8.554 15.942-8.554 8.557 0 13.515 4.664 13.515 14.19v33.922h-10.208zM329.142 41.31c0-13.608 9.916-24.59 23.816-24.59C367.054 16.72 376 27.41 376 42.184v2.527h-36.166c.78 7 6.027 12.93 14.876 12.93 4.666 0 10.012-1.85 13.415-5.252l4.665 6.707C368.026 63.57 361.123 66 353.737 66c-14.195 0-24.595-9.818-24.595-24.69zm23.72-16.23c-8.652 0-12.737 6.707-13.125 12.343h26.443c-.293-5.54-4.084-12.344-13.32-12.344z"/></svg>