<svg xmlns="http://www.w3.org/2000/svg" viewBox="0 0 255 160" enable-background="new 0 0 255 160"><style type="text/css">.st0{fill:#4984C4;} .st1{fill:#68BBE9;} .st2{fill:#F0C697;} .st3{fill:#876740;} .st4{fill:#FED09E;} .st5{fill:#FFFFFF;} .st6{fill:#E6BE91;} .st7{fill:#F6ADCD;} .st8{fill:#ED1C24;} .st9{fill:#414042;} .st10{fill:#D71920;} .st11{fill:#82CA9C;} .st12{fill:#76B88F;} .st13{fill:#B4DDC0;} .st14{fill:#B67222;}</style><path class="st0" d="M66.3 95.9c-25.6 0-54.6 17.8-54.6 48.9v1.6c16.6 7 35.1 10.9 54.6 10.9s38-3.9 54.6-10.9v-1.6c0-31.1-29-48.9-54.6-48.9z"/><path class="st1" d="M29.3 152.2c1.1-7.5 8.1-24.9 8.1-24.9S26.8 142.8 24.8 151l4.5 1.2zm65.8-24.9s7 17.5 8.1 24.9c1.5-.4 3-.8 4.4-1.3-1.9-8.1-12.5-23.6-12.5-23.6z"/><path class="st2" d="M54.3 107.9c0 5.9 4.2 10.7 12 10.7 7.7 0 12-4.8 12-10.7h-24z"/><path class="st3" d="M89.3 22.5c-7.1-4.9-13.9-7.2-26.9-7.2-31.5 0-48.8 16.7-45.3 45.9 3.4 28.1 18.8 45.3 50.4 45.3s45.3-17.4 50.4-45.3c2.9-16.6-4.8-38.8-28.6-38.7z"/><path class="st2" d="M22.1 64.5c-3.7.4-6.5 2-6.5 5.5 0 3.6 3.1 8 6.9 9-.5-2.5-1-5.1-1-7.8 0-2.3.2-4.5.6-6.7zm90.7 0c.4 2.2.6 4.4.6 6.7 0 2.7-.5 5.3-1 7.8 3.8-1 6.9-5.4 6.9-9 0-3.6-2.8-5.2-6.5-5.5z"/><path class="st4" d="M112.8 64.5c-22.5-2.2-33.4-18.8-33.4-18.8C67 60.8 31.1 58.8 21.6 68.3c-.1.9-.1 1.8-.1 2.8 0 22.7 20.6 41.2 46 41.2s46-18.4 46-41.2c-.1-2.3-.3-4.5-.7-6.6z"/><ellipse class="st5" cx="42" cy="71" rx="9.1" ry="8.2"/><ellipse cx="42" cy="71" rx="5.8" ry="5.2"/><ellipse class="st5" cx="45.9" cy="67.5" rx="3" ry="2.7"/><ellipse class="st5" cx="92.8" cy="71" rx="9.1" ry="8.2"/><ellipse cx="92.8" cy="71" rx="5.8" ry="5.2"/><ellipse class="st5" cx="96.7" cy="67.5" rx="3" ry="2.7"/><path class="st6" d="M57.3 84.1c2.7-6.2 16.8-5.5 20.5-2.8-7.1-1-17.6.8-20.5 2.8z"/><path class="st7" d="M81.3 92.3c0 7-6.4 10.9-14.2 10.9-7.9 0-14.2-3.9-14.2-10.9 0 0 5-1.4 14.2-1.4 9.2.1 14.2 1.4 14.2 1.4z"/><path class="st5" d="M67.1 91c-9.2 0-14.2 1.4-14.2 1.4v.9c.7 1.1 2.3 1.6 3.8 1.7 1.4.1 2.5.6 3.2-.3.6 1.3 2 1.1 3.7 1.1 1.5 0 2.8.3 3.5-.7.7 1.1 2 .7 3.5.7 1.7 0 3.1.2 3.7-1.1.7.9 1.9.3 3.2.3 1.5 0 3.1-.7 3.8-1.7v-.9c0-.1-5-1.4-14.2-1.4z"/><path class="st8" d="M62.1 102.7c1.7.4 3.8.6 5.8.6 5.5 0 10.6-2.6 12.7-7-6.4.2-14.7 2.8-18.5 6.4z"/><path d="M135 36.9c0 9-14.6 18.6-66.3 18.6S2.5 45.9 2.5 36.9c0-3.4 14.6-10.5 66.3-10.5S135 33.5 135 36.9z"/><path class="st9" d="M114.8 44.4s-3.1-34.2-16.6-41c-6.6-3.3-26.9 4-32 4-5 0-25.4-7.3-32-4-13.5 6.8-16.6 41-16.6 41h97.2z"/><path class="st10" d="M17.7 44.4h97.1s-.3-3.7-1.2-8.8H18.9c-.9 5.2-1.2 8.8-1.2 8.8z"/><path class="st9" d="M135 36.9c0 9-14.6 18.6-66.3 18.6S2.5 45.9 2.5 36.9c3.5 4.8 14.6 3.4 66.3 3.4s62.4 1.2 66.2-3.4z"/><path d="M113.5 67c-1.3-.9-3-1.6-4.1-2.5-1.4-1.1-3.1-1.8-5.2-2.1-7.5-1.1-15.1-1.6-22.8-1-3.9.3-7.6 1-10.2 3-1.5 1.1-3.1 1.7-5.5 1.6-1.8-.1-3.3-.3-4.4-1.2-1.8-1.5-4.3-2.4-7.1-2.9-3.3-.6-6.7-.7-10.6-.8-1.7.1-3.9.1-6.1.3-3.6.3-7.1.7-10.6 1.2-1.7.2-3.1.8-4.2 1.8-1.1.9-2.3 1.7-3.8 2.3-1.3.6-1.8 1.3-1.7 2.2.1.4-.1.9.1 1.3.1.2.5.6.8.6 1.2 0 1.4.4 1.6 1 .5 1.9 1.2 3.8 2.6 5.5 2.3 2.8 5.8 4.7 11.1 4.9 2.4.1 4.9.1 7.4.1 3.6-.1 7.2-.4 10.5-1.3 1.1-.3 2.1-.7 2.9-1.2 3.5-2.1 5.7-4.7 7-7.6.4-.9.9-1.8 1.5-2.7.6-.9 1.8-1.2 3.3-1.2 1.5 0 2.6.3 3.2 1.2.4.6.8 1.3 1.1 2 1.3 2.8 3.1 5.4 6.3 7.6 1.6 1.1 3.4 1.8 5.7 2.2 5.6 1 11.4 1.2 17.2.8 4.2-.3 7.1-1.7 9.3-3.9 2-2 3-4.2 3.5-6.5.2-.6.4-1 1.6-1 .3 0 .7-.3.8-.4.1-.7.2-1.5 0-2.2-.3-.4-.7-.8-1.2-1.1zm-53.3 1.6c-.5 3.5-2.5 6.7-6.2 9.4-2.7 2-6.4 2.9-10.5 3.2-2.1.2-4.2.2-6.7.4-1.8-.1-4-.3-6.2-.5-2.1-.3-4-1-5.2-2.1-3.6-3.6-5.1-7.4-3.7-11.6.7-2.1 2.8-3.5 6.1-4.2 3.5-.7 7-1 10.6-1.1 4.5-.2 9.1-.2 13.5.5.9.1 1.8.3 2.6.5 4.3 1.1 6.1 2.8 5.7 5.5zm46.8 9.9c-1.7 1.9-4.7 2.7-8.1 3-1.5.1-2.9.1-4.4.2v.1c-2.7-.2-5.5-.3-8.2-.7-4.7-.6-8.3-2.3-10.7-4.8-2.2-2.3-3.6-4.7-4-7.3-.5-3 1.3-4.9 6.1-5.9 2.3-.5 4.8-.8 7.2-.9 5.9-.3 11.7-.1 17.4.8 4.8.7 7.4 2.5 8 5.5.8 3.5-.5 6.8-3.3 10z"/><path class="st11" d="M193.5 93.2c-27.7 0-59 18.9-59 52v1.7c17.9 7.4 37.9 11.6 59 11.6s41.1-4.2 59-11.6v-1.7c0-33-31.3-52-59-52z"/><path class="st12" d="M224.7 126.7s7.5 18.6 8.8 26.5c1.6-.4 3.2-.9 4.8-1.4-2.2-8.7-13.6-25.1-13.6-25.1zm-71.2 26.5c1.2-7.9 8.8-26.5 8.8-26.5s-11.4 16.4-13.6 25.1c1.6.5 3.2.9 4.8 1.4z"/><path class="st13" d="M193.5 117.4l28.1 6.2-9.3-18.7-13 1.1zM193.5 117.4l-28.1 6.2 9.3-18.7 13 1.1z"/><path class="st2" d="M180.6 106c0 6.3 12.9 11.4 12.9 11.4s12.9-5.1 12.9-11.4h-25.8z"/><path class="st14" d="M230.3 2.1c-10.6 3.3-35.6-.6-49.7-.6-13.6 0-21.7 8.4-21.1 18.4-19.9 2.1-20.9 18.4-19.1 36.4 2.9 29.1 20.4 48.2 54.4 48.2 34.1 0 51.5-18.3 54.4-48.2 1.6-16 3.3-28.1-7.6-39.1C233.4 9 223.4 10.7 221 9c2.1-.6 7-2.5 9.3-6.9z"/><path class="st2" d="M145.8 59.9c-4 .4-7 2.1-7 5.9 0 3.8 3.3 8.5 7.4 9.6-.6-2.7-1.1-5.5-1.1-8.3 0-2.5.2-4.9.7-7.2zm98 0c.4 2.3.7 4.7.7 7.1 0 2.8-.5 5.6-1.1 8.3 4.1-1.1 7.4-5.8 7.4-9.6 0-3.7-3-5.4-7-5.8z"/><path class="st4" d="M244.3 64c-7.2-8.4-37.1-9-49.4-18.9 0 2.1 2.5 4.6 4.7 5.7-17 .2-35.7-8.9-42.1-16.6 0 0-8.7 7.1-11.7 25.6-.4 2.3-.6 4.6-.6 7 0 24.2 22.2 43.7 49.7 43.7 27.4 0 49.7-19.6 49.7-43.7-.2-.9-.2-1.8-.3-2.8z"/><ellipse class="st5" cx="170.2" cy="66.8" rx="9.9" ry="8.7"/><ellipse cx="170.2" cy="66.8" rx="6.3" ry="5.6"/><ellipse class="st5" cx="174.3" cy="63.1" rx="3.3" ry="2.9"/><ellipse class="st5" cx="219.3" cy="66.8" rx="9.9" ry="8.7"/><ellipse cx="219.3" cy="66.8" rx="6.3" ry="5.6"/><ellipse class="st5" cx="223.5" cy="63.1" rx="3.3" ry="2.9"/><path class="st6" d="M183.8 79.6c2.9-6.6 18.2-5.9 22.2-2.9-7.7-1.2-19 .7-22.2 2.9z"/><path class="st7" d="M208.5 88.5c0 7-6.4 10.9-14.2 10.9-7.9 0-14.2-3.9-14.2-10.9 0 0 5-1.4 14.2-1.4s14.2 1.4 14.2 1.4z"/><path class="st5" d="M194.3 87.1c-9.2 0-14.2 1.4-14.2 1.4v.9c.7 1.1 2.3 1.6 3.8 1.7 1.4.1 2.5.6 3.2-.3.6 1.3 2 1.1 3.7 1.1 1.5 0 2.8.3 3.5-.7.7 1.1 2 .7 3.5.7 1.7 0 3.1.2 3.7-1.1.7.9 1.9.3 3.2.3 1.5 0 3.1-.7 3.8-1.7v-.9s-5-1.4-14.2-1.4z"/><path class="st8" d="M189.3 98.8c1.7.4 3.8.6 5.8.6 5.5 0 10.6-2.6 12.7-7-6.4.2-14.8 2.8-18.5 6.4z"/><path d="M240 62.4c-1.3-.9-2.9-1.7-4.1-2.7-1.3-1.2-3-1.9-5.1-2.2-7.3-1.2-14.8-1.8-22.3-1.1-3.8.3-7.5 1-10 3.2-1.4 1.2-3 1.8-5.4 1.7-1.8-.1-3.2-.3-4.3-1.3-1.8-1.6-4.2-2.6-7-3.1-3.2-.6-6.5-.8-10.4-.8-1.6.1-3.8.1-5.9.3-3.5.4-7 .8-10.4 1.3-1.7.2-3 .9-4.1 1.9-1 .9-2.3 1.8-3.7 2.5-1.3.6-1.8 1.4-1.7 2.4.1.5-.1.9.1 1.4.1.2.5.6.8.6 1.1 0 1.4.5 1.5 1.1.5 2.1 1.2 4.1 2.6 6 2.2 3 5.6 5.1 10.9 5.3 2.4.1 4.8.1 7.2.1 3.5-.1 7.1-.5 10.3-1.4 1-.3 2.1-.7 2.9-1.2 3.4-2.3 5.6-5.1 6.9-8.2.4-1 .9-1.9 1.4-2.9.5-1 1.7-1.3 3.2-1.2 1.5 0 2.6.3 3.1 1.2.4.7.7 1.4 1.1 2.1 1.3 3 3 5.8 6.2 8.2 1.5 1.2 3.4 1.9 5.6 2.4 5.5 1.1 11.2 1.3 16.8.8 4.1-.3 7-1.9 9.1-4.2 2-2.2 2.9-4.6 3.5-7 .2-.7.4-1.1 1.5-1.1.3 0 .7-.3.7-.5.1-.8.2-1.6 0-2.4 0-.4-.5-.9-1-1.2zm-52.2 1.8c-.5 3.8-2.4 7.2-6 10.1-2.6 2.1-6.3 3.1-10.3 3.5-2 .2-4.1.3-6.6.4-1.7-.2-3.9-.3-6.1-.6-2.1-.3-4-1-5.1-2.3-3.5-3.8-5-8-3.6-12.5.7-2.3 2.7-3.8 6-4.5 3.4-.8 6.9-1.1 10.4-1.2 4.4-.2 8.9-.2 13.2.5.9.1 1.7.3 2.6.6 4.1 1.2 5.8 3 5.5 6zm45.9 10.5c-1.7 2.1-4.6 2.9-7.9 3.2-1.4.1-2.9.1-4.3.2v.1c-2.7-.2-5.4-.4-8-.7-4.6-.6-8.1-2.4-10.5-5.2-2.1-2.4-3.5-5.1-3.9-7.9-.4-3.3 1.3-5.3 6-6.4 2.3-.5 4.7-.8 7.1-.9 5.7-.3 11.4-.1 17.1.9 4.7.8 7.3 2.7 7.9 5.9.5 3.9-.8 7.5-3.5 10.8z"/><path class="st14" d="M244.3 64c-5.1 25.1-19.3 46-50.3 46-31 0-43.7-20.9-48.8-46-.1 1.1-.1 2.2-.1 3.4 0 27.6 9.8 65.1 49.9 65.1 40.1 0 49.4-37.5 49.4-65.1 0-1.2 0-2.3-.1-3.4zM202.6 112.6h-17.1l1-7.7h15.1zM229.1 87.7c-3.1 4.8-12.6 7.4-22.6 5.8-13.6-2.2-15.6-11.5-15.6-11.5s6.9-4.5 15.1-3.2c10 1.6 12.2 9.3 23.1 8.9zM159 86.8c3.2 4.9 12.9 7.8 22.8 6.4 13.6-1.8 15.3-11.1 15.3-11.1s-7-4.7-15.2-3.6c-10 1.3-12 8.9-22.9 8.3z"/></svg>