<?xml version="1.0" encoding="utf-8"?>
<!-- Generator: Adobe Illustrator 18.0.0, SVG Export Plug-In . SVG Version: 6.00 Build 0)  -->
<!DOCTYPE svg PUBLIC "-//W3C//DTD SVG 1.1//EN" "http://www.w3.org/Graphics/SVG/1.1/DTD/svg11.dtd">
<svg version="1.1" id="Map_1_" xmlns="http://www.w3.org/2000/svg" xmlns:xlink="http://www.w3.org/1999/xlink" x="0px" y="0px"
	 viewBox="0 0 100 100" enable-background="new 0 0 100 100" xml:space="preserve">
<g id="Rectangle_90">
	<g>
		<path fill-rule="evenodd" clip-rule="evenodd" fill="#C9D5DF" d="M96.5,1.4L65.2,7.8L36.2,0.7c0,0-0.8-0.2-1.4,0
			c0,0-28.5,5.8-31.2,6.4C0.8,7.7,0,9.4,0,11.3V94c0,2,1.4,3.5,3.5,3.5s31.2-7.1,31.2-7.1c0.8-0.2,1.4,0,1.4,0l28.4,7.8
			c0.7,0.1,0.6,0,1.4,0c0,0,28.3-7.2,30.5-7.8c2.2-0.5,3.5-1.6,3.5-3.5v-82C100,3,98.4,1.4,96.5,1.4z"/>
	</g>
</g>
<g id="Rectangle_18">
	<g>
		<polygon fill-rule="evenodd" clip-rule="evenodd" fill="#4A8BC2" points="3.5,11.3 3.5,94 35.5,87 35.5,4.2 		"/>
	</g>
</g>
<g id="Rectangle_18_copy_2">
	<g>
		<polygon fill-rule="evenodd" clip-rule="evenodd" fill="#4A8BC2" points="65.2,11.3 65.2,94 96.5,87 96.5,4.9 		"/>
	</g>
</g>
<g id="Rectangle_18_copy">
	<g>
		<polygon fill-rule="evenodd" clip-rule="evenodd" fill="#3B81BC" points="35.5,4.2 35.5,87 65.2,94 65.2,11.3 		"/>
	</g>
</g>
<g id="Shape_6">
	<g>
		<path fill-rule="evenodd" clip-rule="evenodd" fill="#6B9C3C" d="M57.7,41.5l-7.5,3.8l-9.4-7.5c0,0-1.3,1.4,1.9-7.5
			c0.3-0.9-7.5,0-7.5,0s-1.3-3.4-9.4-5.6C10.4,20.5,4.9,37.8,4.9,37.8l-1.3,1.8v9.9l3.2,3.3l9.4-1.9c0,0,4.1,0.9,5.7,1.9
			c1.6,0.9,5,3.8,7.5,5.6c2.5,1.9,6.3,0,7.5,0c1.3,0,6.6-5.3,9.4-5.6c2.8-0.3,10.1-4.7,11.3-5.6C58.9,46.2,57.7,41.5,57.7,41.5z"/>
	</g>
</g>
<g id="Shape_7">
	<g>
		<path fill-rule="evenodd" clip-rule="evenodd" fill="#6B9C3C" d="M88.7,58.7c-1.9,0.3-0.2-6.3-6.4-7.8c-9.9-2.4-13,2.2-13.3,5.7
			c-0.3,3.4,9.1,9.1,5.7,13.2c-3.5,4.1-2.8,9.1,0,13.2c2.8,4.1,9.4,0,9.4,0l12.4-5.8V62.2C96.5,62.2,90.5,58.4,88.7,58.7z"/>
	</g>
</g>
<g id="Shape_34">
	<g>
		<path fill-rule="evenodd" clip-rule="evenodd" fill="#EBEBEB" d="M53.4,33.6L49,37c-0.8,0.8-0.7,2,0.2,2.6h0
			c0.9,0.7,2.2,0.6,3-0.2l2.2-1.8c1-0.5,1.6-1.8,1.3-2.8C55.4,33.6,54.4,33.2,53.4,33.6z M33.5,34.9c-0.4-1-1.5-1.3-2.5-0.7
			c-0.9,0.6-1.3,2-0.9,3l1.2,3.1c0.2,1.1,1.2,1.8,2.3,1.7c1.1-0.2,1.8-1.2,1.6-2.3L33.5,34.9z M77.9,54c0,0,0.1-0.7,0.1-2
			c0-1.8-0.4-3.3-0.4-3.3c-0.3-1.1-1.3-1.7-2.4-1.3c-1,0.4-1.7,1.5-1.4,2.6c0,0,0.2,0.7,0.2,2.1c0,1,0,1.1,0,1.1
			c-0.2,1.1,0.5,2.2,1.6,2.4C76.6,55.8,77.7,55.1,77.9,54z M25.3,28.4L20,27.8c-1.1,0-1.8,1-1.6,2c0.2,1.1,1.3,1.9,2.4,1.9l3.1,0.4
			c1.1,0.3,2.3-0.4,2.7-1.4C26.9,29.7,26.4,28.7,25.3,28.4z M70.5,37.8c0,0-2.2-1.8-4.5-3c-0.4-0.2-0.4-0.2-0.4-0.2
			c-0.5-0.2-1.3,0.4-1.7,1.4c-0.5,1-0.5,2-0.1,2.2c0,0,0,0,0.4,0.2c2.1,1.1,3.7,2.5,3.7,2.5c0.9,0.7,2.2,0.6,2.9-0.2h0
			C71.4,39.7,71.3,38.5,70.5,37.8z M45.2,44.6L40,45.7c-1,0.4-1.4,1.5-0.9,2.4c0.6,1,1.9,1.4,2.9,1.1l3.1-0.6c1.1-0.1,2-1,2.1-2.1
			C47.2,45.4,46.3,44.5,45.2,44.6z M84.1,62.3c0,0-0.4-0.6-1.4-1.4c-1.3-1.2-2.7-2-2.7-2c-1-0.5-2.1-0.1-2.6,0.9
			c-0.4,1,0,2.3,0.9,2.8c0,0,0.6,0.3,1.6,1.3c0.8,0.7,0.8,0.8,0.8,0.8c0.7,0.9,2,1.1,2.9,0.4C84.6,64.4,84.8,63.2,84.1,62.3z"/>
	</g>
</g>
</svg>
